<?xml version="1.0" encoding="utf-8" standalone="no"?><!DOCTYPE svg PUBLIC "-//W3C//DTD SVG 1.1//EN" "http://www.w3.org/Graphics/SVG/1.1/DTD/svg11.dtd">
<svg preserveAspectRatio="xMinYMin meet" width="100%" height="100%" viewBox="0 0 525.000 393.750"  version="1.1" xmlns="http://www.w3.org/2000/svg" xmlns:xlink="http://www.w3.org/1999/xlink">
  <desc>Matlab Figure Converted by PLOT2SVG written by Juerg Schwizer</desc>
  <g id="topgroup">
  <rect x="0" y="0" width="525.000" height="393.750" fill="#ffffff" stroke="none" />
  <g id ="ID000000">
  <clipPath id="ID000001">
    <rect x="68.250" y="29.531" width="406.875" height="320.906"/>
  </clipPath>
      <polygon fill="#ffffff" fill-opacity="1.00" stroke="none" stroke-width="0.5pt" stroke-opacity="1.00" stroke-dasharray="none" points="68.250,350.438 475.125,350.438 475.125,29.531 68.250,29.531 "/>
      <polygon fill="#ffffff" fill-opacity="1.00" stroke="none" stroke-width="0.5pt" stroke-opacity="1.00" stroke-dasharray="none" points="68.250,29.531 475.125,29.531 475.125,29.531 68.250,29.531 "/>
      <polygon fill="#ffffff" fill-opacity="1.00" stroke="none" stroke-width="0.5pt" stroke-opacity="1.00" stroke-dasharray="none" points="68.250,350.438 68.250,350.437 68.250,29.531 68.250,29.531 "/>
    <g>
<g id="ID000002" clip-path="url(#ID000001)" >
      <polyline fill="none" stroke="#0000ff" stroke-width="0.5pt" stroke-dasharray="none" points="68.250,190.391 69.064,190.241 69.877,190.021 70.691,189.846 71.505,189.786 72.319,189.655 73.132,189.584 73.946,189.582 74.760,189.450 75.574,189.236 76.387,189.211 77.201,189.306 78.015,189.506 78.829,189.567 79.642,189.846 80.456,189.962 81.270,190.246 82.084,190.433 82.897,190.370 83.711,190.308 84.525,190.043 85.339,189.957 86.152,190.066 86.966,190.086 87.780,189.864 88.594,189.418 89.407,189.276 90.221,189.336 91.035,189.537 91.849,189.345 92.662,189.070 93.476,188.907 94.290,188.963 95.104,188.958 95.917,188.901 96.731,188.925 97.545,189.173 98.359,189.213 99.172,189.088 99.986,188.989 100.800,189.286 101.614,189.740 102.427,190.091 103.241,190.101 104.055,189.934 104.869,189.866 105.682,189.679 106.496,189.530 107.310,189.536 108.124,189.838 108.938,190.040 109.751,189.910 110.565,189.621 111.379,189.514 112.193,189.582 113.006,189.717 113.820,189.841 114.634,189.939 115.447,189.782 116.261,189.508 117.075,189.460 117.889,189.567 118.702,189.702 119.516,189.932 120.330,190.222 121.144,190.647 121.957,190.886 122.771,190.846 123.585,190.583 124.399,190.400 125.212,190.229 126.026,190.437 126.840,190.664 127.654,190.785 128.467,190.701 129.281,190.558 130.095,190.524 130.909,190.474 131.723,190.483 132.536,190.500 133.350,190.743 134.164,190.797 134.977,190.655 135.791,190.442 136.605,190.400 137.419,190.651 138.232,190.715 139.046,190.596 139.860,190.561 140.674,190.626 141.487,190.539 142.301,190.442 143.115,190.452 143.929,190.596 144.742,190.771 145.556,190.654 146.370,190.363 147.184,190.443 147.998,190.680 148.811,190.995 149.625,190.963 150.439,190.909 151.252,190.970 152.066,190.918 152.880,190.980 153.694,190.859 154.507,190.830 155.321,190.598 156.135,190.581 156.949,190.422 157.762,190.491 158.576,190.621 159.390,190.985 160.204,191.048 161.017,190.920 161.831,190.723 162.645,190.665 163.459,190.555 164.272,190.469 165.086,190.256 165.900,190.343 166.714,190.355 167.527,190.507 168.341,190.327 169.155,190.195 169.969,190.021 170.783,189.945 171.596,189.903 172.410,189.983 173.224,189.938 174.037,189.798 174.851,189.512 175.665,189.562 176.479,189.828 177.292,190.061 178.106,190.125 178.920,189.945 179.734,189.673 180.547,189.502 181.361,189.526 182.175,189.768 182.989,189.946 183.802,190.233 184.616,190.307 185.430,190.211 186.244,190.042 187.057,190.051 187.871,190.223 188.685,190.241 189.499,189.976 190.312,189.761 191.126,189.534 191.940,189.451 192.754,189.246 193.568,189.097 194.381,189.322 195.195,189.681 196.009,189.911 196.823,189.786 197.636,189.735 198.450,189.572 199.264,189.322 200.077,189.206 200.891,189.314 201.705,189.478 202.519,189.533 203.332,189.669 204.146,189.756 204.960,189.739 205.774,189.727 206.587,189.785 207.401,189.767 208.215,189.572 209.029,189.552 209.843,189.841 210.656,190.309 211.470,190.501 212.284,190.527 213.098,190.262 213.911,189.778 214.725,189.616 215.539,189.566 216.353,189.561 217.166,189.596 217.980,189.780 218.794,189.768 219.607,189.857 220.421,189.914 221.235,190.205 222.049,190.524 222.862,190.569 223.676,190.512 224.490,190.453 225.304,190.540 226.117,190.674 226.931,190.854 227.745,190.739 228.559,190.688 229.373,190.536 230.186,190.324 231.000,190.122 231.814,190.020 232.627,190.076 233.441,190.148 234.255,190.237 235.069,190.073 235.882,189.766 236.696,189.692 237.510,189.846 238.324,189.896 239.137,189.923 239.951,190.004 240.765,190.028 241.579,189.992 242.392,189.705 243.206,189.582 244.020,189.581 244.834,189.774 245.647,190.105 246.461,190.081 247.275,190.150 248.089,190.248 248.902,190.474 249.716,190.667 250.530,190.744 251.344,190.957 252.158,191.282 252.971,191.690 253.785,191.853 254.599,191.896 255.412,191.823 256.226,191.821 257.040,191.938 257.854,191.942 258.667,191.992 259.481,192.114 260.295,191.988 261.109,191.994 261.923,191.997 262.736,192.187 263.550,192.516 264.364,192.766 265.177,192.825 265.991,192.694 266.805,192.401 267.619,192.184 268.433,192.005 269.246,192.252 270.060,192.691 270.874,192.798 271.688,192.766 272.501,192.788 273.315,192.698 274.129,192.767 274.943,192.835 275.756,193.081 276.570,193.127 277.384,192.978 278.198,193.087 279.011,193.167 279.825,193.353 280.639,193.354 281.452,193.501 282.266,193.333 283.080,193.153 283.894,192.729 284.707,192.475 285.521,192.444 286.335,192.448 287.149,192.335 287.962,192.344 288.776,192.602 289.590,192.458 290.404,192.355 291.217,192.149 292.031,192.126 292.845,191.928 293.659,191.929 294.472,192.046 295.286,192.212 296.100,192.064 296.914,191.673 297.727,191.511 298.541,191.544 299.355,191.700 300.169,191.898 300.982,191.949 301.796,192.071 302.610,191.855 303.424,191.847 304.237,191.963 305.051,191.986 305.865,191.793 306.679,191.729 307.493,191.761 308.306,191.855 309.120,192.031 309.934,192.265 310.748,192.437 311.561,192.485 312.375,192.446 313.189,192.432 314.003,192.390 314.816,192.435 315.630,192.656 316.444,192.705 317.257,192.674 318.071,192.460 318.885,192.224 319.699,192.219 320.512,192.356 321.326,192.538 322.140,192.467 322.954,192.293 323.767,192.122 324.581,192.049 325.395,191.904 326.209,191.955 327.022,192.169 327.836,192.357 328.650,192.528 329.464,192.604 330.277,192.605 331.091,192.577 331.905,192.528 332.719,192.335 333.532,192.193 334.346,192.167 335.160,192.412 335.974,192.725 336.787,192.801 337.601,192.724 338.415,192.472 339.229,192.219 340.042,192.115 340.856,192.256 341.670,192.440 342.484,192.698 343.297,192.803 344.111,192.828 344.925,192.793 345.739,192.803 346.553,192.661 347.366,192.572 348.180,192.499 348.994,192.424 349.808,192.310 350.621,192.285 351.435,192.519 352.249,192.991 353.063,193.197 353.876,193.514 354.690,193.639 355.504,193.409 356.318,193.061 357.131,192.708 357.945,192.635 358.759,192.631 359.572,192.454 360.386,192.269 361.200,192.035 362.014,192.002 362.828,192.194 363.641,192.483 364.455,192.652 365.269,192.750 366.083,192.633 366.896,192.562 367.710,192.454 368.524,192.439 369.338,192.344 370.151,192.220 370.965,192.263 371.779,192.368 372.592,192.442 373.406,192.544 374.220,192.515 375.034,192.422 375.847,192.359 376.661,192.443 377.475,192.778 378.289,193.239 379.102,193.540 379.916,193.685 380.730,193.457 381.544,193.252 382.357,193.151 383.171,193.257 383.985,193.305 384.799,193.165 385.612,193.065 386.426,193.181 387.240,193.564 388.054,193.896 388.867,193.946 389.681,193.982 390.495,194.091 391.309,194.208 392.123,194.315 392.936,194.085 393.750,193.852 394.564,193.821 395.378,194.004 396.191,194.083 397.005,194.104 397.819,194.115 398.632,194.143 399.446,194.105 400.260,194.268 401.074,194.478 401.887,194.925 402.701,195.048 403.515,195.073 404.329,195.033 405.142,195.165 405.956,195.085 406.770,194.970 407.584,194.973 408.398,194.821 409.211,194.489 410.025,194.238 410.839,194.216 411.653,194.384 412.466,194.516 413.280,194.733 414.094,194.951 414.908,195.007 415.721,194.864 416.535,194.470 417.349,194.421 418.162,194.524 418.976,194.805 419.790,194.937 420.604,194.805 421.417,194.697 422.231,194.517 423.045,194.517 423.859,194.616 424.673,194.804 425.486,194.689 426.300,194.408 427.114,194.127 427.928,194.085 428.741,194.176 429.555,194.300 430.369,194.183 431.182,194.198 431.996,194.355 432.810,194.469 433.624,194.448 434.437,194.244 435.251,193.869 436.065,193.691 436.879,193.701 437.693,193.779 438.506,193.957 439.320,194.137 440.134,194.052 440.947,193.776 441.761,193.480 442.575,193.408 443.389,193.607 444.202,193.621 445.016,193.606 445.830,193.494 446.644,193.291 447.457,193.093 448.271,193.017 449.085,192.965 449.899,192.929 450.712,192.775 451.526,192.836 452.340,193.013 453.154,193.130 453.968,193.178 454.781,193.075 455.595,193.066 456.409,192.983 457.223,193.068 458.036,193.018 458.850,192.893 459.664,192.657 460.478,192.479 461.291,192.462 462.105,192.360 462.919,192.273 463.732,192.054 464.546,191.961 465.360,191.992 466.174,192.170 466.987,192.199 467.801,192.361 468.615,192.413 469.429,192.318 470.243,192.213 471.056,192.241 471.870,192.143 472.684,192.064 473.498,191.833 474.311,191.815 475.125,191.898 "/>
<g>
</g>
</g>
<g id="ID000003" clip-path="url(#ID000001)" >
      <polyline fill="none" stroke="#0000ff" stroke-width="0.5pt" stroke-dasharray="8.0,2.0" points="68.250,194.682 69.064,194.530 69.877,194.309 70.691,194.128 71.505,194.074 72.319,193.952 73.132,193.871 73.946,193.851 74.760,193.692 75.574,193.451 76.387,193.437 77.201,193.552 78.015,193.792 78.829,193.870 79.642,194.138 80.456,194.228 81.270,194.474 82.084,194.644 82.897,194.596 83.711,194.567 84.525,194.309 85.339,194.216 86.152,194.321 86.966,194.338 87.780,194.121 88.594,193.691 89.407,193.576 90.221,193.660 91.035,193.863 91.849,193.664 92.662,193.380 93.476,193.217 94.290,193.261 95.104,193.219 95.917,193.133 96.731,193.149 97.545,193.401 98.359,193.486 99.172,193.402 99.986,193.326 100.800,193.613 101.614,194.029 102.427,194.372 103.241,194.386 104.055,194.232 104.869,194.160 105.682,193.983 106.496,193.850 107.310,193.869 108.124,194.152 108.938,194.343 109.751,194.213 110.565,193.928 111.379,193.835 112.193,193.927 113.006,194.070 113.820,194.166 114.634,194.224 115.447,194.052 116.261,193.790 117.075,193.751 117.889,193.873 118.702,194.018 119.516,194.263 120.330,194.552 121.144,194.971 121.957,195.206 122.771,195.167 123.585,194.906 124.399,194.750 125.212,194.597 126.026,194.793 126.840,195.013 127.654,195.144 128.467,195.064 129.281,194.913 130.095,194.867 130.909,194.837 131.723,194.864 132.536,194.887 133.350,195.128 134.164,195.179 134.977,195.001 135.791,194.760 136.605,194.722 137.419,194.976 138.232,195.048 139.046,194.935 139.860,194.927 140.674,195.018 141.487,194.967 142.301,194.893 143.115,194.904 143.929,195.031 144.742,195.203 145.556,195.078 146.370,194.785 147.184,194.851 147.998,195.073 148.811,195.381 149.625,195.351 150.439,195.312 151.252,195.391 152.066,195.353 152.880,195.401 153.694,195.273 154.507,195.233 155.321,194.998 156.135,194.970 156.949,194.802 157.762,194.868 158.576,194.996 159.390,195.354 160.204,195.437 161.017,195.359 161.831,195.197 162.645,195.137 163.459,195.005 164.272,194.924 165.086,194.715 165.900,194.786 166.714,194.796 167.527,194.963 168.341,194.824 169.155,194.708 169.969,194.547 170.783,194.486 171.596,194.461 172.410,194.539 173.224,194.469 174.037,194.343 174.851,194.064 175.665,194.122 176.479,194.355 177.292,194.574 178.106,194.642 178.920,194.479 179.734,194.199 180.547,193.995 181.361,193.987 182.175,194.226 182.989,194.423 183.802,194.740 184.616,194.848 185.430,194.774 186.244,194.603 187.057,194.614 187.871,194.794 188.685,194.825 189.499,194.553 190.312,194.302 191.126,194.050 191.940,193.934 192.754,193.708 193.568,193.536 194.381,193.802 195.195,194.200 196.009,194.457 196.823,194.336 197.636,194.306 198.450,194.163 199.264,193.913 200.077,193.801 200.891,193.899 201.705,194.066 202.519,194.100 203.332,194.207 204.146,194.259 204.960,194.241 205.774,194.249 206.587,194.327 207.401,194.310 208.215,194.128 209.029,194.100 209.843,194.375 210.656,194.825 211.470,195.002 212.284,195.035 213.098,194.781 213.911,194.321 214.725,194.164 215.539,194.119 216.353,194.108 217.166,194.131 217.980,194.300 218.794,194.299 219.607,194.403 220.421,194.460 221.235,194.738 222.049,195.032 222.862,195.067 223.676,194.995 224.490,194.913 225.304,195.002 226.117,195.145 226.931,195.340 227.745,195.221 228.559,195.154 229.373,194.980 230.186,194.777 231.000,194.584 231.814,194.482 232.627,194.518 233.441,194.586 234.255,194.679 235.069,194.519 235.882,194.229 236.696,194.170 237.510,194.327 238.324,194.355 239.137,194.348 239.951,194.408 240.765,194.427 241.579,194.385 242.392,194.086 243.206,193.952 244.020,193.943 244.834,194.123 245.647,194.464 246.461,194.428 247.275,194.489 248.089,194.588 248.902,194.801 249.716,195.002 250.530,195.072 251.344,195.263 252.158,195.585 252.971,196.014 253.785,196.203 254.599,196.255 255.412,196.193 256.226,196.188 257.040,196.319 257.854,196.304 258.667,196.315 259.481,196.409 260.295,196.276 261.109,196.314 261.923,196.318 262.736,196.512 263.550,196.850 264.364,197.099 265.177,197.151 265.991,197.004 266.805,196.710 267.619,196.500 268.433,196.331 269.246,196.588 270.060,197.023 270.874,197.140 271.688,197.102 272.501,197.135 273.315,197.050 274.129,197.107 274.943,197.161 275.756,197.370 276.570,197.421 277.384,197.286 278.198,197.421 279.011,197.514 279.825,197.698 280.639,197.692 281.452,197.821 282.266,197.646 283.080,197.448 283.894,197.020 284.707,196.756 285.521,196.730 286.335,196.739 287.149,196.608 287.962,196.616 288.776,196.875 289.590,196.732 290.404,196.637 291.217,196.411 292.031,196.358 292.845,196.183 293.659,196.230 294.472,196.363 295.286,196.505 296.100,196.326 296.914,195.939 297.727,195.814 298.541,195.873 299.355,196.054 300.169,196.245 300.982,196.303 301.796,196.445 302.610,196.212 303.424,196.193 304.237,196.305 305.051,196.347 305.865,196.134 306.679,196.032 307.493,196.021 308.306,196.101 309.120,196.270 309.934,196.541 310.748,196.748 311.561,196.825 312.375,196.785 313.189,196.754 314.003,196.719 314.816,196.775 315.630,197.017 316.444,197.067 317.257,197.024 318.071,196.785 318.885,196.505 319.699,196.487 320.512,196.620 321.326,196.831 322.140,196.766 322.954,196.600 323.767,196.432 324.581,196.360 325.395,196.225 326.209,196.275 327.022,196.499 327.836,196.689 328.650,196.855 329.464,196.918 330.277,196.893 331.091,196.863 331.905,196.804 332.719,196.603 333.532,196.435 334.346,196.378 335.160,196.590 335.974,196.896 336.787,196.989 337.601,196.956 338.415,196.738 339.229,196.502 340.042,196.381 340.856,196.493 341.670,196.657 342.484,196.895 343.297,196.993 344.111,197.037 344.925,197.038 345.739,197.069 346.553,196.947 347.366,196.867 348.180,196.800 348.994,196.724 349.808,196.599 350.621,196.569 351.435,196.788 352.249,197.226 353.063,197.413 353.876,197.735 354.690,197.876 355.504,197.650 356.318,197.298 357.131,196.925 357.945,196.855 358.759,196.856 359.572,196.667 360.386,196.480 361.200,196.255 362.014,196.246 362.828,196.442 363.641,196.718 364.455,196.888 365.269,197.004 366.083,196.898 366.896,196.828 367.710,196.709 368.524,196.683 369.338,196.587 370.151,196.455 370.965,196.490 371.779,196.610 372.592,196.722 373.406,196.857 374.220,196.826 375.034,196.717 375.847,196.630 376.661,196.706 377.475,197.033 378.289,197.497 379.102,197.811 379.916,197.966 380.730,197.729 381.544,197.523 382.357,197.434 383.171,197.572 383.985,197.612 384.799,197.458 385.612,197.359 386.426,197.496 387.240,197.879 388.054,198.215 388.867,198.283 389.681,198.344 390.495,198.457 391.309,198.548 392.123,198.641 392.936,198.410 393.750,198.208 394.564,198.193 395.378,198.407 396.191,198.500 397.005,198.510 397.819,198.501 398.632,198.496 399.446,198.453 400.260,198.589 401.074,198.766 401.887,199.195 402.701,199.352 403.515,199.399 404.329,199.385 405.142,199.508 405.956,199.413 406.770,199.269 407.584,199.234 408.398,199.068 409.211,198.729 410.025,198.490 410.839,198.479 411.653,198.656 412.466,198.802 413.280,199.016 414.094,199.229 414.908,199.287 415.721,199.130 416.535,198.735 417.349,198.684 418.162,198.800 418.976,199.063 419.790,199.171 420.604,199.001 421.417,198.883 422.231,198.697 423.045,198.697 423.859,198.804 424.673,199.008 425.486,198.894 426.300,198.603 427.114,198.328 427.928,198.298 428.741,198.396 429.555,198.512 430.369,198.385 431.182,198.397 431.996,198.532 432.810,198.627 433.624,198.599 434.437,198.408 435.251,198.045 436.065,197.861 436.879,197.856 437.693,197.939 438.506,198.103 439.320,198.263 440.134,198.150 440.947,197.881 441.761,197.588 442.575,197.552 443.389,197.758 444.202,197.782 445.016,197.755 445.830,197.611 446.644,197.395 447.457,197.177 448.271,197.099 449.085,197.042 449.899,197.020 450.712,196.875 451.526,196.925 452.340,197.075 453.154,197.162 453.968,197.225 454.781,197.148 455.595,197.145 456.409,197.070 457.223,197.155 458.036,197.108 458.850,196.964 459.664,196.730 460.478,196.557 461.291,196.564 462.105,196.479 462.919,196.383 463.732,196.145 464.546,196.023 465.360,196.038 466.174,196.228 466.987,196.263 467.801,196.457 468.615,196.520 469.429,196.442 470.243,196.331 471.056,196.353 471.870,196.262 472.684,196.184 473.498,195.940 474.311,195.894 475.125,195.967 "/>
<g>
</g>
</g>
<g id="ID000004" clip-path="url(#ID000001)" >
      <polyline fill="none" stroke="#0000ff" stroke-width="0.5pt" stroke-dasharray="8.0,2.0" points="68.250,186.099 69.064,185.952 69.877,185.732 70.691,185.563 71.505,185.498 72.319,185.359 73.132,185.296 73.946,185.313 74.760,185.207 75.574,185.021 76.387,184.986 77.201,185.061 78.015,185.220 78.829,185.264 79.642,185.555 80.456,185.696 81.270,186.018 82.084,186.222 82.897,186.144 83.711,186.049 84.525,185.777 85.339,185.699 86.152,185.812 86.966,185.834 87.780,185.607 88.594,185.146 89.407,184.976 90.221,185.013 91.035,185.210 91.849,185.026 92.662,184.759 93.476,184.598 94.290,184.665 95.104,184.698 95.917,184.670 96.731,184.702 97.545,184.944 98.359,184.940 99.172,184.773 99.986,184.652 100.800,184.959 101.614,185.451 102.427,185.810 103.241,185.816 104.055,185.637 104.869,185.571 105.682,185.374 106.496,185.210 107.310,185.203 108.124,185.524 108.938,185.737 109.751,185.608 110.565,185.313 111.379,185.193 112.193,185.237 113.006,185.364 113.820,185.515 114.634,185.653 115.447,185.513 116.261,185.226 117.075,185.169 117.889,185.261 118.702,185.385 119.516,185.602 120.330,185.892 121.144,186.324 121.957,186.567 122.771,186.525 123.585,186.261 124.399,186.050 125.212,185.862 126.026,186.081 126.840,186.314 127.654,186.426 128.467,186.337 129.281,186.203 130.095,186.181 130.909,186.111 131.723,186.102 132.536,186.114 133.350,186.358 134.164,186.415 134.977,186.308 135.791,186.124 136.605,186.078 137.419,186.326 138.232,186.383 139.046,186.256 139.860,186.195 140.674,186.233 141.487,186.112 142.301,185.990 143.115,186.001 143.929,186.162 144.742,186.340 145.556,186.229 146.370,185.941 147.184,186.034 147.998,186.287 148.811,186.610 149.625,186.574 150.439,186.505 151.252,186.550 152.066,186.484 152.880,186.559 153.694,186.446 154.507,186.428 155.321,186.199 156.135,186.191 156.949,186.041 157.762,186.114 158.576,186.247 159.390,186.617 160.204,186.659 161.017,186.482 161.831,186.248 162.645,186.194 163.459,186.105 164.272,186.014 165.086,185.797 165.900,185.900 166.714,185.915 167.527,186.050 168.341,185.829 169.155,185.682 169.969,185.496 170.783,185.404 171.596,185.344 172.410,185.426 173.224,185.406 174.037,185.253 174.851,184.961 175.665,185.003 176.479,185.301 177.292,185.549 178.106,185.607 178.920,185.412 179.734,185.148 180.547,185.009 181.361,185.066 182.175,185.310 182.989,185.469 183.802,185.726 184.616,185.766 185.430,185.649 186.244,185.481 187.057,185.488 187.871,185.651 188.685,185.656 189.499,185.399 190.312,185.220 191.126,185.019 191.940,184.967 192.754,184.784 193.568,184.657 194.381,184.842 195.195,185.163 196.009,185.365 196.823,185.236 197.636,185.164 198.450,184.982 199.264,184.731 200.077,184.611 200.891,184.729 201.705,184.889 202.519,184.966 203.332,185.132 204.146,185.253 204.960,185.236 205.774,185.205 206.587,185.243 207.401,185.223 208.215,185.016 209.029,185.003 209.843,185.306 210.656,185.793 211.470,185.999 212.284,186.019 213.098,185.744 213.911,185.235 214.725,185.069 215.539,185.013 216.353,185.013 217.166,185.061 217.980,185.261 218.794,185.237 219.607,185.312 220.421,185.369 221.235,185.672 222.049,186.017 222.862,186.071 223.676,186.030 224.490,185.992 225.304,186.077 226.117,186.203 226.931,186.368 227.745,186.257 228.559,186.223 229.373,186.091 230.186,185.872 231.000,185.660 231.814,185.558 232.627,185.634 233.441,185.711 234.255,185.795 235.069,185.626 235.882,185.303 236.696,185.214 237.510,185.364 238.324,185.437 239.137,185.498 239.951,185.600 240.765,185.630 241.579,185.599 242.392,185.324 243.206,185.212 244.020,185.218 244.834,185.426 245.647,185.746 246.461,185.735 247.275,185.811 248.089,185.907 248.902,186.148 249.716,186.331 250.530,186.417 251.344,186.651 252.158,186.979 252.971,187.367 253.785,187.504 254.599,187.537 255.412,187.453 256.226,187.454 257.040,187.557 257.854,187.580 258.667,187.669 259.481,187.819 260.295,187.700 261.109,187.674 261.923,187.677 262.736,187.862 263.550,188.182 264.364,188.433 265.177,188.499 265.991,188.384 266.805,188.093 267.619,187.867 268.433,187.678 269.246,187.916 270.060,188.359 270.874,188.455 271.688,188.430 272.501,188.442 273.315,188.346 274.129,188.427 274.943,188.508 275.756,188.792 276.570,188.833 277.384,188.670 278.198,188.752 279.011,188.820 279.825,189.008 280.639,189.015 281.452,189.180 282.266,189.019 283.080,188.858 283.894,188.438 284.707,188.193 285.521,188.158 286.335,188.158 287.149,188.063 287.962,188.073 288.776,188.329 289.590,188.184 290.404,188.073 291.217,187.888 292.031,187.894 292.845,187.674 293.659,187.627 294.472,187.729 295.286,187.919 296.100,187.801 296.914,187.407 297.727,187.207 298.541,187.215 299.355,187.346 300.169,187.551 300.982,187.594 301.796,187.696 302.610,187.498 303.424,187.501 304.237,187.621 305.051,187.626 305.865,187.452 306.679,187.425 307.493,187.500 308.306,187.610 309.120,187.793 309.934,187.988 310.748,188.126 311.561,188.144 312.375,188.107 313.189,188.111 314.003,188.061 314.816,188.094 315.630,188.295 316.444,188.343 317.257,188.324 318.071,188.135 318.885,187.942 319.699,187.951 320.512,188.092 321.326,188.245 322.140,188.169 322.954,187.985 323.767,187.811 324.581,187.738 325.395,187.583 326.209,187.635 327.022,187.839 327.836,188.025 328.650,188.201 329.464,188.290 330.277,188.317 331.091,188.291 331.905,188.252 332.719,188.068 333.532,187.951 334.346,187.956 335.160,188.233 335.974,188.555 336.787,188.614 337.601,188.492 338.415,188.205 339.229,187.936 340.042,187.850 340.856,188.019 341.670,188.223 342.484,188.501 343.297,188.613 344.111,188.618 344.925,188.549 345.739,188.537 346.553,188.376 347.366,188.277 348.180,188.198 348.994,188.123 349.808,188.020 350.621,188.002 351.435,188.251 352.249,188.757 353.063,188.980 353.876,189.294 354.690,189.402 355.504,189.168 356.318,188.825 357.131,188.490 357.945,188.415 358.759,188.406 359.572,188.240 360.386,188.057 361.200,187.815 362.014,187.757 362.828,187.946 363.641,188.248 364.455,188.416 365.269,188.497 366.083,188.367 366.896,188.295 367.710,188.200 368.524,188.195 369.338,188.100 370.151,187.985 370.965,188.036 371.779,188.125 372.592,188.161 373.406,188.231 374.220,188.205 375.034,188.128 375.847,188.088 376.661,188.180 377.475,188.522 378.289,188.981 379.102,189.269 379.916,189.403 380.730,189.184 381.544,188.980 382.357,188.869 383.171,188.943 383.985,188.999 384.799,188.871 385.612,188.771 386.426,188.866 387.240,189.249 388.054,189.576 388.867,189.610 389.681,189.620 390.495,189.725 391.309,189.867 392.123,189.989 392.936,189.759 393.750,189.496 394.564,189.450 395.378,189.602 396.191,189.667 397.005,189.699 397.819,189.728 398.632,189.789 399.446,189.757 400.260,189.947 401.074,190.190 401.887,190.654 402.701,190.744 403.515,190.747 404.329,190.681 405.142,190.821 405.956,190.758 406.770,190.671 407.584,190.712 408.398,190.574 409.211,190.250 410.025,189.987 410.839,189.953 411.653,190.111 412.466,190.230 413.280,190.450 414.094,190.673 414.908,190.727 415.721,190.597 416.535,190.204 417.349,190.158 418.162,190.247 418.976,190.547 419.790,190.702 420.604,190.608 421.417,190.510 422.231,190.337 423.045,190.337 423.859,190.427 424.673,190.600 425.486,190.484 426.300,190.213 427.114,189.926 427.928,189.872 428.741,189.956 429.555,190.089 430.369,189.982 431.182,189.999 431.996,190.178 432.810,190.311 433.624,190.298 434.437,190.079 435.251,189.694 436.065,189.520 436.879,189.545 437.693,189.620 438.506,189.810 439.320,190.012 440.134,189.954 440.947,189.671 441.761,189.373 442.575,189.264 443.389,189.456 444.202,189.460 445.016,189.456 445.830,189.378 446.644,189.187 447.457,189.010 448.271,188.936 449.085,188.888 449.899,188.837 450.712,188.676 451.526,188.747 452.340,188.950 453.154,189.098 453.968,189.132 454.781,189.002 455.595,188.987 456.409,188.895 457.223,188.981 458.036,188.929 458.850,188.823 459.664,188.583 460.478,188.402 461.291,188.360 462.105,188.240 462.919,188.163 463.732,187.963 464.546,187.898 465.360,187.947 466.174,188.112 466.987,188.135 467.801,188.265 468.615,188.307 469.429,188.194 470.243,188.094 471.056,188.129 471.870,188.025 472.684,187.945 473.498,187.726 474.311,187.736 475.125,187.829 "/>
<g>
</g>
</g>
<g id="ID000005" clip-path="url(#ID000001)" >
      <polyline fill="none" stroke="#007f00" stroke-width="0.5pt" stroke-dasharray="none" points="68.250,189.948 69.064,189.870 69.877,189.769 70.691,189.604 71.505,189.610 72.319,189.664 73.132,189.561 73.946,189.469 74.760,189.616 75.574,189.910 76.387,190.034 77.201,189.941 78.015,189.653 78.829,189.501 79.642,189.501 80.456,189.487 81.270,189.664 82.084,189.552 82.897,189.583 83.711,189.431 84.525,189.466 85.339,189.522 86.152,189.599 86.966,189.469 87.780,189.239 88.594,189.115 89.407,189.226 90.221,189.309 91.035,189.440 91.849,189.693 92.662,189.782 93.476,189.706 94.290,189.493 95.104,189.347 95.917,189.222 96.731,189.264 97.545,189.251 98.359,189.288 99.172,189.408 99.986,189.583 100.800,189.837 101.614,190.079 102.427,190.272 103.241,190.017 104.055,189.682 104.869,189.579 105.682,189.762 106.496,189.873 107.310,189.680 108.124,189.368 108.938,189.259 109.751,189.412 110.565,189.593 111.379,189.589 112.193,189.403 113.006,189.227 113.820,189.252 114.634,189.335 115.447,189.594 116.261,189.586 117.075,189.770 117.889,190.009 118.702,190.235 119.516,190.283 120.330,190.097 121.144,189.989 121.957,190.052 122.771,190.208 123.585,190.437 124.399,190.489 125.212,190.361 126.026,190.105 126.840,190.203 127.654,190.431 128.467,190.702 129.281,190.775 130.095,190.828 130.909,190.738 131.723,190.615 132.536,190.552 133.350,190.606 134.164,190.900 134.977,191.163 135.791,191.146 136.605,191.080 137.419,191.031 138.232,190.953 139.046,190.950 139.860,190.913 140.674,191.011 141.487,190.904 142.301,190.736 143.115,190.510 143.929,190.517 144.742,190.571 145.556,190.511 146.370,190.559 147.184,190.874 147.998,191.112 148.811,191.328 149.625,191.396 150.439,191.376 151.252,191.039 152.066,190.610 152.880,190.615 153.694,190.945 154.507,191.387 155.321,191.504 156.135,191.578 156.949,191.647 157.762,191.772 158.576,191.584 159.390,191.558 160.204,191.678 161.017,191.773 161.831,191.601 162.645,191.571 163.459,191.508 164.272,191.351 165.086,191.400 165.900,191.508 166.714,191.805 167.527,192.091 168.341,192.223 169.155,192.204 169.969,191.928 170.783,191.874 171.596,192.168 172.410,192.503 173.224,192.622 174.037,192.559 174.851,192.474 175.665,192.565 176.479,192.577 177.292,192.511 178.106,192.324 178.920,192.519 179.734,192.748 180.547,192.809 181.361,192.624 182.175,192.373 182.989,192.455 183.802,192.360 184.616,192.359 185.430,192.386 186.244,192.754 187.057,193.014 187.871,192.914 188.685,192.634 189.499,192.409 190.312,192.269 191.126,192.163 191.940,192.089 192.754,192.321 193.568,192.436 194.381,192.458 195.195,192.410 196.009,192.389 196.823,192.225 197.636,192.197 198.450,192.094 199.264,192.330 200.077,192.422 200.891,192.478 201.705,192.556 202.519,192.719 203.332,192.824 204.146,192.693 204.960,192.657 205.774,192.685 206.587,192.729 207.401,192.906 208.215,192.892 209.029,192.798 209.843,192.624 210.656,192.571 211.470,192.448 212.284,192.450 213.098,192.394 213.911,192.583 214.725,192.802 215.539,192.956 216.353,192.987 217.166,193.078 217.980,193.028 218.794,192.955 219.607,193.026 220.421,193.180 221.235,193.251 222.049,193.205 222.862,193.294 223.676,193.407 224.490,193.471 225.304,193.380 226.117,193.384 226.931,193.335 227.745,193.343 228.559,193.334 229.373,193.372 230.186,193.442 231.000,193.397 231.814,193.493 232.627,193.382 233.441,193.222 234.255,193.012 235.069,193.026 235.882,192.903 236.696,192.666 237.510,192.329 238.324,191.965 239.137,191.668 239.951,191.570 240.765,191.650 241.579,191.853 242.392,191.930 243.206,191.963 244.020,191.995 244.834,192.210 245.647,192.294 246.461,192.332 247.275,192.159 248.089,191.960 248.902,191.923 249.716,191.916 250.530,192.008 251.344,192.236 252.158,192.420 252.971,192.548 253.785,192.680 254.599,192.840 255.412,192.976 256.226,192.813 257.040,192.563 257.854,192.298 258.667,192.272 259.481,192.446 260.295,192.838 261.109,193.113 261.923,193.095 262.736,193.011 263.550,192.750 264.364,192.609 265.177,192.451 265.991,192.551 266.805,192.553 267.619,192.546 268.433,192.516 269.246,192.649 270.060,192.779 270.874,192.870 271.688,192.934 272.501,192.760 273.315,192.616 274.129,192.570 274.943,192.728 275.756,192.857 276.570,192.886 277.384,192.829 278.198,192.930 279.011,192.974 279.825,192.989 280.639,192.866 281.452,192.651 282.266,192.779 283.080,192.884 283.894,193.076 284.707,193.130 285.521,192.986 286.335,192.833 287.149,192.706 287.962,193.121 288.776,193.574 289.590,193.893 290.404,193.927 291.217,193.921 292.031,193.602 292.845,193.255 293.659,192.860 294.472,192.717 295.286,192.726 296.100,192.694 296.914,192.673 297.727,192.630 298.541,192.412 299.355,192.350 300.169,192.463 300.982,192.522 301.796,192.601 302.610,192.526 303.424,192.558 304.237,192.725 305.051,192.928 305.865,193.208 306.679,193.286 307.493,193.283 308.306,193.031 309.120,192.914 309.934,192.836 310.748,192.910 311.561,192.992 312.375,193.013 313.189,193.247 314.003,193.601 314.816,193.976 315.630,194.114 316.444,193.874 317.257,193.732 318.071,193.558 318.885,193.532 319.699,193.429 320.512,193.286 321.326,193.256 322.140,193.290 322.954,193.326 323.767,193.417 324.581,193.565 325.395,193.957 326.209,194.197 327.022,194.225 327.836,194.085 328.650,194.031 329.464,194.108 330.277,194.137 331.091,193.973 331.905,193.970 332.719,194.097 333.532,194.478 334.346,194.527 335.160,194.326 335.974,194.079 336.787,193.960 337.601,193.883 338.415,193.704 339.229,193.578 340.042,193.620 340.856,193.585 341.670,193.510 342.484,193.698 343.297,193.802 344.111,193.965 344.925,194.067 345.739,194.091 346.553,193.869 347.366,193.720 348.180,193.796 348.994,193.998 349.808,194.339 350.621,194.607 351.435,194.757 352.249,194.583 353.063,194.237 353.876,193.951 354.690,193.767 355.504,193.767 356.318,193.764 357.131,193.698 357.945,193.378 358.759,193.337 359.572,193.412 360.386,193.608 361.200,193.768 362.014,193.957 362.828,194.161 363.641,194.133 364.455,193.988 365.269,193.705 366.083,193.739 366.896,193.842 367.710,193.868 368.524,193.604 369.338,193.536 370.151,193.603 370.965,193.792 371.779,193.872 372.592,193.768 373.406,193.666 374.220,193.420 375.034,193.445 375.847,193.359 376.661,193.520 377.475,193.566 378.289,193.756 379.102,193.925 379.916,194.024 380.730,193.949 381.544,193.847 382.357,193.728 383.171,193.750 383.985,193.945 384.799,193.983 385.612,193.881 386.426,193.808 387.240,193.715 388.054,193.727 388.867,193.704 389.681,193.827 390.495,193.862 391.309,194.145 392.123,194.277 392.936,194.302 393.750,194.067 394.564,193.866 395.378,194.016 396.191,194.215 397.005,194.543 397.819,194.872 398.632,194.843 399.446,194.600 400.260,194.300 401.074,194.153 401.887,194.132 402.701,194.259 403.515,194.549 404.329,194.642 405.142,194.542 405.956,194.394 406.770,194.452 407.584,194.432 408.398,194.239 409.211,194.162 410.025,193.981 410.839,193.989 411.653,194.037 412.466,194.113 413.280,194.089 414.094,193.967 414.908,194.097 415.721,194.209 416.535,194.327 417.349,194.171 418.162,194.068 418.976,193.959 419.790,194.082 420.604,194.319 421.417,194.368 422.231,194.297 423.045,194.182 423.859,194.045 424.673,194.070 425.486,194.176 426.300,194.369 427.114,194.292 427.928,194.268 428.741,194.108 429.555,194.069 430.369,194.091 431.182,194.037 431.996,194.008 432.810,194.043 433.624,193.990 434.437,193.776 435.251,193.677 436.065,193.698 436.879,193.850 437.693,193.961 438.506,193.986 439.320,194.052 440.134,193.873 440.947,193.442 441.761,193.206 442.575,193.228 443.389,193.486 444.202,193.599 445.016,193.544 445.830,193.187 446.644,192.826 447.457,192.575 448.271,192.386 449.085,192.320 449.899,192.347 450.712,192.384 451.526,192.386 452.340,192.512 453.154,192.678 453.968,192.568 454.781,192.270 455.595,192.008 456.409,191.832 457.223,191.766 458.036,191.612 458.850,191.387 459.664,191.400 460.478,191.465 461.291,191.425 462.105,191.378 462.919,191.227 463.732,191.109 464.546,191.100 465.360,190.959 466.174,190.957 466.987,191.096 467.801,191.223 468.615,191.341 469.429,191.306 470.243,191.310 471.056,191.284 471.870,191.388 472.684,191.457 473.498,191.196 474.311,190.894 475.125,190.478 "/>
<g>
</g>
</g>
<g id="ID000006" clip-path="url(#ID000001)" >
      <polyline fill="none" stroke="#007f00" stroke-width="0.5pt" stroke-dasharray="8.0,2.0" points="68.250,194.170 69.064,194.085 69.877,193.974 70.691,193.795 71.505,193.796 72.319,193.863 73.132,193.765 73.946,193.678 74.760,193.811 75.574,194.103 76.387,194.209 77.201,194.100 78.015,193.818 78.829,193.683 79.642,193.672 80.456,193.632 81.270,193.781 82.084,193.652 82.897,193.679 83.711,193.544 84.525,193.612 85.339,193.691 86.152,193.776 86.966,193.627 87.780,193.418 88.594,193.298 89.407,193.404 90.221,193.474 91.035,193.597 91.849,193.842 92.662,193.914 93.476,193.846 94.290,193.644 95.104,193.506 95.917,193.382 96.731,193.421 97.545,193.411 98.359,193.452 99.172,193.571 99.986,193.746 100.800,193.993 101.614,194.236 102.427,194.446 103.241,194.202 104.055,193.887 104.869,193.773 105.682,193.938 106.496,194.022 107.310,193.820 108.124,193.517 108.938,193.424 109.751,193.592 110.565,193.786 111.379,193.789 112.193,193.640 113.006,193.502 113.820,193.536 114.634,193.588 115.447,193.821 116.261,193.789 117.075,193.952 117.889,194.175 118.702,194.408 119.516,194.471 120.330,194.291 121.144,194.197 121.957,194.260 122.771,194.406 123.585,194.596 124.399,194.639 125.212,194.544 126.026,194.315 126.840,194.419 127.654,194.643 128.467,194.887 129.281,194.930 130.095,194.972 130.909,194.890 131.723,194.795 132.536,194.741 133.350,194.786 134.164,195.076 134.977,195.332 135.791,195.313 136.605,195.244 137.419,195.154 138.232,195.043 139.046,195.025 139.860,195.012 140.674,195.122 141.487,195.022 142.301,194.849 143.115,194.624 143.929,194.651 144.742,194.711 145.556,194.641 146.370,194.675 147.184,194.991 147.998,195.250 148.811,195.466 149.625,195.530 150.439,195.501 151.252,195.159 152.066,194.718 152.880,194.714 153.694,195.032 154.507,195.482 155.321,195.619 156.135,195.693 156.949,195.748 157.762,195.855 158.576,195.667 159.390,195.650 160.204,195.787 161.017,195.875 161.831,195.668 162.645,195.600 163.459,195.519 164.272,195.370 165.086,195.438 165.900,195.558 166.714,195.868 167.527,196.139 168.341,196.248 169.155,196.223 169.969,195.955 170.783,195.896 171.596,196.171 172.410,196.522 173.224,196.663 174.037,196.624 174.851,196.546 175.665,196.634 176.479,196.649 177.292,196.596 178.106,196.434 178.920,196.647 179.734,196.842 180.547,196.850 181.361,196.620 182.175,196.348 182.989,196.452 183.802,196.379 184.616,196.397 185.430,196.419 186.244,196.790 187.057,197.047 187.871,196.925 188.685,196.640 189.499,196.424 190.312,196.303 191.126,196.203 191.940,196.143 192.754,196.394 193.568,196.534 194.381,196.551 195.195,196.491 196.009,196.455 196.823,196.304 197.636,196.260 198.450,196.140 199.264,196.365 200.077,196.465 200.891,196.530 201.705,196.598 202.519,196.765 203.332,196.877 204.146,196.741 204.960,196.688 205.774,196.690 206.587,196.730 207.401,196.919 208.215,196.923 209.029,196.834 209.843,196.644 210.656,196.558 211.470,196.418 212.284,196.411 213.098,196.358 213.911,196.550 214.725,196.770 215.539,196.923 216.353,196.957 217.166,197.059 217.980,197.022 218.794,196.959 219.607,197.042 220.421,197.208 221.235,197.265 222.049,197.212 222.862,197.307 223.676,197.434 224.490,197.482 225.304,197.360 226.117,197.335 226.931,197.286 227.745,197.317 228.559,197.338 229.373,197.395 230.186,197.470 231.000,197.427 231.814,197.513 232.627,197.393 233.441,197.203 234.255,196.965 235.069,196.954 235.882,196.832 236.696,196.622 237.510,196.302 238.324,195.967 239.137,195.668 239.951,195.561 240.765,195.606 241.579,195.797 242.392,195.868 243.206,195.927 244.020,195.981 244.834,196.216 245.647,196.309 246.461,196.341 247.275,196.164 248.089,195.955 248.902,195.936 249.716,195.925 250.530,196.002 251.344,196.199 252.158,196.363 252.971,196.481 253.785,196.616 254.599,196.772 255.412,196.909 256.226,196.748 257.040,196.521 257.854,196.267 258.667,196.235 259.481,196.394 260.295,196.779 261.109,197.045 261.923,197.013 262.736,196.921 263.550,196.679 264.364,196.576 265.177,196.450 265.991,196.554 266.805,196.539 267.619,196.523 268.433,196.482 269.246,196.613 270.060,196.736 270.874,196.836 271.688,196.886 272.501,196.685 273.315,196.525 274.129,196.471 274.943,196.638 275.756,196.766 276.570,196.803 277.384,196.751 278.198,196.845 279.011,196.860 279.825,196.868 280.639,196.750 281.452,196.528 282.266,196.641 283.080,196.754 283.894,196.969 284.707,197.076 285.521,196.939 286.335,196.775 287.149,196.622 287.962,197.054 288.776,197.525 289.590,197.852 290.404,197.879 291.217,197.869 292.031,197.564 292.845,197.226 293.659,196.849 294.472,196.711 295.286,196.723 296.100,196.676 296.914,196.625 297.727,196.572 298.541,196.322 299.355,196.220 300.169,196.308 300.982,196.379 301.796,196.498 302.610,196.439 303.424,196.489 304.237,196.673 305.051,196.902 305.865,197.188 306.679,197.248 307.493,197.212 308.306,196.941 309.120,196.846 309.934,196.783 310.748,196.874 311.561,196.955 312.375,196.971 313.189,197.184 314.003,197.542 314.816,197.936 315.630,198.103 316.444,197.880 317.257,197.724 318.071,197.527 318.885,197.475 319.699,197.357 320.512,197.220 321.326,197.214 322.140,197.264 322.954,197.291 323.767,197.351 324.581,197.476 325.395,197.855 326.209,198.089 327.022,198.104 327.836,197.951 328.650,197.892 329.464,197.972 330.277,198.011 331.091,197.864 331.905,197.866 332.719,197.986 333.532,198.369 334.346,198.414 335.160,198.237 335.974,197.991 336.787,197.855 337.601,197.761 338.415,197.591 339.229,197.491 340.042,197.552 340.856,197.524 341.670,197.455 342.484,197.631 343.297,197.734 344.111,197.898 344.925,198.010 345.739,198.043 346.553,197.834 347.366,197.653 348.180,197.704 348.994,197.896 349.808,198.249 350.621,198.515 351.435,198.654 352.249,198.486 353.063,198.159 353.876,197.904 354.690,197.747 355.504,197.753 356.318,197.747 357.131,197.659 357.945,197.325 358.759,197.268 359.572,197.347 360.386,197.559 361.200,197.724 362.014,197.893 362.828,198.081 363.641,198.066 364.455,197.942 365.269,197.644 366.083,197.666 366.896,197.774 367.710,197.814 368.524,197.575 369.338,197.527 370.151,197.608 370.965,197.803 371.779,197.879 372.592,197.758 373.406,197.631 374.220,197.369 375.034,197.400 375.847,197.337 376.661,197.514 377.475,197.571 378.289,197.765 379.102,197.922 379.916,197.989 380.730,197.916 381.544,197.821 382.357,197.737 383.171,197.781 383.985,197.988 384.799,198.022 385.612,197.925 386.426,197.848 387.240,197.747 388.054,197.737 388.867,197.706 389.681,197.843 390.495,197.902 391.309,198.200 392.123,198.327 392.936,198.338 393.750,198.095 394.564,197.901 395.378,198.051 396.191,198.244 397.005,198.542 397.819,198.840 398.632,198.809 399.446,198.584 400.260,198.312 401.074,198.177 401.887,198.180 402.701,198.306 403.515,198.589 404.329,198.669 405.142,198.547 405.956,198.379 406.770,198.423 407.584,198.403 408.398,198.210 409.211,198.137 410.025,197.965 410.839,197.992 411.653,198.053 412.466,198.112 413.280,198.071 414.094,197.952 414.908,198.078 415.721,198.207 416.535,198.324 417.349,198.156 418.162,198.048 418.976,197.947 419.790,198.086 420.604,198.334 421.417,198.374 422.231,198.301 423.045,198.194 423.859,198.075 424.673,198.105 425.486,198.207 426.300,198.395 427.114,198.304 427.928,198.273 428.741,198.090 429.555,198.016 430.369,198.027 431.182,197.974 431.996,197.950 432.810,197.971 433.624,197.920 434.437,197.717 435.251,197.635 436.065,197.671 436.879,197.853 437.693,197.989 438.506,198.012 439.320,198.065 440.134,197.858 440.947,197.424 441.761,197.192 442.575,197.211 443.389,197.446 444.202,197.528 445.016,197.453 445.830,197.110 446.644,196.781 447.457,196.549 448.271,196.341 449.085,196.255 449.899,196.274 450.712,196.329 451.526,196.344 452.340,196.478 453.154,196.627 453.968,196.490 454.781,196.195 455.595,195.955 456.409,195.792 457.223,195.735 458.036,195.564 458.850,195.325 459.664,195.334 460.478,195.410 461.291,195.372 462.105,195.314 462.919,195.134 463.732,195.002 464.546,194.994 465.360,194.843 466.174,194.826 466.987,194.943 467.801,195.072 468.615,195.202 469.429,195.198 470.243,195.222 471.056,195.177 471.870,195.250 472.684,195.309 473.498,195.048 474.311,194.752 475.125,194.316 "/>
<g>
</g>
</g>
<g id="ID000007" clip-path="url(#ID000001)" >
      <polyline fill="none" stroke="#007f00" stroke-width="0.5pt" stroke-dasharray="8.0,2.0" points="68.250,185.726 69.064,185.655 69.877,185.563 70.691,185.412 71.505,185.424 72.319,185.466 73.132,185.357 73.946,185.260 74.760,185.421 75.574,185.718 76.387,185.858 77.201,185.783 78.015,185.487 78.829,185.320 79.642,185.330 80.456,185.342 81.270,185.547 82.084,185.453 82.897,185.486 83.711,185.317 84.525,185.320 85.339,185.354 86.152,185.422 86.966,185.312 87.780,185.061 88.594,184.932 89.407,185.048 90.221,185.144 91.035,185.283 91.849,185.544 92.662,185.651 93.476,185.565 94.290,185.341 95.104,185.188 95.917,185.061 96.731,185.106 97.545,185.090 98.359,185.123 99.172,185.245 99.986,185.420 100.800,185.680 101.614,185.922 102.427,186.097 103.241,185.832 104.055,185.476 104.869,185.385 105.682,185.585 106.496,185.723 107.310,185.540 108.124,185.220 108.938,185.093 109.751,185.232 110.565,185.400 111.379,185.388 112.193,185.165 113.006,184.951 113.820,184.969 114.634,185.081 115.447,185.367 116.261,185.383 117.075,185.587 117.889,185.842 118.702,186.062 119.516,186.094 120.330,185.904 121.144,185.781 121.957,185.843 122.771,186.010 123.585,186.277 124.399,186.338 125.212,186.178 126.026,185.895 126.840,185.986 127.654,186.219 128.467,186.517 129.281,186.621 130.095,186.684 130.909,186.585 131.723,186.436 132.536,186.363 133.350,186.426 134.164,186.723 134.977,186.994 135.791,186.978 136.605,186.916 137.419,186.909 138.232,186.862 139.046,186.875 139.860,186.815 140.674,186.899 141.487,186.785 142.301,186.624 143.115,186.396 143.929,186.383 144.742,186.431 145.556,186.381 146.370,186.443 147.184,186.757 147.998,186.974 148.811,187.189 149.625,187.262 150.439,187.251 151.252,186.920 152.066,186.501 152.880,186.517 153.694,186.858 154.507,187.291 155.321,187.388 156.135,187.462 156.949,187.545 157.762,187.689 158.576,187.502 159.390,187.465 160.204,187.569 161.017,187.671 161.831,187.535 162.645,187.541 163.459,187.496 164.272,187.332 165.086,187.363 165.900,187.458 166.714,187.742 167.527,188.042 168.341,188.198 169.155,188.184 169.969,187.901 170.783,187.852 171.596,188.166 172.410,188.484 173.224,188.580 174.037,188.494 174.851,188.402 175.665,188.495 176.479,188.505 177.292,188.426 178.106,188.214 178.920,188.391 179.734,188.654 180.547,188.768 181.361,188.627 182.175,188.398 182.989,188.458 183.802,188.342 184.616,188.321 185.430,188.353 186.244,188.719 187.057,188.980 187.871,188.903 188.685,188.629 189.499,188.393 190.312,188.236 191.126,188.122 191.940,188.035 192.754,188.247 193.568,188.338 194.381,188.364 195.195,188.329 196.009,188.324 196.823,188.147 197.636,188.135 198.450,188.047 199.264,188.296 200.077,188.378 200.891,188.425 201.705,188.515 202.519,188.673 203.332,188.772 204.146,188.645 204.960,188.626 205.774,188.681 206.587,188.727 207.401,188.892 208.215,188.861 209.029,188.762 209.843,188.603 210.656,188.583 211.470,188.478 212.284,188.489 213.098,188.429 213.911,188.616 214.725,188.834 215.539,188.988 216.353,189.016 217.166,189.096 217.980,189.034 218.794,188.951 219.607,189.010 220.421,189.152 221.235,189.237 222.049,189.198 222.862,189.281 223.676,189.381 224.490,189.460 225.304,189.400 226.117,189.432 226.931,189.385 227.745,189.370 228.559,189.330 229.373,189.348 230.186,189.415 231.000,189.367 231.814,189.473 232.627,189.372 233.441,189.242 234.255,189.059 235.069,189.098 235.882,188.974 236.696,188.710 237.510,188.356 238.324,187.963 239.137,187.668 239.951,187.579 240.765,187.694 241.579,187.908 242.392,187.991 243.206,187.999 244.020,188.010 244.834,188.205 245.647,188.278 246.461,188.323 247.275,188.154 248.089,187.964 248.902,187.910 249.716,187.907 250.530,188.015 251.344,188.272 252.158,188.476 252.971,188.615 253.785,188.743 254.599,188.909 255.412,189.044 256.226,188.878 257.040,188.605 257.854,188.329 258.667,188.308 259.481,188.498 260.295,188.897 261.109,189.181 261.923,189.176 262.736,189.101 263.550,188.820 264.364,188.641 265.177,188.453 265.991,188.549 266.805,188.568 267.619,188.569 268.433,188.550 269.246,188.685 270.060,188.822 270.874,188.905 271.688,188.982 272.501,188.835 273.315,188.706 274.129,188.669 274.943,188.818 275.756,188.948 276.570,188.970 277.384,188.907 278.198,189.016 279.011,189.087 279.825,189.109 280.639,188.983 281.452,188.774 282.266,188.917 283.080,189.014 283.894,189.182 284.707,189.185 285.521,189.034 286.335,188.891 287.149,188.790 287.962,189.188 288.776,189.624 289.590,189.933 290.404,189.975 291.217,189.973 292.031,189.641 292.845,189.285 293.659,188.871 294.472,188.723 295.286,188.728 296.100,188.712 296.914,188.720 297.727,188.687 298.541,188.503 299.355,188.480 300.169,188.618 300.982,188.664 301.796,188.705 302.610,188.613 303.424,188.627 304.237,188.777 305.051,188.954 305.865,189.227 306.679,189.324 307.493,189.354 308.306,189.121 309.120,188.982 309.934,188.889 310.748,188.945 311.561,189.029 312.375,189.055 313.189,189.309 314.003,189.659 314.816,190.016 315.630,190.125 316.444,189.868 317.257,189.741 318.071,189.589 318.885,189.589 319.699,189.502 320.512,189.353 321.326,189.299 322.140,189.317 322.954,189.360 323.767,189.483 324.581,189.655 325.395,190.059 326.209,190.305 327.022,190.346 327.836,190.219 328.650,190.171 329.464,190.244 330.277,190.264 331.091,190.083 331.905,190.074 332.719,190.208 333.532,190.588 334.346,190.640 335.160,190.416 335.974,190.168 336.787,190.064 337.601,190.004 338.415,189.818 339.229,189.665 340.042,189.688 340.856,189.646 341.670,189.564 342.484,189.765 343.297,189.869 344.111,190.031 344.925,190.125 345.739,190.139 346.553,189.904 347.366,189.786 348.180,189.888 348.994,190.099 349.808,190.429 350.621,190.699 351.435,190.860 352.249,190.680 353.063,190.315 353.876,189.999 354.690,189.787 355.504,189.781 356.318,189.781 357.131,189.737 357.945,189.430 358.759,189.407 359.572,189.476 360.386,189.656 361.200,189.812 362.014,190.021 362.828,190.242 363.641,190.200 364.455,190.035 365.269,189.766 366.083,189.811 366.896,189.910 367.710,189.921 368.524,189.633 369.338,189.544 370.151,189.599 370.965,189.781 371.779,189.866 372.592,189.777 373.406,189.702 374.220,189.470 375.034,189.490 375.847,189.382 376.661,189.526 377.475,189.560 378.289,189.747 379.102,189.928 379.916,190.059 380.730,189.981 381.544,189.872 382.357,189.718 383.171,189.720 383.985,189.902 384.799,189.945 385.612,189.836 386.426,189.769 387.240,189.683 388.054,189.718 388.867,189.702 389.681,189.810 390.495,189.822 391.309,190.089 392.123,190.228 392.936,190.267 393.750,190.039 394.564,189.831 395.378,189.980 396.191,190.187 397.005,190.543 397.819,190.905 398.632,190.878 399.446,190.616 400.260,190.288 401.074,190.128 401.887,190.085 402.701,190.212 403.515,190.510 404.329,190.616 405.142,190.538 405.956,190.410 406.770,190.481 407.584,190.462 408.398,190.267 409.211,190.187 410.025,189.996 410.839,189.986 411.653,190.020 412.466,190.114 413.280,190.107 414.094,189.982 414.908,190.115 415.721,190.212 416.535,190.331 417.349,190.186 418.162,190.089 418.976,189.972 419.790,190.078 420.604,190.304 421.417,190.363 422.231,190.293 423.045,190.169 423.859,190.016 424.673,190.035 425.486,190.145 426.300,190.343 427.114,190.280 427.928,190.263 428.741,190.125 429.555,190.122 430.369,190.154 431.182,190.100 431.996,190.066 432.810,190.115 433.624,190.059 434.437,189.836 435.251,189.719 436.065,189.726 436.879,189.848 437.693,189.932 438.506,189.961 439.320,190.040 440.134,189.889 440.947,189.460 441.761,189.220 442.575,189.245 443.389,189.526 444.202,189.671 445.016,189.634 445.830,189.264 446.644,188.871 447.457,188.602 448.271,188.430 449.085,188.385 449.899,188.421 450.712,188.438 451.526,188.427 452.340,188.546 453.154,188.730 453.968,188.645 454.781,188.346 455.595,188.061 456.409,187.872 457.223,187.796 458.036,187.661 458.850,187.449 459.664,187.467 460.478,187.521 461.291,187.477 462.105,187.441 462.919,187.321 463.732,187.216 464.546,187.206 465.360,187.075 466.174,187.088 466.987,187.248 467.801,187.375 468.615,187.479 469.429,187.413 470.243,187.399 471.056,187.391 471.870,187.527 472.684,187.606 473.498,187.344 474.311,187.036 475.125,186.640 "/>
<g>
</g>
</g>
<g id="ID000008" >
  <g transform="translate(271.219,381.394)">
    <g transform="rotate(-0.0)">
      <text x="0.000" y="0.000" font-family="Helvetica" text-anchor="middle" font-size="9pt" fill="#000000" >Time (ms)</text>
    </g>
  </g>
</g>
<g id="ID000009" >
  <g transform="translate(35.437,191.392)">
    <g transform="rotate(-90.0)">
      <text x="0.000" y="0.000" font-family="Helvetica" text-anchor="middle" font-size="9pt" fill="#000000" >Vergence (deg)</text>
    </g>
  </g>
</g>
<g id="ID000010" >
</g>
    </g>
    <g>
      <polyline fill="none" stroke="#000000" stroke-width="0.5pt" stroke-dasharray="none" points="68.250,350.438 68.250,346.369 "/>
      <polyline fill="none" stroke="#000000" stroke-width="0.5pt" stroke-dasharray="none" points="108.938,350.438 108.938,346.369 "/>
      <polyline fill="none" stroke="#000000" stroke-width="0.5pt" stroke-dasharray="none" points="149.625,350.438 149.625,346.369 "/>
      <polyline fill="none" stroke="#000000" stroke-width="0.5pt" stroke-dasharray="none" points="190.313,350.438 190.313,346.369 "/>
      <polyline fill="none" stroke="#000000" stroke-width="0.5pt" stroke-dasharray="none" points="231.000,350.438 231.000,346.369 "/>
      <polyline fill="none" stroke="#000000" stroke-width="0.5pt" stroke-dasharray="none" points="271.688,350.438 271.688,346.369 "/>
      <polyline fill="none" stroke="#000000" stroke-width="0.5pt" stroke-dasharray="none" points="312.375,350.438 312.375,346.369 "/>
      <polyline fill="none" stroke="#000000" stroke-width="0.5pt" stroke-dasharray="none" points="353.063,350.438 353.063,346.369 "/>
      <polyline fill="none" stroke="#000000" stroke-width="0.5pt" stroke-dasharray="none" points="393.750,350.438 393.750,346.369 "/>
      <polyline fill="none" stroke="#000000" stroke-width="0.5pt" stroke-dasharray="none" points="434.438,350.438 434.438,346.369 "/>
      <polyline fill="none" stroke="#000000" stroke-width="0.5pt" stroke-dasharray="none" points="475.125,350.438 475.125,346.369 "/>
      <polyline fill="none" stroke="#000000" stroke-width="0.5pt" stroke-dasharray="none" points="68.250,350.438 475.125,350.438 "/>
  <g transform="translate(68.250,367.918)">
    <g transform="rotate(-0.0)">
      <text x="0.000" y="0.000" font-family="Helvetica" text-anchor="middle" font-size="9pt" fill="#000000" >-100</text>
    </g>
  </g>
  <g transform="translate(108.938,367.918)">
    <g transform="rotate(-0.0)">
      <text x="0.000" y="0.000" font-family="Helvetica" text-anchor="middle" font-size="9pt" fill="#000000" >-50</text>
    </g>
  </g>
  <g transform="translate(149.625,367.918)">
    <g transform="rotate(-0.0)">
      <text x="0.000" y="0.000" font-family="Helvetica" text-anchor="middle" font-size="9pt" fill="#000000" >0</text>
    </g>
  </g>
  <g transform="translate(190.313,367.918)">
    <g transform="rotate(-0.0)">
      <text x="0.000" y="0.000" font-family="Helvetica" text-anchor="middle" font-size="9pt" fill="#000000" >50</text>
    </g>
  </g>
  <g transform="translate(231.000,367.918)">
    <g transform="rotate(-0.0)">
      <text x="0.000" y="0.000" font-family="Helvetica" text-anchor="middle" font-size="9pt" fill="#000000" >100</text>
    </g>
  </g>
  <g transform="translate(271.688,367.918)">
    <g transform="rotate(-0.0)">
      <text x="0.000" y="0.000" font-family="Helvetica" text-anchor="middle" font-size="9pt" fill="#000000" >150</text>
    </g>
  </g>
  <g transform="translate(312.375,367.918)">
    <g transform="rotate(-0.0)">
      <text x="0.000" y="0.000" font-family="Helvetica" text-anchor="middle" font-size="9pt" fill="#000000" >200</text>
    </g>
  </g>
  <g transform="translate(353.063,367.918)">
    <g transform="rotate(-0.0)">
      <text x="0.000" y="0.000" font-family="Helvetica" text-anchor="middle" font-size="9pt" fill="#000000" >250</text>
    </g>
  </g>
  <g transform="translate(393.750,367.918)">
    <g transform="rotate(-0.0)">
      <text x="0.000" y="0.000" font-family="Helvetica" text-anchor="middle" font-size="9pt" fill="#000000" >300</text>
    </g>
  </g>
  <g transform="translate(434.438,367.918)">
    <g transform="rotate(-0.0)">
      <text x="0.000" y="0.000" font-family="Helvetica" text-anchor="middle" font-size="9pt" fill="#000000" >350</text>
    </g>
  </g>
  <g transform="translate(475.125,367.918)">
    <g transform="rotate(-0.0)">
      <text x="0.000" y="0.000" font-family="Helvetica" text-anchor="middle" font-size="9pt" fill="#000000" >400</text>
    </g>
  </g>
      <polyline fill="none" stroke="#000000" stroke-width="0.5pt" stroke-dasharray="none" points="68.250,350.438 72.319,350.438 "/>
      <polyline fill="none" stroke="#000000" stroke-width="0.5pt" stroke-dasharray="none" points="68.250,318.347 72.319,318.347 "/>
      <polyline fill="none" stroke="#000000" stroke-width="0.5pt" stroke-dasharray="none" points="68.250,286.256 72.319,286.256 "/>
      <polyline fill="none" stroke="#000000" stroke-width="0.5pt" stroke-dasharray="none" points="68.250,254.166 72.319,254.166 "/>
      <polyline fill="none" stroke="#000000" stroke-width="0.5pt" stroke-dasharray="none" points="68.250,222.075 72.319,222.075 "/>
      <polyline fill="none" stroke="#000000" stroke-width="0.5pt" stroke-dasharray="none" points="68.250,189.984 72.319,189.984 "/>
      <polyline fill="none" stroke="#000000" stroke-width="0.5pt" stroke-dasharray="none" points="68.250,157.894 72.319,157.894 "/>
      <polyline fill="none" stroke="#000000" stroke-width="0.5pt" stroke-dasharray="none" points="68.250,125.803 72.319,125.803 "/>
      <polyline fill="none" stroke="#000000" stroke-width="0.5pt" stroke-dasharray="none" points="68.250,93.713 72.319,93.713 "/>
      <polyline fill="none" stroke="#000000" stroke-width="0.5pt" stroke-dasharray="none" points="68.250,61.622 72.319,61.622 "/>
      <polyline fill="none" stroke="#000000" stroke-width="0.5pt" stroke-dasharray="none" points="68.250,29.531 72.319,29.531 "/>
      <polyline fill="none" stroke="#000000" stroke-width="0.5pt" stroke-dasharray="none" points="68.250,350.438 68.250,29.531 "/>
  <g transform="translate(60.112,354.656)">
    <g transform="rotate(-0.0)">
      <text x="0.000" y="0.000" font-family="Helvetica" text-anchor="end" font-size="9pt" fill="#000000" >-1</text>
    </g>
  </g>
  <g transform="translate(60.112,322.566)">
    <g transform="rotate(-0.0)">
      <text x="0.000" y="0.000" font-family="Helvetica" text-anchor="end" font-size="9pt" fill="#000000" >-0.8</text>
    </g>
  </g>
  <g transform="translate(60.112,290.475)">
    <g transform="rotate(-0.0)">
      <text x="0.000" y="0.000" font-family="Helvetica" text-anchor="end" font-size="9pt" fill="#000000" >-0.6</text>
    </g>
  </g>
  <g transform="translate(60.112,258.384)">
    <g transform="rotate(-0.0)">
      <text x="0.000" y="0.000" font-family="Helvetica" text-anchor="end" font-size="9pt" fill="#000000" >-0.4</text>
    </g>
  </g>
  <g transform="translate(60.112,226.294)">
    <g transform="rotate(-0.0)">
      <text x="0.000" y="0.000" font-family="Helvetica" text-anchor="end" font-size="9pt" fill="#000000" >-0.2</text>
    </g>
  </g>
  <g transform="translate(60.112,194.203)">
    <g transform="rotate(-0.0)">
      <text x="0.000" y="0.000" font-family="Helvetica" text-anchor="end" font-size="9pt" fill="#000000" >0</text>
    </g>
  </g>
  <g transform="translate(60.112,162.113)">
    <g transform="rotate(-0.0)">
      <text x="0.000" y="0.000" font-family="Helvetica" text-anchor="end" font-size="9pt" fill="#000000" >0.2</text>
    </g>
  </g>
  <g transform="translate(60.112,130.022)">
    <g transform="rotate(-0.0)">
      <text x="0.000" y="0.000" font-family="Helvetica" text-anchor="end" font-size="9pt" fill="#000000" >0.4</text>
    </g>
  </g>
  <g transform="translate(60.112,97.931)">
    <g transform="rotate(-0.0)">
      <text x="0.000" y="0.000" font-family="Helvetica" text-anchor="end" font-size="9pt" fill="#000000" >0.6</text>
    </g>
  </g>
  <g transform="translate(60.112,65.841)">
    <g transform="rotate(-0.0)">
      <text x="0.000" y="0.000" font-family="Helvetica" text-anchor="end" font-size="9pt" fill="#000000" >0.8</text>
    </g>
  </g>
  <g transform="translate(60.112,33.750)">
    <g transform="rotate(-0.0)">
      <text x="0.000" y="0.000" font-family="Helvetica" text-anchor="end" font-size="9pt" fill="#000000" >1</text>
    </g>
  </g>
      <polyline fill="none" stroke="#000000" stroke-width="0.5pt" stroke-dasharray="none" points="68.250,350.438 68.250,347.228 "/>
      <polyline fill="none" stroke="#000000" stroke-width="0.5pt" stroke-dasharray="none" points="68.250,350.438 68.250,347.228 "/>
      <polyline fill="none" stroke="#000000" stroke-width="0.5pt" stroke-dasharray="none" points="68.250,350.437 68.250,347.228 "/>
      <polyline fill="none" stroke="#000000" stroke-width="0.5pt" stroke-dasharray="none" points="68.250,350.438 68.250,350.437 "/>
    </g>
  </g>
  </g>
</svg>
