<?xml version="1.0" encoding="utf-8" standalone="no"?><!DOCTYPE svg PUBLIC "-//W3C//DTD SVG 1.1//EN" "http://www.w3.org/Graphics/SVG/1.1/DTD/svg11.dtd">
<svg preserveAspectRatio="xMinYMin meet" width="100%" height="100%" viewBox="0 0 525.000 393.750"  version="1.1" xmlns="http://www.w3.org/2000/svg" xmlns:xlink="http://www.w3.org/1999/xlink">
  <desc>Matlab Figure Converted by PLOT2SVG written by Juerg Schwizer</desc>
  <g id="topgroup">
  <rect x="0" y="0" width="525.000" height="393.750" fill="#ffffff" stroke="none" />
  <g id ="ID000000">
  <clipPath id="ID000001">
    <rect x="68.250" y="29.531" width="406.875" height="320.906"/>
  </clipPath>
      <polygon fill="#ffffff" fill-opacity="1.00" stroke="none" stroke-width="0.5pt" stroke-opacity="1.00" stroke-dasharray="none" points="68.250,350.438 475.125,350.438 475.125,29.531 68.250,29.531 "/>
      <polygon fill="#ffffff" fill-opacity="1.00" stroke="none" stroke-width="0.5pt" stroke-opacity="1.00" stroke-dasharray="none" points="68.250,29.531 475.125,29.531 475.125,29.531 68.250,29.531 "/>
      <polygon fill="#ffffff" fill-opacity="1.00" stroke="none" stroke-width="0.5pt" stroke-opacity="1.00" stroke-dasharray="none" points="68.250,350.438 68.250,350.437 68.250,29.531 68.250,29.531 "/>
    <g>
<g id="ID000002" clip-path="url(#ID000001)" >
      <polyline fill="none" stroke="#0000ff" stroke-width="0.5pt" stroke-dasharray="none" points="68.250,192.866 69.064,192.776 69.877,192.703 70.691,192.608 71.505,192.688 72.319,192.598 73.132,192.576 73.946,192.565 74.760,192.715 75.574,192.879 76.387,192.965 77.201,193.059 78.015,193.160 78.829,193.167 79.642,192.991 80.456,192.879 81.270,192.898 82.084,192.698 82.897,192.422 83.711,192.225 84.525,192.160 85.339,192.080 86.152,191.877 86.966,191.777 87.780,191.640 88.594,191.625 89.407,191.649 90.221,191.898 91.035,192.165 91.849,192.292 92.662,192.383 93.476,192.366 94.290,192.284 95.104,192.225 95.917,192.096 96.731,192.030 97.545,191.817 98.359,191.802 99.172,191.807 99.986,191.872 100.800,191.911 101.614,191.957 102.427,191.909 103.241,191.817 104.055,191.570 104.869,191.217 105.682,190.825 106.496,190.590 107.310,190.454 108.124,190.173 108.938,189.957 109.751,189.874 110.565,189.843 111.379,189.752 112.193,189.712 113.006,189.613 113.820,189.683 114.634,189.537 115.447,189.499 116.261,189.347 117.075,189.177 117.889,189.054 118.702,188.851 119.516,188.773 120.330,188.576 121.144,188.475 121.957,188.427 122.771,188.286 123.585,188.297 124.399,188.193 125.212,188.183 126.026,188.110 126.840,187.824 127.654,187.689 128.467,187.590 129.281,187.499 130.095,187.233 130.909,186.967 131.723,186.823 132.536,186.791 133.350,186.772 134.164,186.915 134.977,186.891 135.791,186.836 136.605,186.784 137.419,186.826 138.232,186.999 139.046,186.895 139.860,186.734 140.674,186.680 141.487,186.520 142.301,186.379 143.115,186.275 143.929,186.483 144.742,186.632 145.556,186.684 146.370,186.663 147.184,186.522 147.998,186.419 148.811,186.186 149.625,185.987 150.439,185.776 151.252,185.559 152.066,185.606 152.880,185.715 153.694,185.680 154.507,185.703 155.321,185.510 156.135,185.489 156.949,185.587 157.762,185.643 158.576,185.734 159.390,185.700 160.204,185.523 161.017,185.297 161.831,185.224 162.645,185.117 163.459,185.145 164.272,185.204 165.086,185.140 165.900,185.034 166.714,184.865 167.527,184.949 168.341,185.013 169.155,185.134 169.969,185.113 170.783,185.090 171.596,184.813 172.410,184.402 173.224,184.316 174.037,184.294 174.851,184.299 175.665,184.295 176.479,184.162 177.292,184.149 178.106,184.152 178.920,184.224 179.734,184.229 180.547,184.267 181.361,184.185 182.175,184.002 182.989,183.917 183.802,183.816 184.616,183.841 185.430,183.643 186.244,183.474 187.057,183.591 187.871,183.840 188.685,183.998 189.499,183.937 190.312,183.954 191.126,183.924 191.940,184.054 192.754,184.182 193.568,184.392 194.381,184.674 195.195,184.738 196.009,184.684 196.823,184.558 197.636,184.464 198.450,184.586 199.264,184.653 200.077,184.566 200.891,184.642 201.705,184.879 202.519,185.212 203.332,185.273 204.146,185.230 204.960,185.189 205.774,185.386 206.587,185.517 207.401,185.622 208.215,185.656 209.029,185.512 209.843,185.379 210.656,185.263 211.470,185.527 212.284,185.809 213.098,186.048 213.911,186.125 214.725,186.210 215.539,186.340 216.353,186.529 217.166,186.768 217.980,186.687 218.794,186.607 219.607,186.304 220.421,186.175 221.235,186.145 222.049,186.154 222.862,186.330 223.676,186.312 224.490,186.184 225.304,185.945 226.117,185.722 226.931,185.552 227.745,185.624 228.559,185.802 229.373,185.800 230.186,185.487 231.000,185.340 231.814,185.303 232.627,185.393 233.441,185.190 234.255,184.964 235.069,184.861 235.882,184.773 236.696,184.567 237.510,184.184 238.324,183.955 239.137,183.879 239.951,183.967 240.765,184.094 241.579,184.179 242.392,184.095 243.206,184.081 244.020,184.113 244.834,184.344 245.647,184.356 246.461,184.390 247.275,184.432 248.089,184.432 248.902,184.176 249.716,183.892 250.530,183.854 251.344,183.791 252.158,183.696 252.971,183.484 253.785,183.282 254.599,183.076 255.412,182.955 256.226,183.062 257.040,183.361 257.854,183.643 258.667,183.670 259.481,183.584 260.295,183.393 261.109,183.229 261.923,183.185 262.736,183.136 263.550,183.140 264.364,183.185 265.177,183.198 265.991,183.348 266.805,183.454 267.619,183.620 268.433,183.762 269.246,183.747 270.060,183.889 270.874,183.799 271.688,183.878 272.501,183.864 273.315,183.788 274.129,183.762 274.943,183.724 275.756,183.876 276.570,183.991 277.384,184.188 278.198,184.285 279.011,184.265 279.825,184.190 280.639,184.010 281.452,183.910 282.266,184.077 283.080,184.354 283.894,184.560 284.707,184.769 285.521,184.793 286.335,185.065 287.149,185.315 287.962,185.439 288.776,185.598 289.590,185.598 290.404,185.693 291.217,185.920 292.031,185.936 292.845,185.990 293.659,185.876 294.472,185.693 295.286,185.506 296.100,185.252 296.914,185.313 297.727,185.621 298.541,185.910 299.355,186.004 300.169,186.065 300.982,186.079 301.796,185.973 302.610,185.649 303.424,185.621 304.237,185.671 305.051,185.748 305.865,185.867 306.679,185.913 307.493,185.968 308.306,185.847 309.120,185.703 309.934,185.702 310.748,185.789 311.561,185.857 312.375,185.817 313.189,185.707 314.003,185.625 314.816,185.704 315.630,185.750 316.444,185.806 317.257,185.853 318.071,185.856 318.885,185.917 319.699,185.864 320.512,186.169 321.326,186.568 322.140,186.869 322.954,187.078 323.767,187.206 324.581,187.387 325.395,187.528 326.209,187.540 327.022,187.568 327.836,187.707 328.650,187.933 329.464,188.063 330.277,187.986 331.091,187.955 331.905,188.254 332.719,188.435 333.532,188.688 334.346,188.756 335.160,189.079 335.974,189.331 336.787,189.639 337.601,190.027 338.415,190.353 339.229,190.466 340.042,190.740 340.856,190.914 341.670,191.007 342.484,191.025 343.297,191.052 344.111,191.005 344.925,191.192 345.739,191.407 346.553,191.611 347.366,191.785 348.180,191.988 348.994,192.209 349.808,192.314 350.621,192.229 351.435,192.194 352.249,192.290 353.063,192.362 353.876,192.216 354.690,192.143 355.504,192.154 356.318,192.221 357.131,192.216 357.945,192.297 358.759,192.263 359.572,192.355 360.386,192.295 361.200,192.443 362.014,192.536 362.828,192.726 363.641,192.931 364.455,192.822 365.269,192.642 366.083,192.470 366.896,192.250 367.710,192.127 368.524,191.888 369.338,191.613 370.151,191.342 370.965,191.264 371.779,191.347 372.592,191.548 373.406,191.566 374.220,191.371 375.034,191.354 375.847,191.536 376.661,191.733 377.475,191.648 378.289,191.479 379.102,191.556 379.916,191.727 380.730,191.929 381.544,191.987 382.357,192.023 383.171,191.912 383.985,191.724 384.799,191.579 385.612,191.497 386.426,191.535 387.240,191.504 388.054,191.486 388.867,191.645 389.681,191.710 390.495,191.815 391.309,192.014 392.123,192.268 392.936,192.352 393.750,192.106 394.564,191.709 395.378,191.498 396.191,191.402 397.005,191.283 397.819,191.198 398.632,191.118 399.446,191.026 400.260,190.976 401.074,191.155 401.887,191.193 402.701,191.314 403.515,191.214 404.329,191.249 405.142,191.257 405.956,191.212 406.770,191.001 407.584,190.739 408.398,190.582 409.211,190.616 410.025,191.009 410.839,191.359 411.653,191.589 412.466,191.376 413.280,190.921 414.094,190.456 414.908,190.306 415.721,190.261 416.535,190.123 417.349,190.109 418.162,190.177 418.976,190.468 419.790,190.750 420.604,190.744 421.417,190.562 422.231,190.530 423.045,190.568 423.859,190.715 424.673,190.718 425.486,190.774 426.300,190.696 427.114,190.617 427.928,190.615 428.741,190.662 429.555,190.669 430.369,190.442 431.182,190.166 431.996,190.083 432.810,190.240 433.624,190.287 434.437,190.282 435.251,190.321 436.065,190.263 436.879,190.295 437.693,190.325 438.506,190.505 439.320,190.624 440.134,190.760 440.947,190.656 441.761,190.650 442.575,190.737 443.389,190.817 444.202,190.960 445.016,191.065 445.830,191.227 446.644,191.330 447.457,191.344 448.271,191.416 449.085,191.579 449.899,191.958 450.712,192.357 451.526,192.584 452.340,192.446 453.154,192.413 453.968,192.588 454.781,192.870 455.595,193.246 456.409,193.356 457.223,193.325 458.036,193.299 458.850,193.560 459.664,193.962 460.478,194.158 461.291,194.170 462.105,194.050 462.919,193.964 463.732,194.151 464.546,194.402 465.360,194.484 466.174,194.548 466.987,194.485 467.801,194.626 468.615,194.861 469.429,195.112 470.243,195.388 471.056,195.666 471.870,195.865 472.684,195.888 473.498,196.017 474.311,196.142 475.125,196.216 "/>
<g>
</g>
</g>
<g id="ID000003" clip-path="url(#ID000001)" >
      <polyline fill="none" stroke="#0000ff" stroke-width="0.5pt" stroke-dasharray="8.0,2.0" points="68.250,202.035 69.064,201.938 69.877,201.866 70.691,201.772 71.505,201.845 72.319,201.737 73.132,201.712 73.946,201.691 74.760,201.842 75.574,201.983 76.387,202.080 77.201,202.177 78.015,202.285 78.829,202.287 79.642,202.102 80.456,201.987 81.270,201.992 82.084,201.762 82.897,201.468 83.711,201.259 84.525,201.173 85.339,201.082 86.152,200.857 86.966,200.742 87.780,200.582 88.594,200.540 89.407,200.550 90.221,200.806 91.035,201.072 91.849,201.197 92.662,201.290 93.476,201.286 94.290,201.205 95.104,201.149 95.917,201.012 96.731,200.928 97.545,200.706 98.359,200.699 99.172,200.700 99.986,200.742 100.800,200.768 101.614,200.823 102.427,200.803 103.241,200.722 104.055,200.484 104.869,200.120 105.682,199.720 106.496,199.492 107.310,199.395 108.124,199.135 108.938,198.941 109.751,198.847 110.565,198.819 111.379,198.736 112.193,198.711 113.006,198.605 113.820,198.681 114.634,198.541 115.447,198.499 116.261,198.356 117.075,198.193 117.889,198.095 118.702,197.899 119.516,197.813 120.330,197.585 121.144,197.441 121.957,197.376 122.771,197.254 123.585,197.298 124.399,197.213 125.212,197.182 126.026,197.098 126.840,196.808 127.654,196.656 128.467,196.537 129.281,196.440 130.095,196.186 130.909,195.941 131.723,195.800 132.536,195.749 133.350,195.691 134.164,195.819 134.977,195.798 135.791,195.747 136.605,195.679 137.419,195.717 138.232,195.898 139.046,195.800 139.860,195.658 140.674,195.603 141.487,195.429 142.301,195.275 143.115,195.171 143.929,195.380 144.742,195.526 145.556,195.545 146.370,195.502 147.184,195.343 147.998,195.236 148.811,195.014 149.625,194.836 150.439,194.629 151.252,194.394 152.066,194.427 152.880,194.528 153.694,194.494 154.507,194.517 155.321,194.339 156.135,194.330 156.949,194.433 157.762,194.481 158.576,194.553 159.390,194.513 160.204,194.334 161.017,194.119 161.831,194.048 162.645,193.933 163.459,193.956 164.272,194.012 165.086,193.948 165.900,193.868 166.714,193.737 167.527,193.845 168.341,193.905 169.155,193.999 169.969,193.958 170.783,193.937 171.596,193.657 172.410,193.241 173.224,193.134 174.037,193.110 174.851,193.094 175.665,193.071 176.479,192.911 177.292,192.898 178.106,192.910 178.920,193.011 179.734,193.024 180.547,193.036 181.361,192.913 182.175,192.685 182.989,192.573 183.802,192.463 184.616,192.486 185.430,192.288 186.244,192.126 187.057,192.226 187.871,192.442 188.685,192.563 189.499,192.491 190.312,192.508 191.126,192.469 191.940,192.579 192.754,192.694 193.568,192.880 194.381,193.140 195.195,193.189 196.009,193.117 196.823,192.960 197.636,192.841 198.450,192.944 199.264,193.013 200.077,192.920 200.891,192.988 201.705,193.218 202.519,193.544 203.332,193.608 204.146,193.553 204.960,193.499 205.774,193.653 206.587,193.764 207.401,193.868 208.215,193.901 209.029,193.747 209.843,193.619 210.656,193.498 211.470,193.741 212.284,194.004 213.098,194.235 213.911,194.319 214.725,194.404 215.539,194.544 216.353,194.744 217.166,195.010 217.980,194.937 218.794,194.858 219.607,194.529 220.421,194.391 221.235,194.386 222.049,194.430 222.862,194.630 223.676,194.629 224.490,194.519 225.304,194.305 226.117,194.087 226.931,193.902 227.745,193.960 228.559,194.152 229.373,194.149 230.186,193.833 231.000,193.682 231.814,193.638 232.627,193.725 233.441,193.520 234.255,193.317 235.069,193.252 235.882,193.197 236.696,193.009 237.510,192.633 238.324,192.391 239.137,192.316 239.951,192.396 240.765,192.525 241.579,192.598 242.392,192.527 243.206,192.540 244.020,192.598 244.834,192.839 245.647,192.875 246.461,192.922 247.275,192.966 248.089,192.962 248.902,192.682 249.716,192.369 250.530,192.307 251.344,192.241 252.158,192.147 252.971,191.925 253.785,191.718 254.599,191.530 255.412,191.439 256.226,191.570 257.040,191.862 257.854,192.131 258.667,192.149 259.481,192.059 260.295,191.866 261.109,191.689 261.923,191.637 262.736,191.596 263.550,191.593 264.364,191.612 265.177,191.592 265.991,191.737 266.805,191.863 267.619,192.046 268.433,192.186 269.246,192.161 270.060,192.297 270.874,192.191 271.688,192.237 272.501,192.186 273.315,192.119 274.129,192.116 274.943,192.103 275.756,192.253 276.570,192.377 277.384,192.586 278.198,192.685 279.011,192.642 279.825,192.558 280.639,192.367 281.452,192.263 282.266,192.415 283.080,192.685 283.894,192.888 284.707,193.084 285.521,193.091 286.335,193.356 287.149,193.594 287.962,193.712 288.776,193.871 289.590,193.877 290.404,193.969 291.217,194.190 292.031,194.209 292.845,194.265 293.659,194.152 294.472,193.946 295.286,193.745 296.100,193.483 296.914,193.564 297.727,193.888 298.541,194.175 299.355,194.283 300.169,194.360 300.982,194.371 301.796,194.266 302.610,193.938 303.424,193.921 304.237,193.989 305.051,194.055 305.865,194.166 306.679,194.190 307.493,194.232 308.306,194.095 309.120,193.958 309.934,193.974 310.748,194.086 311.561,194.173 312.375,194.116 313.189,193.986 314.003,193.890 314.816,193.978 315.630,194.044 316.444,194.123 317.257,194.180 318.071,194.169 318.885,194.244 319.699,194.178 320.512,194.485 321.326,194.861 322.140,195.164 322.954,195.378 323.767,195.502 324.581,195.671 325.395,195.801 326.209,195.795 327.022,195.827 327.836,195.999 328.650,196.270 329.464,196.435 330.277,196.381 331.091,196.380 331.905,196.693 332.719,196.877 333.532,197.140 334.346,197.241 335.160,197.570 335.974,197.828 336.787,198.138 337.601,198.503 338.415,198.823 339.229,198.915 340.042,199.189 340.856,199.359 341.670,199.460 342.484,199.501 343.297,199.547 344.111,199.515 344.925,199.708 345.739,199.915 346.553,200.133 347.366,200.319 348.180,200.536 348.994,200.780 349.808,200.883 350.621,200.809 351.435,200.771 352.249,200.883 353.063,200.968 353.876,200.833 354.690,200.761 355.504,200.781 356.318,200.859 357.131,200.874 357.945,200.971 358.759,200.949 359.572,201.060 360.386,201.016 361.200,201.180 362.014,201.291 362.828,201.497 363.641,201.704 364.455,201.600 365.269,201.442 366.083,201.281 366.896,201.065 367.710,200.936 368.524,200.714 369.338,200.461 370.151,200.217 370.965,200.163 371.779,200.280 372.592,200.504 373.406,200.523 374.220,200.326 375.034,200.315 375.847,200.520 376.661,200.739 377.475,200.648 378.289,200.469 379.102,200.532 379.916,200.698 380.730,200.916 381.544,200.979 382.357,201.022 383.171,200.921 383.985,200.748 384.799,200.622 385.612,200.557 386.426,200.584 387.240,200.538 388.054,200.519 388.867,200.676 389.681,200.738 390.495,200.825 391.309,201.008 392.123,201.250 392.936,201.342 393.750,201.091 394.564,200.686 395.378,200.465 396.191,200.380 397.005,200.267 397.819,200.189 398.632,200.101 399.446,199.975 400.260,199.911 401.074,200.107 401.887,200.171 402.701,200.303 403.515,200.211 404.329,200.252 405.142,200.268 405.956,200.226 406.770,200.021 407.584,199.768 408.398,199.635 409.211,199.677 410.025,200.077 410.839,200.450 411.653,200.691 412.466,200.484 413.280,200.029 414.094,199.577 414.908,199.425 415.721,199.372 416.535,199.230 417.349,199.205 418.162,199.291 418.976,199.585 419.790,199.858 420.604,199.794 421.417,199.584 422.231,199.530 423.045,199.545 423.859,199.670 424.673,199.681 425.486,199.746 426.300,199.676 427.114,199.603 427.928,199.603 428.741,199.645 429.555,199.656 430.369,199.431 431.182,199.144 431.996,199.037 432.810,199.174 433.624,199.219 434.437,199.218 435.251,199.259 436.065,199.191 436.879,199.211 437.693,199.232 438.506,199.402 439.320,199.502 440.134,199.627 440.947,199.534 441.761,199.524 442.575,199.630 443.389,199.700 444.202,199.859 445.016,199.965 445.830,200.123 446.644,200.193 447.457,200.181 448.271,200.219 449.085,200.363 449.899,200.737 450.712,201.136 451.526,201.379 452.340,201.238 453.154,201.200 453.968,201.354 454.781,201.622 455.595,202.003 456.409,202.111 457.223,202.075 458.036,202.047 458.850,202.303 459.664,202.693 460.478,202.887 461.291,202.910 462.105,202.809 462.919,202.721 463.732,202.919 464.546,203.158 465.360,203.238 466.174,203.296 466.987,203.239 467.801,203.392 468.615,203.636 469.429,203.884 470.243,204.172 471.056,204.451 471.870,204.640 472.684,204.657 473.498,204.792 474.311,204.911 475.125,204.966 "/>
<g>
</g>
</g>
<g id="ID000004" clip-path="url(#ID000001)" >
      <polyline fill="none" stroke="#0000ff" stroke-width="0.5pt" stroke-dasharray="8.0,2.0" points="68.250,183.697 69.064,183.614 69.877,183.541 70.691,183.444 71.505,183.531 72.319,183.458 73.132,183.441 73.946,183.438 74.760,183.587 75.574,183.774 76.387,183.851 77.201,183.940 78.015,184.036 78.829,184.048 79.642,183.880 80.456,183.771 81.270,183.805 82.084,183.635 82.897,183.376 83.711,183.190 84.525,183.147 85.339,183.079 86.152,182.898 86.966,182.813 87.780,182.699 88.594,182.710 89.407,182.748 90.221,182.991 91.035,183.258 91.849,183.387 92.662,183.476 93.476,183.446 94.290,183.363 95.104,183.301 95.917,183.181 96.731,183.132 97.545,182.928 98.359,182.905 99.172,182.913 99.986,183.002 100.800,183.054 101.614,183.090 102.427,183.014 103.241,182.912 104.055,182.655 104.869,182.314 105.682,181.929 106.496,181.688 107.310,181.513 108.124,181.210 108.938,180.973 109.751,180.900 110.565,180.868 111.379,180.768 112.193,180.713 113.006,180.621 113.820,180.685 114.634,180.534 115.447,180.500 116.261,180.339 117.075,180.161 117.889,180.013 118.702,179.803 119.516,179.733 120.330,179.567 121.144,179.509 121.957,179.477 122.771,179.318 123.585,179.296 124.399,179.174 125.212,179.184 126.026,179.123 126.840,178.840 127.654,178.723 128.467,178.643 129.281,178.557 130.095,178.280 130.909,177.993 131.723,177.846 132.536,177.833 133.350,177.852 134.164,178.011 134.977,177.985 135.791,177.926 136.605,177.889 137.419,177.936 138.232,178.100 139.046,177.989 139.860,177.809 140.674,177.757 141.487,177.611 142.301,177.484 143.115,177.378 143.929,177.587 144.742,177.737 145.556,177.822 146.370,177.823 147.184,177.701 147.998,177.601 148.811,177.358 149.625,177.138 150.439,176.923 151.252,176.725 152.066,176.785 152.880,176.902 153.694,176.866 154.507,176.890 155.321,176.681 156.135,176.649 156.949,176.741 157.762,176.806 158.576,176.915 159.390,176.887 160.204,176.712 161.017,176.474 161.831,176.400 162.645,176.302 163.459,176.334 164.272,176.396 165.086,176.332 165.900,176.200 166.714,175.992 167.527,176.052 168.341,176.121 169.155,176.270 169.969,176.268 170.783,176.242 171.596,175.969 172.410,175.563 173.224,175.498 174.037,175.477 174.851,175.504 175.665,175.519 176.479,175.413 177.292,175.400 178.106,175.394 178.920,175.437 179.734,175.434 180.547,175.498 181.361,175.457 182.175,175.319 182.989,175.261 183.802,175.168 184.616,175.196 185.430,174.997 186.244,174.821 187.057,174.957 187.871,175.239 188.685,175.433 189.499,175.383 190.312,175.400 191.126,175.379 191.940,175.528 192.754,175.670 193.568,175.904 194.381,176.207 195.195,176.287 196.009,176.250 196.823,176.157 197.636,176.087 198.450,176.227 199.264,176.293 200.077,176.212 200.891,176.296 201.705,176.540 202.519,176.880 203.332,176.939 204.146,176.906 204.960,176.878 205.774,177.120 206.587,177.271 207.401,177.376 208.215,177.411 209.029,177.277 209.843,177.140 210.656,177.027 211.470,177.313 212.284,177.614 213.098,177.861 213.911,177.932 214.725,178.015 215.539,178.135 216.353,178.313 217.166,178.526 217.980,178.438 218.794,178.356 219.607,178.078 220.421,177.959 221.235,177.903 222.049,177.878 222.862,178.030 223.676,177.994 224.490,177.848 225.304,177.586 226.117,177.357 226.931,177.202 227.745,177.288 228.559,177.452 229.373,177.451 230.186,177.141 231.000,176.999 231.814,176.967 232.627,177.060 233.441,176.861 234.255,176.610 235.069,176.470 235.882,176.350 236.696,176.126 237.510,175.734 238.324,175.519 239.137,175.442 239.951,175.537 240.765,175.664 241.579,175.759 242.392,175.663 243.206,175.622 244.020,175.627 244.834,175.848 245.647,175.837 246.461,175.858 247.275,175.897 248.089,175.903 248.902,175.671 249.716,175.415 250.530,175.402 251.344,175.340 252.158,175.246 252.971,175.043 253.785,174.846 254.599,174.623 255.412,174.472 256.226,174.554 257.040,174.859 257.854,175.155 258.667,175.192 259.481,175.109 260.295,174.921 261.109,174.769 261.923,174.733 262.736,174.677 263.550,174.686 264.364,174.758 265.177,174.804 265.991,174.959 266.805,175.046 267.619,175.194 268.433,175.338 269.246,175.333 270.060,175.480 270.874,175.406 271.688,175.518 272.501,175.542 273.315,175.457 274.129,175.407 274.943,175.345 275.756,175.499 276.570,175.606 277.384,175.791 278.198,175.886 279.011,175.888 279.825,175.822 280.639,175.653 281.452,175.556 282.266,175.740 283.080,176.022 283.894,176.232 284.707,176.453 285.521,176.494 286.335,176.774 287.149,177.036 287.962,177.166 288.776,177.324 289.590,177.319 290.404,177.418 291.217,177.649 292.031,177.663 292.845,177.715 293.659,177.600 294.472,177.440 295.286,177.266 296.100,177.020 296.914,177.063 297.727,177.354 298.541,177.646 299.355,177.725 300.169,177.770 300.982,177.787 301.796,177.680 302.610,177.360 303.424,177.321 304.237,177.352 305.051,177.441 305.865,177.569 306.679,177.635 307.493,177.705 308.306,177.600 309.120,177.448 309.934,177.429 310.748,177.491 311.561,177.542 312.375,177.518 313.189,177.428 314.003,177.359 314.816,177.429 315.630,177.455 316.444,177.489 317.257,177.526 318.071,177.543 318.885,177.590 319.699,177.549 320.512,177.853 321.326,178.276 322.140,178.573 322.954,178.778 323.767,178.911 324.581,179.103 325.395,179.254 326.209,179.285 327.022,179.309 327.836,179.416 328.650,179.596 329.464,179.692 330.277,179.591 331.091,179.530 331.905,179.815 332.719,179.993 333.532,180.236 334.346,180.272 335.160,180.589 335.974,180.833 336.787,181.139 337.601,181.550 338.415,181.882 339.229,182.017 340.042,182.292 340.856,182.468 341.670,182.555 342.484,182.549 343.297,182.556 344.111,182.495 344.925,182.676 345.739,182.899 346.553,183.090 347.366,183.251 348.180,183.441 348.994,183.638 349.808,183.746 350.621,183.650 351.435,183.617 352.249,183.697 353.063,183.755 353.876,183.599 354.690,183.525 355.504,183.527 356.318,183.583 357.131,183.559 357.945,183.623 358.759,183.577 359.572,183.651 360.386,183.574 361.200,183.707 362.014,183.782 362.828,183.956 363.641,184.157 364.455,184.043 365.269,183.841 366.083,183.659 366.896,183.435 367.710,183.318 368.524,183.062 369.338,182.766 370.151,182.467 370.965,182.366 371.779,182.414 372.592,182.592 373.406,182.610 374.220,182.415 375.034,182.393 375.847,182.553 376.661,182.727 377.475,182.649 378.289,182.488 379.102,182.580 379.916,182.756 380.730,182.942 381.544,182.996 382.357,183.024 383.171,182.903 383.985,182.699 384.799,182.537 385.612,182.438 386.426,182.486 387.240,182.470 388.054,182.453 388.867,182.614 389.681,182.683 390.495,182.805 391.309,183.019 392.123,183.286 392.936,183.362 393.750,183.121 394.564,182.732 395.378,182.532 396.191,182.424 397.005,182.300 397.819,182.206 398.632,182.136 399.446,182.077 400.260,182.041 401.074,182.203 401.887,182.215 402.701,182.325 403.515,182.216 404.329,182.247 405.142,182.245 405.956,182.198 406.770,181.981 407.584,181.711 408.398,181.529 409.211,181.555 410.025,181.940 410.839,182.267 411.653,182.488 412.466,182.268 413.280,181.814 414.094,181.336 414.908,181.188 415.721,181.151 416.535,181.016 417.349,181.012 418.162,181.063 418.976,181.352 419.790,181.641 420.604,181.693 421.417,181.540 422.231,181.530 423.045,181.591 423.859,181.761 424.673,181.755 425.486,181.803 426.300,181.716 427.114,181.631 427.928,181.626 428.741,181.679 429.555,181.682 430.369,181.453 431.182,181.188 431.996,181.130 432.810,181.306 433.624,181.355 434.437,181.345 435.251,181.383 436.065,181.335 436.879,181.379 437.693,181.418 438.506,181.608 439.320,181.745 440.134,181.893 440.947,181.778 441.761,181.775 442.575,181.843 443.389,181.934 444.202,182.061 445.016,182.164 445.830,182.332 446.644,182.466 447.457,182.507 448.271,182.614 449.085,182.795 449.899,183.178 450.712,183.578 451.526,183.789 452.340,183.654 453.154,183.625 453.968,183.822 454.781,184.118 455.595,184.489 456.409,184.600 457.223,184.574 458.036,184.551 458.850,184.816 459.664,185.232 460.478,185.428 461.291,185.431 462.105,185.292 462.919,185.208 463.732,185.384 464.546,185.645 465.360,185.730 466.174,185.801 466.987,185.730 467.801,185.861 468.615,186.085 469.429,186.341 470.243,186.603 471.056,186.882 471.870,187.090 472.684,187.119 473.498,187.242 474.311,187.373 475.125,187.466 "/>
<g>
</g>
</g>
<g id="ID000005" clip-path="url(#ID000001)" >
      <polyline fill="none" stroke="#007f00" stroke-width="0.5pt" stroke-dasharray="none" points="68.250,189.454 69.064,189.363 69.877,189.447 70.691,189.455 71.505,189.385 72.319,189.406 73.132,189.584 73.946,189.763 74.760,189.792 75.574,189.649 76.387,189.342 77.201,189.070 78.015,189.110 78.829,189.138 79.642,189.128 80.456,188.949 81.270,188.872 82.084,189.023 82.897,189.219 83.711,189.279 84.525,189.071 85.339,188.834 86.152,188.759 86.966,188.566 87.780,188.848 88.594,188.992 89.407,189.412 90.221,189.604 91.035,189.715 91.849,189.725 92.662,189.664 93.476,189.655 94.290,189.616 95.104,189.661 95.917,189.535 96.731,189.436 97.545,189.491 98.359,189.558 99.172,189.650 99.986,189.705 100.800,189.709 101.614,189.696 102.427,189.835 103.241,190.013 104.055,190.074 104.869,189.940 105.682,189.726 106.496,189.674 107.310,189.774 108.124,189.974 108.938,189.928 109.751,189.885 110.565,189.841 111.379,189.933 112.193,189.958 113.006,190.087 113.820,190.035 114.634,190.063 115.447,189.982 116.261,189.918 117.075,189.987 117.889,189.989 118.702,190.032 119.516,190.099 120.330,190.264 121.144,190.437 121.957,190.564 122.771,190.431 123.585,190.328 124.399,190.417 125.212,190.586 126.026,190.763 126.840,190.776 127.654,190.823 128.467,190.655 129.281,190.436 130.095,190.208 130.909,190.178 131.723,190.276 132.536,190.578 133.350,190.734 134.164,190.804 134.977,190.709 135.791,190.664 136.605,190.685 137.419,190.763 138.232,190.847 139.046,190.874 139.860,190.803 140.674,190.737 141.487,190.818 142.301,191.007 143.115,191.159 143.929,191.130 144.742,190.948 145.556,190.937 146.370,191.130 147.184,191.264 147.998,191.344 148.811,191.282 149.625,191.422 150.439,191.557 151.252,191.434 152.066,191.165 152.880,190.781 153.694,190.616 154.507,190.741 155.321,190.744 156.135,190.520 156.949,190.333 157.762,190.057 158.576,190.088 159.390,189.995 160.204,189.989 161.017,189.940 161.831,189.796 162.645,189.659 163.459,189.461 164.272,189.289 165.086,189.177 165.900,188.980 166.714,188.892 167.527,189.057 168.341,189.149 169.155,189.102 169.969,188.945 170.783,188.919 171.596,188.838 172.410,188.574 173.224,188.272 174.037,188.192 174.851,188.188 175.665,188.244 176.479,188.407 177.292,188.514 178.106,188.363 178.920,188.075 179.734,187.917 180.547,187.864 181.361,187.737 182.175,187.620 182.989,187.566 183.802,187.643 184.616,187.645 185.430,187.736 186.244,187.830 187.057,187.982 187.871,187.722 188.685,187.419 189.499,187.303 190.312,187.355 191.126,187.454 191.940,187.243 192.754,187.010 193.568,186.949 194.381,186.972 195.195,186.936 196.009,186.854 196.823,186.897 197.636,186.761 198.450,186.513 199.264,186.475 200.077,186.586 200.891,186.677 201.705,186.617 202.519,186.527 203.332,186.481 204.146,186.448 204.960,186.377 205.774,186.498 206.587,186.653 207.401,186.765 208.215,186.778 209.029,186.761 209.843,186.803 210.656,186.923 211.470,186.946 212.284,187.025 213.098,187.066 213.911,187.034 214.725,186.787 215.539,186.734 216.353,186.807 217.166,186.930 217.980,186.974 218.794,186.786 219.607,186.765 220.421,186.965 221.235,187.117 222.049,187.072 222.862,187.123 223.676,186.914 224.490,186.795 225.304,186.837 226.117,186.863 226.931,186.918 227.745,186.837 228.559,186.736 229.373,186.632 230.186,186.532 231.000,186.493 231.814,186.632 232.627,186.789 233.441,186.934 234.255,186.923 235.069,186.763 235.882,186.529 236.696,186.761 237.510,186.864 238.324,186.758 239.137,186.436 239.951,186.328 240.765,186.481 241.579,186.886 242.392,187.342 243.206,187.564 244.020,187.488 244.834,187.275 245.647,187.206 246.461,187.194 247.275,187.130 248.089,187.123 248.902,187.063 249.716,187.036 250.530,186.983 251.344,187.218 252.158,187.544 252.971,187.635 253.785,187.774 254.599,187.684 255.412,187.776 256.226,187.864 257.040,188.065 257.854,188.238 258.667,188.260 259.481,188.267 260.295,188.269 261.109,188.133 261.923,188.230 262.736,188.459 263.550,188.864 264.364,189.198 265.177,189.325 265.991,189.399 266.805,189.290 267.619,189.134 268.433,189.176 269.246,189.312 270.060,189.512 270.874,189.729 271.688,189.832 272.501,189.997 273.315,190.046 274.129,190.077 274.943,190.084 275.756,190.125 276.570,190.278 277.384,190.269 278.198,190.144 279.011,190.086 279.825,189.978 280.639,190.111 281.452,190.134 282.266,190.098 283.080,190.033 283.894,190.076 284.707,190.153 285.521,190.043 286.335,189.974 287.149,189.872 287.962,190.016 288.776,189.960 289.590,189.837 290.404,189.667 291.217,189.395 292.031,189.367 292.845,189.387 293.659,189.516 294.472,189.624 295.286,189.606 296.100,189.393 296.914,189.075 297.727,188.879 298.541,188.867 299.355,188.744 300.169,188.464 300.982,188.220 301.796,187.989 302.610,187.904 303.424,188.071 304.237,188.210 305.051,188.248 305.865,188.137 306.679,188.008 307.493,187.895 308.306,187.954 309.120,187.760 309.934,187.548 310.748,187.288 311.561,187.023 312.375,186.871 313.189,186.907 314.003,187.139 314.816,187.238 315.630,187.222 316.444,187.191 317.257,187.317 318.071,187.483 318.885,187.469 319.699,187.233 320.512,187.033 321.326,186.966 322.140,187.088 322.954,187.262 323.767,187.044 324.581,186.878 325.395,186.986 326.209,187.216 327.022,187.447 327.836,187.608 328.650,187.654 329.464,187.549 330.277,187.438 331.091,187.443 331.905,187.415 332.719,187.291 333.532,187.235 334.346,187.345 335.160,187.443 335.974,187.511 336.787,187.385 337.601,187.355 338.415,187.243 339.229,187.313 340.042,187.349 340.856,187.528 341.670,187.664 342.484,187.705 343.297,187.449 344.111,187.397 344.925,187.348 345.739,187.679 346.553,187.967 347.366,188.273 348.180,188.183 348.994,187.911 349.808,187.744 350.621,187.710 351.435,187.608 352.249,187.517 353.063,187.483 353.876,187.630 354.690,187.739 355.504,187.745 356.318,187.610 357.131,187.613 357.945,187.456 358.759,187.340 359.572,187.237 360.386,187.091 361.200,186.844 362.014,186.792 362.828,186.943 363.641,187.044 364.455,186.849 365.269,186.605 366.083,186.605 366.896,186.790 367.710,187.020 368.524,187.084 369.338,186.920 370.151,186.645 370.965,186.512 371.779,186.378 372.592,186.335 373.406,186.411 374.220,186.498 375.034,186.828 375.847,187.076 376.661,187.263 377.475,187.324 378.289,187.306 379.102,187.388 379.916,187.574 380.730,187.559 381.544,187.513 382.357,187.356 383.171,187.320 383.985,187.338 384.799,187.222 385.612,187.435 386.426,187.648 387.240,187.782 388.054,187.861 388.867,188.041 389.681,188.167 390.495,188.197 391.309,188.004 392.123,187.655 392.936,187.357 393.750,187.353 394.564,187.368 395.378,187.224 396.191,187.298 397.005,187.348 397.819,187.571 398.632,187.536 399.446,187.646 400.260,187.700 401.074,187.775 401.887,187.924 402.701,187.886 403.515,188.018 404.329,187.959 405.142,187.973 405.956,188.075 406.770,188.030 407.584,188.133 408.398,188.068 409.211,187.968 410.025,188.098 410.839,188.187 411.653,188.300 412.466,188.289 413.280,188.357 414.094,188.640 414.908,188.995 415.721,189.155 416.535,189.024 417.349,188.783 418.162,188.656 418.976,188.709 419.790,188.794 420.604,188.872 421.417,188.989 422.231,189.088 423.045,189.378 423.859,189.605 424.673,189.704 425.486,189.771 426.300,189.880 427.114,190.002 427.928,189.980 428.741,190.031 429.555,190.121 430.369,190.389 431.182,190.693 431.996,190.852 432.810,190.788 433.624,190.685 434.437,190.987 435.251,191.297 436.065,191.535 436.879,191.449 437.693,191.578 438.506,191.733 439.320,191.896 440.134,192.011 440.947,192.059 441.761,192.101 442.575,192.237 443.389,192.324 444.202,192.552 445.016,192.541 445.830,192.600 446.644,192.491 447.457,192.599 448.271,192.429 449.085,192.167 449.899,191.992 450.712,192.027 451.526,192.121 452.340,192.112 453.154,192.017 453.968,192.121 454.781,192.178 455.595,192.199 456.409,192.369 457.223,192.582 458.036,192.740 458.850,192.731 459.664,192.578 460.478,192.488 461.291,192.340 462.105,192.330 462.919,192.461 463.732,192.867 464.546,193.145 465.360,192.986 466.174,192.898 466.987,192.814 467.801,192.880 468.615,192.803 469.429,192.740 470.243,192.840 471.056,193.089 471.870,193.381 472.684,193.543 473.498,193.426 474.311,193.330 475.125,193.334 "/>
<g>
</g>
</g>
<g id="ID000006" clip-path="url(#ID000001)" >
      <polyline fill="none" stroke="#007f00" stroke-width="0.5pt" stroke-dasharray="8.0,2.0" points="68.250,198.596 69.064,198.533 69.877,198.611 70.691,198.599 71.505,198.511 72.319,198.525 73.132,198.698 73.946,198.870 74.760,198.882 75.574,198.737 76.387,198.434 77.201,198.157 78.015,198.199 78.829,198.231 79.642,198.238 80.456,198.090 81.270,198.047 82.084,198.209 82.897,198.395 83.711,198.437 84.525,198.226 85.339,198.000 86.152,197.948 86.966,197.779 87.780,198.094 88.594,198.252 89.407,198.692 90.221,198.874 91.035,198.970 91.849,198.965 92.662,198.900 93.476,198.906 94.290,198.866 95.104,198.899 95.917,198.767 96.731,198.676 97.545,198.742 98.359,198.817 99.172,198.913 99.986,198.983 100.800,199.008 101.614,199.000 102.427,199.142 103.241,199.318 104.055,199.376 104.869,199.240 105.682,199.041 106.496,198.996 107.310,199.095 108.124,199.292 108.938,199.235 109.751,199.182 110.565,199.139 111.379,199.255 112.193,199.315 113.006,199.455 113.820,199.409 114.634,199.420 115.447,199.328 116.261,199.246 117.075,199.306 117.889,199.282 118.702,199.319 119.516,199.396 120.330,199.587 121.144,199.751 121.957,199.862 122.771,199.732 123.585,199.639 124.399,199.740 125.212,199.916 126.026,200.105 126.840,200.120 127.654,200.146 128.467,199.938 129.281,199.698 130.095,199.468 130.909,199.457 131.723,199.553 132.536,199.833 133.350,199.957 134.164,200.019 134.977,199.929 135.791,199.889 136.605,199.922 137.419,200.002 138.232,200.087 139.046,200.095 139.860,199.996 140.674,199.887 141.487,199.929 142.301,200.108 143.115,200.242 143.929,200.208 144.742,200.026 145.556,200.017 146.370,200.214 147.184,200.319 147.998,200.369 148.811,200.284 149.625,200.403 150.439,200.535 151.252,200.419 152.066,200.153 152.880,199.755 153.694,199.571 154.507,199.673 155.321,199.671 156.135,199.458 156.949,199.271 157.762,198.969 158.576,198.969 159.390,198.861 160.204,198.838 161.017,198.785 161.831,198.625 162.645,198.485 163.459,198.274 164.272,198.115 165.086,197.993 165.900,197.784 166.714,197.672 167.527,197.836 168.341,197.953 169.155,197.939 169.969,197.797 170.783,197.763 171.596,197.686 172.410,197.435 173.224,197.133 174.037,197.040 174.851,197.026 175.665,197.085 176.479,197.250 177.292,197.334 178.106,197.188 178.920,196.917 179.734,196.790 180.547,196.756 181.361,196.632 182.175,196.509 182.989,196.455 183.802,196.546 184.616,196.562 185.430,196.660 186.244,196.745 187.057,196.908 187.871,196.683 188.685,196.409 189.499,196.315 190.312,196.374 191.126,196.483 191.940,196.284 192.754,196.057 193.568,196.007 194.381,196.048 195.195,196.014 196.009,195.923 196.823,195.952 197.636,195.846 198.450,195.662 199.264,195.696 200.077,195.836 200.891,195.939 201.705,195.868 202.519,195.788 203.332,195.749 204.146,195.714 204.960,195.633 205.774,195.740 206.587,195.895 207.401,196.014 208.215,196.031 209.029,196.027 209.843,196.068 210.656,196.185 211.470,196.189 212.284,196.265 213.098,196.310 213.911,196.305 214.725,196.073 215.539,196.005 216.353,196.067 217.166,196.182 217.980,196.211 218.794,196.029 219.607,196.009 220.421,196.206 221.235,196.354 222.049,196.280 222.862,196.325 223.676,196.123 224.490,195.999 225.304,196.044 226.117,196.068 226.931,196.125 227.745,196.029 228.559,195.911 229.373,195.774 230.186,195.665 231.000,195.624 231.814,195.762 232.627,195.920 233.441,196.069 234.255,196.038 235.069,195.855 235.882,195.565 236.696,195.759 237.510,195.840 238.324,195.717 239.137,195.382 239.951,195.246 240.765,195.397 241.579,195.803 242.392,196.250 243.206,196.453 244.020,196.327 244.834,196.079 245.647,195.984 246.461,195.984 247.275,195.920 248.089,195.879 248.902,195.795 249.716,195.752 250.530,195.728 251.344,195.970 252.158,196.314 252.971,196.396 253.785,196.532 254.599,196.430 255.412,196.517 256.226,196.583 257.040,196.786 257.854,196.974 258.667,197.019 259.481,197.030 260.295,197.033 261.109,196.891 261.923,196.978 262.736,197.201 263.550,197.628 264.364,197.975 265.177,198.100 265.991,198.190 266.805,198.108 267.619,197.961 268.433,197.999 269.246,198.143 270.060,198.371 270.874,198.617 271.688,198.730 272.501,198.920 273.315,198.970 274.129,199.009 274.943,199.029 275.756,199.082 276.570,199.244 277.384,199.238 278.198,199.114 279.011,199.091 279.825,199.009 280.639,199.151 281.452,199.166 282.266,199.128 283.080,199.046 283.894,199.064 284.707,199.140 285.521,199.028 286.335,198.966 287.149,198.853 287.962,198.995 288.776,198.938 289.590,198.839 290.404,198.696 291.217,198.444 292.031,198.412 292.845,198.425 293.659,198.537 294.472,198.611 295.286,198.596 296.100,198.413 296.914,198.156 297.727,197.974 298.541,197.974 299.355,197.844 300.169,197.574 300.982,197.318 301.796,197.082 302.610,196.966 303.424,197.105 304.237,197.224 305.051,197.262 305.865,197.149 306.679,197.030 307.493,196.944 308.306,197.055 309.120,196.904 309.934,196.704 310.748,196.442 311.561,196.163 312.375,195.996 313.189,196.019 314.003,196.259 314.816,196.381 315.630,196.384 316.444,196.361 317.257,196.474 318.071,196.644 318.885,196.667 319.699,196.451 320.512,196.251 321.326,196.183 322.140,196.292 322.954,196.470 323.767,196.235 324.581,196.091 325.395,196.209 326.209,196.437 327.022,196.667 327.836,196.809 328.650,196.843 329.464,196.730 330.277,196.630 331.091,196.652 331.905,196.610 332.719,196.469 333.532,196.405 334.346,196.509 335.160,196.588 335.974,196.630 336.787,196.479 337.601,196.423 338.415,196.290 339.229,196.339 340.042,196.352 340.856,196.512 341.670,196.663 342.484,196.701 343.297,196.438 344.111,196.361 344.925,196.280 345.739,196.587 346.553,196.840 347.366,197.085 348.180,196.947 348.994,196.636 349.808,196.468 350.621,196.435 351.435,196.331 352.249,196.220 353.063,196.193 353.876,196.336 354.690,196.444 355.504,196.421 356.318,196.272 357.131,196.240 357.945,196.035 358.759,195.863 359.572,195.743 360.386,195.610 361.200,195.379 362.014,195.311 362.828,195.410 363.641,195.464 364.455,195.238 365.269,195.006 366.083,195.030 366.896,195.219 367.710,195.451 368.524,195.516 369.338,195.352 370.151,195.038 370.965,194.894 371.779,194.765 372.592,194.736 373.406,194.788 374.220,194.832 375.034,195.150 375.847,195.402 376.661,195.608 377.475,195.679 378.289,195.671 379.102,195.764 379.916,195.929 380.730,195.909 381.544,195.858 382.357,195.697 383.171,195.649 383.985,195.661 384.799,195.546 385.612,195.761 386.426,195.965 387.240,196.072 388.054,196.124 388.867,196.265 389.681,196.379 390.495,196.410 391.309,196.220 392.123,195.889 392.936,195.576 393.750,195.570 394.564,195.593 395.378,195.445 396.191,195.496 397.005,195.521 397.819,195.742 398.632,195.718 399.446,195.839 400.260,195.905 401.074,195.996 401.887,196.163 402.701,196.135 403.515,196.257 404.329,196.175 405.142,196.176 405.956,196.269 406.770,196.216 407.584,196.304 408.398,196.258 409.211,196.208 410.025,196.383 410.839,196.497 411.653,196.596 412.466,196.560 413.280,196.623 414.094,196.930 414.908,197.285 415.721,197.456 416.535,197.313 417.349,197.081 418.162,196.962 418.976,197.023 419.790,197.082 420.604,197.144 421.417,197.255 422.231,197.362 423.045,197.663 423.859,197.898 424.673,198.022 425.486,198.101 426.300,198.226 427.114,198.349 427.928,198.326 428.741,198.368 429.555,198.444 430.369,198.725 431.182,199.038 431.996,199.215 432.810,199.125 433.624,198.997 434.437,199.308 435.251,199.658 436.065,199.954 436.879,199.922 437.693,200.100 438.506,200.271 439.320,200.416 440.134,200.514 440.947,200.561 441.761,200.620 442.575,200.770 443.389,200.878 444.202,201.132 445.016,201.155 445.830,201.235 446.644,201.120 447.457,201.230 448.271,201.080 449.085,200.832 449.899,200.672 450.712,200.690 451.526,200.803 452.340,200.804 453.154,200.724 453.968,200.835 454.781,200.897 455.595,200.949 456.409,201.140 457.223,201.363 458.036,201.530 458.850,201.541 459.664,201.416 460.478,201.316 461.291,201.184 462.105,201.187 462.919,201.342 463.732,201.749 464.546,202.024 465.360,201.825 466.174,201.713 466.987,201.609 467.801,201.684 468.615,201.633 469.429,201.605 470.243,201.739 471.056,201.972 471.870,202.247 472.684,202.402 473.498,202.294 474.311,202.212 475.125,202.223 "/>
<g>
</g>
</g>
<g id="ID000007" clip-path="url(#ID000001)" >
      <polyline fill="none" stroke="#007f00" stroke-width="0.5pt" stroke-dasharray="8.0,2.0" points="68.250,180.311 69.064,180.194 69.877,180.283 70.691,180.311 71.505,180.259 72.319,180.286 73.132,180.470 73.946,180.655 74.760,180.703 75.574,180.562 76.387,180.250 77.201,179.983 78.015,180.020 78.829,180.045 79.642,180.018 80.456,179.809 81.270,179.696 82.084,179.836 82.897,180.043 83.711,180.121 84.525,179.915 85.339,179.667 86.152,179.571 86.966,179.354 87.780,179.601 88.594,179.732 89.407,180.132 90.221,180.334 91.035,180.460 91.849,180.485 92.662,180.429 93.476,180.404 94.290,180.366 95.104,180.423 95.917,180.302 96.731,180.196 97.545,180.239 98.359,180.298 99.172,180.386 99.986,180.428 100.800,180.411 101.614,180.392 102.427,180.528 103.241,180.708 104.055,180.772 104.869,180.639 105.682,180.410 106.496,180.352 107.310,180.454 108.124,180.656 108.938,180.622 109.751,180.588 110.565,180.543 111.379,180.610 112.193,180.601 113.006,180.718 113.820,180.661 114.634,180.707 115.447,180.635 116.261,180.590 117.075,180.669 117.889,180.696 118.702,180.745 119.516,180.802 120.330,180.941 121.144,181.123 121.957,181.266 122.771,181.129 123.585,181.017 124.399,181.095 125.212,181.255 126.026,181.422 126.840,181.432 127.654,181.500 128.467,181.371 129.281,181.175 130.095,180.949 130.909,180.899 131.723,181.000 132.536,181.323 133.350,181.511 134.164,181.589 134.977,181.489 135.791,181.440 136.605,181.448 137.419,181.524 138.232,181.608 139.046,181.652 139.860,181.611 140.674,181.586 141.487,181.708 142.301,181.906 143.115,182.077 143.929,182.051 144.742,181.871 145.556,181.857 146.370,182.046 147.184,182.209 147.998,182.319 148.811,182.280 149.625,182.442 150.439,182.580 151.252,182.448 152.066,182.178 152.880,181.807 153.694,181.660 154.507,181.808 155.321,181.817 156.135,181.582 156.949,181.394 157.762,181.145 158.576,181.206 159.390,181.130 160.204,181.141 161.017,181.096 161.831,180.967 162.645,180.833 163.459,180.647 164.272,180.464 165.086,180.362 165.900,180.175 166.714,180.112 167.527,180.278 168.341,180.345 169.155,180.266 169.969,180.094 170.783,180.075 171.596,179.989 172.410,179.713 173.224,179.411 174.037,179.344 174.851,179.349 175.665,179.403 176.479,179.565 177.292,179.695 178.106,179.538 178.920,179.234 179.734,179.043 180.547,178.973 181.361,178.843 182.175,178.731 182.989,178.677 183.802,178.740 184.616,178.727 185.430,178.813 186.244,178.915 187.057,179.056 187.871,178.760 188.685,178.429 189.499,178.290 190.312,178.336 191.126,178.424 191.940,178.202 192.754,177.963 193.568,177.891 194.381,177.895 195.195,177.858 196.009,177.786 196.823,177.842 197.636,177.677 198.450,177.364 199.264,177.255 200.077,177.336 200.891,177.414 201.705,177.366 202.519,177.265 203.332,177.212 204.146,177.181 204.960,177.120 205.774,177.257 206.587,177.410 207.401,177.515 208.215,177.524 209.029,177.495 209.843,177.538 210.656,177.661 211.470,177.703 212.284,177.786 213.098,177.822 213.911,177.763 214.725,177.502 215.539,177.464 216.353,177.547 217.166,177.678 217.980,177.736 218.794,177.543 219.607,177.521 220.421,177.724 221.235,177.879 222.049,177.864 222.862,177.921 223.676,177.705 224.490,177.591 225.304,177.631 226.117,177.658 226.931,177.710 227.745,177.645 228.559,177.562 229.373,177.490 230.186,177.399 231.000,177.362 231.814,177.503 232.627,177.658 233.441,177.798 234.255,177.808 235.069,177.670 235.882,177.493 236.696,177.762 237.510,177.888 238.324,177.798 239.137,177.491 239.951,177.409 240.765,177.565 241.579,177.968 242.392,178.434 243.206,178.676 244.020,178.648 244.834,178.471 245.647,178.428 246.461,178.404 247.275,178.340 248.089,178.367 248.902,178.330 249.716,178.320 250.530,178.237 251.344,178.467 252.158,178.775 252.971,178.874 253.785,179.016 254.599,178.939 255.412,179.035 256.226,179.145 257.040,179.343 257.854,179.502 258.667,179.502 259.481,179.504 260.295,179.505 261.109,179.376 261.923,179.482 262.736,179.718 263.550,180.100 264.364,180.420 265.177,180.550 265.991,180.608 266.805,180.471 267.619,180.308 268.433,180.353 269.246,180.480 270.060,180.654 270.874,180.841 271.688,180.934 272.501,181.074 273.315,181.123 274.129,181.144 274.943,181.138 275.756,181.168 276.570,181.313 277.384,181.299 278.198,181.173 279.011,181.082 279.825,180.947 280.639,181.072 281.452,181.102 282.266,181.068 283.080,181.020 283.894,181.088 284.707,181.166 285.521,181.058 286.335,180.981 287.149,180.891 287.962,181.038 288.776,180.981 289.590,180.835 290.404,180.638 291.217,180.346 292.031,180.322 292.845,180.348 293.659,180.494 294.472,180.637 295.286,180.617 296.100,180.372 296.914,179.993 297.727,179.784 298.541,179.761 299.355,179.643 300.169,179.355 300.982,179.121 301.796,178.897 302.610,178.842 303.424,179.038 304.237,179.196 305.051,179.234 305.865,179.125 306.679,178.986 307.493,178.845 308.306,178.853 309.120,178.615 309.934,178.393 310.748,178.134 311.561,177.884 312.375,177.746 313.189,177.795 314.003,178.020 314.816,178.096 315.630,178.061 316.444,178.020 317.257,178.159 318.071,178.322 318.885,178.271 319.699,178.016 320.512,177.815 321.326,177.750 322.140,177.884 322.954,178.054 323.767,177.853 324.581,177.664 325.395,177.763 326.209,177.995 327.022,178.227 327.836,178.406 328.650,178.465 329.464,178.369 330.277,178.246 331.091,178.235 331.905,178.220 332.719,178.113 333.532,178.065 334.346,178.180 335.160,178.299 335.974,178.391 336.787,178.290 337.601,178.286 338.415,178.197 339.229,178.288 340.042,178.346 340.856,178.545 341.670,178.665 342.484,178.709 343.297,178.460 344.111,178.433 344.925,178.415 345.739,178.771 346.553,179.094 347.366,179.462 348.180,179.419 348.994,179.186 349.808,179.021 350.621,178.986 351.435,178.884 352.249,178.814 353.063,178.774 353.876,178.924 354.690,179.033 355.504,179.070 356.318,178.947 357.131,178.985 357.945,178.877 358.759,178.817 359.572,178.731 360.386,178.573 361.200,178.309 362.014,178.273 362.828,178.476 363.641,178.625 364.455,178.461 365.269,178.204 366.083,178.180 366.896,178.360 367.710,178.589 368.524,178.653 369.338,178.489 370.151,178.251 370.965,178.130 371.779,177.991 372.592,177.933 373.406,178.034 374.220,178.163 375.034,178.506 375.847,178.750 376.661,178.918 377.475,178.969 378.289,178.941 379.102,179.011 379.916,179.220 380.730,179.209 381.544,179.168 382.357,179.014 383.171,178.990 383.985,179.015 384.799,178.899 385.612,179.109 386.426,179.332 387.240,179.492 388.054,179.599 388.867,179.817 389.681,179.955 390.495,179.985 391.309,179.788 392.123,179.421 392.936,179.138 393.750,179.137 394.564,179.144 395.378,179.002 396.191,179.099 397.005,179.174 397.819,179.400 398.632,179.355 399.446,179.452 400.260,179.495 401.074,179.554 401.887,179.684 402.701,179.636 403.515,179.780 404.329,179.742 405.142,179.771 405.956,179.880 406.770,179.844 407.584,179.961 408.398,179.877 409.211,179.729 410.025,179.814 410.839,179.877 411.653,180.004 412.466,180.017 413.280,180.091 414.094,180.350 414.908,180.705 415.721,180.854 416.535,180.736 417.349,180.484 418.162,180.349 418.976,180.394 419.790,180.506 420.604,180.601 421.417,180.723 422.231,180.815 423.045,181.092 423.859,181.312 424.673,181.386 425.486,181.441 426.300,181.534 427.114,181.656 427.928,181.634 428.741,181.693 429.555,181.798 430.369,182.054 431.182,182.348 431.996,182.488 432.810,182.450 433.624,182.372 434.437,182.666 435.251,182.935 436.065,183.116 436.879,182.976 437.693,183.055 438.506,183.195 439.320,183.376 440.134,183.509 440.947,183.556 441.761,183.582 442.575,183.704 443.389,183.770 444.202,183.972 445.016,183.927 445.830,183.966 446.644,183.862 447.457,183.968 448.271,183.777 449.085,183.501 449.899,183.312 450.712,183.364 451.526,183.439 452.340,183.420 453.154,183.310 453.968,183.407 454.781,183.459 455.595,183.448 456.409,183.598 457.223,183.801 458.036,183.949 458.850,183.920 459.664,183.740 460.478,183.660 461.291,183.496 462.105,183.474 462.919,183.580 463.732,183.984 464.546,184.267 465.360,184.147 466.174,184.083 466.987,184.019 467.801,184.076 468.615,183.974 469.429,183.875 470.243,183.942 471.056,184.206 471.870,184.514 472.684,184.684 473.498,184.558 474.311,184.448 475.125,184.444 "/>
<g>
</g>
</g>
<g id="ID000008" >
  <g transform="translate(271.219,381.394)">
    <g transform="rotate(-0.0)">
      <text x="0.000" y="0.000" font-family="Helvetica" text-anchor="middle" font-size="9pt" fill="#000000" >Time (ms)</text>
    </g>
  </g>
</g>
<g id="ID000009" >
  <g transform="translate(35.437,191.392)">
    <g transform="rotate(-90.0)">
      <text x="0.000" y="0.000" font-family="Helvetica" text-anchor="middle" font-size="9pt" fill="#000000" >Vergence (deg)</text>
    </g>
  </g>
</g>
<g id="ID000010" >
</g>
    </g>
    <g>
      <polyline fill="none" stroke="#000000" stroke-width="0.5pt" stroke-dasharray="none" points="68.250,350.438 68.250,346.369 "/>
      <polyline fill="none" stroke="#000000" stroke-width="0.5pt" stroke-dasharray="none" points="108.938,350.438 108.938,346.369 "/>
      <polyline fill="none" stroke="#000000" stroke-width="0.5pt" stroke-dasharray="none" points="149.625,350.438 149.625,346.369 "/>
      <polyline fill="none" stroke="#000000" stroke-width="0.5pt" stroke-dasharray="none" points="190.313,350.438 190.313,346.369 "/>
      <polyline fill="none" stroke="#000000" stroke-width="0.5pt" stroke-dasharray="none" points="231.000,350.438 231.000,346.369 "/>
      <polyline fill="none" stroke="#000000" stroke-width="0.5pt" stroke-dasharray="none" points="271.688,350.438 271.688,346.369 "/>
      <polyline fill="none" stroke="#000000" stroke-width="0.5pt" stroke-dasharray="none" points="312.375,350.438 312.375,346.369 "/>
      <polyline fill="none" stroke="#000000" stroke-width="0.5pt" stroke-dasharray="none" points="353.063,350.438 353.063,346.369 "/>
      <polyline fill="none" stroke="#000000" stroke-width="0.5pt" stroke-dasharray="none" points="393.750,350.438 393.750,346.369 "/>
      <polyline fill="none" stroke="#000000" stroke-width="0.5pt" stroke-dasharray="none" points="434.438,350.438 434.438,346.369 "/>
      <polyline fill="none" stroke="#000000" stroke-width="0.5pt" stroke-dasharray="none" points="475.125,350.438 475.125,346.369 "/>
      <polyline fill="none" stroke="#000000" stroke-width="0.5pt" stroke-dasharray="none" points="68.250,350.438 475.125,350.438 "/>
  <g transform="translate(68.250,367.918)">
    <g transform="rotate(-0.0)">
      <text x="0.000" y="0.000" font-family="Helvetica" text-anchor="middle" font-size="9pt" fill="#000000" >-100</text>
    </g>
  </g>
  <g transform="translate(108.938,367.918)">
    <g transform="rotate(-0.0)">
      <text x="0.000" y="0.000" font-family="Helvetica" text-anchor="middle" font-size="9pt" fill="#000000" >-50</text>
    </g>
  </g>
  <g transform="translate(149.625,367.918)">
    <g transform="rotate(-0.0)">
      <text x="0.000" y="0.000" font-family="Helvetica" text-anchor="middle" font-size="9pt" fill="#000000" >0</text>
    </g>
  </g>
  <g transform="translate(190.313,367.918)">
    <g transform="rotate(-0.0)">
      <text x="0.000" y="0.000" font-family="Helvetica" text-anchor="middle" font-size="9pt" fill="#000000" >50</text>
    </g>
  </g>
  <g transform="translate(231.000,367.918)">
    <g transform="rotate(-0.0)">
      <text x="0.000" y="0.000" font-family="Helvetica" text-anchor="middle" font-size="9pt" fill="#000000" >100</text>
    </g>
  </g>
  <g transform="translate(271.688,367.918)">
    <g transform="rotate(-0.0)">
      <text x="0.000" y="0.000" font-family="Helvetica" text-anchor="middle" font-size="9pt" fill="#000000" >150</text>
    </g>
  </g>
  <g transform="translate(312.375,367.918)">
    <g transform="rotate(-0.0)">
      <text x="0.000" y="0.000" font-family="Helvetica" text-anchor="middle" font-size="9pt" fill="#000000" >200</text>
    </g>
  </g>
  <g transform="translate(353.063,367.918)">
    <g transform="rotate(-0.0)">
      <text x="0.000" y="0.000" font-family="Helvetica" text-anchor="middle" font-size="9pt" fill="#000000" >250</text>
    </g>
  </g>
  <g transform="translate(393.750,367.918)">
    <g transform="rotate(-0.0)">
      <text x="0.000" y="0.000" font-family="Helvetica" text-anchor="middle" font-size="9pt" fill="#000000" >300</text>
    </g>
  </g>
  <g transform="translate(434.438,367.918)">
    <g transform="rotate(-0.0)">
      <text x="0.000" y="0.000" font-family="Helvetica" text-anchor="middle" font-size="9pt" fill="#000000" >350</text>
    </g>
  </g>
  <g transform="translate(475.125,367.918)">
    <g transform="rotate(-0.0)">
      <text x="0.000" y="0.000" font-family="Helvetica" text-anchor="middle" font-size="9pt" fill="#000000" >400</text>
    </g>
  </g>
      <polyline fill="none" stroke="#000000" stroke-width="0.5pt" stroke-dasharray="none" points="68.250,350.438 72.319,350.438 "/>
      <polyline fill="none" stroke="#000000" stroke-width="0.5pt" stroke-dasharray="none" points="68.250,318.347 72.319,318.347 "/>
      <polyline fill="none" stroke="#000000" stroke-width="0.5pt" stroke-dasharray="none" points="68.250,286.256 72.319,286.256 "/>
      <polyline fill="none" stroke="#000000" stroke-width="0.5pt" stroke-dasharray="none" points="68.250,254.166 72.319,254.166 "/>
      <polyline fill="none" stroke="#000000" stroke-width="0.5pt" stroke-dasharray="none" points="68.250,222.075 72.319,222.075 "/>
      <polyline fill="none" stroke="#000000" stroke-width="0.5pt" stroke-dasharray="none" points="68.250,189.984 72.319,189.984 "/>
      <polyline fill="none" stroke="#000000" stroke-width="0.5pt" stroke-dasharray="none" points="68.250,157.894 72.319,157.894 "/>
      <polyline fill="none" stroke="#000000" stroke-width="0.5pt" stroke-dasharray="none" points="68.250,125.803 72.319,125.803 "/>
      <polyline fill="none" stroke="#000000" stroke-width="0.5pt" stroke-dasharray="none" points="68.250,93.713 72.319,93.713 "/>
      <polyline fill="none" stroke="#000000" stroke-width="0.5pt" stroke-dasharray="none" points="68.250,61.622 72.319,61.622 "/>
      <polyline fill="none" stroke="#000000" stroke-width="0.5pt" stroke-dasharray="none" points="68.250,29.531 72.319,29.531 "/>
      <polyline fill="none" stroke="#000000" stroke-width="0.5pt" stroke-dasharray="none" points="68.250,350.438 68.250,29.531 "/>
  <g transform="translate(60.112,354.656)">
    <g transform="rotate(-0.0)">
      <text x="0.000" y="0.000" font-family="Helvetica" text-anchor="end" font-size="9pt" fill="#000000" >-1</text>
    </g>
  </g>
  <g transform="translate(60.112,322.566)">
    <g transform="rotate(-0.0)">
      <text x="0.000" y="0.000" font-family="Helvetica" text-anchor="end" font-size="9pt" fill="#000000" >-0.8</text>
    </g>
  </g>
  <g transform="translate(60.112,290.475)">
    <g transform="rotate(-0.0)">
      <text x="0.000" y="0.000" font-family="Helvetica" text-anchor="end" font-size="9pt" fill="#000000" >-0.6</text>
    </g>
  </g>
  <g transform="translate(60.112,258.384)">
    <g transform="rotate(-0.0)">
      <text x="0.000" y="0.000" font-family="Helvetica" text-anchor="end" font-size="9pt" fill="#000000" >-0.4</text>
    </g>
  </g>
  <g transform="translate(60.112,226.294)">
    <g transform="rotate(-0.0)">
      <text x="0.000" y="0.000" font-family="Helvetica" text-anchor="end" font-size="9pt" fill="#000000" >-0.2</text>
    </g>
  </g>
  <g transform="translate(60.112,194.203)">
    <g transform="rotate(-0.0)">
      <text x="0.000" y="0.000" font-family="Helvetica" text-anchor="end" font-size="9pt" fill="#000000" >0</text>
    </g>
  </g>
  <g transform="translate(60.112,162.113)">
    <g transform="rotate(-0.0)">
      <text x="0.000" y="0.000" font-family="Helvetica" text-anchor="end" font-size="9pt" fill="#000000" >0.2</text>
    </g>
  </g>
  <g transform="translate(60.112,130.022)">
    <g transform="rotate(-0.0)">
      <text x="0.000" y="0.000" font-family="Helvetica" text-anchor="end" font-size="9pt" fill="#000000" >0.4</text>
    </g>
  </g>
  <g transform="translate(60.112,97.931)">
    <g transform="rotate(-0.0)">
      <text x="0.000" y="0.000" font-family="Helvetica" text-anchor="end" font-size="9pt" fill="#000000" >0.6</text>
    </g>
  </g>
  <g transform="translate(60.112,65.841)">
    <g transform="rotate(-0.0)">
      <text x="0.000" y="0.000" font-family="Helvetica" text-anchor="end" font-size="9pt" fill="#000000" >0.8</text>
    </g>
  </g>
  <g transform="translate(60.112,33.750)">
    <g transform="rotate(-0.0)">
      <text x="0.000" y="0.000" font-family="Helvetica" text-anchor="end" font-size="9pt" fill="#000000" >1</text>
    </g>
  </g>
      <polyline fill="none" stroke="#000000" stroke-width="0.5pt" stroke-dasharray="none" points="68.250,350.438 68.250,347.228 "/>
      <polyline fill="none" stroke="#000000" stroke-width="0.5pt" stroke-dasharray="none" points="68.250,350.438 68.250,347.228 "/>
      <polyline fill="none" stroke="#000000" stroke-width="0.5pt" stroke-dasharray="none" points="68.250,350.437 68.250,347.228 "/>
      <polyline fill="none" stroke="#000000" stroke-width="0.5pt" stroke-dasharray="none" points="68.250,350.438 68.250,350.437 "/>
    </g>
  </g>
  </g>
</svg>
