<?xml version="1.0" encoding="utf-8" standalone="no"?><!DOCTYPE svg PUBLIC "-//W3C//DTD SVG 1.1//EN" "http://www.w3.org/Graphics/SVG/1.1/DTD/svg11.dtd">
<svg preserveAspectRatio="xMinYMin meet" width="100%" height="100%" viewBox="0 0 525.000 393.750"  version="1.1" xmlns="http://www.w3.org/2000/svg" xmlns:xlink="http://www.w3.org/1999/xlink">
  <desc>Matlab Figure Converted by PLOT2SVG written by Juerg Schwizer</desc>
  <g id="topgroup">
  <rect x="0" y="0" width="525.000" height="393.750" fill="#ffffff" stroke="none" />
  <g id ="ID000000">
  <clipPath id="ID000001">
    <rect x="68.250" y="29.531" width="406.875" height="320.906"/>
  </clipPath>
      <polygon fill="#ffffff" fill-opacity="1.00" stroke="none" stroke-width="0.5pt" stroke-opacity="1.00" stroke-dasharray="none" points="68.250,350.438 475.125,350.438 475.125,29.531 68.250,29.531 "/>
      <polygon fill="#ffffff" fill-opacity="1.00" stroke="none" stroke-width="0.5pt" stroke-opacity="1.00" stroke-dasharray="none" points="68.250,29.531 475.125,29.531 475.125,29.531 68.250,29.531 "/>
      <polygon fill="#ffffff" fill-opacity="1.00" stroke="none" stroke-width="0.5pt" stroke-opacity="1.00" stroke-dasharray="none" points="68.250,350.438 68.250,350.437 68.250,29.531 68.250,29.531 "/>
    <g>
<g id="ID000002" clip-path="url(#ID000001)" >
      <polyline fill="none" stroke="#0000ff" stroke-width="0.5pt" stroke-dasharray="none" points="68.250,192.329 69.064,192.395 69.877,192.285 70.691,192.260 71.505,192.182 72.319,192.146 73.132,192.198 73.946,192.053 74.760,191.631 75.574,191.106 76.387,190.866 77.201,190.967 78.015,191.488 78.829,191.596 79.642,191.542 80.456,191.375 81.270,191.531 82.084,191.556 82.897,191.328 83.711,191.060 84.525,191.084 85.339,191.427 86.152,191.571 86.966,191.401 87.780,191.101 88.594,190.960 89.407,191.039 90.221,191.224 91.035,191.363 91.849,191.264 92.662,191.325 93.476,191.281 94.290,191.299 95.104,191.237 95.917,191.077 96.731,190.798 97.545,190.498 98.359,190.426 99.172,190.643 99.986,190.652 100.800,190.497 101.614,190.311 102.427,190.146 103.241,190.092 104.055,189.842 104.869,189.691 105.682,189.491 106.496,189.659 107.310,189.814 108.124,190.055 108.938,189.948 109.751,190.091 110.565,190.120 111.379,190.167 112.193,190.175 113.006,190.146 113.820,190.048 114.634,189.829 115.447,189.516 116.261,189.332 117.075,189.243 117.889,189.259 118.702,189.263 119.516,189.292 120.330,189.173 121.144,189.161 121.957,189.197 122.771,189.490 123.585,189.532 124.399,189.689 125.212,189.362 126.026,189.006 126.840,188.588 127.654,188.427 128.467,188.353 129.281,188.398 130.095,188.475 130.909,188.667 131.723,188.816 132.536,188.931 133.350,188.680 134.164,188.464 134.977,188.281 135.791,188.406 136.605,188.590 137.419,188.807 138.232,188.896 139.046,188.880 139.860,188.672 140.674,188.304 141.487,187.903 142.301,187.858 143.115,187.955 143.929,187.890 144.742,187.882 145.556,187.935 146.370,187.800 147.184,187.531 147.998,187.377 148.811,187.475 149.625,187.682 150.439,187.606 151.252,187.485 152.066,187.318 152.880,187.422 153.694,187.394 154.507,187.443 155.321,187.345 156.135,187.311 156.949,187.105 157.762,186.861 158.576,187.031 159.390,187.283 160.204,187.458 161.017,187.309 161.831,187.321 162.645,187.443 163.459,187.582 164.272,187.575 165.086,187.503 165.900,187.175 166.714,186.802 167.527,186.603 168.341,186.598 169.155,186.629 169.969,186.675 170.783,186.820 171.596,186.895 172.410,186.709 173.224,186.645 174.037,186.787 174.851,187.171 175.665,187.336 176.479,187.395 177.292,187.220 178.106,186.984 178.920,186.824 179.734,186.852 180.547,186.924 181.361,186.805 182.175,186.660 182.989,186.832 183.802,187.194 184.616,187.194 185.430,186.900 186.244,186.569 187.057,186.507 187.871,186.536 188.685,186.658 189.499,186.785 190.312,187.033 191.126,187.190 191.940,187.208 192.754,186.835 193.568,186.593 194.381,186.555 195.195,186.722 196.009,186.912 196.823,186.980 197.636,187.161 198.450,187.237 199.264,187.166 200.077,186.929 200.891,186.789 201.705,186.853 202.519,186.938 203.332,187.030 204.146,187.043 204.960,186.813 205.774,186.699 206.587,186.530 207.401,186.631 208.215,186.937 209.029,187.044 209.843,187.135 210.656,186.982 211.470,186.883 212.284,186.971 213.098,187.168 213.911,187.101 214.725,186.873 215.539,186.625 216.353,186.579 217.166,186.386 217.980,186.246 218.794,186.164 219.607,186.250 220.421,186.277 221.235,185.980 222.049,186.046 222.862,186.154 223.676,186.242 224.490,186.086 225.304,186.121 226.117,186.222 226.931,186.490 227.745,186.451 228.559,186.418 229.373,186.401 230.186,186.333 231.000,186.431 231.814,186.539 232.627,186.702 233.441,186.602 234.255,186.747 235.069,186.809 235.882,187.032 236.696,187.225 237.510,187.281 238.324,187.348 239.137,187.254 239.951,187.185 240.765,187.016 241.579,186.984 242.392,186.978 243.206,186.884 244.020,186.742 244.834,186.820 245.647,187.022 246.461,186.956 247.275,186.668 248.089,186.613 248.902,186.642 249.716,186.993 250.530,186.866 251.344,186.818 252.158,186.443 252.971,186.303 253.785,186.230 254.599,186.153 255.412,186.265 256.226,186.376 257.040,186.435 257.854,186.174 258.667,186.074 259.481,186.122 260.295,186.225 261.109,186.303 261.923,186.221 262.736,186.182 263.550,186.066 264.364,186.156 265.177,186.280 265.991,186.292 266.805,186.168 267.619,186.008 268.433,185.954 269.246,185.997 270.060,185.980 270.874,185.885 271.688,185.964 272.501,186.200 273.315,186.324 274.129,186.194 274.943,185.926 275.756,185.792 276.570,185.951 277.384,185.993 278.198,185.994 279.011,185.950 279.825,185.979 280.639,186.359 281.452,186.721 282.266,186.846 283.080,186.760 283.894,186.706 284.707,186.859 285.521,186.985 286.335,187.003 287.149,187.053 287.962,187.099 288.776,187.202 289.590,187.144 290.404,187.090 291.217,187.003 292.031,187.195 292.845,187.677 293.659,187.962 294.472,188.016 295.286,187.695 296.100,187.526 296.914,187.215 297.727,186.972 298.541,186.846 299.355,186.852 300.169,186.780 300.982,186.535 301.796,186.337 302.610,186.315 303.424,186.363 304.237,186.384 305.051,186.519 305.865,186.745 306.679,186.846 307.493,186.595 308.306,186.357 309.120,186.264 309.934,186.212 310.748,186.166 311.561,186.196 312.375,186.245 313.189,186.324 314.003,186.245 314.816,186.060 315.630,185.926 316.444,185.877 317.257,185.757 318.071,185.728 318.885,185.609 319.699,185.404 320.512,185.137 321.326,185.082 322.140,185.242 322.954,185.373 323.767,185.485 324.581,185.342 325.395,184.940 326.209,184.566 327.022,184.459 327.836,184.657 328.650,184.969 329.464,185.142 330.277,185.008 331.091,184.816 331.905,184.699 332.719,184.823 333.532,184.839 334.346,184.865 335.160,184.755 335.974,184.630 336.787,184.410 337.601,184.596 338.415,184.800 339.229,184.930 340.042,184.813 340.856,184.770 341.670,184.865 342.484,184.967 343.297,184.742 344.111,184.492 344.925,184.453 345.739,184.785 346.553,185.261 347.366,185.561 348.180,185.687 348.994,185.341 349.808,185.027 350.621,184.815 351.435,184.963 352.249,185.112 353.063,185.154 353.876,184.921 354.690,184.627 355.504,184.526 356.318,184.888 357.131,185.235 357.945,185.401 358.759,185.469 359.572,185.577 360.386,185.886 361.200,186.052 362.014,186.068 362.828,186.022 363.641,186.154 364.455,186.329 365.269,186.459 366.083,186.301 366.896,186.144 367.710,186.021 368.524,185.829 369.338,185.793 370.151,185.770 370.965,185.899 371.779,185.965 372.592,186.257 373.406,186.378 374.220,186.436 375.034,186.533 375.847,186.626 376.661,186.597 377.475,186.364 378.289,186.021 379.102,185.836 379.916,185.656 380.730,185.689 381.544,185.779 382.357,185.881 383.171,186.119 383.985,186.059 384.799,185.907 385.612,185.879 386.426,185.985 387.240,186.015 388.054,185.956 388.867,185.800 389.681,185.848 390.495,185.787 391.309,185.907 392.123,186.096 392.936,186.311 393.750,186.368 394.564,186.204 395.378,186.121 396.191,186.053 397.005,186.115 397.819,186.128 398.632,186.161 399.446,186.072 400.260,185.948 401.074,185.725 401.887,185.751 402.701,185.768 403.515,185.931 404.329,185.952 405.142,185.976 405.956,186.339 406.770,186.530 407.584,186.823 408.398,186.808 409.211,186.507 410.025,186.368 410.839,186.329 411.653,186.300 412.466,186.181 413.280,186.398 414.094,186.706 414.908,187.021 415.721,186.967 416.535,186.840 417.349,186.589 418.162,186.480 418.976,186.434 419.790,186.657 420.604,186.710 421.417,186.612 422.231,186.442 423.045,186.324 423.859,186.386 424.673,186.258 425.486,186.189 426.300,185.994 427.114,186.119 427.928,186.521 428.741,186.854 429.555,186.970 430.369,186.717 431.182,186.540 431.996,186.396 432.810,186.490 433.624,186.655 434.437,186.591 435.251,186.142 436.065,185.940 436.879,185.930 437.693,185.873 438.506,185.725 439.320,185.501 440.134,185.572 440.947,185.432 441.761,185.231 442.575,185.115 443.389,185.156 444.202,185.026 445.016,184.801 445.830,184.787 446.644,185.110 447.457,185.166 448.271,184.976 449.085,184.545 449.899,184.468 450.712,184.381 451.526,184.419 452.340,184.477 453.154,184.504 453.968,184.293 454.781,184.166 455.595,183.967 456.409,183.854 457.223,183.745 458.036,183.587 458.850,183.394 459.664,183.135 460.478,183.306 461.291,183.407 462.105,183.504 462.919,183.502 463.732,183.670 464.546,183.913 465.360,183.996 466.174,183.758 466.987,183.536 467.801,183.427 468.615,183.210 469.429,183.105 470.243,183.107 471.056,183.213 471.870,183.500 472.684,183.604 473.498,183.429 474.311,183.196 475.125,183.108 "/>
<g>
</g>
</g>
<g id="ID000003" clip-path="url(#ID000001)" >
      <polyline fill="none" stroke="#0000ff" stroke-width="0.5pt" stroke-dasharray="8.0,2.0" points="68.250,202.740 69.064,202.819 69.877,202.705 70.691,202.640 71.505,202.508 72.319,202.424 73.132,202.461 73.946,202.357 74.760,201.973 75.574,201.430 76.387,201.160 77.201,201.231 78.015,201.778 78.829,201.920 79.642,201.888 80.456,201.731 81.270,201.897 82.084,201.936 82.897,201.701 83.711,201.412 84.525,201.412 85.339,201.725 86.152,201.842 86.966,201.645 87.780,201.346 88.594,201.238 89.407,201.347 90.221,201.528 91.035,201.662 91.849,201.544 92.662,201.591 93.476,201.534 94.290,201.539 95.104,201.476 95.917,201.320 96.731,201.028 97.545,200.725 98.359,200.660 99.172,200.903 99.986,200.924 100.800,200.784 101.614,200.623 102.427,200.467 103.241,200.382 104.055,200.088 104.869,199.898 105.682,199.665 106.496,199.832 107.310,199.989 108.124,200.231 108.938,200.114 109.751,200.268 110.565,200.329 111.379,200.395 112.193,200.389 113.006,200.344 113.820,200.232 114.634,200.026 115.447,199.712 116.261,199.533 117.075,199.444 117.889,199.471 118.702,199.460 119.516,199.470 120.330,199.332 121.144,199.313 121.957,199.362 122.771,199.666 123.585,199.715 124.399,199.862 125.212,199.511 126.026,199.141 126.840,198.702 127.654,198.541 128.467,198.460 129.281,198.508 130.095,198.581 130.909,198.782 131.723,198.917 132.536,199.036 133.350,198.787 134.164,198.559 134.977,198.341 135.791,198.440 136.605,198.640 137.419,198.859 138.232,198.937 139.046,198.878 139.860,198.650 140.674,198.280 141.487,197.912 142.301,197.870 143.115,197.949 143.929,197.838 144.742,197.829 145.556,197.887 146.370,197.773 147.184,197.504 147.998,197.348 148.811,197.419 149.625,197.620 150.439,197.575 151.252,197.506 152.066,197.372 152.880,197.469 153.694,197.431 154.507,197.478 155.321,197.379 156.135,197.311 156.949,197.087 157.762,196.860 158.576,197.056 159.390,197.298 160.204,197.452 161.017,197.272 161.831,197.276 162.645,197.394 163.459,197.536 164.272,197.544 165.086,197.495 165.900,197.154 166.714,196.761 167.527,196.535 168.341,196.566 169.155,196.635 169.969,196.695 170.783,196.845 171.596,196.919 172.410,196.722 173.224,196.642 174.037,196.758 174.851,197.114 175.665,197.287 176.479,197.378 177.292,197.253 178.106,197.033 178.920,196.856 179.734,196.888 180.547,196.977 181.361,196.866 182.175,196.703 182.989,196.848 183.802,197.214 184.616,197.238 185.430,196.952 186.244,196.594 187.057,196.478 187.871,196.487 188.685,196.642 189.499,196.796 190.312,197.060 191.126,197.190 191.940,197.211 192.754,196.835 193.568,196.597 194.381,196.584 195.195,196.752 196.009,196.946 196.823,196.997 197.636,197.184 198.450,197.238 199.264,197.171 200.077,196.937 200.891,196.836 201.705,196.913 202.519,197.005 203.332,197.098 204.146,197.111 204.960,196.880 205.774,196.762 206.587,196.598 207.401,196.695 208.215,197.004 209.029,197.103 209.843,197.194 210.656,197.020 211.470,196.913 212.284,196.981 213.098,197.171 213.911,197.101 214.725,196.869 215.539,196.647 216.353,196.637 217.166,196.482 217.980,196.341 218.794,196.251 219.607,196.318 220.421,196.310 221.235,195.985 222.049,196.030 222.862,196.154 223.676,196.251 224.490,196.116 225.304,196.155 226.117,196.248 226.931,196.474 227.745,196.403 228.559,196.387 229.373,196.425 230.186,196.403 231.000,196.499 231.814,196.593 232.627,196.737 233.441,196.627 234.255,196.735 235.069,196.761 235.882,196.966 236.696,197.170 237.510,197.242 238.324,197.306 239.137,197.194 239.951,197.115 240.765,196.956 241.579,196.950 242.392,196.945 243.206,196.840 244.020,196.667 244.834,196.725 245.647,196.918 246.461,196.871 247.275,196.607 248.089,196.573 248.902,196.606 249.716,196.944 250.530,196.812 251.344,196.770 252.158,196.385 252.971,196.229 253.785,196.129 254.599,196.034 255.412,196.136 256.226,196.252 257.040,196.317 257.854,196.074 258.667,196.001 259.481,196.066 260.295,196.189 261.109,196.248 261.923,196.149 262.736,196.091 263.550,195.970 264.364,196.083 265.177,196.213 265.991,196.231 266.805,196.071 267.619,195.902 268.433,195.836 269.246,195.869 270.060,195.850 270.874,195.762 271.688,195.860 272.501,196.088 273.315,196.200 274.129,196.064 274.943,195.787 275.756,195.662 276.570,195.836 277.384,195.904 278.198,195.898 279.011,195.844 279.825,195.857 280.639,196.238 281.452,196.615 282.266,196.747 283.080,196.674 283.894,196.599 284.707,196.733 285.521,196.849 286.335,196.863 287.149,196.920 287.962,196.983 288.776,197.113 289.590,197.071 290.404,197.003 291.217,196.901 292.031,197.098 292.845,197.581 293.659,197.847 294.472,197.884 295.286,197.558 296.100,197.363 296.914,197.043 297.727,196.805 298.541,196.700 299.355,196.750 300.169,196.725 300.982,196.505 301.796,196.301 302.610,196.265 303.424,196.318 304.237,196.350 305.051,196.471 305.865,196.660 306.679,196.730 307.493,196.467 308.306,196.239 309.120,196.143 309.934,196.091 310.748,196.069 311.561,196.121 312.375,196.206 313.189,196.275 314.003,196.185 314.816,196.008 315.630,195.911 316.444,195.899 317.257,195.804 318.071,195.776 318.885,195.637 319.699,195.405 320.512,195.116 321.326,195.082 322.140,195.277 322.954,195.450 323.767,195.565 324.581,195.395 325.395,194.962 326.209,194.568 327.022,194.483 327.836,194.706 328.650,195.038 329.464,195.196 330.277,195.040 331.091,194.825 331.905,194.721 332.719,194.867 333.532,194.897 334.346,194.911 335.160,194.788 335.974,194.677 336.787,194.493 337.601,194.726 338.415,194.961 339.229,195.100 340.042,194.987 340.856,194.943 341.670,195.036 342.484,195.146 343.297,194.927 344.111,194.668 344.925,194.620 345.739,194.960 346.553,195.469 347.366,195.776 348.180,195.878 348.994,195.521 349.808,195.205 350.621,195.023 351.435,195.169 352.249,195.327 353.063,195.373 353.876,195.149 354.690,194.856 355.504,194.756 356.318,195.101 357.131,195.428 357.945,195.591 358.759,195.684 359.572,195.808 360.386,196.111 361.200,196.270 362.014,196.285 362.828,196.238 363.641,196.358 364.455,196.533 365.269,196.668 366.083,196.537 366.896,196.399 367.710,196.290 368.524,196.087 369.338,196.053 370.151,196.028 370.965,196.154 371.779,196.205 372.592,196.471 373.406,196.621 374.220,196.713 375.034,196.836 375.847,196.914 376.661,196.856 377.475,196.608 378.289,196.249 379.102,196.073 379.916,195.908 380.730,195.961 381.544,196.059 382.357,196.156 383.171,196.400 383.985,196.340 384.799,196.185 385.612,196.135 386.426,196.224 387.240,196.250 388.054,196.196 388.867,196.040 389.681,196.081 390.495,196.025 391.309,196.178 392.123,196.393 392.936,196.628 393.750,196.691 394.564,196.531 395.378,196.436 396.191,196.339 397.005,196.386 397.819,196.367 398.632,196.348 399.446,196.228 400.260,196.124 401.074,195.949 401.887,196.015 402.701,196.036 403.515,196.214 404.329,196.214 405.142,196.220 405.956,196.574 406.770,196.771 407.584,197.089 408.398,197.098 409.211,196.798 410.025,196.651 410.839,196.597 411.653,196.588 412.466,196.489 413.280,196.702 414.094,196.987 414.908,197.281 415.721,197.219 416.535,197.068 417.349,196.789 418.162,196.668 418.976,196.628 419.790,196.853 420.604,196.910 421.417,196.840 422.231,196.682 423.045,196.576 423.859,196.636 424.673,196.506 425.486,196.413 426.300,196.186 427.114,196.311 427.928,196.737 428.741,197.085 429.555,197.202 430.369,196.957 431.182,196.789 431.996,196.647 432.810,196.735 433.624,196.888 434.437,196.827 435.251,196.377 436.065,196.150 436.879,196.088 437.693,196.020 438.506,195.899 439.320,195.710 440.134,195.775 440.947,195.625 441.761,195.427 442.575,195.318 443.389,195.377 444.202,195.263 445.016,195.058 445.830,195.047 446.644,195.375 447.457,195.398 448.271,195.192 449.085,194.737 449.899,194.661 450.712,194.576 451.526,194.639 452.340,194.725 453.154,194.774 453.968,194.577 454.781,194.476 455.595,194.301 456.409,194.205 457.223,194.081 458.036,193.893 458.850,193.668 459.664,193.409 460.478,193.597 461.291,193.721 462.105,193.824 462.919,193.827 463.732,193.997 464.546,194.244 465.360,194.337 466.174,194.106 466.987,193.892 467.801,193.778 468.615,193.556 469.429,193.448 470.243,193.445 471.056,193.534 471.870,193.813 472.684,193.935 473.498,193.792 474.311,193.592 475.125,193.495 "/>
<g>
</g>
</g>
<g id="ID000004" clip-path="url(#ID000001)" >
      <polyline fill="none" stroke="#0000ff" stroke-width="0.5pt" stroke-dasharray="8.0,2.0" points="68.250,181.918 69.064,181.970 69.877,181.865 70.691,181.880 71.505,181.856 72.319,181.869 73.132,181.935 73.946,181.750 74.760,181.290 75.574,180.782 76.387,180.572 77.201,180.702 78.015,181.199 78.829,181.273 79.642,181.195 80.456,181.019 81.270,181.165 82.084,181.175 82.897,180.955 83.711,180.708 84.525,180.755 85.339,181.128 86.152,181.300 86.966,181.156 87.780,180.856 88.594,180.681 89.407,180.731 90.221,180.919 91.035,181.065 91.849,180.985 92.662,181.058 93.476,181.029 94.290,181.058 95.104,180.997 95.917,180.833 96.731,180.569 97.545,180.271 98.359,180.192 99.172,180.384 99.986,180.380 100.800,180.210 101.614,179.999 102.427,179.825 103.241,179.802 104.055,179.596 104.869,179.485 105.682,179.316 106.496,179.485 107.310,179.638 108.124,179.879 108.938,179.782 109.751,179.913 110.565,179.911 111.379,179.939 112.193,179.960 113.006,179.947 113.820,179.864 114.634,179.631 115.447,179.321 116.261,179.131 117.075,179.042 117.889,179.046 118.702,179.066 119.516,179.113 120.330,179.015 121.144,179.009 121.957,179.032 122.771,179.315 123.585,179.349 124.399,179.517 125.212,179.213 126.026,178.870 126.840,178.474 127.654,178.312 128.467,178.245 129.281,178.288 130.095,178.369 130.909,178.553 131.723,178.715 132.536,178.827 133.350,178.573 134.164,178.369 134.977,178.220 135.791,178.371 136.605,178.540 137.419,178.756 138.232,178.854 139.046,178.881 139.860,178.693 140.674,178.329 141.487,177.895 142.301,177.846 143.115,177.961 143.929,177.942 144.742,177.935 145.556,177.982 146.370,177.827 147.184,177.558 147.998,177.407 148.811,177.530 149.625,177.744 150.439,177.636 151.252,177.464 152.066,177.263 152.880,177.375 153.694,177.356 154.507,177.407 155.321,177.311 156.135,177.310 156.949,177.123 157.762,176.863 158.576,177.007 159.390,177.267 160.204,177.463 161.017,177.345 161.831,177.367 162.645,177.492 163.459,177.627 164.272,177.606 165.086,177.510 165.900,177.195 166.714,176.843 167.527,176.670 168.341,176.630 169.155,176.623 169.969,176.656 170.783,176.795 171.596,176.872 172.410,176.696 173.224,176.648 174.037,176.815 174.851,177.228 175.665,177.386 176.479,177.411 177.292,177.188 178.106,176.936 178.920,176.792 179.734,176.817 180.547,176.871 181.361,176.743 182.175,176.616 182.989,176.816 183.802,177.173 184.616,177.149 185.430,176.849 186.244,176.544 187.057,176.536 187.871,176.584 188.685,176.674 189.499,176.774 190.312,177.006 191.126,177.191 191.940,177.204 192.754,176.835 193.568,176.588 194.381,176.526 195.195,176.692 196.009,176.879 196.823,176.964 197.636,177.139 198.450,177.236 199.264,177.161 200.077,176.921 200.891,176.743 201.705,176.794 202.519,176.870 203.332,176.963 204.146,176.974 204.960,176.747 205.774,176.636 206.587,176.461 207.401,176.568 208.215,176.869 209.029,176.984 209.843,177.075 210.656,176.943 211.470,176.854 212.284,176.960 213.098,177.164 213.911,177.100 214.725,176.877 215.539,176.603 216.353,176.521 217.166,176.290 217.980,176.152 218.794,176.077 219.607,176.183 220.421,176.244 221.235,175.976 222.049,176.062 222.862,176.153 223.676,176.234 224.490,176.056 225.304,176.086 226.117,176.196 226.931,176.506 227.745,176.499 228.559,176.450 229.373,176.377 230.186,176.263 231.000,176.362 231.814,176.485 232.627,176.668 233.441,176.576 234.255,176.759 235.069,176.858 235.882,177.097 236.696,177.281 237.510,177.320 238.324,177.390 239.137,177.314 239.951,177.254 240.765,177.075 241.579,177.018 242.392,177.011 243.206,176.928 244.020,176.818 244.834,176.916 245.647,177.126 246.461,177.041 247.275,176.730 248.089,176.652 248.902,176.677 249.716,177.043 250.530,176.921 251.344,176.867 252.158,176.500 252.971,176.377 253.785,176.331 254.599,176.272 255.412,176.394 256.226,176.500 257.040,176.553 257.854,176.275 258.667,176.147 259.481,176.179 260.295,176.261 261.109,176.357 261.923,176.293 262.736,176.272 263.550,176.161 264.364,176.229 265.177,176.347 265.991,176.352 266.805,176.264 267.619,176.114 268.433,176.072 269.246,176.125 270.060,176.109 270.874,176.007 271.688,176.069 272.501,176.313 273.315,176.449 274.129,176.323 274.943,176.065 275.756,175.923 276.570,176.066 277.384,176.082 278.198,176.089 279.011,176.055 279.825,176.101 280.639,176.480 281.452,176.828 282.266,176.944 283.080,176.846 283.894,176.813 284.707,176.984 285.521,177.121 286.335,177.142 287.149,177.185 287.962,177.215 288.776,177.291 289.590,177.217 290.404,177.176 291.217,177.104 292.031,177.291 292.845,177.774 293.659,178.078 294.472,178.149 295.286,177.831 296.100,177.690 296.914,177.387 297.727,177.140 298.541,176.992 299.355,176.954 300.169,176.834 300.982,176.566 301.796,176.372 302.610,176.366 303.424,176.408 304.237,176.417 305.051,176.566 305.865,176.829 306.679,176.962 307.493,176.722 308.306,176.476 309.120,176.384 309.934,176.332 310.748,176.262 311.561,176.271 312.375,176.284 313.189,176.373 314.003,176.305 314.816,176.113 315.630,175.941 316.444,175.854 317.257,175.710 318.071,175.680 318.885,175.582 319.699,175.404 320.512,175.159 321.326,175.082 322.140,175.207 322.954,175.297 323.767,175.404 324.581,175.289 325.395,174.918 326.209,174.564 327.022,174.434 327.836,174.608 328.650,174.899 329.464,175.087 330.277,174.976 331.091,174.807 331.905,174.677 332.719,174.778 333.532,174.780 334.346,174.819 335.160,174.722 335.974,174.582 336.787,174.328 337.601,174.466 338.415,174.639 339.229,174.761 340.042,174.639 340.856,174.598 341.670,174.694 342.484,174.788 343.297,174.556 344.111,174.315 344.925,174.285 345.739,174.610 346.553,175.052 347.366,175.347 348.180,175.497 348.994,175.160 349.808,174.850 350.621,174.608 351.435,174.757 352.249,174.896 353.063,174.934 353.876,174.693 354.690,174.398 355.504,174.297 356.318,174.675 357.131,175.041 357.945,175.212 358.759,175.255 359.572,175.346 360.386,175.661 361.200,175.835 362.014,175.851 362.828,175.807 363.641,175.950 364.455,176.124 365.269,176.250 366.083,176.064 366.896,175.888 367.710,175.752 368.524,175.572 369.338,175.533 370.151,175.512 370.965,175.644 371.779,175.724 372.592,176.044 373.406,176.136 374.220,176.160 375.034,176.229 375.847,176.338 376.661,176.339 377.475,176.120 378.289,175.793 379.102,175.600 379.916,175.405 380.730,175.416 381.544,175.498 382.357,175.606 383.171,175.838 383.985,175.778 384.799,175.629 385.612,175.622 386.426,175.747 387.240,175.781 388.054,175.715 388.867,175.560 389.681,175.614 390.495,175.549 391.309,175.636 392.123,175.798 392.936,175.994 393.750,176.046 394.564,175.877 395.378,175.806 396.191,175.766 397.005,175.844 397.819,175.888 398.632,175.975 399.446,175.916 400.260,175.773 401.074,175.502 401.887,175.486 402.701,175.499 403.515,175.648 404.329,175.690 405.142,175.732 405.956,176.104 406.770,176.288 407.584,176.558 408.398,176.517 409.211,176.216 410.025,176.085 410.839,176.060 411.653,176.011 412.466,175.874 413.280,176.094 414.094,176.426 414.908,176.762 415.721,176.715 416.535,176.612 417.349,176.390 418.162,176.293 418.976,176.240 419.790,176.462 420.604,176.510 421.417,176.385 422.231,176.203 423.045,176.073 423.859,176.135 424.673,176.010 425.486,175.965 426.300,175.802 427.114,175.926 427.928,176.304 428.741,176.623 429.555,176.739 430.369,176.477 431.182,176.291 431.996,176.144 432.810,176.244 433.624,176.422 434.437,176.355 435.251,175.908 436.065,175.730 436.879,175.771 437.693,175.727 438.506,175.552 439.320,175.291 440.134,175.370 440.947,175.238 441.761,175.034 442.575,174.913 443.389,174.935 444.202,174.789 445.016,174.545 445.830,174.527 446.644,174.845 447.457,174.934 448.271,174.761 449.085,174.352 449.899,174.276 450.712,174.187 451.526,174.198 452.340,174.229 453.154,174.235 453.968,174.010 454.781,173.856 455.595,173.633 456.409,173.503 457.223,173.408 458.036,173.281 458.850,173.120 459.664,172.861 460.478,173.016 461.291,173.093 462.105,173.184 462.919,173.178 463.732,173.343 464.546,173.581 465.360,173.655 466.174,173.410 466.987,173.180 467.801,173.075 468.615,172.863 469.429,172.762 470.243,172.769 471.056,172.891 471.870,173.187 472.684,173.272 473.498,173.066 474.311,172.800 475.125,172.722 "/>
<g>
</g>
</g>
<g id="ID000005" clip-path="url(#ID000001)" >
      <polyline fill="none" stroke="#007f00" stroke-width="0.5pt" stroke-dasharray="none" points="68.250,190.602 69.064,190.905 69.877,190.913 70.691,190.766 71.505,190.681 72.319,190.459 73.132,190.280 73.946,190.018 74.760,189.947 75.574,190.013 76.387,190.088 77.201,190.088 78.015,190.108 78.829,189.943 79.642,189.815 80.456,189.530 81.270,189.628 82.084,189.683 82.897,189.802 83.711,189.777 84.525,189.891 85.339,189.902 86.152,189.782 86.966,189.657 87.780,189.808 88.594,189.934 89.407,189.872 90.221,189.687 91.035,189.580 91.849,189.695 92.662,189.876 93.476,190.003 94.290,189.984 95.104,189.944 95.917,189.928 96.731,190.015 97.545,190.038 98.359,189.944 99.172,190.053 99.986,190.176 100.800,190.150 101.614,189.855 102.427,189.504 103.241,189.363 104.055,189.519 104.869,189.796 105.682,189.969 106.496,190.087 107.310,190.154 108.124,190.261 108.938,190.300 109.751,190.166 110.565,189.937 111.379,189.776 112.193,189.714 113.006,189.862 113.820,189.642 114.634,189.614 115.447,189.549 116.261,189.849 117.075,189.887 117.889,189.970 118.702,189.779 119.516,189.870 120.330,189.765 121.144,189.848 121.957,189.932 122.771,189.829 123.585,189.627 124.399,189.554 125.212,189.689 126.026,189.642 126.840,189.720 127.654,189.787 128.467,190.073 129.281,190.168 130.095,190.018 130.909,190.037 131.723,190.099 132.536,190.353 133.350,190.364 134.164,190.199 134.977,190.134 135.791,190.254 136.605,190.241 137.419,190.261 138.232,190.295 139.046,190.532 139.860,190.666 140.674,190.474 141.487,190.172 142.301,189.843 143.115,189.693 143.929,189.807 144.742,190.066 145.556,190.297 146.370,190.270 147.184,189.939 147.998,189.683 148.811,189.718 149.625,189.815 150.439,189.886 151.252,189.883 152.066,189.990 152.880,189.793 153.694,189.613 154.507,189.527 155.321,189.550 156.135,189.759 156.949,189.847 157.762,189.775 158.576,189.607 159.390,189.429 160.204,189.360 161.017,189.296 161.831,189.298 162.645,189.137 163.459,189.152 164.272,189.289 165.086,189.264 165.900,189.092 166.714,188.867 167.527,188.905 168.341,189.068 169.155,189.164 169.969,189.071 170.783,189.120 171.596,189.251 172.410,189.375 173.224,189.223 174.037,189.144 174.851,189.161 175.665,189.253 176.479,189.398 177.292,189.534 178.106,189.467 178.920,189.293 179.734,189.018 180.547,189.118 181.361,189.057 182.175,188.750 182.989,188.540 183.802,188.546 184.616,188.683 185.430,188.846 186.244,188.985 187.057,189.277 187.871,189.544 188.685,189.587 189.499,189.401 190.312,189.014 191.126,188.662 191.940,188.518 192.754,188.507 193.568,188.579 194.381,188.503 195.195,188.562 196.009,188.568 196.823,188.642 197.636,188.424 198.450,188.286 199.264,188.191 200.077,188.082 200.891,187.989 201.705,187.809 202.519,187.669 203.332,187.618 204.146,187.660 204.960,187.830 205.774,188.103 206.587,188.093 207.401,187.875 208.215,187.590 209.029,187.464 209.843,187.467 210.656,187.452 211.470,187.580 212.284,187.682 213.098,187.761 213.911,187.617 214.725,187.537 215.539,187.563 216.353,187.674 217.166,187.688 217.980,187.708 218.794,187.844 219.607,187.784 220.421,187.627 221.235,187.311 222.049,187.163 222.862,186.970 223.676,187.147 224.490,187.294 225.304,187.556 226.117,187.599 226.931,187.633 227.745,187.647 228.559,187.774 229.373,187.931 230.186,188.191 231.000,188.277 231.814,188.149 232.627,187.908 233.441,187.800 234.255,187.784 235.069,187.718 235.882,187.476 236.696,187.363 237.510,187.176 238.324,187.097 239.137,187.132 239.951,187.128 240.765,187.295 241.579,187.352 242.392,187.419 243.206,187.287 244.020,187.321 244.834,187.286 245.647,187.345 246.461,187.467 247.275,187.542 248.089,187.648 248.902,187.429 249.716,187.291 250.530,187.259 251.344,187.209 252.158,187.210 252.971,187.091 253.785,186.949 254.599,186.701 255.412,186.577 256.226,186.565 257.040,186.713 257.854,186.920 258.667,187.006 259.481,187.150 260.295,187.232 261.109,187.228 261.923,186.910 262.736,186.617 263.550,186.578 264.364,186.593 265.177,186.695 265.991,186.978 266.805,187.135 267.619,187.327 268.433,187.139 269.246,187.072 270.060,186.986 270.874,187.110 271.688,187.151 272.501,187.188 273.315,187.249 274.129,187.295 274.943,187.406 275.756,187.622 276.570,187.771 277.384,187.817 278.198,187.612 279.011,187.617 279.825,187.694 280.639,187.972 281.452,188.180 282.266,188.302 283.080,188.324 283.894,188.349 284.707,188.299 285.521,188.329 286.335,188.341 287.149,188.481 287.962,188.413 288.776,188.305 289.590,188.208 290.404,188.123 291.217,188.042 292.031,187.950 292.845,187.960 293.659,188.099 294.472,188.152 295.286,188.007 296.100,187.740 296.914,187.648 297.727,187.639 298.541,187.703 299.355,187.680 300.169,187.510 300.982,187.426 301.796,187.355 302.610,187.366 303.424,187.431 304.237,187.470 305.051,187.702 305.865,187.892 306.679,187.990 307.493,188.126 308.306,188.095 309.120,188.182 309.934,188.073 310.748,187.750 311.561,187.550 312.375,187.670 313.189,187.856 314.003,187.678 314.816,187.586 315.630,187.733 316.444,187.872 317.257,187.741 318.071,187.548 318.885,187.256 319.699,187.088 320.512,187.231 321.326,187.404 322.140,187.539 322.954,187.626 323.767,187.898 324.581,188.002 325.395,188.002 326.209,187.826 327.022,187.839 327.836,187.900 328.650,187.940 329.464,188.003 330.277,188.168 331.091,188.183 331.905,188.138 332.719,187.925 333.532,187.821 334.346,188.021 335.160,188.320 335.974,188.684 336.787,188.906 337.601,188.829 338.415,188.806 339.229,188.928 340.042,189.087 340.856,189.250 341.670,189.192 342.484,189.184 343.297,189.313 344.111,189.373 344.925,189.336 345.739,189.326 346.553,189.219 347.366,189.373 348.180,189.622 348.994,189.786 349.808,189.594 350.621,189.344 351.435,189.299 352.249,189.218 353.063,189.187 353.876,189.082 354.690,188.958 355.504,188.982 356.318,189.130 357.131,189.199 357.945,189.189 358.759,189.213 359.572,189.199 360.386,189.307 361.200,189.310 362.014,189.236 362.828,189.105 363.641,189.175 364.455,189.367 365.269,189.488 366.083,189.642 366.896,189.747 367.710,189.851 368.524,189.795 369.338,189.792 370.151,189.792 370.965,189.712 371.779,189.682 372.592,189.657 373.406,189.602 374.220,189.377 375.034,189.411 375.847,189.503 376.661,189.539 377.475,189.419 378.289,189.503 379.102,189.620 379.916,189.595 380.730,189.354 381.544,189.334 382.357,189.331 383.171,189.243 383.985,189.057 384.799,189.049 385.612,189.165 386.426,189.340 387.240,189.227 388.054,188.934 388.867,188.721 389.681,188.624 390.495,188.631 391.309,188.471 392.123,188.399 392.936,188.495 393.750,188.468 394.564,188.377 395.378,188.394 396.191,188.347 397.005,188.218 397.819,188.020 398.632,187.908 399.446,188.073 400.260,188.522 401.074,188.766 401.887,188.829 402.701,188.511 403.515,188.361 404.329,188.471 405.142,188.798 405.956,189.086 406.770,189.103 407.584,188.892 408.398,188.576 409.211,188.634 410.025,188.756 410.839,188.802 411.653,188.644 412.466,188.615 413.280,188.729 414.094,188.620 414.908,188.399 415.721,188.318 416.535,188.441 417.349,188.614 418.162,188.664 418.976,188.847 419.790,188.755 420.604,188.464 421.417,188.042 422.231,187.873 423.045,187.806 423.859,187.613 424.673,187.331 425.486,187.206 426.300,187.307 427.114,187.241 427.928,187.098 428.741,187.114 429.555,187.286 430.369,187.241 431.182,186.932 431.996,186.781 432.810,186.864 433.624,186.964 434.437,186.929 435.251,186.741 436.065,186.689 436.879,186.526 437.693,186.411 438.506,186.270 439.320,186.334 440.134,186.376 440.947,186.478 441.761,186.574 442.575,186.583 443.389,186.572 444.202,186.423 445.016,186.134 445.830,185.988 446.644,185.866 447.457,185.761 448.271,185.592 449.085,185.602 449.899,185.524 450.712,185.387 451.526,185.217 452.340,185.172 453.154,185.170 453.968,185.300 454.781,185.175 455.595,184.953 456.409,184.668 457.223,184.574 458.036,184.706 458.850,184.728 459.664,184.628 460.478,184.637 461.291,184.718 462.105,184.699 462.919,184.614 463.732,184.614 464.546,184.656 465.360,184.713 466.174,184.821 466.987,184.953 467.801,185.051 468.615,184.949 469.429,184.827 470.243,184.733 471.056,184.716 471.870,184.623 472.684,184.562 473.498,184.356 474.311,184.289 475.125,184.191 "/>
<g>
</g>
</g>
<g id="ID000006" clip-path="url(#ID000001)" >
      <polyline fill="none" stroke="#007f00" stroke-width="0.5pt" stroke-dasharray="8.0,2.0" points="68.250,199.862 69.064,200.162 69.877,200.190 70.691,200.072 71.505,200.008 72.319,199.801 73.132,199.619 73.946,199.362 74.760,199.287 75.574,199.350 76.387,199.398 77.201,199.390 78.015,199.412 78.829,199.277 79.642,199.183 80.456,198.900 81.270,198.975 82.084,199.014 82.897,199.143 83.711,199.133 84.525,199.248 85.339,199.241 86.152,199.101 86.966,198.983 87.780,199.153 88.594,199.290 89.407,199.231 90.221,199.052 91.035,198.962 91.849,199.083 92.662,199.245 93.476,199.340 94.290,199.307 95.104,199.262 95.917,199.238 96.731,199.297 97.545,199.288 98.359,199.181 99.172,199.293 99.986,199.426 100.800,199.399 101.614,199.084 102.427,198.722 103.241,198.601 104.055,198.784 104.869,199.085 105.682,199.241 106.496,199.333 107.310,199.412 108.124,199.541 108.938,199.590 109.751,199.451 110.565,199.215 111.379,199.069 112.193,199.015 113.006,199.167 113.820,198.946 114.634,198.897 115.447,198.815 116.261,199.118 117.075,199.167 117.889,199.251 118.702,199.033 119.516,199.118 120.330,199.028 121.144,199.110 121.957,199.177 122.771,199.066 123.585,198.873 124.399,198.826 125.212,198.982 126.026,198.933 126.840,198.997 127.654,199.049 128.467,199.305 129.281,199.360 130.095,199.198 130.909,199.208 131.723,199.274 132.536,199.508 133.350,199.500 134.164,199.318 134.977,199.230 135.791,199.340 136.605,199.306 137.419,199.320 138.232,199.363 139.046,199.594 139.860,199.709 140.674,199.488 141.487,199.200 142.301,198.895 143.115,198.773 143.929,198.902 144.742,199.177 145.556,199.411 146.370,199.392 147.184,199.067 147.998,198.817 148.811,198.836 149.625,198.918 150.439,198.969 151.252,198.984 152.066,199.107 152.880,198.918 153.694,198.725 154.507,198.628 155.321,198.636 156.135,198.858 156.949,198.945 157.762,198.870 158.576,198.687 159.390,198.486 160.204,198.402 161.017,198.343 161.831,198.364 162.645,198.226 163.459,198.257 164.272,198.404 165.086,198.371 165.900,198.186 166.714,197.960 167.527,198.005 168.341,198.176 169.155,198.269 169.969,198.172 170.783,198.221 171.596,198.377 172.410,198.522 173.224,198.388 174.037,198.281 174.851,198.283 175.665,198.385 176.479,198.565 177.292,198.715 178.106,198.633 178.920,198.447 179.734,198.177 180.547,198.290 181.361,198.235 182.175,197.921 182.989,197.700 183.802,197.679 184.616,197.795 185.430,197.930 186.244,198.059 187.057,198.354 187.871,198.633 188.685,198.686 189.499,198.503 190.312,198.104 191.126,197.744 191.940,197.615 192.754,197.616 193.568,197.703 194.381,197.634 195.195,197.712 196.009,197.713 196.823,197.769 197.636,197.536 198.450,197.395 199.264,197.313 200.077,197.201 200.891,197.123 201.705,196.953 202.519,196.816 203.332,196.749 204.146,196.771 204.960,196.936 205.774,197.200 206.587,197.205 207.401,197.008 208.215,196.738 209.029,196.613 209.843,196.607 210.656,196.573 211.470,196.717 212.284,196.840 213.098,196.920 213.911,196.763 214.725,196.676 215.539,196.741 216.353,196.888 217.166,196.900 217.980,196.894 218.794,197.000 219.607,196.922 220.421,196.719 221.235,196.395 222.049,196.242 222.862,196.068 223.676,196.241 224.490,196.387 225.304,196.649 226.117,196.694 226.931,196.739 227.745,196.765 228.559,196.898 229.373,197.057 230.186,197.326 231.000,197.419 231.814,197.287 232.627,197.018 233.441,196.902 234.255,196.881 235.069,196.833 235.882,196.606 236.696,196.520 237.510,196.367 238.324,196.318 239.137,196.344 239.951,196.292 240.765,196.432 241.579,196.484 242.392,196.554 243.206,196.412 244.020,196.443 244.834,196.395 245.647,196.452 246.461,196.572 247.275,196.653 248.089,196.778 248.902,196.567 249.716,196.441 250.530,196.400 251.344,196.334 252.158,196.329 252.971,196.216 253.785,196.090 254.599,195.849 255.412,195.724 256.226,195.721 257.040,195.872 257.854,196.079 258.667,196.146 259.481,196.278 260.295,196.342 261.109,196.357 261.923,196.062 262.736,195.777 263.550,195.727 264.364,195.707 265.177,195.773 265.991,196.033 266.805,196.194 267.619,196.396 268.433,196.205 269.246,196.134 270.060,196.044 270.874,196.177 271.688,196.230 272.501,196.279 273.315,196.346 274.129,196.387 274.943,196.490 275.756,196.696 276.570,196.836 277.384,196.876 278.198,196.669 279.011,196.674 279.825,196.735 280.639,197.001 281.452,197.186 282.266,197.307 283.080,197.327 283.894,197.344 284.707,197.306 285.521,197.360 286.335,197.377 287.149,197.508 287.962,197.433 288.776,197.335 289.590,197.262 290.404,197.165 291.217,197.066 292.031,196.978 292.845,197.014 293.659,197.166 294.472,197.222 295.286,197.046 296.100,196.765 296.914,196.659 297.727,196.670 298.541,196.753 299.355,196.753 300.169,196.580 300.982,196.488 301.796,196.411 302.610,196.422 303.424,196.501 304.237,196.544 305.051,196.782 305.865,196.941 306.679,197.012 307.493,197.139 308.306,197.136 309.120,197.230 309.934,197.119 310.748,196.796 311.561,196.614 312.375,196.745 313.189,196.923 314.003,196.740 314.816,196.645 315.630,196.776 316.444,196.889 317.257,196.753 318.071,196.559 318.885,196.255 319.699,196.074 320.512,196.185 321.326,196.370 322.140,196.512 322.954,196.609 323.767,196.870 324.581,196.949 325.395,196.942 326.209,196.747 327.022,196.728 327.836,196.755 328.650,196.788 329.464,196.876 330.277,197.071 331.091,197.096 331.905,197.064 332.719,196.878 333.532,196.795 334.346,197.007 335.160,197.291 335.974,197.631 336.787,197.830 337.601,197.745 338.415,197.721 339.229,197.858 340.042,198.023 340.856,198.182 341.670,198.106 342.484,198.079 343.297,198.191 344.111,198.241 344.925,198.192 345.739,198.189 346.553,198.083 347.366,198.254 348.180,198.514 348.994,198.677 349.808,198.481 350.621,198.246 351.435,198.234 352.249,198.173 353.063,198.155 353.876,198.055 354.690,197.938 355.504,197.930 356.318,198.035 357.131,198.081 357.945,198.074 358.759,198.122 359.572,198.129 360.386,198.229 361.200,198.205 362.014,198.102 362.828,197.961 363.641,198.039 364.455,198.274 365.269,198.429 366.083,198.588 366.896,198.686 367.710,198.803 368.524,198.761 369.338,198.758 370.151,198.730 370.965,198.636 371.779,198.599 372.592,198.581 373.406,198.532 374.220,198.319 375.034,198.378 375.847,198.495 376.661,198.553 377.475,198.425 378.289,198.495 379.102,198.595 379.916,198.538 380.730,198.286 381.544,198.277 382.357,198.286 383.171,198.205 383.985,198.023 384.799,198.016 385.612,198.141 386.426,198.326 387.240,198.229 388.054,197.944 388.867,197.718 389.681,197.626 390.495,197.640 391.309,197.494 392.123,197.426 392.936,197.518 393.750,197.479 394.564,197.367 395.378,197.383 396.191,197.356 397.005,197.243 397.819,197.048 398.632,196.930 399.446,197.090 400.260,197.536 401.074,197.782 401.887,197.841 402.701,197.526 403.515,197.378 404.329,197.497 405.142,197.840 405.956,198.136 406.770,198.175 407.584,197.952 408.398,197.611 409.211,197.668 410.025,197.805 410.839,197.883 411.653,197.746 412.466,197.722 413.280,197.808 414.094,197.677 414.908,197.436 415.721,197.359 416.535,197.492 417.349,197.680 418.162,197.753 418.976,197.953 419.790,197.873 420.604,197.579 421.417,197.148 422.231,196.958 423.045,196.868 423.859,196.641 424.673,196.349 425.486,196.233 426.300,196.345 427.114,196.278 427.928,196.123 428.741,196.130 429.555,196.307 430.369,196.279 431.182,195.982 431.996,195.824 432.810,195.908 433.624,196.029 434.437,196.039 435.251,195.890 436.065,195.856 436.879,195.686 437.693,195.552 438.506,195.384 439.320,195.427 440.134,195.459 440.947,195.552 441.761,195.643 442.575,195.661 443.389,195.660 444.202,195.506 445.016,195.188 445.830,195.010 446.644,194.897 447.457,194.817 448.271,194.680 449.085,194.685 449.899,194.597 450.712,194.449 451.526,194.284 452.340,194.259 453.154,194.258 453.968,194.374 454.781,194.232 455.595,194.012 456.409,193.746 457.223,193.665 458.036,193.806 458.850,193.832 459.664,193.744 460.478,193.757 461.291,193.834 462.105,193.814 462.919,193.736 463.732,193.741 464.546,193.766 465.360,193.813 466.174,193.903 466.987,194.038 467.801,194.141 468.615,194.036 469.429,193.886 470.243,193.765 471.056,193.747 471.870,193.672 472.684,193.637 473.498,193.440 474.311,193.367 475.125,193.256 "/>
<g>
</g>
</g>
<g id="ID000007" clip-path="url(#ID000001)" >
      <polyline fill="none" stroke="#007f00" stroke-width="0.5pt" stroke-dasharray="8.0,2.0" points="68.250,181.343 69.064,181.648 69.877,181.637 70.691,181.461 71.505,181.353 72.319,181.116 73.132,180.941 73.946,180.675 74.760,180.607 75.574,180.677 76.387,180.777 77.201,180.785 78.015,180.804 78.829,180.609 79.642,180.447 80.456,180.161 81.270,180.280 82.084,180.351 82.897,180.462 83.711,180.422 84.525,180.534 85.339,180.563 86.152,180.463 86.966,180.330 87.780,180.463 88.594,180.577 89.407,180.513 90.221,180.321 91.035,180.198 91.849,180.306 92.662,180.507 93.476,180.666 94.290,180.662 95.104,180.626 95.917,180.617 96.731,180.733 97.545,180.789 98.359,180.707 99.172,180.814 99.986,180.927 100.800,180.901 101.614,180.627 102.427,180.285 103.241,180.125 104.055,180.253 104.869,180.507 105.682,180.696 106.496,180.841 107.310,180.895 108.124,180.980 108.938,181.009 109.751,180.880 110.565,180.660 111.379,180.483 112.193,180.413 113.006,180.556 113.820,180.338 114.634,180.332 115.447,180.284 116.261,180.579 117.075,180.608 117.889,180.689 118.702,180.524 119.516,180.622 120.330,180.503 121.144,180.587 121.957,180.687 122.771,180.592 123.585,180.382 124.399,180.283 125.212,180.395 126.026,180.350 126.840,180.443 127.654,180.525 128.467,180.841 129.281,180.976 130.095,180.839 130.909,180.865 131.723,180.924 132.536,181.199 133.350,181.227 134.164,181.080 134.977,181.038 135.791,181.168 136.605,181.177 137.419,181.203 138.232,181.227 139.046,181.471 139.860,181.623 140.674,181.459 141.487,181.144 142.301,180.791 143.115,180.612 143.929,180.711 144.742,180.954 145.556,181.182 146.370,181.149 147.184,180.811 147.998,180.548 148.811,180.599 149.625,180.712 150.439,180.802 151.252,180.781 152.066,180.874 152.880,180.667 153.694,180.502 154.507,180.425 155.321,180.464 156.135,180.661 156.949,180.749 157.762,180.679 158.576,180.528 159.390,180.372 160.204,180.317 161.017,180.249 161.831,180.232 162.645,180.048 163.459,180.048 164.272,180.173 165.086,180.157 165.900,179.997 166.714,179.775 167.527,179.805 168.341,179.959 169.155,180.058 169.969,179.970 170.783,180.019 171.596,180.125 172.410,180.228 173.224,180.058 174.037,180.007 174.851,180.039 175.665,180.122 176.479,180.231 177.292,180.352 178.106,180.301 178.920,180.140 179.734,179.858 180.547,179.946 181.361,179.878 182.175,179.580 182.989,179.380 183.802,179.414 184.616,179.572 185.430,179.761 186.244,179.910 187.057,180.201 187.871,180.456 188.685,180.488 189.499,180.299 190.312,179.924 191.126,179.580 191.940,179.420 192.754,179.398 193.568,179.456 194.381,179.372 195.195,179.411 196.009,179.423 196.823,179.515 197.636,179.313 198.450,179.177 199.264,179.068 200.077,178.962 200.891,178.854 201.705,178.665 202.519,178.522 203.332,178.488 204.146,178.550 204.960,178.724 205.774,179.005 206.587,178.980 207.401,178.742 208.215,178.443 209.029,178.316 209.843,178.327 210.656,178.330 211.470,178.442 212.284,178.524 213.098,178.602 213.911,178.472 214.725,178.399 215.539,178.386 216.353,178.461 217.166,178.476 217.980,178.522 218.794,178.689 219.607,178.646 220.421,178.534 221.235,178.226 222.049,178.085 222.862,177.873 223.676,178.053 224.490,178.200 225.304,178.464 226.117,178.504 226.931,178.526 227.745,178.529 228.559,178.650 229.373,178.804 230.186,179.057 231.000,179.134 231.814,179.010 232.627,178.798 233.441,178.698 234.255,178.687 235.069,178.604 235.882,178.346 236.696,178.206 237.510,177.986 238.324,177.875 239.137,177.920 239.951,177.964 240.765,178.158 241.579,178.221 242.392,178.284 243.206,178.162 244.020,178.199 244.834,178.177 245.647,178.238 246.461,178.362 247.275,178.431 248.089,178.518 248.902,178.292 249.716,178.141 250.530,178.119 251.344,178.084 252.158,178.091 252.971,177.965 253.785,177.809 254.599,177.553 255.412,177.429 256.226,177.409 257.040,177.554 257.854,177.762 258.667,177.866 259.481,178.022 260.295,178.122 261.109,178.100 261.923,177.757 262.736,177.457 263.550,177.429 264.364,177.479 265.177,177.616 265.991,177.922 266.805,178.075 267.619,178.259 268.433,178.073 269.246,178.011 270.060,177.928 270.874,178.043 271.688,178.072 272.501,178.097 273.315,178.152 274.129,178.203 274.943,178.321 275.756,178.548 276.570,178.707 277.384,178.758 278.198,178.555 279.011,178.559 279.825,178.653 280.639,178.944 281.452,179.174 282.266,179.297 283.080,179.321 283.894,179.353 284.707,179.292 285.521,179.298 286.335,179.305 287.149,179.454 287.962,179.393 288.776,179.275 289.590,179.154 290.404,179.081 291.217,179.018 292.031,178.922 292.845,178.906 293.659,179.031 294.472,179.083 295.286,178.969 296.100,178.714 296.914,178.638 297.727,178.608 298.541,178.653 299.355,178.607 300.169,178.439 300.982,178.364 301.796,178.299 302.610,178.309 303.424,178.362 304.237,178.397 305.051,178.622 305.865,178.844 306.679,178.968 307.493,179.113 308.306,179.055 309.120,179.135 309.934,179.026 310.748,178.704 311.561,178.486 312.375,178.596 313.189,178.789 314.003,178.615 314.816,178.527 315.630,178.690 316.444,178.855 317.257,178.728 318.071,178.536 318.885,178.257 319.699,178.103 320.512,178.278 321.326,178.438 322.140,178.567 322.954,178.643 323.767,178.926 324.581,179.055 325.395,179.062 326.209,178.906 327.022,178.951 327.836,179.046 328.650,179.093 329.464,179.131 330.277,179.265 331.091,179.270 331.905,179.212 332.719,178.972 333.532,178.847 334.346,179.035 335.160,179.349 335.974,179.737 336.787,179.982 337.601,179.913 338.415,179.890 339.229,179.999 340.042,180.152 340.856,180.319 341.670,180.277 342.484,180.288 343.297,180.436 344.111,180.505 344.925,180.480 345.739,180.464 346.553,180.354 347.366,180.492 348.180,180.731 348.994,180.896 349.808,180.708 350.621,180.443 351.435,180.363 352.249,180.263 353.063,180.219 353.876,180.109 354.690,179.979 355.504,180.033 356.318,180.226 357.131,180.317 357.945,180.304 358.759,180.304 359.572,180.269 360.386,180.385 361.200,180.415 362.014,180.370 362.828,180.248 363.641,180.312 364.455,180.460 365.269,180.547 366.083,180.696 366.896,180.807 367.710,180.898 368.524,180.830 369.338,180.826 370.151,180.855 370.965,180.788 371.779,180.766 372.592,180.732 373.406,180.672 374.220,180.436 375.034,180.444 375.847,180.510 376.661,180.525 377.475,180.414 378.289,180.512 379.102,180.645 379.916,180.651 380.730,180.423 381.544,180.391 382.357,180.377 383.171,180.282 383.985,180.092 384.799,180.083 385.612,180.189 386.426,180.354 387.240,180.225 388.054,179.925 388.867,179.723 389.681,179.622 390.495,179.623 391.309,179.449 392.123,179.372 392.936,179.471 393.750,179.457 394.564,179.387 395.378,179.405 396.191,179.338 397.005,179.193 397.819,178.992 398.632,178.885 399.446,179.056 400.260,179.509 401.074,179.750 401.887,179.816 402.701,179.497 403.515,179.344 404.329,179.444 405.142,179.755 405.956,180.036 406.770,180.031 407.584,179.832 408.398,179.541 409.211,179.600 410.025,179.707 410.839,179.722 411.653,179.541 412.466,179.508 413.280,179.650 414.094,179.564 414.908,179.362 415.721,179.276 416.535,179.389 417.349,179.549 418.162,179.575 418.976,179.741 419.790,179.638 420.604,179.348 421.417,178.936 422.231,178.788 423.045,178.743 423.859,178.586 424.673,178.313 425.486,178.180 426.300,178.269 427.114,178.205 427.928,178.073 428.741,178.098 429.555,178.264 430.369,178.203 431.182,177.883 431.996,177.738 432.810,177.820 433.624,177.899 434.437,177.820 435.251,177.591 436.065,177.521 436.879,177.366 437.693,177.271 438.506,177.157 439.320,177.242 440.134,177.293 440.947,177.404 441.761,177.505 442.575,177.504 443.389,177.483 444.202,177.340 445.016,177.080 445.830,176.967 446.644,176.836 447.457,176.705 448.271,176.505 449.085,176.520 449.899,176.451 450.712,176.326 451.526,176.149 452.340,176.086 453.154,176.082 453.968,176.225 454.781,176.118 455.595,175.894 456.409,175.590 457.223,175.483 458.036,175.605 458.850,175.624 459.664,175.513 460.478,175.517 461.291,175.603 462.105,175.584 462.919,175.491 463.732,175.488 464.546,175.546 465.360,175.613 466.174,175.739 466.987,175.867 467.801,175.961 468.615,175.863 469.429,175.768 470.243,175.700 471.056,175.684 471.870,175.573 472.684,175.486 473.498,175.273 474.311,175.212 475.125,175.126 "/>
<g>
</g>
</g>
<g id="ID000008" >
  <g transform="translate(271.219,381.394)">
    <g transform="rotate(-0.0)">
      <text x="0.000" y="0.000" font-family="Helvetica" text-anchor="middle" font-size="9pt" fill="#000000" >Time (ms)</text>
    </g>
  </g>
</g>
<g id="ID000009" >
  <g transform="translate(35.437,191.392)">
    <g transform="rotate(-90.0)">
      <text x="0.000" y="0.000" font-family="Helvetica" text-anchor="middle" font-size="9pt" fill="#000000" >Vergence (deg)</text>
    </g>
  </g>
</g>
<g id="ID000010" >
</g>
    </g>
    <g>
      <polyline fill="none" stroke="#000000" stroke-width="0.5pt" stroke-dasharray="none" points="68.250,350.438 68.250,346.369 "/>
      <polyline fill="none" stroke="#000000" stroke-width="0.5pt" stroke-dasharray="none" points="108.938,350.438 108.938,346.369 "/>
      <polyline fill="none" stroke="#000000" stroke-width="0.5pt" stroke-dasharray="none" points="149.625,350.438 149.625,346.369 "/>
      <polyline fill="none" stroke="#000000" stroke-width="0.5pt" stroke-dasharray="none" points="190.313,350.438 190.313,346.369 "/>
      <polyline fill="none" stroke="#000000" stroke-width="0.5pt" stroke-dasharray="none" points="231.000,350.438 231.000,346.369 "/>
      <polyline fill="none" stroke="#000000" stroke-width="0.5pt" stroke-dasharray="none" points="271.688,350.438 271.688,346.369 "/>
      <polyline fill="none" stroke="#000000" stroke-width="0.5pt" stroke-dasharray="none" points="312.375,350.438 312.375,346.369 "/>
      <polyline fill="none" stroke="#000000" stroke-width="0.5pt" stroke-dasharray="none" points="353.063,350.438 353.063,346.369 "/>
      <polyline fill="none" stroke="#000000" stroke-width="0.5pt" stroke-dasharray="none" points="393.750,350.438 393.750,346.369 "/>
      <polyline fill="none" stroke="#000000" stroke-width="0.5pt" stroke-dasharray="none" points="434.438,350.438 434.438,346.369 "/>
      <polyline fill="none" stroke="#000000" stroke-width="0.5pt" stroke-dasharray="none" points="475.125,350.438 475.125,346.369 "/>
      <polyline fill="none" stroke="#000000" stroke-width="0.5pt" stroke-dasharray="none" points="68.250,350.438 475.125,350.438 "/>
  <g transform="translate(68.250,367.918)">
    <g transform="rotate(-0.0)">
      <text x="0.000" y="0.000" font-family="Helvetica" text-anchor="middle" font-size="9pt" fill="#000000" >-100</text>
    </g>
  </g>
  <g transform="translate(108.938,367.918)">
    <g transform="rotate(-0.0)">
      <text x="0.000" y="0.000" font-family="Helvetica" text-anchor="middle" font-size="9pt" fill="#000000" >-50</text>
    </g>
  </g>
  <g transform="translate(149.625,367.918)">
    <g transform="rotate(-0.0)">
      <text x="0.000" y="0.000" font-family="Helvetica" text-anchor="middle" font-size="9pt" fill="#000000" >0</text>
    </g>
  </g>
  <g transform="translate(190.313,367.918)">
    <g transform="rotate(-0.0)">
      <text x="0.000" y="0.000" font-family="Helvetica" text-anchor="middle" font-size="9pt" fill="#000000" >50</text>
    </g>
  </g>
  <g transform="translate(231.000,367.918)">
    <g transform="rotate(-0.0)">
      <text x="0.000" y="0.000" font-family="Helvetica" text-anchor="middle" font-size="9pt" fill="#000000" >100</text>
    </g>
  </g>
  <g transform="translate(271.688,367.918)">
    <g transform="rotate(-0.0)">
      <text x="0.000" y="0.000" font-family="Helvetica" text-anchor="middle" font-size="9pt" fill="#000000" >150</text>
    </g>
  </g>
  <g transform="translate(312.375,367.918)">
    <g transform="rotate(-0.0)">
      <text x="0.000" y="0.000" font-family="Helvetica" text-anchor="middle" font-size="9pt" fill="#000000" >200</text>
    </g>
  </g>
  <g transform="translate(353.063,367.918)">
    <g transform="rotate(-0.0)">
      <text x="0.000" y="0.000" font-family="Helvetica" text-anchor="middle" font-size="9pt" fill="#000000" >250</text>
    </g>
  </g>
  <g transform="translate(393.750,367.918)">
    <g transform="rotate(-0.0)">
      <text x="0.000" y="0.000" font-family="Helvetica" text-anchor="middle" font-size="9pt" fill="#000000" >300</text>
    </g>
  </g>
  <g transform="translate(434.438,367.918)">
    <g transform="rotate(-0.0)">
      <text x="0.000" y="0.000" font-family="Helvetica" text-anchor="middle" font-size="9pt" fill="#000000" >350</text>
    </g>
  </g>
  <g transform="translate(475.125,367.918)">
    <g transform="rotate(-0.0)">
      <text x="0.000" y="0.000" font-family="Helvetica" text-anchor="middle" font-size="9pt" fill="#000000" >400</text>
    </g>
  </g>
      <polyline fill="none" stroke="#000000" stroke-width="0.5pt" stroke-dasharray="none" points="68.250,350.438 72.319,350.438 "/>
      <polyline fill="none" stroke="#000000" stroke-width="0.5pt" stroke-dasharray="none" points="68.250,318.347 72.319,318.347 "/>
      <polyline fill="none" stroke="#000000" stroke-width="0.5pt" stroke-dasharray="none" points="68.250,286.256 72.319,286.256 "/>
      <polyline fill="none" stroke="#000000" stroke-width="0.5pt" stroke-dasharray="none" points="68.250,254.166 72.319,254.166 "/>
      <polyline fill="none" stroke="#000000" stroke-width="0.5pt" stroke-dasharray="none" points="68.250,222.075 72.319,222.075 "/>
      <polyline fill="none" stroke="#000000" stroke-width="0.5pt" stroke-dasharray="none" points="68.250,189.984 72.319,189.984 "/>
      <polyline fill="none" stroke="#000000" stroke-width="0.5pt" stroke-dasharray="none" points="68.250,157.894 72.319,157.894 "/>
      <polyline fill="none" stroke="#000000" stroke-width="0.5pt" stroke-dasharray="none" points="68.250,125.803 72.319,125.803 "/>
      <polyline fill="none" stroke="#000000" stroke-width="0.5pt" stroke-dasharray="none" points="68.250,93.713 72.319,93.713 "/>
      <polyline fill="none" stroke="#000000" stroke-width="0.5pt" stroke-dasharray="none" points="68.250,61.622 72.319,61.622 "/>
      <polyline fill="none" stroke="#000000" stroke-width="0.5pt" stroke-dasharray="none" points="68.250,29.531 72.319,29.531 "/>
      <polyline fill="none" stroke="#000000" stroke-width="0.5pt" stroke-dasharray="none" points="68.250,350.438 68.250,29.531 "/>
  <g transform="translate(60.112,354.656)">
    <g transform="rotate(-0.0)">
      <text x="0.000" y="0.000" font-family="Helvetica" text-anchor="end" font-size="9pt" fill="#000000" >-1</text>
    </g>
  </g>
  <g transform="translate(60.112,322.566)">
    <g transform="rotate(-0.0)">
      <text x="0.000" y="0.000" font-family="Helvetica" text-anchor="end" font-size="9pt" fill="#000000" >-0.8</text>
    </g>
  </g>
  <g transform="translate(60.112,290.475)">
    <g transform="rotate(-0.0)">
      <text x="0.000" y="0.000" font-family="Helvetica" text-anchor="end" font-size="9pt" fill="#000000" >-0.6</text>
    </g>
  </g>
  <g transform="translate(60.112,258.384)">
    <g transform="rotate(-0.0)">
      <text x="0.000" y="0.000" font-family="Helvetica" text-anchor="end" font-size="9pt" fill="#000000" >-0.4</text>
    </g>
  </g>
  <g transform="translate(60.112,226.294)">
    <g transform="rotate(-0.0)">
      <text x="0.000" y="0.000" font-family="Helvetica" text-anchor="end" font-size="9pt" fill="#000000" >-0.2</text>
    </g>
  </g>
  <g transform="translate(60.112,194.203)">
    <g transform="rotate(-0.0)">
      <text x="0.000" y="0.000" font-family="Helvetica" text-anchor="end" font-size="9pt" fill="#000000" >0</text>
    </g>
  </g>
  <g transform="translate(60.112,162.113)">
    <g transform="rotate(-0.0)">
      <text x="0.000" y="0.000" font-family="Helvetica" text-anchor="end" font-size="9pt" fill="#000000" >0.2</text>
    </g>
  </g>
  <g transform="translate(60.112,130.022)">
    <g transform="rotate(-0.0)">
      <text x="0.000" y="0.000" font-family="Helvetica" text-anchor="end" font-size="9pt" fill="#000000" >0.4</text>
    </g>
  </g>
  <g transform="translate(60.112,97.931)">
    <g transform="rotate(-0.0)">
      <text x="0.000" y="0.000" font-family="Helvetica" text-anchor="end" font-size="9pt" fill="#000000" >0.6</text>
    </g>
  </g>
  <g transform="translate(60.112,65.841)">
    <g transform="rotate(-0.0)">
      <text x="0.000" y="0.000" font-family="Helvetica" text-anchor="end" font-size="9pt" fill="#000000" >0.8</text>
    </g>
  </g>
  <g transform="translate(60.112,33.750)">
    <g transform="rotate(-0.0)">
      <text x="0.000" y="0.000" font-family="Helvetica" text-anchor="end" font-size="9pt" fill="#000000" >1</text>
    </g>
  </g>
      <polyline fill="none" stroke="#000000" stroke-width="0.5pt" stroke-dasharray="none" points="68.250,350.438 68.250,347.228 "/>
      <polyline fill="none" stroke="#000000" stroke-width="0.5pt" stroke-dasharray="none" points="68.250,350.438 68.250,347.228 "/>
      <polyline fill="none" stroke="#000000" stroke-width="0.5pt" stroke-dasharray="none" points="68.250,350.437 68.250,347.228 "/>
      <polyline fill="none" stroke="#000000" stroke-width="0.5pt" stroke-dasharray="none" points="68.250,350.438 68.250,350.437 "/>
    </g>
  </g>
  </g>
</svg>
