<?xml version="1.0" encoding="utf-8" standalone="no"?><!DOCTYPE svg PUBLIC "-//W3C//DTD SVG 1.1//EN" "http://www.w3.org/Graphics/SVG/1.1/DTD/svg11.dtd">
<svg preserveAspectRatio="xMinYMin meet" width="100%" height="100%" viewBox="0 0 525.000 393.750"  version="1.1" xmlns="http://www.w3.org/2000/svg" xmlns:xlink="http://www.w3.org/1999/xlink">
  <desc>Matlab Figure Converted by PLOT2SVG written by Juerg Schwizer</desc>
  <g id="topgroup">
  <rect x="0" y="0" width="525.000" height="393.750" fill="#ffffff" stroke="none" />
  <g id ="ID000000">
  <clipPath id="ID000001">
    <rect x="68.250" y="29.531" width="406.875" height="320.906"/>
  </clipPath>
      <polygon fill="#ffffff" fill-opacity="1.00" stroke="none" stroke-width="0.5pt" stroke-opacity="1.00" stroke-dasharray="none" points="68.250,350.438 475.125,350.438 475.125,29.531 68.250,29.531 "/>
      <polygon fill="#ffffff" fill-opacity="1.00" stroke="none" stroke-width="0.5pt" stroke-opacity="1.00" stroke-dasharray="none" points="68.250,29.531 475.125,29.531 475.125,29.531 68.250,29.531 "/>
      <polygon fill="#ffffff" fill-opacity="1.00" stroke="none" stroke-width="0.5pt" stroke-opacity="1.00" stroke-dasharray="none" points="68.250,350.438 68.250,350.437 68.250,29.531 68.250,29.531 "/>
    <g>
<g id="ID000002" clip-path="url(#ID000001)" >
      <polyline fill="none" stroke="#0000ff" stroke-width="0.5pt" stroke-dasharray="none" points="68.250,188.543 69.064,188.323 69.877,188.429 70.691,188.983 71.505,189.497 72.319,189.551 73.132,189.632 73.946,189.616 74.760,189.503 75.574,189.356 76.387,189.338 77.201,189.620 78.015,189.937 78.829,190.227 79.642,190.252 80.456,190.305 81.270,190.668 82.084,191.373 82.897,191.505 83.711,191.105 84.525,190.444 85.339,190.228 86.152,190.210 86.966,190.082 87.780,189.597 88.594,189.092 89.407,189.038 90.221,189.148 91.035,189.127 91.849,189.075 92.662,189.109 93.476,189.606 94.290,190.012 95.104,190.380 95.917,190.462 96.731,190.630 97.545,190.526 98.359,190.293 99.172,189.978 99.986,190.004 100.800,190.172 101.614,190.165 102.427,189.878 103.241,189.663 104.055,189.640 104.869,189.847 105.682,189.920 106.496,189.827 107.310,189.715 108.124,189.846 108.938,189.856 109.751,189.914 110.565,189.769 111.379,189.589 112.193,189.248 113.006,189.103 113.820,189.195 114.634,189.348 115.447,189.293 116.261,189.325 117.075,189.428 117.889,189.519 118.702,189.518 119.516,189.523 120.330,189.869 121.144,190.373 121.957,190.598 122.771,190.498 123.585,190.116 124.399,189.928 125.212,189.942 126.026,190.399 126.840,190.505 127.654,190.804 128.467,190.898 129.281,191.111 130.095,191.197 130.909,191.183 131.723,191.334 132.536,191.099 133.350,190.785 134.164,190.607 134.977,190.777 135.791,191.051 136.605,190.905 137.419,190.573 138.232,190.050 139.046,189.912 139.860,189.915 140.674,190.108 141.487,190.083 142.301,189.821 143.115,189.558 143.929,189.676 144.742,190.039 145.556,190.056 146.370,190.002 147.184,189.991 147.998,190.179 148.811,190.397 149.625,190.423 150.439,190.469 151.252,190.559 152.066,190.845 152.880,190.843 153.694,190.684 154.507,190.374 155.321,190.038 156.135,189.945 156.949,190.033 157.762,190.018 158.576,189.691 159.390,189.362 160.204,189.132 161.017,189.234 161.831,189.247 162.645,189.225 163.459,189.263 164.272,189.380 165.086,189.332 165.900,189.170 166.714,189.277 167.527,189.555 168.341,189.643 169.155,189.413 169.969,189.176 170.783,189.094 171.596,189.073 172.410,189.110 173.224,189.079 174.037,188.888 174.851,188.734 175.665,188.648 176.479,188.693 177.292,188.736 178.106,188.932 178.920,189.098 179.734,189.194 180.547,189.231 181.361,189.554 182.175,189.929 182.989,190.269 183.802,190.146 184.616,189.830 185.430,189.857 186.244,189.989 187.057,190.311 187.871,190.202 188.685,189.893 189.499,189.608 190.312,189.560 191.126,189.846 191.940,189.879 192.754,189.673 193.568,189.554 194.381,189.478 195.195,189.452 196.009,189.418 196.823,189.212 197.636,189.172 198.450,189.230 199.264,189.213 200.077,189.071 200.891,188.974 201.705,189.110 202.519,189.364 203.332,189.276 204.146,189.170 204.960,189.340 205.774,189.296 206.587,189.101 207.401,188.885 208.215,188.815 209.029,188.974 209.843,188.869 210.656,188.960 211.470,188.937 212.284,188.922 213.098,188.930 213.911,189.035 214.725,188.866 215.539,188.519 216.353,187.947 217.166,187.409 217.980,187.262 218.794,187.749 219.607,188.354 220.421,188.739 221.235,188.652 222.049,188.566 222.862,188.740 223.676,188.748 224.490,188.469 225.304,187.926 226.117,187.841 226.931,188.115 227.745,188.236 228.559,188.025 229.373,187.837 230.186,187.765 231.000,188.147 231.814,188.641 232.627,188.672 233.441,188.471 234.255,188.062 235.069,187.662 235.882,187.482 236.696,187.534 237.510,187.729 238.324,187.562 239.137,187.287 239.951,187.338 240.765,187.620 241.579,187.852 242.392,187.603 243.206,187.143 244.020,186.949 244.834,186.919 245.647,186.891 246.461,186.660 247.275,186.453 248.089,186.168 248.902,186.064 249.716,185.785 250.530,185.664 251.344,185.747 252.158,186.373 252.971,186.675 253.785,186.679 254.599,186.490 255.412,186.622 256.226,186.702 257.040,186.562 257.854,186.556 258.667,186.557 259.481,186.650 260.295,186.382 261.109,186.316 261.923,186.249 262.736,186.458 263.550,186.554 264.364,186.526 265.177,186.412 265.991,186.630 266.805,186.917 267.619,187.182 268.433,187.061 269.246,186.933 270.060,186.874 270.874,187.022 271.688,187.260 272.501,187.434 273.315,187.732 274.129,187.728 274.943,187.308 275.756,186.496 276.570,186.227 277.384,186.644 278.198,187.090 279.011,187.242 279.825,187.281 280.639,187.337 281.452,187.118 282.266,186.926 283.080,186.807 283.894,187.257 284.707,187.680 285.521,187.959 286.335,187.947 287.149,187.915 287.962,187.925 288.776,188.417 289.590,188.609 290.404,188.751 291.217,188.632 292.031,188.584 292.845,188.459 293.659,188.394 294.472,188.507 295.286,188.658 296.100,188.936 296.914,189.136 297.727,189.291 298.541,189.394 299.355,189.411 300.169,189.639 300.982,189.591 301.796,189.603 302.610,189.680 303.424,189.792 304.237,189.806 305.051,189.912 305.865,190.312 306.679,190.839 307.493,191.344 308.306,191.470 309.120,191.297 309.934,191.207 310.748,191.453 311.561,191.545 312.375,191.258 313.189,190.747 314.003,190.761 314.816,191.202 315.630,191.611 316.444,191.517 317.257,191.013 318.071,190.606 318.885,190.657 319.699,190.873 320.512,191.212 321.326,191.579 322.140,191.843 322.954,191.831 323.767,191.657 324.581,191.378 325.395,191.296 326.209,191.275 327.022,191.321 327.836,191.081 328.650,190.673 329.464,190.598 330.277,191.090 331.091,191.754 331.905,192.091 332.719,192.022 333.532,191.913 334.346,191.821 335.160,192.202 335.974,192.403 336.787,192.189 337.601,192.016 338.415,192.088 339.229,192.342 340.042,192.746 340.856,192.982 341.670,193.101 342.484,193.278 343.297,193.727 344.111,194.227 344.925,194.340 345.739,194.267 346.553,193.820 347.366,193.644 348.180,193.405 348.994,193.243 349.808,193.158 350.621,193.166 351.435,193.198 352.249,193.295 353.063,193.487 353.876,193.834 354.690,194.339 355.504,194.938 356.318,195.404 357.131,195.453 357.945,195.188 358.759,195.172 359.572,195.060 360.386,195.225 361.200,195.332 362.014,195.626 362.828,195.832 363.641,195.902 364.455,195.833 365.269,196.034 366.083,196.526 366.896,197.077 367.710,197.504 368.524,197.563 369.338,197.296 370.151,197.416 370.965,197.599 371.779,198.029 372.592,198.194 373.406,198.437 374.220,198.532 375.034,198.633 375.847,198.826 376.661,199.072 377.475,199.161 378.289,199.347 379.102,199.675 379.916,200.035 380.730,200.384 381.544,200.599 382.357,200.749 383.171,200.716 383.985,200.664 384.799,201.021 385.612,201.807 386.426,202.504 387.240,202.953 388.054,203.028 388.867,203.094 389.681,203.044 390.495,203.066 391.309,203.118 392.123,203.099 392.936,203.319 393.750,203.683 394.564,204.226 395.378,204.382 396.191,204.268 397.005,204.099 397.819,204.511 398.632,205.243 399.446,206.064 400.260,206.219 401.074,206.058 401.887,206.123 402.701,206.719 403.515,207.305 404.329,207.966 405.142,208.505 405.956,208.988 406.770,209.096 407.584,208.981 408.398,208.861 409.211,209.063 410.025,209.436 410.839,210.024 411.653,210.578 412.466,210.927 413.280,211.154 414.094,211.283 414.908,211.612 415.721,211.952 416.535,212.128 417.349,212.366 418.162,212.786 418.976,213.347 419.790,213.442 420.604,213.533 421.417,213.802 422.231,214.252 423.045,214.611 423.859,214.377 424.673,214.451 425.486,214.981 426.300,215.673 427.114,216.098 427.928,216.063 428.741,216.105 429.555,216.246 430.369,216.393 431.182,216.701 431.996,216.535 432.810,216.455 433.624,216.828 434.437,217.541 435.251,218.018 436.065,217.988 436.879,217.718 437.693,217.518 438.506,217.611 439.320,217.838 440.134,218.347 440.947,218.573 441.761,218.677 442.575,218.639 443.389,218.788 444.202,218.885 445.016,218.898 445.830,219.199 446.644,219.952 447.457,220.751 448.271,221.083 449.085,221.108 449.899,220.911 450.712,220.840 451.526,221.067 452.340,221.455 453.154,221.802 453.968,221.978 454.781,222.021 455.595,221.987 456.409,222.242 457.223,222.456 458.036,222.602 458.850,222.747 459.664,223.091 460.478,223.306 461.291,223.286 462.105,222.951 462.919,222.989 463.732,222.964 464.546,223.010 465.360,223.111 466.174,223.281 466.987,223.549 467.801,223.641 468.615,223.626 469.429,223.417 470.243,223.003 471.056,222.776 471.870,223.013 472.684,223.406 473.498,223.835 474.311,223.740 475.125,223.559 "/>
<g>
</g>
</g>
<g id="ID000003" clip-path="url(#ID000001)" >
      <polyline fill="none" stroke="#0000ff" stroke-width="0.5pt" stroke-dasharray="8.0,2.0" points="68.250,191.867 69.064,191.649 69.877,191.766 70.691,192.326 71.505,192.846 72.319,192.907 73.132,192.965 73.946,192.928 74.760,192.770 75.574,192.565 76.387,192.524 77.201,192.812 78.015,193.195 78.829,193.547 79.642,193.600 80.456,193.642 81.270,194.005 82.084,194.698 82.897,194.809 83.711,194.401 84.525,193.755 85.339,193.566 86.152,193.559 86.966,193.404 87.780,192.878 88.594,192.335 89.407,192.290 90.221,192.387 91.035,192.366 91.849,192.296 92.662,192.339 93.476,192.841 94.290,193.260 95.104,193.649 95.917,193.752 96.731,193.915 97.545,193.791 98.359,193.530 99.172,193.218 99.986,193.252 100.800,193.460 101.614,193.463 102.427,193.148 103.241,192.920 104.055,192.885 104.869,193.080 105.682,193.148 106.496,193.044 107.310,192.916 108.124,193.030 108.938,193.046 109.751,193.114 110.565,192.969 111.379,192.783 112.193,192.473 113.006,192.344 113.820,192.432 114.634,192.565 115.447,192.517 116.261,192.572 117.075,192.695 117.889,192.811 118.702,192.815 119.516,192.811 120.330,193.149 121.144,193.670 121.957,193.920 122.771,193.844 123.585,193.478 124.399,193.295 125.212,193.325 126.026,193.796 126.840,193.936 127.654,194.240 128.467,194.327 129.281,194.511 130.095,194.561 130.909,194.518 131.723,194.651 132.536,194.420 133.350,194.127 134.164,193.921 134.977,194.046 135.791,194.283 136.605,194.121 137.419,193.806 138.232,193.315 139.046,193.231 139.860,193.247 140.674,193.416 141.487,193.367 142.301,193.099 143.115,192.849 143.929,192.951 144.742,193.305 145.556,193.299 146.370,193.247 147.184,193.243 147.998,193.421 148.811,193.623 149.625,193.644 150.439,193.690 151.252,193.792 152.066,194.076 152.880,194.053 153.694,193.902 154.507,193.619 155.321,193.287 156.135,193.174 156.949,193.246 157.762,193.236 158.576,192.930 159.390,192.615 160.204,192.388 161.017,192.500 161.831,192.558 162.645,192.552 163.459,192.611 164.272,192.725 165.086,192.665 165.900,192.506 166.714,192.601 167.527,192.853 168.341,192.875 169.155,192.642 169.969,192.438 170.783,192.404 171.596,192.386 172.410,192.423 173.224,192.400 174.037,192.204 174.851,192.064 175.665,191.981 176.479,192.053 177.292,192.111 178.106,192.316 178.920,192.485 179.734,192.586 180.547,192.610 181.361,192.927 182.175,193.269 182.989,193.578 183.802,193.422 184.616,193.108 185.430,193.174 186.244,193.349 187.057,193.712 187.871,193.598 188.685,193.232 189.499,192.890 190.312,192.811 191.126,193.114 191.940,193.177 192.754,192.995 193.568,192.883 194.381,192.832 195.195,192.825 196.009,192.808 196.823,192.590 197.636,192.556 198.450,192.637 199.264,192.672 200.077,192.565 200.891,192.460 201.705,192.563 202.519,192.768 203.332,192.663 204.146,192.557 204.960,192.725 205.774,192.682 206.587,192.460 207.401,192.236 208.215,192.163 209.029,192.340 209.843,192.280 210.656,192.389 211.470,192.339 212.284,192.267 213.098,192.241 213.911,192.343 214.725,192.184 215.539,191.838 216.353,191.249 217.166,190.690 217.980,190.539 218.794,191.033 219.607,191.652 220.421,192.059 221.235,192.011 222.049,191.925 222.862,192.088 223.676,192.061 224.490,191.794 225.304,191.274 226.117,191.215 226.931,191.510 227.745,191.629 228.559,191.400 229.373,191.210 230.186,191.164 231.000,191.556 231.814,192.040 232.627,192.061 233.441,191.873 234.255,191.458 235.069,191.070 235.882,190.884 236.696,190.917 237.510,191.062 238.324,190.873 239.137,190.585 239.951,190.643 240.765,190.963 241.579,191.222 242.392,190.957 243.206,190.461 244.020,190.263 244.834,190.270 245.647,190.284 246.461,190.086 247.275,189.895 248.089,189.606 248.902,189.507 249.716,189.231 250.530,189.132 251.344,189.206 252.158,189.822 252.971,190.112 253.785,190.112 254.599,189.916 255.412,190.031 256.226,190.118 257.040,189.991 257.854,189.999 258.667,190.032 259.481,190.135 260.295,189.855 261.109,189.776 261.923,189.702 262.736,189.883 263.550,189.975 264.364,189.955 265.177,189.879 265.991,190.130 266.805,190.457 267.619,190.743 268.433,190.602 269.246,190.438 270.060,190.373 270.874,190.490 271.688,190.730 272.501,190.892 273.315,191.179 274.129,191.148 274.943,190.715 275.756,189.916 276.570,189.680 277.384,190.129 278.198,190.604 279.011,190.755 279.825,190.805 280.639,190.856 281.452,190.629 282.266,190.432 283.080,190.297 283.894,190.714 284.707,191.094 285.521,191.352 286.335,191.332 287.149,191.306 287.962,191.348 288.776,191.898 289.590,192.118 290.404,192.252 291.217,192.100 292.031,192.041 292.845,191.903 293.659,191.824 294.472,191.942 295.286,192.085 296.100,192.336 296.914,192.508 297.727,192.694 298.541,192.872 299.355,192.927 300.169,193.175 300.982,193.108 301.796,193.096 302.610,193.149 303.424,193.272 304.237,193.307 305.051,193.427 305.865,193.811 306.679,194.323 307.493,194.822 308.306,194.951 309.120,194.755 309.934,194.625 310.748,194.833 311.561,194.925 312.375,194.649 313.189,194.115 314.003,194.089 314.816,194.506 315.630,194.932 316.444,194.871 317.257,194.378 318.071,193.987 318.885,194.046 319.699,194.306 320.512,194.647 321.326,195.020 322.140,195.252 322.954,195.227 323.767,195.038 324.581,194.732 325.395,194.639 326.209,194.616 327.022,194.664 327.836,194.425 328.650,194.021 329.464,193.976 330.277,194.483 331.091,195.165 331.905,195.501 332.719,195.413 333.532,195.307 334.346,195.238 335.160,195.627 335.974,195.815 336.787,195.586 337.601,195.423 338.415,195.516 339.229,195.791 340.042,196.194 340.856,196.450 341.670,196.575 342.484,196.705 343.297,197.118 344.111,197.611 344.925,197.737 345.739,197.677 346.553,197.247 347.366,197.085 348.180,196.831 348.994,196.615 349.808,196.505 350.621,196.519 351.435,196.608 352.249,196.742 353.063,196.933 353.876,197.270 354.690,197.794 355.504,198.415 356.318,198.896 357.131,198.930 357.945,198.644 358.759,198.624 359.572,198.509 360.386,198.688 361.200,198.806 362.014,199.091 362.828,199.275 363.641,199.287 364.455,199.200 365.269,199.389 366.083,199.885 366.896,200.470 367.710,200.964 368.524,201.092 369.338,200.849 370.151,200.961 370.965,201.130 371.779,201.560 372.592,201.727 373.406,201.971 374.220,202.021 375.034,202.084 375.847,202.271 376.661,202.528 377.475,202.628 378.289,202.798 379.102,203.110 379.916,203.473 380.730,203.838 381.544,204.059 382.357,204.185 383.171,204.120 383.985,204.009 384.799,204.354 385.612,205.143 386.426,205.887 387.240,206.352 388.054,206.408 388.867,206.436 389.681,206.354 390.495,206.361 391.309,206.400 392.123,206.376 392.936,206.612 393.750,207.001 394.564,207.578 395.378,207.714 396.191,207.586 397.005,207.426 397.819,207.876 398.632,208.643 399.446,209.501 400.260,209.669 401.074,209.534 401.887,209.573 402.701,210.131 403.515,210.677 404.329,211.330 405.142,211.864 405.956,212.324 406.770,212.389 407.584,212.263 408.398,212.166 409.211,212.377 410.025,212.741 410.839,213.351 411.653,213.951 412.466,214.329 413.280,214.532 414.094,214.640 414.908,214.992 415.721,215.377 416.535,215.579 417.349,215.810 418.162,216.225 418.976,216.780 419.790,216.860 420.604,216.927 421.417,217.206 422.231,217.698 423.045,218.072 423.859,217.819 424.673,217.849 425.486,218.374 426.300,219.077 427.114,219.520 427.928,219.498 428.741,219.516 429.555,219.669 430.369,219.834 431.182,220.160 431.996,220.010 432.810,219.935 433.624,220.326 434.437,221.010 435.251,221.465 436.065,221.427 436.879,221.180 437.693,220.973 438.506,221.035 439.320,221.230 440.134,221.753 440.947,222.049 441.761,222.250 442.575,222.232 443.389,222.340 444.202,222.376 445.016,222.385 445.830,222.684 446.644,223.420 447.457,224.193 448.271,224.531 449.085,224.593 449.899,224.437 450.712,224.399 451.526,224.630 452.340,225.014 453.154,225.340 453.968,225.509 454.781,225.541 455.595,225.491 456.409,225.723 457.223,225.929 458.036,226.080 458.850,226.227 459.664,226.564 460.478,226.744 461.291,226.690 462.105,226.358 462.919,226.420 463.732,226.396 464.546,226.441 465.360,226.516 466.174,226.670 466.987,226.907 467.801,226.997 468.615,227.000 469.429,226.792 470.243,226.348 471.056,226.076 471.870,226.333 472.684,226.745 473.498,227.177 474.311,227.063 475.125,226.872 "/>
<g>
</g>
</g>
<g id="ID000004" clip-path="url(#ID000001)" >
      <polyline fill="none" stroke="#0000ff" stroke-width="0.5pt" stroke-dasharray="8.0,2.0" points="68.250,185.218 69.064,184.997 69.877,185.092 70.691,185.640 71.505,186.148 72.319,186.194 73.132,186.299 73.946,186.304 74.760,186.237 75.574,186.148 76.387,186.153 77.201,186.428 78.015,186.678 78.829,186.907 79.642,186.904 80.456,186.968 81.270,187.330 82.084,188.048 82.897,188.200 83.711,187.810 84.525,187.133 85.339,186.890 86.152,186.861 86.966,186.759 87.780,186.315 88.594,185.849 89.407,185.787 90.221,185.908 91.035,185.889 91.849,185.853 92.662,185.879 93.476,186.371 94.290,186.765 95.104,187.111 95.917,187.173 96.731,187.345 97.545,187.262 98.359,187.056 99.172,186.737 99.986,186.756 100.800,186.884 101.614,186.867 102.427,186.608 103.241,186.407 104.055,186.395 104.869,186.614 105.682,186.692 106.496,186.610 107.310,186.515 108.124,186.662 108.938,186.666 109.751,186.714 110.565,186.568 111.379,186.394 112.193,186.023 113.006,185.862 113.820,185.958 114.634,186.131 115.447,186.069 116.261,186.078 117.075,186.160 117.889,186.227 118.702,186.220 119.516,186.234 120.330,186.588 121.144,187.077 121.957,187.277 122.771,187.152 123.585,186.754 124.399,186.561 125.212,186.558 126.026,187.001 126.840,187.074 127.654,187.369 128.467,187.469 129.281,187.711 130.095,187.832 130.909,187.848 131.723,188.016 132.536,187.778 133.350,187.442 134.164,187.293 134.977,187.509 135.791,187.819 136.605,187.690 137.419,187.339 138.232,186.785 139.046,186.593 139.860,186.583 140.674,186.800 141.487,186.798 142.301,186.542 143.115,186.267 143.929,186.400 144.742,186.772 145.556,186.812 146.370,186.756 147.184,186.740 147.998,186.937 148.811,187.170 149.625,187.202 150.439,187.248 151.252,187.325 152.066,187.614 152.880,187.634 153.694,187.466 154.507,187.129 155.321,186.790 156.135,186.717 156.949,186.820 157.762,186.801 158.576,186.451 159.390,186.110 160.204,185.877 161.017,185.968 161.831,185.936 162.645,185.897 163.459,185.915 164.272,186.035 165.086,185.999 165.900,185.833 166.714,185.952 167.527,186.257 168.341,186.411 169.155,186.183 169.969,185.914 170.783,185.785 171.596,185.761 172.410,185.798 173.224,185.758 174.037,185.572 174.851,185.405 175.665,185.314 176.479,185.332 177.292,185.360 178.106,185.548 178.920,185.712 179.734,185.802 180.547,185.853 181.361,186.180 182.175,186.590 182.989,186.960 183.802,186.870 184.616,186.552 185.430,186.540 186.244,186.629 187.057,186.909 187.871,186.806 188.685,186.553 189.499,186.327 190.312,186.309 191.126,186.578 191.940,186.581 192.754,186.352 193.568,186.225 194.381,186.125 195.195,186.080 196.009,186.027 196.823,185.834 197.636,185.788 198.450,185.824 199.264,185.754 200.077,185.578 200.891,185.488 201.705,185.658 202.519,185.960 203.332,185.888 204.146,185.783 204.960,185.955 205.774,185.910 206.587,185.741 207.401,185.533 208.215,185.468 209.029,185.609 209.843,185.459 210.656,185.531 211.470,185.536 212.284,185.578 213.098,185.619 213.911,185.727 214.725,185.547 215.539,185.200 216.353,184.646 217.166,184.127 217.980,183.985 218.794,184.464 219.607,185.056 220.421,185.418 221.235,185.293 222.049,185.206 222.862,185.392 223.676,185.436 224.490,185.144 225.304,184.578 226.117,184.467 226.931,184.719 227.745,184.844 228.559,184.651 229.373,184.465 230.186,184.365 231.000,184.738 231.814,185.243 232.627,185.283 233.441,185.070 234.255,184.666 235.069,184.254 235.882,184.080 236.696,184.151 237.510,184.396 238.324,184.250 239.137,183.990 239.951,184.033 240.765,184.276 241.579,184.483 242.392,184.249 243.206,183.825 244.020,183.634 244.834,183.569 245.647,183.498 246.461,183.234 247.275,183.010 248.089,182.729 248.902,182.622 249.716,182.340 250.530,182.196 251.344,182.289 252.158,182.924 252.971,183.238 253.785,183.246 254.599,183.065 255.412,183.213 256.226,183.285 257.040,183.133 257.854,183.113 258.667,183.083 259.481,183.164 260.295,182.909 261.109,182.857 261.923,182.796 262.736,183.033 263.550,183.133 264.364,183.098 265.177,182.946 265.991,183.130 266.805,183.376 267.619,183.621 268.433,183.519 269.246,183.427 270.060,183.375 270.874,183.554 271.688,183.789 272.501,183.977 273.315,184.284 274.129,184.308 274.943,183.901 275.756,183.077 276.570,182.774 277.384,183.158 278.198,183.577 279.011,183.730 279.825,183.757 280.639,183.818 281.452,183.607 282.266,183.420 283.080,183.316 283.894,183.800 284.707,184.267 285.521,184.566 286.335,184.562 287.149,184.524 287.962,184.503 288.776,184.936 289.590,185.100 290.404,185.250 291.217,185.163 292.031,185.128 292.845,185.016 293.659,184.965 294.472,185.071 295.286,185.230 296.100,185.536 296.914,185.764 297.727,185.887 298.541,185.916 299.355,185.896 300.169,186.102 300.982,186.075 301.796,186.110 302.610,186.211 303.424,186.312 304.237,186.306 305.051,186.397 305.865,186.812 306.679,187.355 307.493,187.866 308.306,187.989 309.120,187.840 309.934,187.790 310.748,188.073 311.561,188.164 312.375,187.868 313.189,187.380 314.003,187.433 314.816,187.897 315.630,188.291 316.444,188.164 317.257,187.647 318.071,187.224 318.885,187.267 319.699,187.440 320.512,187.777 321.326,188.138 322.140,188.433 322.954,188.434 323.767,188.276 324.581,188.024 325.395,187.954 326.209,187.933 327.022,187.979 327.836,187.738 328.650,187.325 329.464,187.219 330.277,187.697 331.091,188.344 331.905,188.681 332.719,188.632 333.532,188.519 334.346,188.405 335.160,188.777 335.974,188.991 336.787,188.791 337.601,188.608 338.415,188.659 339.229,188.893 340.042,189.298 340.856,189.514 341.670,189.627 342.484,189.851 343.297,190.336 344.111,190.843 344.925,190.944 345.739,190.858 346.553,190.393 347.366,190.203 348.180,189.979 348.994,189.870 349.808,189.812 350.621,189.814 351.435,189.789 352.249,189.849 353.063,190.042 353.876,190.399 354.690,190.884 355.504,191.460 356.318,191.913 357.131,191.977 357.945,191.731 358.759,191.721 359.572,191.611 360.386,191.762 361.200,191.858 362.014,192.160 362.828,192.388 363.641,192.516 364.455,192.466 365.269,192.679 366.083,193.166 366.896,193.684 367.710,194.045 368.524,194.034 369.338,193.743 370.151,193.872 370.965,194.069 371.779,194.498 372.592,194.661 373.406,194.903 374.220,195.043 375.034,195.181 375.847,195.382 376.661,195.615 377.475,195.694 378.289,195.896 379.102,196.240 379.916,196.596 380.730,196.929 381.544,197.140 382.357,197.313 383.171,197.311 383.985,197.319 384.799,197.688 385.612,198.471 386.426,199.120 387.240,199.555 388.054,199.648 388.867,199.753 389.681,199.734 390.495,199.772 391.309,199.836 392.123,199.822 392.936,200.026 393.750,200.364 394.564,200.873 395.378,201.049 396.191,200.950 397.005,200.773 397.819,201.146 398.632,201.843 399.446,202.628 400.260,202.768 401.074,202.582 401.887,202.673 402.701,203.307 403.515,203.933 404.329,204.603 405.142,205.146 405.956,205.653 406.770,205.803 407.584,205.699 408.398,205.556 409.211,205.749 410.025,206.132 410.839,206.697 411.653,207.205 412.466,207.526 413.280,207.776 414.094,207.926 414.908,208.233 415.721,208.528 416.535,208.677 417.349,208.922 418.162,209.346 418.976,209.914 419.790,210.025 420.604,210.139 421.417,210.398 422.231,210.806 423.045,211.151 423.859,210.936 424.673,211.053 425.486,211.588 426.300,212.269 427.114,212.677 427.928,212.628 428.741,212.694 429.555,212.824 430.369,212.953 431.182,213.242 431.996,213.060 432.810,212.975 433.624,213.330 434.437,214.073 435.251,214.572 436.065,214.549 436.879,214.257 437.693,214.064 438.506,214.187 439.320,214.445 440.134,214.941 440.947,215.096 441.761,215.104 442.575,215.046 443.389,215.237 444.202,215.394 445.016,215.411 445.830,215.713 446.644,216.484 447.457,217.308 448.271,217.635 449.085,217.623 449.899,217.384 450.712,217.281 451.526,217.504 452.340,217.896 453.154,218.263 453.968,218.447 454.781,218.501 455.595,218.483 456.409,218.760 457.223,218.983 458.036,219.125 458.850,219.268 459.664,219.618 460.478,219.868 461.291,219.882 462.105,219.545 462.919,219.557 463.732,219.532 464.546,219.580 465.360,219.706 466.174,219.891 466.987,220.190 467.801,220.285 468.615,220.252 469.429,220.043 470.243,219.658 471.056,219.475 471.870,219.693 472.684,220.066 473.498,220.492 474.311,220.416 475.125,220.246 "/>
<g>
</g>
</g>
<g id="ID000005" clip-path="url(#ID000001)" >
      <polyline fill="none" stroke="#007f00" stroke-width="0.5pt" stroke-dasharray="none" points="68.250,189.954 69.064,190.118 69.877,190.342 70.691,190.797 71.505,191.154 72.319,191.345 73.132,191.282 73.946,191.051 74.760,191.003 75.574,190.497 76.387,190.261 77.201,190.251 78.015,190.534 78.829,190.634 79.642,190.783 80.456,190.811 81.270,190.530 82.084,190.094 82.897,189.863 83.711,190.033 84.525,190.099 85.339,189.945 86.152,189.571 86.966,189.702 87.780,190.331 88.594,190.758 89.407,190.661 90.221,190.176 91.035,189.903 91.849,189.977 92.662,190.050 93.476,189.899 94.290,189.708 95.104,189.513 95.917,189.557 96.731,189.653 97.545,189.528 98.359,189.394 99.172,189.458 99.986,189.847 100.800,190.174 101.614,190.088 102.427,190.222 103.241,190.238 104.055,190.120 104.869,189.477 105.682,189.008 106.496,188.769 107.310,188.865 108.124,189.220 108.938,189.431 109.751,189.444 110.565,189.215 111.379,189.019 112.193,189.218 113.006,189.245 113.820,189.096 114.634,189.110 115.447,188.961 116.261,189.102 117.075,189.142 117.889,189.419 118.702,189.710 119.516,189.831 120.330,189.858 121.144,189.784 121.957,189.965 122.771,189.854 123.585,189.736 124.399,189.533 125.212,189.857 126.026,190.058 126.840,190.365 127.654,190.323 128.467,190.285 129.281,190.437 130.095,190.525 130.909,190.083 131.723,189.662 132.536,189.539 133.350,189.994 134.164,190.590 134.977,191.012 135.791,190.966 136.605,190.878 137.419,190.833 138.232,190.645 139.046,190.407 139.860,190.404 140.674,190.590 141.487,190.493 142.301,190.128 143.115,189.955 143.929,189.763 144.742,189.584 145.556,189.327 146.370,189.280 147.184,189.402 147.998,189.553 148.811,189.582 149.625,189.361 150.439,189.137 151.252,188.869 152.066,188.837 152.880,188.740 153.694,188.717 154.507,188.845 155.321,189.223 156.135,189.961 156.949,190.314 157.762,190.317 158.576,190.251 159.390,190.164 160.204,190.049 161.017,189.752 161.831,189.450 162.645,189.071 163.459,188.851 164.272,188.860 165.086,189.036 165.900,189.019 166.714,188.862 167.527,188.801 168.341,188.727 169.155,188.828 169.969,188.638 170.783,188.529 171.596,188.333 172.410,188.226 173.224,188.068 174.037,187.963 174.851,188.161 175.665,188.513 176.479,188.590 177.292,188.565 178.106,188.321 178.920,188.459 179.734,188.821 180.547,189.229 181.361,189.415 182.175,189.469 182.989,189.272 183.802,189.128 184.616,189.053 185.430,189.184 186.244,189.368 187.057,189.290 187.871,189.324 188.685,189.367 189.499,189.460 190.312,189.708 191.126,189.700 191.940,189.151 192.754,188.632 193.568,188.297 194.381,188.487 195.195,188.690 196.009,188.642 196.823,188.349 197.636,188.015 198.450,187.806 199.264,187.807 200.077,188.155 200.891,188.835 201.705,189.199 202.519,188.881 203.332,188.337 204.146,188.244 204.960,188.346 205.774,188.314 206.587,188.153 207.401,187.897 208.215,187.645 209.029,187.378 209.843,187.268 210.656,187.193 211.470,187.146 212.284,187.289 213.098,187.686 213.911,188.271 214.725,188.593 215.539,188.561 216.353,188.399 217.166,188.114 217.980,188.140 218.794,188.493 219.607,188.875 220.421,188.915 221.235,188.587 222.049,188.290 222.862,187.972 223.676,187.767 224.490,187.565 225.304,187.446 226.117,187.652 226.931,188.243 227.745,188.412 228.559,188.213 229.373,187.752 230.186,187.606 231.000,187.694 231.814,187.898 232.627,187.886 233.441,187.323 234.255,186.784 235.069,186.459 235.882,186.630 236.696,186.939 237.510,187.240 238.324,187.180 239.137,187.226 239.951,187.027 240.765,186.700 241.579,186.376 242.392,186.073 243.206,185.897 244.020,186.006 244.834,186.343 245.647,186.908 246.461,187.325 247.275,187.234 248.089,186.824 248.902,186.087 249.716,185.610 250.530,185.262 251.344,185.153 252.158,185.319 252.971,185.384 253.785,185.505 254.599,185.353 255.412,185.106 256.226,184.789 257.040,184.878 257.854,185.097 258.667,185.473 259.481,185.613 260.295,185.815 261.109,186.010 261.923,186.095 262.736,185.812 263.550,185.679 264.364,185.622 265.177,185.765 265.991,185.658 266.805,185.439 267.619,185.212 268.433,184.843 269.246,184.647 270.060,184.573 270.874,184.964 271.688,185.316 272.501,185.498 273.315,185.442 274.129,185.484 274.943,185.427 275.756,185.454 276.570,185.495 277.384,185.742 278.198,185.885 279.011,185.561 279.825,185.233 280.639,185.022 281.452,185.294 282.266,185.583 283.080,185.624 283.894,185.697 284.707,185.938 285.521,186.065 286.335,186.127 287.149,186.019 287.962,186.143 288.776,186.214 289.590,185.956 290.404,185.767 291.217,186.058 292.031,186.459 292.845,186.309 293.659,185.798 294.472,185.509 295.286,185.652 296.100,185.793 296.914,185.754 297.727,185.485 298.541,185.241 299.355,185.192 300.169,185.375 300.982,185.663 301.796,185.715 302.610,185.653 303.424,185.824 304.237,186.063 305.051,186.050 305.865,185.929 306.679,186.125 307.493,186.340 308.306,186.337 309.120,186.201 309.934,186.175 310.748,186.471 311.561,186.554 312.375,186.653 313.189,186.775 314.003,187.026 314.816,186.821 315.630,186.575 316.444,186.371 317.257,186.524 318.071,187.022 318.885,187.297 319.699,187.382 320.512,187.289 321.326,187.338 322.140,187.351 322.954,187.148 323.767,187.038 324.581,187.035 325.395,187.144 326.209,187.197 327.022,187.500 327.836,187.996 328.650,188.502 329.464,188.569 330.277,188.409 331.091,188.303 331.905,188.361 332.719,188.389 333.532,188.223 334.346,188.412 335.160,188.693 335.974,188.819 336.787,188.765 337.601,188.533 338.415,188.512 339.229,188.469 340.042,188.641 340.856,188.724 341.670,188.636 342.484,188.446 343.297,188.322 344.111,188.488 344.925,188.816 345.739,189.225 346.553,189.649 347.366,189.808 348.180,189.867 348.994,189.698 349.808,189.810 350.621,189.987 351.435,190.479 352.249,190.560 353.063,190.774 353.876,190.936 354.690,191.373 355.504,191.647 356.318,191.919 357.131,192.001 357.945,191.941 358.759,191.714 359.572,191.846 360.386,191.899 361.200,192.023 362.014,191.972 362.828,192.087 363.641,192.234 364.455,192.450 365.269,192.648 366.083,192.669 366.896,192.938 367.710,193.319 368.524,193.699 369.338,193.630 370.151,193.742 370.965,193.886 371.779,194.177 372.592,194.224 373.406,194.535 374.220,194.853 375.034,195.061 375.847,195.175 376.661,195.134 377.475,195.355 378.289,195.807 379.102,196.424 379.916,196.795 380.730,196.884 381.544,196.811 382.357,196.855 383.171,196.605 383.985,196.710 384.799,196.839 385.612,197.131 386.426,197.260 387.240,197.496 388.054,198.101 388.867,198.942 389.681,199.629 390.495,199.862 391.309,199.763 392.123,199.726 392.936,199.909 393.750,200.419 394.564,200.942 395.378,201.623 396.191,201.858 397.005,201.953 397.819,202.160 398.632,202.547 399.446,203.040 400.260,203.157 401.074,203.264 401.887,203.644 402.701,204.039 403.515,204.484 404.329,204.899 405.142,205.141 405.956,205.336 406.770,205.274 407.584,205.521 408.398,205.665 409.211,205.771 410.025,205.717 410.839,205.945 411.653,206.170 412.466,206.689 413.280,207.291 414.094,207.731 414.908,207.682 415.721,207.553 416.535,207.726 417.349,208.015 418.162,208.149 418.976,208.291 419.790,208.646 420.604,208.879 421.417,209.243 422.231,209.496 423.045,209.790 423.859,209.885 424.673,209.731 425.486,209.493 426.300,209.402 427.114,209.841 427.928,210.457 428.741,210.981 429.555,211.170 430.369,211.218 431.182,211.259 431.996,211.121 432.810,211.263 433.624,211.577 434.437,212.040 435.251,212.196 436.065,212.178 436.879,212.042 437.693,212.139 438.506,212.319 439.320,212.677 440.134,212.631 440.947,212.490 441.761,212.683 442.575,213.051 443.389,213.556 444.202,213.796 445.016,214.015 445.830,214.021 446.644,213.883 447.457,214.046 448.271,214.304 449.085,214.698 449.899,215.108 450.712,215.586 451.526,215.749 452.340,215.696 453.154,215.746 453.968,215.495 454.781,215.271 455.595,214.881 456.409,214.774 457.223,215.044 458.036,215.423 458.850,215.794 459.664,216.037 460.478,216.021 461.291,216.302 462.105,216.709 462.919,216.785 463.732,216.666 464.546,216.604 465.360,216.621 466.174,216.581 466.987,216.622 467.801,216.792 468.615,217.122 469.429,217.360 470.243,217.523 471.056,217.415 471.870,217.366 472.684,217.438 473.498,217.760 474.311,218.012 475.125,217.984 "/>
<g>
</g>
</g>
<g id="ID000006" clip-path="url(#ID000001)" >
      <polyline fill="none" stroke="#007f00" stroke-width="0.5pt" stroke-dasharray="8.0,2.0" points="68.250,193.809 69.064,193.940 69.877,194.145 70.691,194.594 71.505,194.963 72.319,195.161 73.132,195.115 73.946,194.916 74.760,194.894 75.574,194.403 76.387,194.143 77.201,194.130 78.015,194.414 78.829,194.484 79.642,194.623 80.456,194.675 81.270,194.434 82.084,194.014 82.897,193.802 83.711,194.013 84.525,194.104 85.339,193.944 86.152,193.536 86.966,193.655 87.780,194.276 88.594,194.678 89.407,194.564 90.221,194.066 91.035,193.800 91.849,193.893 92.662,193.953 93.476,193.789 94.290,193.592 95.104,193.432 95.917,193.531 96.731,193.632 97.545,193.472 98.359,193.302 99.172,193.362 99.986,193.758 100.800,194.090 101.614,194.023 102.427,194.181 103.241,194.211 104.055,194.078 104.869,193.420 105.682,192.931 106.496,192.677 107.310,192.779 108.124,193.106 108.938,193.305 109.751,193.312 110.565,193.099 111.379,192.929 112.193,193.130 113.006,193.145 113.820,192.982 114.634,192.976 115.447,192.828 116.261,192.951 117.075,192.967 117.889,193.222 118.702,193.525 119.516,193.668 120.330,193.715 121.144,193.631 121.957,193.805 122.771,193.701 123.585,193.610 124.399,193.413 125.212,193.736 126.026,193.929 126.840,194.229 127.654,194.219 128.467,194.228 129.281,194.411 130.095,194.482 130.909,194.038 131.723,193.606 132.536,193.489 133.350,193.927 134.164,194.497 134.977,194.911 135.791,194.866 136.605,194.794 137.419,194.779 138.232,194.600 139.046,194.353 139.860,194.348 140.674,194.508 141.487,194.399 142.301,194.039 143.115,193.898 143.929,193.751 144.742,193.581 145.556,193.336 146.370,193.268 147.184,193.366 147.998,193.499 148.811,193.542 149.625,193.331 150.439,193.095 151.252,192.833 152.066,192.772 152.880,192.650 153.694,192.597 154.507,192.738 155.321,193.145 156.135,193.910 156.949,194.269 157.762,194.255 158.576,194.156 159.390,194.021 160.204,193.881 161.017,193.590 161.831,193.321 162.645,192.946 163.459,192.706 164.272,192.702 165.086,192.875 165.900,192.834 166.714,192.688 167.527,192.669 168.341,192.635 169.155,192.740 169.969,192.537 170.783,192.431 171.596,192.223 172.410,192.108 173.224,191.931 174.037,191.827 174.851,192.027 175.665,192.405 176.479,192.502 177.292,192.497 178.106,192.227 178.920,192.339 179.734,192.664 180.547,193.055 181.361,193.260 182.175,193.308 182.989,193.116 183.802,192.960 184.616,192.900 185.430,193.051 186.244,193.246 187.057,193.181 187.871,193.218 188.685,193.296 189.499,193.432 190.312,193.695 191.126,193.649 191.940,193.041 192.754,192.478 193.568,192.122 194.381,192.312 195.195,192.499 196.009,192.479 196.823,192.216 197.636,191.903 198.450,191.698 199.264,191.692 200.077,192.028 200.891,192.687 201.705,193.057 202.519,192.770 203.332,192.229 204.146,192.119 204.960,192.191 205.774,192.127 206.587,191.945 207.401,191.675 208.215,191.432 209.029,191.198 209.843,191.114 210.656,191.034 211.470,190.972 212.284,191.104 213.098,191.504 213.911,192.084 214.725,192.383 215.539,192.349 216.353,192.187 217.166,191.894 217.980,191.894 218.794,192.240 219.607,192.615 220.421,192.669 221.235,192.346 222.049,192.070 222.862,191.737 223.676,191.520 224.490,191.301 225.304,191.175 226.117,191.366 226.931,191.920 227.745,192.081 228.559,191.877 229.373,191.442 230.186,191.316 231.000,191.410 231.814,191.609 232.627,191.595 233.441,191.039 234.255,190.485 235.069,190.138 235.882,190.282 236.696,190.595 237.510,190.892 238.324,190.832 239.137,190.888 239.951,190.719 240.765,190.413 241.579,190.106 242.392,189.782 243.206,189.586 244.020,189.656 244.834,189.959 245.647,190.499 246.461,190.892 247.275,190.823 248.089,190.434 248.902,189.706 249.716,189.218 250.530,188.861 251.344,188.738 252.158,188.924 252.971,189.003 253.785,189.109 254.599,188.908 255.412,188.628 256.226,188.326 257.040,188.462 257.854,188.702 258.667,189.067 259.481,189.195 260.295,189.389 261.109,189.591 261.923,189.680 262.736,189.406 263.550,189.286 264.364,189.236 265.177,189.398 265.991,189.305 266.805,189.089 267.619,188.843 268.433,188.462 269.246,188.236 270.060,188.147 270.874,188.524 271.688,188.885 272.501,189.078 273.315,189.035 274.129,189.070 274.943,188.989 275.756,189.009 276.570,189.052 277.384,189.293 278.198,189.412 279.011,189.092 279.825,188.787 280.639,188.585 281.452,188.878 282.266,189.180 283.080,189.226 283.894,189.295 284.707,189.520 285.521,189.668 286.335,189.739 287.149,189.644 287.962,189.774 288.776,189.843 289.590,189.583 290.404,189.392 291.217,189.701 292.031,190.107 292.845,189.962 293.659,189.454 294.472,189.159 295.286,189.270 296.100,189.355 296.914,189.304 297.727,189.028 298.541,188.799 299.355,188.769 300.169,188.971 300.982,189.282 301.796,189.336 302.610,189.278 303.424,189.462 304.237,189.744 305.051,189.745 305.865,189.615 306.679,189.766 307.493,189.940 308.306,189.902 309.120,189.761 309.934,189.762 310.748,190.097 311.561,190.193 312.375,190.292 313.189,190.411 314.003,190.665 314.816,190.473 315.630,190.213 316.444,190.001 317.257,190.135 318.071,190.615 318.885,190.867 319.699,190.954 320.512,190.852 321.326,190.910 322.140,190.933 322.954,190.752 323.767,190.638 324.581,190.625 325.395,190.711 326.209,190.754 327.022,191.048 327.836,191.558 328.650,192.087 329.464,192.187 330.277,192.055 331.091,191.979 331.905,192.025 332.719,192.027 333.532,191.823 334.346,191.991 335.160,192.233 335.974,192.355 336.787,192.303 337.601,192.090 338.415,192.086 339.229,192.036 340.042,192.184 340.856,192.257 341.670,192.149 342.484,191.958 343.297,191.818 344.111,191.981 344.925,192.296 345.739,192.709 346.553,193.148 347.366,193.308 348.180,193.347 348.994,193.176 349.808,193.319 350.621,193.531 351.435,194.064 352.249,194.137 353.063,194.325 353.876,194.436 354.690,194.862 355.504,195.124 356.318,195.379 357.131,195.437 357.945,195.340 358.759,195.108 359.572,195.269 360.386,195.373 361.200,195.532 362.014,195.498 362.828,195.613 363.641,195.733 364.455,195.911 365.269,196.115 366.083,196.140 366.896,196.411 367.710,196.787 368.524,197.168 369.338,197.113 370.151,197.204 370.965,197.370 371.779,197.652 372.592,197.684 373.406,197.953 374.220,198.270 375.034,198.476 375.847,198.599 376.661,198.545 377.475,198.741 378.289,199.173 379.102,199.775 379.916,200.153 380.730,200.251 381.544,200.168 382.357,200.232 383.171,200.011 383.985,200.146 384.799,200.252 385.612,200.536 386.426,200.677 387.240,200.938 388.054,201.541 388.867,202.379 389.681,203.027 390.495,203.242 391.309,203.123 392.123,203.099 392.936,203.308 393.750,203.827 394.564,204.359 395.378,205.028 396.191,205.247 397.005,205.328 397.819,205.527 398.632,205.929 399.446,206.448 400.260,206.568 401.074,206.667 401.887,207.023 402.701,207.398 403.515,207.826 404.329,208.214 405.142,208.452 405.956,208.651 406.770,208.606 407.584,208.853 408.398,208.983 409.211,209.070 410.025,209.029 410.839,209.281 411.653,209.512 412.466,210.009 413.280,210.566 414.094,210.973 414.908,210.868 415.721,210.681 416.535,210.832 417.349,211.123 418.162,211.290 418.976,211.483 419.790,211.871 420.604,212.128 421.417,212.480 422.231,212.739 423.045,213.021 423.859,213.095 424.673,212.918 425.486,212.690 426.300,212.617 427.114,213.057 427.928,213.685 428.741,214.204 429.555,214.370 430.369,214.383 431.182,214.391 431.996,214.228 432.810,214.341 433.624,214.626 434.437,215.075 435.251,215.212 436.065,215.200 436.879,215.077 437.693,215.197 438.506,215.402 439.320,215.767 440.134,215.729 440.947,215.583 441.761,215.761 442.575,216.099 443.389,216.599 444.202,216.858 445.016,217.111 445.830,217.151 446.644,217.005 447.457,217.153 448.271,217.398 449.085,217.807 449.899,218.239 450.712,218.759 451.526,218.946 452.340,218.904 453.154,218.939 453.968,218.676 454.781,218.421 455.595,218.013 456.409,217.890 457.223,218.139 458.036,218.503 458.850,218.874 459.664,219.149 460.478,219.138 461.291,219.418 462.105,219.840 462.919,219.940 463.732,219.834 464.546,219.769 465.360,219.788 466.174,219.752 466.987,219.799 467.801,219.975 468.615,220.328 469.429,220.584 470.243,220.735 471.056,220.615 471.870,220.558 472.684,220.645 473.498,220.953 474.311,221.177 475.125,221.142 "/>
<g>
</g>
</g>
<g id="ID000007" clip-path="url(#ID000001)" >
      <polyline fill="none" stroke="#007f00" stroke-width="0.5pt" stroke-dasharray="8.0,2.0" points="68.250,186.100 69.064,186.295 69.877,186.540 70.691,186.999 71.505,187.344 72.319,187.529 73.132,187.449 73.946,187.186 74.760,187.112 75.574,186.590 76.387,186.379 77.201,186.372 78.015,186.654 78.829,186.783 79.642,186.943 80.456,186.947 81.270,186.626 82.084,186.174 82.897,185.925 83.711,186.052 84.525,186.094 85.339,185.946 86.152,185.607 86.966,185.748 87.780,186.386 88.594,186.838 89.407,186.758 90.221,186.287 91.035,186.006 91.849,186.061 92.662,186.147 93.476,186.009 94.290,185.824 95.104,185.594 95.917,185.583 96.731,185.674 97.545,185.584 98.359,185.485 99.172,185.553 99.986,185.935 100.800,186.257 101.614,186.154 102.427,186.262 103.241,186.264 104.055,186.162 104.869,185.534 105.682,185.085 106.496,184.861 107.310,184.952 108.124,185.334 108.938,185.557 109.751,185.577 110.565,185.331 111.379,185.109 112.193,185.306 113.006,185.345 113.820,185.211 114.634,185.244 115.447,185.094 116.261,185.253 117.075,185.316 117.889,185.616 118.702,185.895 119.516,185.993 120.330,186.001 121.144,185.938 121.957,186.124 122.771,186.007 123.585,185.863 124.399,185.653 125.212,185.979 126.026,186.187 126.840,186.501 127.654,186.427 128.467,186.341 129.281,186.462 130.095,186.568 130.909,186.129 131.723,185.718 132.536,185.589 133.350,186.061 134.164,186.683 134.977,187.114 135.791,187.067 136.605,186.962 137.419,186.887 138.232,186.689 139.046,186.460 139.860,186.461 140.674,186.672 141.487,186.587 142.301,186.216 143.115,186.011 143.929,185.774 144.742,185.587 145.556,185.318 146.370,185.293 147.184,185.438 147.998,185.607 148.811,185.622 149.625,185.391 150.439,185.178 151.252,184.905 152.066,184.902 152.880,184.830 153.694,184.837 154.507,184.952 155.321,185.301 156.135,186.011 156.949,186.358 157.762,186.379 158.576,186.347 159.390,186.306 160.204,186.216 161.017,185.915 161.831,185.579 162.645,185.197 163.459,184.996 164.272,185.018 165.086,185.197 165.900,185.203 166.714,185.036 167.527,184.933 168.341,184.819 169.155,184.917 169.969,184.739 170.783,184.626 171.596,184.442 172.410,184.344 173.224,184.205 174.037,184.099 174.851,184.295 175.665,184.622 176.479,184.677 177.292,184.633 178.106,184.414 178.920,184.579 179.734,184.977 180.547,185.404 181.361,185.570 182.175,185.630 182.989,185.427 183.802,185.295 184.616,185.205 185.430,185.317 186.244,185.491 187.057,185.399 187.871,185.431 188.685,185.439 189.499,185.488 190.312,185.721 191.126,185.752 191.940,185.262 192.754,184.786 193.568,184.472 194.381,184.662 195.195,184.881 196.009,184.805 196.823,184.482 197.636,184.126 198.450,183.914 199.264,183.923 200.077,184.282 200.891,184.983 201.705,185.340 202.519,184.991 203.332,184.444 204.146,184.368 204.960,184.501 205.774,184.501 206.587,184.361 207.401,184.120 208.215,183.858 209.029,183.558 209.843,183.421 210.656,183.353 211.470,183.320 212.284,183.474 213.098,183.867 213.911,184.458 214.725,184.803 215.539,184.773 216.353,184.612 217.166,184.334 217.980,184.386 218.794,184.746 219.607,185.135 220.421,185.161 221.235,184.828 222.049,184.509 222.862,184.207 223.676,184.015 224.490,183.830 225.304,183.717 226.117,183.938 226.931,184.565 227.745,184.743 228.559,184.549 229.373,184.062 230.186,183.895 231.000,183.979 231.814,184.187 232.627,184.177 233.441,183.607 234.255,183.083 235.069,182.779 235.882,182.978 236.696,183.282 237.510,183.588 238.324,183.528 239.137,183.564 239.951,183.336 240.765,182.987 241.579,182.646 242.392,182.364 243.206,182.208 244.020,182.356 244.834,182.728 245.647,183.318 246.461,183.757 247.275,183.646 248.089,183.215 248.902,182.468 249.716,182.002 250.530,181.662 251.344,181.568 252.158,181.714 252.971,181.764 253.785,181.900 254.599,181.797 255.412,181.583 256.226,181.252 257.040,181.295 257.854,181.493 258.667,181.879 259.481,182.031 260.295,182.242 261.109,182.428 261.923,182.511 262.736,182.218 263.550,182.072 264.364,182.008 265.177,182.132 265.991,182.011 266.805,181.789 267.619,181.581 268.433,181.224 269.246,181.058 270.060,180.999 270.874,181.404 271.688,181.748 272.501,181.918 273.315,181.849 274.129,181.898 274.943,181.864 275.756,181.898 276.570,181.938 277.384,182.191 278.198,182.359 279.011,182.031 279.825,181.679 280.639,181.459 281.452,181.711 282.266,181.986 283.080,182.023 283.894,182.098 284.707,182.355 285.521,182.461 286.335,182.514 287.149,182.393 287.962,182.513 288.776,182.585 289.590,182.329 290.404,182.141 291.217,182.415 292.031,182.811 292.845,182.655 293.659,182.141 294.472,181.859 295.286,182.035 296.100,182.232 296.914,182.205 297.727,181.943 298.541,181.682 299.355,181.615 300.169,181.780 300.982,182.045 301.796,182.094 302.610,182.028 303.424,182.185 304.237,182.383 305.051,182.355 305.865,182.242 306.679,182.484 307.493,182.741 308.306,182.772 309.120,182.641 309.934,182.587 310.748,182.844 311.561,182.915 312.375,183.015 313.189,183.139 314.003,183.387 314.816,183.170 315.630,182.936 316.444,182.740 317.257,182.912 318.071,183.429 318.885,183.726 319.699,183.810 320.512,183.727 321.326,183.767 322.140,183.770 322.954,183.545 323.767,183.439 324.581,183.444 325.395,183.578 326.209,183.639 327.022,183.952 327.836,184.435 328.650,184.916 329.464,184.951 330.277,184.763 331.091,184.626 331.905,184.697 332.719,184.751 333.532,184.623 334.346,184.833 335.160,185.153 335.974,185.282 336.787,185.228 337.601,184.977 338.415,184.939 339.229,184.901 340.042,185.098 340.856,185.192 341.670,185.124 342.484,184.934 343.297,184.825 344.111,184.996 344.925,185.336 345.739,185.740 346.553,186.149 347.366,186.309 348.180,186.388 348.994,186.221 349.808,186.302 350.621,186.443 351.435,186.894 352.249,186.984 353.063,187.223 353.876,187.436 354.690,187.884 355.504,188.171 356.318,188.459 357.131,188.566 357.945,188.541 358.759,188.319 359.572,188.423 360.386,188.425 361.200,188.513 362.014,188.446 362.828,188.561 363.641,188.735 364.455,188.989 365.269,189.181 366.083,189.197 366.896,189.465 367.710,189.850 368.524,190.230 369.338,190.148 370.151,190.280 370.965,190.401 371.779,190.703 372.592,190.764 373.406,191.118 374.220,191.436 375.034,191.645 375.847,191.750 376.661,191.723 377.475,191.968 378.289,192.440 379.102,193.072 379.916,193.437 380.730,193.516 381.544,193.455 382.357,193.477 383.171,193.198 383.985,193.275 384.799,193.427 385.612,193.726 386.426,193.843 387.240,194.054 388.054,194.660 388.867,195.506 389.681,196.230 390.495,196.481 391.309,196.403 392.123,196.353 392.936,196.511 393.750,197.010 394.564,197.526 395.378,198.219 396.191,198.470 397.005,198.578 397.819,198.793 398.632,199.164 399.446,199.632 400.260,199.745 401.074,199.861 401.887,200.265 402.701,200.680 403.515,201.142 404.329,201.585 405.142,201.830 405.956,202.020 406.770,201.941 407.584,202.190 408.398,202.348 409.211,202.472 410.025,202.405 410.839,202.610 411.653,202.828 412.466,203.369 413.280,204.016 414.094,204.488 414.908,204.496 415.721,204.425 416.535,204.621 417.349,204.908 418.162,205.007 418.976,205.100 419.790,205.420 420.604,205.629 421.417,206.006 422.231,206.254 423.045,206.558 423.859,206.674 424.673,206.544 425.486,206.297 426.300,206.188 427.114,206.625 427.928,207.228 428.741,207.757 429.555,207.970 430.369,208.053 431.182,208.126 431.996,208.013 432.810,208.185 433.624,208.529 434.437,209.005 435.251,209.179 436.065,209.156 436.879,209.006 437.693,209.080 438.506,209.235 439.320,209.588 440.134,209.533 440.947,209.397 441.761,209.605 442.575,210.003 443.389,210.512 444.202,210.733 445.016,210.918 445.830,210.891 446.644,210.761 447.457,210.938 448.271,211.210 449.085,211.590 449.899,211.976 450.712,212.414 451.526,212.552 452.340,212.489 453.154,212.553 453.968,212.314 454.781,212.122 455.595,211.749 456.409,211.659 457.223,211.948 458.036,212.344 458.850,212.714 459.664,212.924 460.478,212.903 461.291,213.185 462.105,213.578 462.919,213.630 463.732,213.498 464.546,213.440 465.360,213.454 466.174,213.409 466.987,213.445 467.801,213.609 468.615,213.916 469.429,214.137 470.243,214.311 471.056,214.215 471.870,214.173 472.684,214.231 473.498,214.567 474.311,214.847 475.125,214.826 "/>
<g>
</g>
</g>
<g id="ID000008" >
  <g transform="translate(271.219,381.394)">
    <g transform="rotate(-0.0)">
      <text x="0.000" y="0.000" font-family="Helvetica" text-anchor="middle" font-size="9pt" fill="#000000" >Time (ms)</text>
    </g>
  </g>
</g>
<g id="ID000009" >
  <g transform="translate(35.437,191.392)">
    <g transform="rotate(-90.0)">
      <text x="0.000" y="0.000" font-family="Helvetica" text-anchor="middle" font-size="9pt" fill="#000000" >Vergence (deg)</text>
    </g>
  </g>
</g>
<g id="ID000010" >
</g>
    </g>
    <g>
      <polyline fill="none" stroke="#000000" stroke-width="0.5pt" stroke-dasharray="none" points="68.250,350.438 68.250,346.369 "/>
      <polyline fill="none" stroke="#000000" stroke-width="0.5pt" stroke-dasharray="none" points="108.938,350.438 108.938,346.369 "/>
      <polyline fill="none" stroke="#000000" stroke-width="0.5pt" stroke-dasharray="none" points="149.625,350.438 149.625,346.369 "/>
      <polyline fill="none" stroke="#000000" stroke-width="0.5pt" stroke-dasharray="none" points="190.313,350.438 190.313,346.369 "/>
      <polyline fill="none" stroke="#000000" stroke-width="0.5pt" stroke-dasharray="none" points="231.000,350.438 231.000,346.369 "/>
      <polyline fill="none" stroke="#000000" stroke-width="0.5pt" stroke-dasharray="none" points="271.688,350.438 271.688,346.369 "/>
      <polyline fill="none" stroke="#000000" stroke-width="0.5pt" stroke-dasharray="none" points="312.375,350.438 312.375,346.369 "/>
      <polyline fill="none" stroke="#000000" stroke-width="0.5pt" stroke-dasharray="none" points="353.063,350.438 353.063,346.369 "/>
      <polyline fill="none" stroke="#000000" stroke-width="0.5pt" stroke-dasharray="none" points="393.750,350.438 393.750,346.369 "/>
      <polyline fill="none" stroke="#000000" stroke-width="0.5pt" stroke-dasharray="none" points="434.438,350.438 434.438,346.369 "/>
      <polyline fill="none" stroke="#000000" stroke-width="0.5pt" stroke-dasharray="none" points="475.125,350.438 475.125,346.369 "/>
      <polyline fill="none" stroke="#000000" stroke-width="0.5pt" stroke-dasharray="none" points="68.250,350.438 475.125,350.438 "/>
  <g transform="translate(68.250,367.918)">
    <g transform="rotate(-0.0)">
      <text x="0.000" y="0.000" font-family="Helvetica" text-anchor="middle" font-size="9pt" fill="#000000" >-100</text>
    </g>
  </g>
  <g transform="translate(108.938,367.918)">
    <g transform="rotate(-0.0)">
      <text x="0.000" y="0.000" font-family="Helvetica" text-anchor="middle" font-size="9pt" fill="#000000" >-50</text>
    </g>
  </g>
  <g transform="translate(149.625,367.918)">
    <g transform="rotate(-0.0)">
      <text x="0.000" y="0.000" font-family="Helvetica" text-anchor="middle" font-size="9pt" fill="#000000" >0</text>
    </g>
  </g>
  <g transform="translate(190.313,367.918)">
    <g transform="rotate(-0.0)">
      <text x="0.000" y="0.000" font-family="Helvetica" text-anchor="middle" font-size="9pt" fill="#000000" >50</text>
    </g>
  </g>
  <g transform="translate(231.000,367.918)">
    <g transform="rotate(-0.0)">
      <text x="0.000" y="0.000" font-family="Helvetica" text-anchor="middle" font-size="9pt" fill="#000000" >100</text>
    </g>
  </g>
  <g transform="translate(271.688,367.918)">
    <g transform="rotate(-0.0)">
      <text x="0.000" y="0.000" font-family="Helvetica" text-anchor="middle" font-size="9pt" fill="#000000" >150</text>
    </g>
  </g>
  <g transform="translate(312.375,367.918)">
    <g transform="rotate(-0.0)">
      <text x="0.000" y="0.000" font-family="Helvetica" text-anchor="middle" font-size="9pt" fill="#000000" >200</text>
    </g>
  </g>
  <g transform="translate(353.063,367.918)">
    <g transform="rotate(-0.0)">
      <text x="0.000" y="0.000" font-family="Helvetica" text-anchor="middle" font-size="9pt" fill="#000000" >250</text>
    </g>
  </g>
  <g transform="translate(393.750,367.918)">
    <g transform="rotate(-0.0)">
      <text x="0.000" y="0.000" font-family="Helvetica" text-anchor="middle" font-size="9pt" fill="#000000" >300</text>
    </g>
  </g>
  <g transform="translate(434.438,367.918)">
    <g transform="rotate(-0.0)">
      <text x="0.000" y="0.000" font-family="Helvetica" text-anchor="middle" font-size="9pt" fill="#000000" >350</text>
    </g>
  </g>
  <g transform="translate(475.125,367.918)">
    <g transform="rotate(-0.0)">
      <text x="0.000" y="0.000" font-family="Helvetica" text-anchor="middle" font-size="9pt" fill="#000000" >400</text>
    </g>
  </g>
      <polyline fill="none" stroke="#000000" stroke-width="0.5pt" stroke-dasharray="none" points="68.250,350.438 72.319,350.438 "/>
      <polyline fill="none" stroke="#000000" stroke-width="0.5pt" stroke-dasharray="none" points="68.250,318.347 72.319,318.347 "/>
      <polyline fill="none" stroke="#000000" stroke-width="0.5pt" stroke-dasharray="none" points="68.250,286.256 72.319,286.256 "/>
      <polyline fill="none" stroke="#000000" stroke-width="0.5pt" stroke-dasharray="none" points="68.250,254.166 72.319,254.166 "/>
      <polyline fill="none" stroke="#000000" stroke-width="0.5pt" stroke-dasharray="none" points="68.250,222.075 72.319,222.075 "/>
      <polyline fill="none" stroke="#000000" stroke-width="0.5pt" stroke-dasharray="none" points="68.250,189.984 72.319,189.984 "/>
      <polyline fill="none" stroke="#000000" stroke-width="0.5pt" stroke-dasharray="none" points="68.250,157.894 72.319,157.894 "/>
      <polyline fill="none" stroke="#000000" stroke-width="0.5pt" stroke-dasharray="none" points="68.250,125.803 72.319,125.803 "/>
      <polyline fill="none" stroke="#000000" stroke-width="0.5pt" stroke-dasharray="none" points="68.250,93.713 72.319,93.713 "/>
      <polyline fill="none" stroke="#000000" stroke-width="0.5pt" stroke-dasharray="none" points="68.250,61.622 72.319,61.622 "/>
      <polyline fill="none" stroke="#000000" stroke-width="0.5pt" stroke-dasharray="none" points="68.250,29.531 72.319,29.531 "/>
      <polyline fill="none" stroke="#000000" stroke-width="0.5pt" stroke-dasharray="none" points="68.250,350.438 68.250,29.531 "/>
  <g transform="translate(60.112,354.656)">
    <g transform="rotate(-0.0)">
      <text x="0.000" y="0.000" font-family="Helvetica" text-anchor="end" font-size="9pt" fill="#000000" >-1</text>
    </g>
  </g>
  <g transform="translate(60.112,322.566)">
    <g transform="rotate(-0.0)">
      <text x="0.000" y="0.000" font-family="Helvetica" text-anchor="end" font-size="9pt" fill="#000000" >-0.8</text>
    </g>
  </g>
  <g transform="translate(60.112,290.475)">
    <g transform="rotate(-0.0)">
      <text x="0.000" y="0.000" font-family="Helvetica" text-anchor="end" font-size="9pt" fill="#000000" >-0.6</text>
    </g>
  </g>
  <g transform="translate(60.112,258.384)">
    <g transform="rotate(-0.0)">
      <text x="0.000" y="0.000" font-family="Helvetica" text-anchor="end" font-size="9pt" fill="#000000" >-0.4</text>
    </g>
  </g>
  <g transform="translate(60.112,226.294)">
    <g transform="rotate(-0.0)">
      <text x="0.000" y="0.000" font-family="Helvetica" text-anchor="end" font-size="9pt" fill="#000000" >-0.2</text>
    </g>
  </g>
  <g transform="translate(60.112,194.203)">
    <g transform="rotate(-0.0)">
      <text x="0.000" y="0.000" font-family="Helvetica" text-anchor="end" font-size="9pt" fill="#000000" >0</text>
    </g>
  </g>
  <g transform="translate(60.112,162.113)">
    <g transform="rotate(-0.0)">
      <text x="0.000" y="0.000" font-family="Helvetica" text-anchor="end" font-size="9pt" fill="#000000" >0.2</text>
    </g>
  </g>
  <g transform="translate(60.112,130.022)">
    <g transform="rotate(-0.0)">
      <text x="0.000" y="0.000" font-family="Helvetica" text-anchor="end" font-size="9pt" fill="#000000" >0.4</text>
    </g>
  </g>
  <g transform="translate(60.112,97.931)">
    <g transform="rotate(-0.0)">
      <text x="0.000" y="0.000" font-family="Helvetica" text-anchor="end" font-size="9pt" fill="#000000" >0.6</text>
    </g>
  </g>
  <g transform="translate(60.112,65.841)">
    <g transform="rotate(-0.0)">
      <text x="0.000" y="0.000" font-family="Helvetica" text-anchor="end" font-size="9pt" fill="#000000" >0.8</text>
    </g>
  </g>
  <g transform="translate(60.112,33.750)">
    <g transform="rotate(-0.0)">
      <text x="0.000" y="0.000" font-family="Helvetica" text-anchor="end" font-size="9pt" fill="#000000" >1</text>
    </g>
  </g>
      <polyline fill="none" stroke="#000000" stroke-width="0.5pt" stroke-dasharray="none" points="68.250,350.438 68.250,347.228 "/>
      <polyline fill="none" stroke="#000000" stroke-width="0.5pt" stroke-dasharray="none" points="68.250,350.438 68.250,347.228 "/>
      <polyline fill="none" stroke="#000000" stroke-width="0.5pt" stroke-dasharray="none" points="68.250,350.437 68.250,347.228 "/>
      <polyline fill="none" stroke="#000000" stroke-width="0.5pt" stroke-dasharray="none" points="68.250,350.438 68.250,350.437 "/>
    </g>
  </g>
  </g>
</svg>
