<?xml version="1.0" encoding="utf-8" standalone="no"?><!DOCTYPE svg PUBLIC "-//W3C//DTD SVG 1.1//EN" "http://www.w3.org/Graphics/SVG/1.1/DTD/svg11.dtd">
<svg preserveAspectRatio="xMinYMin meet" width="100%" height="100%" viewBox="0 0 525.000 393.750"  version="1.1" xmlns="http://www.w3.org/2000/svg" xmlns:xlink="http://www.w3.org/1999/xlink">
  <desc>Matlab Figure Converted by PLOT2SVG written by Juerg Schwizer</desc>
  <g id="topgroup">
  <rect x="0" y="0" width="525.000" height="393.750" fill="#ffffff" stroke="none" />
  <g id ="ID000000">
  <clipPath id="ID000001">
    <rect x="68.250" y="29.531" width="406.875" height="320.906"/>
  </clipPath>
      <polygon fill="#ffffff" fill-opacity="1.00" stroke="none" stroke-width="0.5pt" stroke-opacity="1.00" stroke-dasharray="none" points="68.250,350.438 475.125,350.438 475.125,29.531 68.250,29.531 "/>
      <polygon fill="#ffffff" fill-opacity="1.00" stroke="none" stroke-width="0.5pt" stroke-opacity="1.00" stroke-dasharray="none" points="68.250,29.531 475.125,29.531 475.125,29.531 68.250,29.531 "/>
      <polygon fill="#ffffff" fill-opacity="1.00" stroke="none" stroke-width="0.5pt" stroke-opacity="1.00" stroke-dasharray="none" points="68.250,350.438 68.250,350.437 68.250,29.531 68.250,29.531 "/>
    <g>
<g id="ID000002" clip-path="url(#ID000001)" >
      <polyline fill="none" stroke="#0000ff" stroke-width="0.5pt" stroke-dasharray="none" points="68.250,190.266 69.064,190.217 69.877,190.457 70.691,190.515 71.505,190.770 72.319,191.122 73.132,191.395 73.946,191.290 74.760,191.243 75.574,191.148 76.387,191.143 77.201,191.185 78.015,191.317 78.829,191.566 79.642,191.767 80.456,191.701 81.270,191.351 82.084,190.730 82.897,190.382 83.711,190.401 84.525,190.523 85.339,190.675 86.152,190.560 86.966,190.413 87.780,190.438 88.594,190.840 89.407,191.035 90.221,190.842 91.035,190.245 91.849,189.954 92.662,189.882 93.476,190.086 94.290,190.307 95.104,190.308 95.917,190.071 96.731,189.705 97.545,189.653 98.359,189.964 99.172,190.097 99.986,189.928 100.800,189.798 101.614,189.789 102.427,189.721 103.241,189.236 104.055,188.940 104.869,189.026 105.682,189.329 106.496,189.501 107.310,189.395 108.124,189.387 108.938,189.673 109.751,189.835 110.565,189.990 111.379,190.359 112.193,190.545 113.006,190.423 113.820,190.136 114.634,189.861 115.447,189.683 116.261,189.722 117.075,189.836 117.889,190.037 118.702,190.240 119.516,190.237 120.330,190.365 121.144,190.090 121.957,189.947 122.771,189.688 123.585,189.642 124.399,189.642 125.212,189.808 126.026,189.610 126.840,189.575 127.654,189.551 128.467,189.358 129.281,189.305 130.095,189.413 130.909,189.515 131.723,189.263 132.536,188.592 133.350,188.451 134.164,188.711 134.977,189.135 135.791,189.173 136.605,189.001 137.419,188.949 138.232,189.017 139.046,188.936 139.860,188.820 140.674,188.742 141.487,188.820 142.301,189.020 143.115,189.263 143.929,189.669 144.742,189.939 145.556,190.238 146.370,190.085 147.184,189.812 147.998,189.577 148.811,189.523 149.625,189.456 150.439,189.277 151.252,189.404 152.066,189.676 152.880,189.777 153.694,189.742 154.507,189.505 155.321,189.204 156.135,188.826 156.949,188.847 157.762,189.192 158.576,189.722 159.390,190.012 160.204,189.965 161.017,189.768 161.831,189.354 162.645,188.948 163.459,188.604 164.272,188.437 165.086,188.496 165.900,188.714 166.714,188.944 167.527,188.936 168.341,188.999 169.155,188.857 169.969,189.042 170.783,189.308 171.596,189.445 172.410,189.174 173.224,188.888 174.037,188.790 174.851,188.768 175.665,188.693 176.479,188.751 177.292,188.801 178.106,188.779 178.920,188.643 179.734,188.450 180.547,188.403 181.361,188.439 182.175,188.722 182.989,188.645 183.802,188.986 184.616,189.218 185.430,189.506 186.244,189.012 187.057,188.516 187.871,188.038 188.685,188.102 189.499,188.357 190.312,188.739 191.126,188.809 191.940,188.611 192.754,188.511 193.568,188.531 194.381,188.532 195.195,188.280 196.009,187.956 196.823,187.822 197.636,188.331 198.450,188.795 199.264,188.808 200.077,188.611 200.891,188.496 201.705,188.460 202.519,188.587 203.332,188.426 204.146,188.456 204.960,188.320 205.774,188.354 206.587,188.369 207.401,188.531 208.215,189.000 209.029,189.245 209.843,189.122 210.656,188.851 211.470,188.543 212.284,188.485 213.098,188.676 213.911,188.614 214.725,188.428 215.539,188.170 216.353,188.240 217.166,188.625 217.980,188.814 218.794,188.807 219.607,188.507 220.421,188.590 221.235,188.762 222.049,188.703 222.862,188.459 223.676,188.189 224.490,188.122 225.304,188.046 226.117,188.149 226.931,188.285 227.745,188.412 228.559,188.380 229.373,188.199 230.186,188.102 231.000,188.177 231.814,188.627 232.627,188.666 233.441,188.574 234.255,188.477 235.069,188.429 235.882,188.316 236.696,188.297 237.510,188.219 238.324,188.092 239.137,187.979 239.951,188.244 240.765,188.517 241.579,188.693 242.392,188.648 243.206,188.568 244.020,188.419 244.834,188.460 245.647,188.574 246.461,188.644 247.275,188.710 248.089,188.654 248.902,188.804 249.716,189.132 250.530,189.467 251.344,189.669 252.158,189.438 252.971,189.212 253.785,189.234 254.599,189.475 255.412,189.797 256.226,189.872 257.040,189.838 257.854,190.024 258.667,189.876 259.481,189.853 260.295,189.607 261.109,189.696 261.923,189.896 262.736,190.185 263.550,190.546 264.364,190.742 265.177,190.495 265.991,190.176 266.805,189.994 267.619,189.911 268.433,189.974 269.246,190.105 270.060,189.924 270.874,189.958 271.688,190.047 272.501,190.074 273.315,189.797 274.129,189.624 274.943,189.587 275.756,189.629 276.570,189.445 277.384,189.379 278.198,189.473 279.011,189.727 279.825,189.767 280.639,189.805 281.452,189.664 282.266,189.642 283.080,189.591 283.894,189.665 284.707,189.592 285.521,189.646 286.335,189.663 287.149,189.798 287.962,189.967 288.776,190.198 289.590,190.399 290.404,190.379 291.217,190.353 292.031,190.451 292.845,190.764 293.659,190.952 294.472,190.482 295.286,190.049 296.100,189.741 296.914,190.018 297.727,190.100 298.541,190.123 299.355,190.112 300.169,189.975 300.982,189.806 301.796,189.940 302.610,190.310 303.424,190.577 304.237,190.830 305.051,190.944 305.865,191.190 306.679,191.076 307.493,190.982 308.306,190.949 309.120,190.971 309.934,190.948 310.748,190.808 311.561,190.472 312.375,190.329 313.189,190.380 314.003,190.360 314.816,190.100 315.630,189.842 316.444,190.113 317.257,190.729 318.071,190.967 318.885,190.762 319.699,190.678 320.512,190.604 321.326,190.673 322.140,190.678 322.954,191.007 323.767,191.325 324.581,191.275 325.395,190.983 326.209,190.769 327.022,190.896 327.836,191.294 328.650,191.662 329.464,191.806 330.277,191.461 331.091,191.149 331.905,190.938 332.719,191.120 333.532,191.240 334.346,191.052 335.160,190.697 335.974,190.259 336.787,189.906 337.601,189.608 338.415,189.618 339.229,189.766 340.042,190.303 340.856,190.538 341.670,190.523 342.484,189.842 343.297,189.496 344.111,189.307 344.925,189.512 345.739,189.622 346.553,189.507 347.366,189.811 348.180,189.932 348.994,189.881 349.808,189.376 350.621,189.092 351.435,189.315 352.249,189.591 353.063,189.919 353.876,189.939 354.690,189.972 355.504,190.159 356.318,190.387 357.131,190.304 357.945,190.039 358.759,189.841 359.572,189.692 360.386,189.670 361.200,189.569 362.014,189.561 362.828,189.688 363.641,189.818 364.455,190.046 365.269,190.462 366.083,190.680 366.896,190.807 367.710,190.653 368.524,190.570 369.338,190.600 370.151,190.561 370.965,190.641 371.779,190.682 372.592,190.716 373.406,190.661 374.220,190.585 375.034,190.811 375.847,191.222 376.661,191.473 377.475,191.588 378.289,191.363 379.102,191.343 379.916,191.299 380.730,191.390 381.544,191.574 382.357,191.947 383.171,191.994 383.985,191.704 384.799,191.299 385.612,191.015 386.426,191.120 387.240,191.230 388.054,191.375 388.867,191.404 389.681,191.631 390.495,191.790 391.309,191.846 392.123,191.637 392.936,191.577 393.750,191.355 394.564,191.578 395.378,191.846 396.191,192.053 397.005,192.153 397.819,192.088 398.632,192.193 399.446,191.958 400.260,191.846 401.074,191.744 401.887,191.637 402.701,191.406 403.515,191.249 404.329,191.177 405.142,191.135 405.956,191.011 406.770,191.030 407.584,191.209 408.398,191.570 409.211,191.503 410.025,191.117 410.839,190.631 411.653,190.266 412.466,190.340 413.280,190.797 414.094,191.138 414.908,191.169 415.721,190.606 416.535,190.273 417.349,189.970 418.162,189.926 418.976,190.176 419.790,190.546 420.604,190.866 421.417,190.690 422.231,190.504 423.045,190.561 423.859,190.711 424.673,190.902 425.486,190.869 426.300,190.422 427.114,190.334 427.928,190.369 428.741,190.351 429.555,190.105 430.369,189.874 431.182,190.029 431.996,190.230 432.810,190.097 433.624,189.923 434.437,190.007 435.251,190.401 436.065,190.691 436.879,190.867 437.693,190.776 438.506,190.549 439.320,190.413 440.134,190.560 440.947,190.593 441.761,190.255 442.575,189.756 443.389,189.389 444.202,189.280 445.016,189.179 445.830,189.261 446.644,189.299 447.457,189.278 448.271,189.172 449.085,189.194 449.899,189.011 450.712,188.798 451.526,188.756 452.340,188.777 453.154,188.817 453.968,188.731 454.781,188.438 455.595,188.173 456.409,188.216 457.223,188.322 458.036,188.475 458.850,188.298 459.664,188.106 460.478,187.887 461.291,187.939 462.105,188.240 462.919,188.685 463.732,188.978 464.546,189.118 465.360,188.950 466.174,188.537 466.987,188.269 467.801,188.231 468.615,188.374 469.429,188.217 470.243,187.961 471.056,187.846 471.870,187.752 472.684,187.997 473.498,188.097 474.311,188.001 475.125,187.672 "/>
<g>
</g>
</g>
<g id="ID000003" clip-path="url(#ID000001)" >
      <polyline fill="none" stroke="#0000ff" stroke-width="0.5pt" stroke-dasharray="8.0,2.0" points="68.250,199.412 69.064,199.305 69.877,199.509 70.691,199.578 71.505,199.852 72.319,200.234 73.132,200.502 73.946,200.385 74.760,200.306 75.574,200.167 76.387,200.125 77.201,200.158 78.015,200.302 78.829,200.600 79.642,200.856 80.456,200.807 81.270,200.455 82.084,199.827 82.897,199.481 83.711,199.490 84.525,199.578 85.339,199.706 86.152,199.599 86.966,199.457 87.780,199.488 88.594,199.899 89.407,200.104 90.221,199.886 91.035,199.246 91.849,198.939 92.662,198.892 93.476,199.080 94.290,199.306 95.104,199.330 95.917,199.105 96.731,198.714 97.545,198.625 98.359,198.915 99.172,199.054 99.986,198.853 100.800,198.702 101.614,198.689 102.427,198.670 103.241,198.251 104.055,197.978 104.869,198.036 105.682,198.333 106.496,198.477 107.310,198.362 108.124,198.335 108.938,198.590 109.751,198.725 110.565,198.877 111.379,199.264 112.193,199.453 113.006,199.320 113.820,199.012 114.634,198.718 115.447,198.522 116.261,198.562 117.075,198.681 117.889,198.894 118.702,199.111 119.516,199.142 120.330,199.277 121.144,198.992 121.957,198.839 122.771,198.579 123.585,198.562 124.399,198.579 125.212,198.739 126.026,198.511 126.840,198.417 127.654,198.375 128.467,198.176 129.281,198.161 130.095,198.290 130.909,198.397 131.723,198.126 132.536,197.493 133.350,197.389 134.164,197.666 134.977,198.050 135.791,198.024 136.605,197.816 137.419,197.739 138.232,197.823 139.046,197.827 139.860,197.762 140.674,197.695 141.487,197.742 142.301,197.924 143.115,198.142 143.929,198.543 144.742,198.821 145.556,199.139 146.370,198.988 147.184,198.696 147.998,198.434 148.811,198.369 149.625,198.297 150.439,198.160 151.252,198.305 152.066,198.575 152.880,198.636 153.694,198.593 154.507,198.355 155.321,198.055 156.135,197.648 156.949,197.675 157.762,198.014 158.576,198.530 159.390,198.790 160.204,198.701 161.017,198.493 161.831,198.101 162.645,197.732 163.459,197.423 164.272,197.280 165.086,197.350 165.900,197.569 166.714,197.780 167.527,197.748 168.341,197.774 169.155,197.634 169.969,197.881 170.783,198.205 171.596,198.369 172.410,198.058 173.224,197.745 174.037,197.664 174.851,197.683 175.665,197.628 176.479,197.658 177.292,197.684 178.106,197.647 178.920,197.491 179.734,197.285 180.547,197.217 181.361,197.271 182.175,197.545 182.989,197.479 183.802,197.800 184.616,198.016 185.430,198.301 186.244,197.839 187.057,197.395 187.871,196.935 188.685,196.990 189.499,197.231 190.312,197.590 191.126,197.621 191.940,197.382 192.754,197.245 193.568,197.264 194.381,197.273 195.195,197.027 196.009,196.693 196.823,196.555 197.636,197.116 198.450,197.627 199.264,197.676 200.077,197.476 200.891,197.363 201.705,197.321 202.519,197.433 203.332,197.265 204.146,197.288 204.960,197.146 205.774,197.167 206.587,197.172 207.401,197.359 208.215,197.853 209.029,198.117 209.843,197.985 210.656,197.682 211.470,197.384 212.284,197.328 213.098,197.517 213.911,197.444 214.725,197.283 215.539,197.047 216.353,197.099 217.166,197.436 217.980,197.591 218.794,197.588 219.607,197.309 220.421,197.402 221.235,197.566 222.049,197.483 222.862,197.233 223.676,196.961 224.490,196.870 225.304,196.765 226.117,196.859 226.931,197.007 227.745,197.148 228.559,197.128 229.373,196.968 230.186,196.902 231.000,196.973 231.814,197.406 232.627,197.418 233.441,197.324 234.255,197.220 235.069,197.158 235.882,197.053 236.696,197.041 237.510,196.942 238.324,196.806 239.137,196.684 239.951,196.949 240.765,197.202 241.579,197.384 242.392,197.371 243.206,197.326 244.020,197.163 244.834,197.139 245.647,197.217 246.461,197.292 247.275,197.392 248.089,197.373 248.902,197.521 249.716,197.858 250.530,198.201 251.344,198.430 252.158,198.200 252.971,197.972 253.785,198.005 254.599,198.278 255.412,198.608 256.226,198.678 257.040,198.626 257.854,198.794 258.667,198.635 259.481,198.632 260.295,198.397 261.109,198.518 261.923,198.737 262.736,199.026 263.550,199.326 264.364,199.443 265.177,199.162 265.991,198.853 266.805,198.682 267.619,198.601 268.433,198.656 269.246,198.794 270.060,198.631 270.874,198.684 271.688,198.773 272.501,198.798 273.315,198.522 274.129,198.346 274.943,198.305 275.756,198.350 276.570,198.170 277.384,198.117 278.198,198.223 279.011,198.488 279.825,198.510 280.639,198.540 281.452,198.385 282.266,198.382 283.080,198.319 283.894,198.379 284.707,198.293 285.521,198.303 286.335,198.285 287.149,198.409 287.962,198.580 288.776,198.845 289.590,199.056 290.404,199.060 291.217,199.051 292.031,199.148 292.845,199.435 293.659,199.594 294.472,199.154 295.286,198.772 296.100,198.470 296.914,198.728 297.727,198.760 298.541,198.760 299.355,198.767 300.169,198.697 300.982,198.579 301.796,198.710 302.610,199.028 303.424,199.297 304.237,199.582 305.051,199.715 305.865,199.957 306.679,199.829 307.493,199.765 308.306,199.744 309.120,199.755 309.934,199.743 310.748,199.624 311.561,199.286 312.375,199.131 313.189,199.169 314.003,199.134 314.816,198.893 315.630,198.649 316.444,198.945 317.257,199.575 318.071,199.829 318.885,199.634 319.699,199.547 320.512,199.439 321.326,199.493 322.140,199.466 322.954,199.800 323.767,200.145 324.581,200.109 325.395,199.838 326.209,199.632 327.022,199.748 327.836,200.120 328.650,200.477 329.464,200.629 330.277,200.272 331.091,199.930 331.905,199.706 332.719,199.917 333.532,200.064 334.346,199.895 335.160,199.547 335.974,199.089 336.787,198.743 337.601,198.462 338.415,198.492 339.229,198.626 340.042,199.130 340.856,199.361 341.670,199.354 342.484,198.671 343.297,198.324 344.111,198.142 344.925,198.381 345.739,198.513 346.553,198.402 347.366,198.679 348.180,198.810 348.994,198.772 349.808,198.224 350.621,197.872 351.435,198.038 352.249,198.315 353.063,198.691 353.876,198.755 354.690,198.798 355.504,198.948 356.318,199.147 357.131,199.093 357.945,198.866 358.759,198.700 359.572,198.559 360.386,198.552 361.200,198.458 362.014,198.427 362.828,198.519 363.641,198.654 364.455,198.900 365.269,199.325 366.083,199.541 366.896,199.681 367.710,199.535 368.524,199.436 369.338,199.435 370.151,199.366 370.965,199.441 371.779,199.472 372.592,199.502 373.406,199.423 374.220,199.348 375.034,199.593 375.847,200.043 376.661,200.320 377.475,200.411 378.289,200.152 379.102,200.106 379.916,200.058 380.730,200.135 381.544,200.284 382.357,200.631 383.171,200.667 383.985,200.393 384.799,200.006 385.612,199.737 386.426,199.862 387.240,199.995 388.054,200.150 388.867,200.183 389.681,200.410 390.495,200.557 391.309,200.586 392.123,200.345 392.936,200.258 393.750,200.004 394.564,200.215 395.378,200.501 396.191,200.763 397.005,200.904 397.819,200.840 398.632,200.903 399.446,200.678 400.260,200.603 401.074,200.548 401.887,200.436 402.701,200.183 403.515,199.995 404.329,199.900 405.142,199.867 405.956,199.757 406.770,199.797 407.584,199.987 408.398,200.369 409.211,200.342 410.025,199.965 410.839,199.463 411.653,199.085 412.466,199.143 413.280,199.613 414.094,199.956 414.908,199.982 415.721,199.395 416.535,199.007 417.349,198.691 418.162,198.729 418.976,199.031 419.790,199.417 420.604,199.696 421.417,199.526 422.231,199.378 423.045,199.462 423.859,199.644 424.673,199.834 425.486,199.790 426.300,199.323 427.114,199.199 427.928,199.219 428.741,199.218 429.555,198.990 430.369,198.755 431.182,198.877 431.996,199.061 432.810,198.948 433.624,198.806 434.437,198.917 435.251,199.290 436.065,199.568 436.879,199.710 437.693,199.585 438.506,199.330 439.320,199.201 440.134,199.361 440.947,199.398 441.761,199.030 442.575,198.522 443.389,198.154 444.202,198.057 445.016,197.973 445.830,198.075 446.644,198.127 447.457,198.114 448.271,197.989 449.085,198.003 449.899,197.833 450.712,197.651 451.526,197.648 452.340,197.679 453.154,197.709 453.968,197.603 454.781,197.318 455.595,197.053 456.409,197.103 457.223,197.228 458.036,197.394 458.850,197.208 459.664,196.973 460.478,196.710 461.291,196.722 462.105,197.017 462.919,197.480 463.732,197.793 464.546,197.969 465.360,197.832 466.174,197.437 466.987,197.157 467.801,197.069 468.615,197.159 469.429,196.988 470.243,196.761 471.056,196.701 471.870,196.601 472.684,196.780 473.498,196.832 474.311,196.747 475.125,196.468 "/>
<g>
</g>
</g>
<g id="ID000004" clip-path="url(#ID000001)" >
      <polyline fill="none" stroke="#0000ff" stroke-width="0.5pt" stroke-dasharray="8.0,2.0" points="68.250,181.121 69.064,181.129 69.877,181.405 70.691,181.452 71.505,181.688 72.319,182.009 73.132,182.288 73.946,182.194 74.760,182.181 75.574,182.129 76.387,182.160 77.201,182.211 78.015,182.332 78.829,182.532 79.642,182.678 80.456,182.594 81.270,182.246 82.084,181.633 82.897,181.283 83.711,181.312 84.525,181.469 85.339,181.643 86.152,181.521 86.966,181.369 87.780,181.389 88.594,181.781 89.407,181.966 90.221,181.799 91.035,181.245 91.849,180.968 92.662,180.871 93.476,181.092 94.290,181.308 95.104,181.286 95.917,181.038 96.731,180.697 97.545,180.681 98.359,181.012 99.172,181.141 99.986,181.002 100.800,180.895 101.614,180.889 102.427,180.772 103.241,180.221 104.055,179.903 104.869,180.016 105.682,180.325 106.496,180.524 107.310,180.427 108.124,180.439 108.938,180.756 109.751,180.945 110.565,181.103 111.379,181.453 112.193,181.637 113.006,181.525 113.820,181.259 114.634,181.005 115.447,180.845 116.261,180.882 117.075,180.991 117.889,181.180 118.702,181.369 119.516,181.332 120.330,181.452 121.144,181.187 121.957,181.056 122.771,180.797 123.585,180.722 124.399,180.705 125.212,180.877 126.026,180.708 126.840,180.733 127.654,180.728 128.467,180.540 129.281,180.449 130.095,180.535 130.909,180.633 131.723,180.401 132.536,179.691 133.350,179.512 134.164,179.755 134.977,180.221 135.791,180.323 136.605,180.186 137.419,180.159 138.232,180.210 139.046,180.045 139.860,179.878 140.674,179.789 141.487,179.898 142.301,180.115 143.115,180.385 143.929,180.795 144.742,181.058 145.556,181.337 146.370,181.183 147.184,180.929 147.998,180.721 148.811,180.677 149.625,180.616 150.439,180.395 151.252,180.503 152.066,180.776 152.880,180.917 153.694,180.891 154.507,180.655 155.321,180.354 156.135,180.005 156.949,180.020 157.762,180.371 158.576,180.914 159.390,181.235 160.204,181.230 161.017,181.043 161.831,180.607 162.645,180.164 163.459,179.784 164.272,179.593 165.086,179.642 165.900,179.859 166.714,180.108 167.527,180.125 168.341,180.223 169.155,180.080 169.969,180.202 170.783,180.412 171.596,180.521 172.410,180.290 173.224,180.031 174.037,179.916 174.851,179.853 175.665,179.758 176.479,179.845 177.292,179.917 178.106,179.912 178.920,179.796 179.734,179.615 180.547,179.589 181.361,179.608 182.175,179.899 182.989,179.810 183.802,180.172 184.616,180.419 185.430,180.711 186.244,180.185 187.057,179.637 187.871,179.141 188.685,179.214 189.499,179.483 190.312,179.887 191.126,179.998 191.940,179.839 192.754,179.778 193.568,179.798 194.381,179.792 195.195,179.533 196.009,179.219 196.823,179.090 197.636,179.545 198.450,179.962 199.264,179.940 200.077,179.746 200.891,179.628 201.705,179.599 202.519,179.742 203.332,179.587 204.146,179.625 204.960,179.495 205.774,179.541 206.587,179.567 207.401,179.703 208.215,180.147 209.029,180.373 209.843,180.260 210.656,180.020 211.470,179.701 212.284,179.642 213.098,179.835 213.911,179.784 214.725,179.574 215.539,179.294 216.353,179.380 217.166,179.814 217.980,180.037 218.794,180.026 219.607,179.704 220.421,179.778 221.235,179.958 222.049,179.923 222.862,179.686 223.676,179.417 224.490,179.374 225.304,179.327 226.117,179.439 226.931,179.564 227.745,179.677 228.559,179.631 229.373,179.429 230.186,179.302 231.000,179.380 231.814,179.848 232.627,179.913 233.441,179.824 234.255,179.734 235.069,179.700 235.882,179.579 236.696,179.553 237.510,179.496 238.324,179.378 239.137,179.273 239.951,179.538 240.765,179.831 241.579,180.001 242.392,179.926 243.206,179.810 244.020,179.676 244.834,179.782 245.647,179.932 246.461,179.996 247.275,180.027 248.089,179.934 248.902,180.087 249.716,180.407 250.530,180.734 251.344,180.909 252.158,180.676 252.971,180.451 253.785,180.462 254.599,180.672 255.412,180.985 256.226,181.066 257.040,181.050 257.854,181.253 258.667,181.117 259.481,181.073 260.295,180.816 261.109,180.874 261.923,181.055 262.736,181.345 263.550,181.767 264.364,182.040 265.177,181.828 265.991,181.499 266.805,181.306 267.619,181.222 268.433,181.293 269.246,181.415 270.060,181.216 270.874,181.233 271.688,181.321 272.501,181.350 273.315,181.072 274.129,180.902 274.943,180.868 275.756,180.908 276.570,180.720 277.384,180.640 278.198,180.723 279.011,180.965 279.825,181.024 280.639,181.069 281.452,180.944 282.266,180.903 283.080,180.864 283.894,180.952 284.707,180.891 285.521,180.989 286.335,181.042 287.149,181.187 287.962,181.353 288.776,181.550 289.590,181.742 290.404,181.697 291.217,181.654 292.031,181.753 292.845,182.093 293.659,182.310 294.472,181.810 295.286,181.327 296.100,181.012 296.914,181.309 297.727,181.440 298.541,181.485 299.355,181.458 300.169,181.253 300.982,181.032 301.796,181.170 302.610,181.592 303.424,181.857 304.237,182.079 305.051,182.172 305.865,182.423 306.679,182.323 307.493,182.199 308.306,182.155 309.120,182.186 309.934,182.154 310.748,181.993 311.561,181.658 312.375,181.527 313.189,181.591 314.003,181.585 314.816,181.307 315.630,181.034 316.444,181.282 317.257,181.884 318.071,182.105 318.885,181.890 319.699,181.809 320.512,181.769 321.326,181.853 322.140,181.891 322.954,182.215 323.767,182.505 324.581,182.441 325.395,182.128 326.209,181.906 327.022,182.044 327.836,182.468 328.650,182.847 329.464,182.983 330.277,182.651 331.091,182.369 331.905,182.171 332.719,182.322 333.532,182.417 334.346,182.209 335.160,181.848 335.974,181.429 336.787,181.070 337.601,180.753 338.415,180.744 339.229,180.906 340.042,181.477 340.856,181.715 341.670,181.691 342.484,181.014 343.297,180.667 344.111,180.472 344.925,180.642 345.739,180.731 346.553,180.611 347.366,180.943 348.180,181.054 348.994,180.991 349.808,180.528 350.621,180.312 351.435,180.591 352.249,180.866 353.063,181.147 353.876,181.123 354.690,181.145 355.504,181.370 356.318,181.627 357.131,181.515 357.945,181.212 358.759,180.982 359.572,180.825 360.386,180.787 361.200,180.681 362.014,180.695 362.828,180.857 363.641,180.981 364.455,181.193 365.269,181.598 366.083,181.818 366.896,181.934 367.710,181.770 368.524,181.705 369.338,181.766 370.151,181.755 370.965,181.840 371.779,181.892 372.592,181.929 373.406,181.898 374.220,181.822 375.034,182.028 375.847,182.401 376.661,182.626 377.475,182.765 378.289,182.575 379.102,182.581 379.916,182.539 380.730,182.645 381.544,182.865 382.357,183.262 383.171,183.321 383.985,183.014 384.799,182.593 385.612,182.292 386.426,182.377 387.240,182.466 388.054,182.599 388.867,182.624 389.681,182.851 390.495,183.023 391.309,183.106 392.123,182.929 392.936,182.896 393.750,182.706 394.564,182.941 395.378,183.190 396.191,183.344 397.005,183.403 397.819,183.336 398.632,183.482 399.446,183.238 400.260,183.090 401.074,182.940 401.887,182.838 402.701,182.630 403.515,182.502 404.329,182.455 405.142,182.403 405.956,182.266 406.770,182.263 407.584,182.432 408.398,182.772 409.211,182.665 410.025,182.270 410.839,181.798 411.653,181.448 412.466,181.536 413.280,181.980 414.094,182.320 414.908,182.356 415.721,181.816 416.535,181.538 417.349,181.248 418.162,181.123 418.976,181.322 419.790,181.675 420.604,182.035 421.417,181.854 422.231,181.630 423.045,181.660 423.859,181.777 424.673,181.970 425.486,181.948 426.300,181.521 427.114,181.469 427.928,181.519 428.741,181.485 429.555,181.221 430.369,180.993 431.182,181.181 431.996,181.400 432.810,181.246 433.624,181.041 434.437,181.097 435.251,181.512 436.065,181.815 436.879,182.025 437.693,181.967 438.506,181.768 439.320,181.626 440.134,181.760 440.947,181.788 441.761,181.480 442.575,180.989 443.389,180.623 444.202,180.503 445.016,180.384 445.830,180.446 446.644,180.470 447.457,180.441 448.271,180.355 449.085,180.384 449.899,180.188 450.712,179.945 451.526,179.864 452.340,179.876 453.154,179.926 453.968,179.858 454.781,179.557 455.595,179.293 456.409,179.328 457.223,179.415 458.036,179.556 458.850,179.388 459.664,179.239 460.478,179.065 461.291,179.155 462.105,179.462 462.919,179.890 463.732,180.163 464.546,180.266 465.360,180.068 466.174,179.637 466.987,179.380 467.801,179.392 468.615,179.589 469.429,179.446 470.243,179.162 471.056,178.990 471.870,178.904 472.684,179.214 473.498,179.363 474.311,179.255 475.125,178.875 "/>
<g>
</g>
</g>
<g id="ID000005" clip-path="url(#ID000001)" >
      <polyline fill="none" stroke="#007f00" stroke-width="0.5pt" stroke-dasharray="none" points="68.250,189.768 69.064,189.896 69.877,189.902 70.691,189.582 71.505,189.234 72.319,188.982 73.132,189.054 73.946,189.108 74.760,189.423 75.574,189.691 76.387,189.945 77.201,189.719 78.015,189.469 78.829,189.478 79.642,189.619 80.456,189.787 81.270,189.884 82.084,190.153 82.897,190.128 83.711,189.752 84.525,189.579 85.339,189.350 86.152,189.674 86.966,189.822 87.780,189.762 88.594,189.745 89.407,189.999 90.221,190.337 91.035,190.267 91.849,189.910 92.662,189.477 93.476,189.373 94.290,189.239 95.104,189.173 95.917,189.225 96.731,189.397 97.545,189.755 98.359,189.629 99.172,189.404 99.986,189.543 100.800,189.695 101.614,189.963 102.427,189.912 103.241,190.054 104.055,190.258 104.869,190.366 105.682,190.246 106.496,190.008 107.310,189.916 108.124,189.842 108.938,189.965 109.751,190.044 110.565,189.980 111.379,189.663 112.193,189.270 113.006,189.393 113.820,189.604 114.634,189.612 115.447,189.218 116.261,188.742 117.075,188.791 117.889,189.216 118.702,189.442 119.516,189.413 120.330,189.359 121.144,189.502 121.957,189.823 122.771,190.020 123.585,190.292 124.399,190.204 125.212,189.914 126.026,189.849 126.840,189.933 127.654,190.063 128.467,190.099 129.281,190.109 130.095,190.211 130.909,190.207 131.723,190.131 132.536,189.883 133.350,189.841 134.164,190.137 134.977,190.502 135.791,190.573 136.605,190.519 137.419,190.526 138.232,190.846 139.046,191.174 139.860,191.192 140.674,191.042 141.487,191.202 142.301,191.331 143.115,191.179 143.929,191.015 144.742,191.092 145.556,191.229 146.370,191.487 147.184,191.764 147.998,192.087 148.811,192.253 149.625,192.243 150.439,192.007 151.252,191.767 152.066,191.638 152.880,192.184 153.694,192.708 154.507,193.098 155.321,193.249 156.135,193.025 156.949,192.791 157.762,192.569 158.576,192.214 159.390,192.024 160.204,192.245 161.017,192.472 161.831,192.433 162.645,192.273 163.459,191.992 164.272,192.024 165.086,191.814 165.900,191.632 166.714,191.371 167.527,191.314 168.341,191.559 169.155,191.655 169.969,191.842 170.783,192.041 171.596,192.327 172.410,192.480 173.224,192.603 174.037,192.666 174.851,192.938 175.665,192.725 176.479,192.298 177.292,191.955 178.106,191.961 178.920,192.366 179.734,192.652 180.547,192.609 181.361,192.504 182.175,192.355 182.989,192.341 183.802,192.320 184.616,192.607 185.430,192.777 186.244,192.827 187.057,192.759 187.871,192.485 188.685,192.110 189.499,191.877 190.312,191.855 191.126,191.953 191.940,192.094 192.754,192.069 193.568,192.026 194.381,191.861 195.195,191.733 196.009,191.532 196.823,191.592 197.636,191.614 198.450,191.700 199.264,191.512 200.077,191.437 200.891,191.325 201.705,191.143 202.519,190.920 203.332,190.925 204.146,190.834 204.960,191.121 205.774,191.300 206.587,191.270 207.401,190.856 208.215,190.256 209.029,189.800 209.843,189.541 210.656,189.568 211.470,189.914 212.284,190.093 213.098,190.073 213.911,190.084 214.725,190.148 215.539,190.131 216.353,190.235 217.166,189.754 217.980,189.565 218.794,189.600 219.607,190.131 220.421,190.198 221.235,189.850 222.049,189.369 222.862,189.145 223.676,189.163 224.490,189.522 225.304,189.756 226.117,189.663 226.931,189.502 227.745,189.398 228.559,189.624 229.373,189.538 230.186,189.341 231.000,188.901 231.814,188.993 232.627,189.628 233.441,190.033 234.255,190.144 235.069,189.967 235.882,189.932 236.696,189.957 237.510,190.223 238.324,190.066 239.137,190.051 239.951,189.849 240.765,189.679 241.579,189.299 242.392,189.217 243.206,189.255 244.020,189.241 244.834,189.018 245.647,188.695 246.461,188.781 247.275,189.172 248.089,189.720 248.902,189.803 249.716,189.667 250.530,189.389 251.344,189.322 252.158,189.530 252.971,189.737 253.785,190.007 254.599,190.289 255.412,190.370 256.226,190.358 257.040,190.418 257.854,190.462 258.667,190.453 259.481,190.408 260.295,190.532 261.109,190.455 261.923,190.306 262.736,190.380 263.550,190.589 264.364,190.699 265.177,190.500 265.991,190.501 266.805,190.427 267.619,190.403 268.433,189.993 269.246,189.603 270.060,189.628 270.874,189.706 271.688,189.841 272.501,189.787 273.315,189.783 274.129,190.161 274.943,190.525 275.756,190.928 276.570,191.022 277.384,191.215 278.198,191.223 279.011,191.231 279.825,191.120 280.639,190.795 281.452,190.580 282.266,190.413 283.080,190.556 283.894,190.619 284.707,190.586 285.521,190.479 286.335,190.522 287.149,190.605 287.962,190.661 288.776,190.769 289.590,191.052 290.404,191.171 291.217,191.152 292.031,191.243 292.845,191.296 293.659,191.627 294.472,191.518 295.286,191.236 296.100,190.794 296.914,190.521 297.727,190.595 298.541,190.776 299.355,190.830 300.169,190.777 300.982,190.666 301.796,190.608 302.610,190.424 303.424,190.458 304.237,190.269 305.051,190.376 305.865,190.273 306.679,189.899 307.493,189.136 308.306,188.830 309.120,188.888 309.934,189.560 310.748,190.064 311.561,190.657 312.375,190.928 313.189,191.006 314.003,190.937 314.816,190.913 315.630,190.946 316.444,191.017 317.257,191.071 318.071,191.239 318.885,191.171 319.699,191.412 320.512,191.545 321.326,191.712 322.140,191.448 322.954,190.996 323.767,190.571 324.581,190.397 325.395,190.421 326.209,190.626 327.022,191.096 327.836,191.402 328.650,191.592 329.464,191.436 330.277,191.343 331.091,190.883 331.905,190.771 332.719,190.810 333.532,191.049 334.346,191.096 335.160,190.960 335.974,191.045 336.787,190.949 337.601,190.836 338.415,190.782 339.229,190.840 340.042,190.642 340.856,190.795 341.670,191.106 342.484,191.339 343.297,191.169 344.111,190.837 344.925,190.457 345.739,190.298 346.553,190.209 347.366,190.572 348.180,190.828 348.994,190.747 349.808,190.568 350.621,190.316 351.435,190.617 352.249,190.828 353.063,191.005 353.876,190.993 354.690,191.086 355.504,191.304 356.318,191.258 357.131,191.144 357.945,190.993 358.759,191.314 359.572,191.529 360.386,191.529 361.200,191.203 362.014,190.781 362.828,190.996 363.641,191.122 364.455,191.228 365.269,191.174 366.083,191.013 366.896,191.220 367.710,191.520 368.524,192.017 369.338,192.262 370.151,192.582 370.965,192.740 371.779,192.891 372.592,192.601 373.406,192.289 374.220,192.122 375.034,192.183 375.847,192.533 376.661,192.847 377.475,193.047 378.289,193.047 379.102,192.874 379.916,192.680 380.730,192.465 381.544,192.226 382.357,192.080 383.171,191.789 383.985,191.854 384.799,192.132 385.612,192.631 386.426,192.804 387.240,192.892 388.054,192.921 388.867,192.968 389.681,193.158 390.495,193.207 391.309,193.011 392.123,192.637 392.936,192.444 393.750,192.598 394.564,192.855 395.378,192.770 396.191,192.703 397.005,192.540 397.819,192.429 398.632,192.197 399.446,192.393 400.260,192.813 401.074,193.089 401.887,193.057 402.701,192.648 403.515,192.294 404.329,192.125 405.142,192.076 405.956,192.076 406.770,192.105 407.584,192.406 408.398,192.814 409.211,193.051 410.025,192.835 410.839,192.565 411.653,192.385 412.466,192.032 413.280,191.824 414.094,191.646 414.908,191.511 415.721,191.466 416.535,191.367 417.349,191.686 418.162,191.989 418.976,192.359 419.790,192.541 420.604,192.373 421.417,192.098 422.231,191.717 423.045,191.496 423.859,191.348 424.673,191.467 425.486,191.692 426.300,191.941 427.114,191.812 427.928,191.918 428.741,192.149 429.555,192.232 430.369,191.932 431.182,191.241 431.996,191.036 432.810,191.285 433.624,191.765 434.437,191.993 435.251,191.798 436.065,191.624 436.879,191.592 437.693,191.606 438.506,191.568 439.320,191.269 440.134,191.187 440.947,191.043 441.761,190.737 442.575,190.857 443.389,190.945 444.202,191.093 445.016,191.078 445.830,191.037 446.644,190.986 447.457,190.719 448.271,190.369 449.085,190.159 449.899,190.205 450.712,190.349 451.526,190.152 452.340,190.049 453.154,190.141 453.968,190.690 454.781,190.863 455.595,190.782 456.409,190.432 457.223,190.169 458.036,189.928 458.850,189.926 459.664,189.875 460.478,189.734 461.291,189.338 462.105,188.924 462.919,188.650 463.732,188.694 464.546,188.622 465.360,188.369 466.174,188.143 466.987,188.019 467.801,187.930 468.615,187.842 469.429,187.514 470.243,187.518 471.056,187.526 471.870,187.393 472.684,187.099 473.498,186.719 474.311,186.541 475.125,186.653 "/>
<g>
</g>
</g>
<g id="ID000006" clip-path="url(#ID000001)" >
      <polyline fill="none" stroke="#007f00" stroke-width="0.5pt" stroke-dasharray="8.0,2.0" points="68.250,200.746 69.064,200.923 69.877,200.904 70.691,200.532 71.505,200.154 72.319,199.911 73.132,200.023 73.946,200.106 74.760,200.447 75.574,200.723 76.387,200.969 77.201,200.748 78.015,200.513 78.829,200.539 79.642,200.688 80.456,200.854 81.270,200.939 82.084,201.205 82.897,201.178 83.711,200.774 84.525,200.533 85.339,200.278 86.152,200.603 86.966,200.779 87.780,200.716 88.594,200.680 89.407,200.922 90.221,201.267 91.035,201.205 91.849,200.862 92.662,200.423 93.476,200.309 94.290,200.158 95.104,200.090 95.917,200.110 96.731,200.252 97.545,200.597 98.359,200.495 99.172,200.279 99.986,200.424 100.800,200.580 101.614,200.841 102.427,200.773 103.241,200.880 104.055,201.071 104.869,201.173 105.682,201.030 106.496,200.771 107.310,200.649 108.124,200.540 108.938,200.647 109.751,200.716 110.565,200.649 111.379,200.296 112.193,199.926 113.006,200.059 113.820,200.293 114.634,200.293 115.447,199.906 116.261,199.463 117.075,199.548 117.889,199.995 118.702,200.183 119.516,200.113 120.330,200.040 121.144,200.194 121.957,200.471 122.771,200.623 123.585,200.856 124.399,200.781 125.212,200.502 126.026,200.435 126.840,200.494 127.654,200.595 128.467,200.643 129.281,200.678 130.095,200.836 130.909,200.862 131.723,200.811 132.536,200.544 133.350,200.483 134.164,200.716 134.977,201.036 135.791,201.087 136.605,201.022 137.419,201.052 138.232,201.367 139.046,201.702 139.860,201.726 140.674,201.585 141.487,201.729 142.301,201.874 143.115,201.716 143.929,201.552 144.742,201.617 145.556,201.738 146.370,202.006 147.184,202.258 147.998,202.580 148.811,202.749 149.625,202.699 150.439,202.414 151.252,202.137 152.066,202.037 152.880,202.629 153.694,203.227 154.507,203.661 155.321,203.836 156.135,203.594 156.949,203.354 157.762,203.144 158.576,202.761 159.390,202.548 160.204,202.751 161.017,202.993 161.831,202.966 162.645,202.801 163.459,202.515 164.272,202.540 165.086,202.329 165.900,202.153 166.714,201.929 167.527,201.879 168.341,202.127 169.155,202.184 169.969,202.344 170.783,202.531 171.596,202.809 172.410,202.964 173.224,203.071 174.037,203.121 174.851,203.402 175.665,203.212 176.479,202.817 177.292,202.476 178.106,202.463 178.920,202.834 179.734,203.117 180.547,203.097 181.361,203.049 182.175,202.966 182.989,202.979 183.802,202.943 184.616,203.233 185.430,203.399 186.244,203.427 187.057,203.307 187.871,203.001 188.685,202.647 189.499,202.416 190.312,202.407 191.126,202.497 191.940,202.625 192.754,202.630 193.568,202.625 194.381,202.488 195.195,202.364 196.009,202.159 196.823,202.219 197.636,202.243 198.450,202.339 199.264,202.172 200.077,202.144 200.891,202.057 201.705,201.871 202.519,201.617 203.332,201.573 204.146,201.457 204.960,201.728 205.774,201.926 206.587,201.905 207.401,201.508 208.215,200.931 209.029,200.451 209.843,200.135 210.656,200.140 211.470,200.492 212.284,200.690 213.098,200.668 213.911,200.697 214.725,200.798 215.539,200.772 216.353,200.833 217.166,200.322 217.980,200.132 218.794,200.177 219.607,200.729 220.421,200.848 221.235,200.537 222.049,200.068 222.862,199.827 223.676,199.781 224.490,200.063 225.304,200.280 226.117,200.221 226.931,200.083 227.745,200.001 228.559,200.226 229.373,200.126 230.186,199.917 231.000,199.496 231.814,199.620 232.627,200.235 233.441,200.585 234.255,200.657 235.069,200.464 235.882,200.442 236.696,200.445 237.510,200.711 238.324,200.555 239.137,200.529 239.951,200.314 240.765,200.150 241.579,199.798 242.392,199.721 243.206,199.745 244.020,199.679 244.834,199.448 245.647,199.124 246.461,199.245 247.275,199.690 248.089,200.260 248.902,200.318 249.716,200.161 250.530,199.839 251.344,199.767 252.158,199.982 252.971,200.180 253.785,200.418 254.599,200.660 255.412,200.760 256.226,200.800 257.040,200.892 257.854,200.956 258.667,200.961 259.481,200.911 260.295,201.040 261.109,200.961 261.923,200.826 262.736,200.913 263.550,201.131 264.364,201.261 265.177,201.048 265.991,201.028 266.805,200.916 267.619,200.878 268.433,200.504 269.246,200.172 270.060,200.246 270.874,200.370 271.688,200.533 272.501,200.488 273.315,200.454 274.129,200.810 274.943,201.171 275.756,201.625 276.570,201.774 277.384,201.981 278.198,201.955 279.011,201.918 279.825,201.785 280.639,201.466 281.452,201.265 282.266,201.094 283.080,201.248 283.894,201.316 284.707,201.317 285.521,201.215 286.335,201.227 287.149,201.259 287.962,201.293 288.776,201.446 289.590,201.783 290.404,201.936 291.217,201.920 292.031,201.989 292.845,202.038 293.659,202.356 294.472,202.217 295.286,201.925 296.100,201.506 296.914,201.261 297.727,201.323 298.541,201.448 299.355,201.476 300.169,201.382 300.982,201.262 301.796,201.187 302.610,201.035 303.424,201.128 304.237,200.990 305.051,201.104 305.865,200.952 306.679,200.545 307.493,199.756 308.306,199.459 309.120,199.511 309.934,200.190 310.748,200.659 311.561,201.224 312.375,201.448 313.189,201.533 314.003,201.480 314.816,201.491 315.630,201.544 316.444,201.620 317.257,201.678 318.071,201.862 318.885,201.828 319.699,202.062 320.512,202.175 321.326,202.295 322.140,202.024 322.954,201.556 323.767,201.126 324.581,200.954 325.395,201.008 326.209,201.259 327.022,201.783 327.836,202.094 328.650,202.260 329.464,202.090 330.277,201.997 331.091,201.513 331.905,201.390 332.719,201.434 333.532,201.716 334.346,201.775 335.160,201.634 335.974,201.697 336.787,201.594 337.601,201.478 338.415,201.444 339.229,201.520 340.042,201.317 340.856,201.437 341.670,201.700 342.484,201.915 343.297,201.731 344.111,201.422 344.925,201.090 345.739,200.969 346.553,200.901 347.366,201.279 348.180,201.550 348.994,201.452 349.808,201.267 350.621,201.028 351.435,201.329 352.249,201.550 353.063,201.689 353.876,201.670 354.690,201.723 355.504,201.935 356.318,201.905 357.131,201.798 357.945,201.670 358.759,201.983 359.572,202.177 360.386,202.140 361.200,201.807 362.014,201.377 362.828,201.573 363.641,201.682 364.455,201.792 365.269,201.749 366.083,201.617 366.896,201.850 367.710,202.184 368.524,202.690 369.338,202.968 370.151,203.307 370.965,203.478 371.779,203.577 372.592,203.224 373.406,202.884 374.220,202.731 375.034,202.787 375.847,203.113 376.661,203.411 377.475,203.590 378.289,203.595 379.102,203.449 379.916,203.281 380.730,203.094 381.544,202.836 382.357,202.659 383.171,202.342 383.985,202.395 384.799,202.683 385.612,203.201 386.426,203.396 387.240,203.514 388.054,203.540 388.867,203.600 389.681,203.750 390.495,203.734 391.309,203.498 392.123,203.133 392.936,202.997 393.750,203.220 394.564,203.554 395.378,203.531 396.191,203.466 397.005,203.279 397.819,203.132 398.632,202.889 399.446,203.074 400.260,203.476 401.074,203.748 401.887,203.711 402.701,203.295 403.515,202.882 404.329,202.695 405.142,202.647 405.956,202.664 406.770,202.683 407.584,202.982 408.398,203.413 409.211,203.693 410.025,203.541 410.839,203.340 411.653,203.202 412.466,202.863 413.280,202.640 414.094,202.412 414.908,202.254 415.721,202.218 416.535,202.146 417.349,202.471 418.162,202.753 418.976,203.094 419.790,203.290 420.604,203.179 421.417,202.967 422.231,202.599 423.045,202.386 423.859,202.237 424.673,202.355 425.486,202.601 426.300,202.869 427.114,202.736 427.928,202.818 428.741,203.014 429.555,203.086 430.369,202.801 431.182,202.190 431.996,202.061 432.810,202.352 433.624,202.789 434.437,202.976 435.251,202.778 436.065,202.618 436.879,202.573 437.693,202.528 438.506,202.478 439.320,202.194 440.134,202.116 440.947,201.950 441.761,201.629 442.575,201.765 443.389,201.887 444.202,202.102 445.016,202.106 445.830,202.046 446.644,201.935 447.457,201.657 448.271,201.339 449.085,201.174 449.899,201.212 450.712,201.312 451.526,201.063 452.340,200.931 453.154,200.990 453.968,201.549 454.781,201.719 455.595,201.676 456.409,201.358 457.223,201.082 458.036,200.825 458.850,200.787 459.664,200.748 460.478,200.598 461.291,200.191 462.105,199.775 462.919,199.509 463.732,199.586 464.546,199.529 465.360,199.260 466.174,199.024 466.987,198.899 467.801,198.809 468.615,198.732 469.429,198.377 470.243,198.381 471.056,198.390 471.870,198.267 472.684,197.960 473.498,197.558 474.311,197.374 475.125,197.474 "/>
<g>
</g>
</g>
<g id="ID000007" clip-path="url(#ID000001)" >
      <polyline fill="none" stroke="#007f00" stroke-width="0.5pt" stroke-dasharray="8.0,2.0" points="68.250,178.790 69.064,178.868 69.877,178.900 70.691,178.633 71.505,178.315 72.319,178.052 73.132,178.086 73.946,178.109 74.760,178.399 75.574,178.658 76.387,178.921 77.201,178.690 78.015,178.424 78.829,178.416 79.642,178.550 80.456,178.720 81.270,178.829 82.084,179.102 82.897,179.078 83.711,178.731 84.525,178.625 85.339,178.421 86.152,178.745 86.966,178.865 87.780,178.807 88.594,178.810 89.407,179.076 90.221,179.408 91.035,179.329 91.849,178.958 92.662,178.531 93.476,178.436 94.290,178.321 95.104,178.257 95.917,178.340 96.731,178.543 97.545,178.913 98.359,178.764 99.172,178.529 99.986,178.661 100.800,178.809 101.614,179.086 102.427,179.052 103.241,179.227 104.055,179.445 104.869,179.558 105.682,179.462 106.496,179.246 107.310,179.183 108.124,179.144 108.938,179.283 109.751,179.373 110.565,179.311 111.379,179.030 112.193,178.614 113.006,178.727 113.820,178.914 114.634,178.932 115.447,178.531 116.261,178.020 117.075,178.034 117.889,178.438 118.702,178.701 119.516,178.714 120.330,178.678 121.144,178.810 121.957,179.176 122.771,179.417 123.585,179.729 124.399,179.626 125.212,179.327 126.026,179.262 126.840,179.372 127.654,179.531 128.467,179.555 129.281,179.540 130.095,179.585 130.909,179.551 131.723,179.451 132.536,179.222 133.350,179.200 134.164,179.558 134.977,179.967 135.791,180.059 136.605,180.015 137.419,180.000 138.232,180.325 139.046,180.646 139.860,180.658 140.674,180.499 141.487,180.674 142.301,180.789 143.115,180.642 143.929,180.477 144.742,180.568 145.556,180.719 146.370,180.968 147.184,181.270 147.998,181.594 148.811,181.757 149.625,181.787 150.439,181.600 151.252,181.397 152.066,181.240 152.880,181.739 153.694,182.189 154.507,182.536 155.321,182.662 156.135,182.456 156.949,182.227 157.762,181.995 158.576,181.668 159.390,181.501 160.204,181.740 161.017,181.950 161.831,181.900 162.645,181.745 163.459,181.469 164.272,181.509 165.086,181.299 165.900,181.110 166.714,180.813 167.527,180.750 168.341,180.990 169.155,181.126 169.969,181.341 170.783,181.550 171.596,181.845 172.410,181.996 173.224,182.136 174.037,182.211 174.851,182.475 175.665,182.237 176.479,181.780 177.292,181.435 178.106,181.460 178.920,181.898 179.734,182.188 180.547,182.121 181.361,181.959 182.175,181.743 182.989,181.702 183.802,181.697 184.616,181.981 185.430,182.156 186.244,182.226 187.057,182.210 187.871,181.970 188.685,181.574 189.499,181.338 190.312,181.303 191.126,181.410 191.940,181.563 192.754,181.508 193.568,181.427 194.381,181.234 195.195,181.102 196.009,180.904 196.823,180.965 197.636,180.985 198.450,181.060 199.264,180.851 200.077,180.730 200.891,180.594 201.705,180.415 202.519,180.223 203.332,180.278 204.146,180.211 204.960,180.514 205.774,180.675 206.587,180.635 207.401,180.204 208.215,179.581 209.029,179.149 209.843,178.947 210.656,178.997 211.470,179.336 212.284,179.497 213.098,179.477 213.911,179.472 214.725,179.497 215.539,179.490 216.353,179.637 217.166,179.186 217.980,178.999 218.794,179.023 219.607,179.533 220.421,179.548 221.235,179.163 222.049,178.671 222.862,178.463 223.676,178.546 224.490,178.981 225.304,179.231 226.117,179.105 226.931,178.920 227.745,178.796 228.559,179.022 229.373,178.949 230.186,178.764 231.000,178.306 231.814,178.367 232.627,179.020 233.441,179.481 234.255,179.631 235.069,179.471 235.882,179.423 236.696,179.469 237.510,179.735 238.324,179.576 239.137,179.572 239.951,179.383 240.765,179.208 241.579,178.800 242.392,178.713 243.206,178.765 244.020,178.804 244.834,178.589 245.647,178.265 246.461,178.317 247.275,178.654 248.089,179.181 248.902,179.288 249.716,179.174 250.530,178.939 251.344,178.877 252.158,179.077 252.971,179.294 253.785,179.595 254.599,179.918 255.412,179.981 256.226,179.915 257.040,179.944 257.854,179.967 258.667,179.945 259.481,179.906 260.295,180.025 261.109,179.949 261.923,179.787 262.736,179.846 263.550,180.048 264.364,180.137 265.177,179.952 265.991,179.974 266.805,179.939 267.619,179.929 268.433,179.482 269.246,179.034 270.060,179.010 270.874,179.042 271.688,179.149 272.501,179.086 273.315,179.111 274.129,179.511 274.943,179.880 275.756,180.231 276.570,180.270 277.384,180.448 278.198,180.490 279.011,180.544 279.825,180.456 280.639,180.124 281.452,179.894 282.266,179.731 283.080,179.865 283.894,179.923 284.707,179.855 285.521,179.742 286.335,179.816 287.149,179.952 287.962,180.029 288.776,180.091 289.590,180.322 290.404,180.406 291.217,180.385 292.031,180.497 292.845,180.554 293.659,180.899 294.472,180.818 295.286,180.547 296.100,180.083 296.914,179.782 297.727,179.868 298.541,180.104 299.355,180.185 300.169,180.172 300.982,180.070 301.796,180.028 302.610,179.814 303.424,179.789 304.237,179.547 305.051,179.649 305.865,179.595 306.679,179.254 307.493,178.517 308.306,178.201 309.120,178.265 309.934,178.931 310.748,179.469 311.561,180.090 312.375,180.409 313.189,180.479 314.003,180.394 314.816,180.334 315.630,180.347 316.444,180.415 317.257,180.464 318.071,180.616 318.885,180.515 319.699,180.761 320.512,180.915 321.326,181.128 322.140,180.872 322.954,180.435 323.767,180.016 324.581,179.840 325.395,179.834 326.209,179.994 327.022,180.409 327.836,180.710 328.650,180.925 329.464,180.781 330.277,180.689 331.091,180.252 331.905,180.151 332.719,180.186 333.532,180.382 334.346,180.416 335.160,180.287 335.974,180.394 336.787,180.304 337.601,180.194 338.415,180.119 339.229,180.161 340.042,179.967 340.856,180.153 341.670,180.512 342.484,180.763 343.297,180.608 344.111,180.253 344.925,179.824 345.739,179.627 346.553,179.517 347.366,179.865 348.180,180.107 348.994,180.041 349.808,179.869 350.621,179.605 351.435,179.905 352.249,180.107 353.063,180.321 353.876,180.316 354.690,180.448 355.504,180.673 356.318,180.611 357.131,180.489 357.945,180.316 358.759,180.646 359.572,180.880 360.386,180.919 361.200,180.600 362.014,180.185 362.828,180.419 363.641,180.562 364.455,180.664 365.269,180.599 366.083,180.410 366.896,180.589 367.710,180.855 368.524,181.343 369.338,181.557 370.151,181.857 370.965,182.003 371.779,182.204 372.592,181.977 373.406,181.693 374.220,181.513 375.034,181.579 375.847,181.954 376.661,182.283 377.475,182.504 378.289,182.499 379.102,182.300 379.916,182.079 380.730,181.837 381.544,181.617 382.357,181.501 383.171,181.237 383.985,181.314 384.799,181.582 385.612,182.060 386.426,182.211 387.240,182.270 388.054,182.302 388.867,182.335 389.681,182.566 390.495,182.681 391.309,182.523 392.123,182.141 392.936,181.891 393.750,181.976 394.564,182.157 395.378,182.009 396.191,181.940 397.005,181.800 397.819,181.727 398.632,181.505 399.446,181.712 400.260,182.150 401.074,182.429 401.887,182.403 402.701,182.001 403.515,181.706 404.329,181.555 405.142,181.505 405.956,181.488 406.770,181.527 407.584,181.831 408.398,182.214 409.211,182.410 410.025,182.129 410.839,181.789 411.653,181.569 412.466,181.200 413.280,181.008 414.094,180.880 414.908,180.767 415.721,180.714 416.535,180.587 417.349,180.900 418.162,181.225 418.976,181.623 419.790,181.792 420.604,181.567 421.417,181.229 422.231,180.835 423.045,180.606 423.859,180.459 424.673,180.580 425.486,180.783 426.300,181.014 427.114,180.888 427.928,181.018 428.741,181.284 429.555,181.377 430.369,181.062 431.182,180.291 431.996,180.010 432.810,180.219 433.624,180.741 434.437,181.010 435.251,180.818 436.065,180.630 436.879,180.611 437.693,180.684 438.506,180.657 439.320,180.344 440.134,180.259 440.947,180.137 441.761,179.846 442.575,179.950 443.389,180.003 444.202,180.085 445.016,180.050 445.830,180.028 446.644,180.037 447.457,179.780 448.271,179.399 449.085,179.144 449.899,179.198 450.712,179.387 451.526,179.241 452.340,179.166 453.154,179.291 453.968,179.830 454.781,180.007 455.595,179.887 456.409,179.506 457.223,179.256 458.036,179.031 458.850,179.066 459.664,179.001 460.478,178.869 461.291,178.485 462.105,178.074 462.919,177.791 463.732,177.802 464.546,177.715 465.360,177.479 466.174,177.262 466.987,177.140 467.801,177.051 468.615,176.952 469.429,176.652 470.243,176.655 471.056,176.662 471.870,176.520 472.684,176.238 473.498,175.879 474.311,175.707 475.125,175.832 "/>
<g>
</g>
</g>
<g id="ID000008" >
  <g transform="translate(271.219,381.394)">
    <g transform="rotate(-0.0)">
      <text x="0.000" y="0.000" font-family="Helvetica" text-anchor="middle" font-size="9pt" fill="#000000" >Time (ms)</text>
    </g>
  </g>
</g>
<g id="ID000009" >
  <g transform="translate(35.437,191.392)">
    <g transform="rotate(-90.0)">
      <text x="0.000" y="0.000" font-family="Helvetica" text-anchor="middle" font-size="9pt" fill="#000000" >Vergence (deg)</text>
    </g>
  </g>
</g>
<g id="ID000010" >
</g>
    </g>
    <g>
      <polyline fill="none" stroke="#000000" stroke-width="0.5pt" stroke-dasharray="none" points="68.250,350.438 68.250,346.369 "/>
      <polyline fill="none" stroke="#000000" stroke-width="0.5pt" stroke-dasharray="none" points="108.938,350.438 108.938,346.369 "/>
      <polyline fill="none" stroke="#000000" stroke-width="0.5pt" stroke-dasharray="none" points="149.625,350.438 149.625,346.369 "/>
      <polyline fill="none" stroke="#000000" stroke-width="0.5pt" stroke-dasharray="none" points="190.313,350.438 190.313,346.369 "/>
      <polyline fill="none" stroke="#000000" stroke-width="0.5pt" stroke-dasharray="none" points="231.000,350.438 231.000,346.369 "/>
      <polyline fill="none" stroke="#000000" stroke-width="0.5pt" stroke-dasharray="none" points="271.688,350.438 271.688,346.369 "/>
      <polyline fill="none" stroke="#000000" stroke-width="0.5pt" stroke-dasharray="none" points="312.375,350.438 312.375,346.369 "/>
      <polyline fill="none" stroke="#000000" stroke-width="0.5pt" stroke-dasharray="none" points="353.063,350.438 353.063,346.369 "/>
      <polyline fill="none" stroke="#000000" stroke-width="0.5pt" stroke-dasharray="none" points="393.750,350.438 393.750,346.369 "/>
      <polyline fill="none" stroke="#000000" stroke-width="0.5pt" stroke-dasharray="none" points="434.438,350.438 434.438,346.369 "/>
      <polyline fill="none" stroke="#000000" stroke-width="0.5pt" stroke-dasharray="none" points="475.125,350.438 475.125,346.369 "/>
      <polyline fill="none" stroke="#000000" stroke-width="0.5pt" stroke-dasharray="none" points="68.250,350.438 475.125,350.438 "/>
  <g transform="translate(68.250,367.918)">
    <g transform="rotate(-0.0)">
      <text x="0.000" y="0.000" font-family="Helvetica" text-anchor="middle" font-size="9pt" fill="#000000" >-100</text>
    </g>
  </g>
  <g transform="translate(108.938,367.918)">
    <g transform="rotate(-0.0)">
      <text x="0.000" y="0.000" font-family="Helvetica" text-anchor="middle" font-size="9pt" fill="#000000" >-50</text>
    </g>
  </g>
  <g transform="translate(149.625,367.918)">
    <g transform="rotate(-0.0)">
      <text x="0.000" y="0.000" font-family="Helvetica" text-anchor="middle" font-size="9pt" fill="#000000" >0</text>
    </g>
  </g>
  <g transform="translate(190.313,367.918)">
    <g transform="rotate(-0.0)">
      <text x="0.000" y="0.000" font-family="Helvetica" text-anchor="middle" font-size="9pt" fill="#000000" >50</text>
    </g>
  </g>
  <g transform="translate(231.000,367.918)">
    <g transform="rotate(-0.0)">
      <text x="0.000" y="0.000" font-family="Helvetica" text-anchor="middle" font-size="9pt" fill="#000000" >100</text>
    </g>
  </g>
  <g transform="translate(271.688,367.918)">
    <g transform="rotate(-0.0)">
      <text x="0.000" y="0.000" font-family="Helvetica" text-anchor="middle" font-size="9pt" fill="#000000" >150</text>
    </g>
  </g>
  <g transform="translate(312.375,367.918)">
    <g transform="rotate(-0.0)">
      <text x="0.000" y="0.000" font-family="Helvetica" text-anchor="middle" font-size="9pt" fill="#000000" >200</text>
    </g>
  </g>
  <g transform="translate(353.063,367.918)">
    <g transform="rotate(-0.0)">
      <text x="0.000" y="0.000" font-family="Helvetica" text-anchor="middle" font-size="9pt" fill="#000000" >250</text>
    </g>
  </g>
  <g transform="translate(393.750,367.918)">
    <g transform="rotate(-0.0)">
      <text x="0.000" y="0.000" font-family="Helvetica" text-anchor="middle" font-size="9pt" fill="#000000" >300</text>
    </g>
  </g>
  <g transform="translate(434.438,367.918)">
    <g transform="rotate(-0.0)">
      <text x="0.000" y="0.000" font-family="Helvetica" text-anchor="middle" font-size="9pt" fill="#000000" >350</text>
    </g>
  </g>
  <g transform="translate(475.125,367.918)">
    <g transform="rotate(-0.0)">
      <text x="0.000" y="0.000" font-family="Helvetica" text-anchor="middle" font-size="9pt" fill="#000000" >400</text>
    </g>
  </g>
      <polyline fill="none" stroke="#000000" stroke-width="0.5pt" stroke-dasharray="none" points="68.250,350.438 72.319,350.438 "/>
      <polyline fill="none" stroke="#000000" stroke-width="0.5pt" stroke-dasharray="none" points="68.250,318.347 72.319,318.347 "/>
      <polyline fill="none" stroke="#000000" stroke-width="0.5pt" stroke-dasharray="none" points="68.250,286.256 72.319,286.256 "/>
      <polyline fill="none" stroke="#000000" stroke-width="0.5pt" stroke-dasharray="none" points="68.250,254.166 72.319,254.166 "/>
      <polyline fill="none" stroke="#000000" stroke-width="0.5pt" stroke-dasharray="none" points="68.250,222.075 72.319,222.075 "/>
      <polyline fill="none" stroke="#000000" stroke-width="0.5pt" stroke-dasharray="none" points="68.250,189.984 72.319,189.984 "/>
      <polyline fill="none" stroke="#000000" stroke-width="0.5pt" stroke-dasharray="none" points="68.250,157.894 72.319,157.894 "/>
      <polyline fill="none" stroke="#000000" stroke-width="0.5pt" stroke-dasharray="none" points="68.250,125.803 72.319,125.803 "/>
      <polyline fill="none" stroke="#000000" stroke-width="0.5pt" stroke-dasharray="none" points="68.250,93.713 72.319,93.713 "/>
      <polyline fill="none" stroke="#000000" stroke-width="0.5pt" stroke-dasharray="none" points="68.250,61.622 72.319,61.622 "/>
      <polyline fill="none" stroke="#000000" stroke-width="0.5pt" stroke-dasharray="none" points="68.250,29.531 72.319,29.531 "/>
      <polyline fill="none" stroke="#000000" stroke-width="0.5pt" stroke-dasharray="none" points="68.250,350.438 68.250,29.531 "/>
  <g transform="translate(60.112,354.656)">
    <g transform="rotate(-0.0)">
      <text x="0.000" y="0.000" font-family="Helvetica" text-anchor="end" font-size="9pt" fill="#000000" >-1</text>
    </g>
  </g>
  <g transform="translate(60.112,322.566)">
    <g transform="rotate(-0.0)">
      <text x="0.000" y="0.000" font-family="Helvetica" text-anchor="end" font-size="9pt" fill="#000000" >-0.8</text>
    </g>
  </g>
  <g transform="translate(60.112,290.475)">
    <g transform="rotate(-0.0)">
      <text x="0.000" y="0.000" font-family="Helvetica" text-anchor="end" font-size="9pt" fill="#000000" >-0.6</text>
    </g>
  </g>
  <g transform="translate(60.112,258.384)">
    <g transform="rotate(-0.0)">
      <text x="0.000" y="0.000" font-family="Helvetica" text-anchor="end" font-size="9pt" fill="#000000" >-0.4</text>
    </g>
  </g>
  <g transform="translate(60.112,226.294)">
    <g transform="rotate(-0.0)">
      <text x="0.000" y="0.000" font-family="Helvetica" text-anchor="end" font-size="9pt" fill="#000000" >-0.2</text>
    </g>
  </g>
  <g transform="translate(60.112,194.203)">
    <g transform="rotate(-0.0)">
      <text x="0.000" y="0.000" font-family="Helvetica" text-anchor="end" font-size="9pt" fill="#000000" >0</text>
    </g>
  </g>
  <g transform="translate(60.112,162.113)">
    <g transform="rotate(-0.0)">
      <text x="0.000" y="0.000" font-family="Helvetica" text-anchor="end" font-size="9pt" fill="#000000" >0.2</text>
    </g>
  </g>
  <g transform="translate(60.112,130.022)">
    <g transform="rotate(-0.0)">
      <text x="0.000" y="0.000" font-family="Helvetica" text-anchor="end" font-size="9pt" fill="#000000" >0.4</text>
    </g>
  </g>
  <g transform="translate(60.112,97.931)">
    <g transform="rotate(-0.0)">
      <text x="0.000" y="0.000" font-family="Helvetica" text-anchor="end" font-size="9pt" fill="#000000" >0.6</text>
    </g>
  </g>
  <g transform="translate(60.112,65.841)">
    <g transform="rotate(-0.0)">
      <text x="0.000" y="0.000" font-family="Helvetica" text-anchor="end" font-size="9pt" fill="#000000" >0.8</text>
    </g>
  </g>
  <g transform="translate(60.112,33.750)">
    <g transform="rotate(-0.0)">
      <text x="0.000" y="0.000" font-family="Helvetica" text-anchor="end" font-size="9pt" fill="#000000" >1</text>
    </g>
  </g>
      <polyline fill="none" stroke="#000000" stroke-width="0.5pt" stroke-dasharray="none" points="68.250,350.438 68.250,347.228 "/>
      <polyline fill="none" stroke="#000000" stroke-width="0.5pt" stroke-dasharray="none" points="68.250,350.438 68.250,347.228 "/>
      <polyline fill="none" stroke="#000000" stroke-width="0.5pt" stroke-dasharray="none" points="68.250,350.437 68.250,347.228 "/>
      <polyline fill="none" stroke="#000000" stroke-width="0.5pt" stroke-dasharray="none" points="68.250,350.438 68.250,350.437 "/>
    </g>
  </g>
  </g>
</svg>
