<?xml version="1.0" encoding="utf-8" standalone="no"?><!DOCTYPE svg PUBLIC "-//W3C//DTD SVG 1.1//EN" "http://www.w3.org/Graphics/SVG/1.1/DTD/svg11.dtd">
<svg preserveAspectRatio="xMinYMin meet" width="100%" height="100%" viewBox="0 0 750.000 187.500"  version="1.1" xmlns="http://www.w3.org/2000/svg" xmlns:xlink="http://www.w3.org/1999/xlink">
  <desc>Matlab Figure Converted by PLOT2SVG written by Juerg Schwizer</desc>
  <g id="topgroup">
  <rect x="0" y="0" width="750.000" height="187.500" fill="#ffffff" stroke="none" />
  <g id ="ID000000">
  <clipPath id="ID000001">
    <rect x="105.068" y="21.563" width="152.486" height="125.625"/>
  </clipPath>
      <polygon fill="#ffffff" fill-opacity="1.00" stroke="none" stroke-width="0.5pt" stroke-opacity="1.00" stroke-dasharray="none" points="105.068,147.188 257.554,147.188 257.554,21.563 105.068,21.563 "/>
      <polygon fill="#ffffff" fill-opacity="1.00" stroke="none" stroke-width="0.5pt" stroke-opacity="1.00" stroke-dasharray="none" points="105.068,21.563 257.554,21.563 257.554,21.563 105.068,21.563 "/>
      <polygon fill="#ffffff" fill-opacity="1.00" stroke="none" stroke-width="0.5pt" stroke-opacity="1.00" stroke-dasharray="none" points="105.068,147.188 105.068,147.188 105.068,21.563 105.068,21.563 "/>
    <g>
<g id="ID000002" clip-path="url(#ID000001)" >
<g>
<circle cx="115.960" cy="97.223" r="4.623" fill="#b2b2b2" stroke="none" stroke-width="0.5pt" />
</g>
</g>
<g id="ID000003" clip-path="url(#ID000001)" >
<g>
<circle cx="132.298" cy="72.955" r="6.537" fill="#b2b2b2" stroke="none" stroke-width="0.5pt" />
</g>
</g>
<g id="ID000004" clip-path="url(#ID000001)" >
<g>
<circle cx="148.635" cy="53.683" r="6.537" fill="#b2b2b2" stroke="none" stroke-width="0.5pt" />
</g>
</g>
<g id="ID000005" clip-path="url(#ID000001)" >
<g>
<circle cx="164.973" cy="42.262" r="6.537" fill="#b2b2b2" stroke="none" stroke-width="0.5pt" />
</g>
</g>
<g id="ID000006" clip-path="url(#ID000001)" >
<g>
<circle cx="181.311" cy="37.979" r="6.537" fill="#b2b2b2" stroke="none" stroke-width="0.5pt" />
</g>
</g>
<g id="ID000007" clip-path="url(#ID000001)" >
<g>
<circle cx="197.649" cy="38.693" r="4.623" fill="#b2b2b2" stroke="none" stroke-width="0.5pt" />
</g>
</g>
<g id="ID000008" clip-path="url(#ID000001)" >
<g>
<circle cx="213.987" cy="38.693" r="4.623" fill="#b2b2b2" stroke="none" stroke-width="0.5pt" />
</g>
</g>
<g id="ID000009" clip-path="url(#ID000001)" >
<g>
<circle cx="230.325" cy="40.121" r="4.623" fill="#b2b2b2" stroke="none" stroke-width="0.5pt" />
</g>
</g>
<g id="ID000010" clip-path="url(#ID000001)" >
<g>
<circle cx="246.662" cy="38.693" r="4.623" fill="#b2b2b2" stroke="none" stroke-width="0.5pt" />
</g>
</g>
<g id="ID000011" clip-path="url(#ID000001)" >
      <polyline fill="none" stroke="#000000" stroke-width="2.0pt" stroke-dasharray="none" points="115.960,95.367 116.091,95.234 116.221,95.100 116.352,94.965 116.483,94.830 116.614,94.694 116.745,94.557 116.876,94.419 117.006,94.281 117.137,94.142 117.268,94.002 117.399,93.861 117.530,93.720 117.661,93.578 117.791,93.435 117.922,93.292 118.053,93.148 118.184,93.003 118.315,92.857 118.446,92.710 118.576,92.563 118.707,92.416 118.838,92.267 118.969,92.118 119.100,91.968 119.231,91.817 119.361,91.666 119.492,91.514 119.623,91.361 119.754,91.208 119.885,91.054 120.016,90.899 120.146,90.744 120.277,90.588 120.408,90.431 120.539,90.274 120.670,90.115 120.801,89.957 120.931,89.798 121.062,89.638 121.193,89.477 121.324,89.316 121.455,89.154 121.586,88.991 121.716,88.828 121.847,88.665 121.978,88.500 122.109,88.336 122.240,88.170 122.371,88.004 122.501,87.837 122.632,87.670 122.763,87.502 122.894,87.334 123.025,87.165 123.156,86.996 123.286,86.826 123.417,86.655 123.548,86.484 123.679,86.313 123.810,86.140 123.941,85.968 124.071,85.795 124.202,85.621 124.333,85.447 124.464,85.272 124.595,85.097 124.726,84.922 124.856,84.745 124.987,84.569 125.118,84.392 125.249,84.215 125.380,84.037 125.511,83.858 125.641,83.680 125.772,83.500 125.903,83.321 126.034,83.141 126.165,82.960 126.296,82.780 126.426,82.598 126.557,82.417 126.688,82.235 126.819,82.053 126.950,81.870 127.081,81.687 127.212,81.504 127.342,81.320 127.473,81.136 127.604,80.952 127.735,80.767 127.866,80.582 127.997,80.397 128.127,80.212 128.258,80.026 128.389,79.840 128.520,79.654 128.651,79.467 128.782,79.280 128.912,79.093 129.043,78.906 129.174,78.718 129.305,78.531 129.436,78.343 129.567,78.155 129.697,77.967 129.828,77.778 129.959,77.589 130.090,77.401 130.221,77.212 130.352,77.023 130.482,76.833 130.613,76.644 130.744,76.455 130.875,76.265 131.006,76.075 131.137,75.886 131.267,75.696 131.398,75.506 131.529,75.316 131.660,75.126 131.791,74.936 131.922,74.745 132.052,74.555 132.183,74.365 132.314,74.175 132.445,73.985 132.576,73.794 132.707,73.604 132.837,73.414 132.968,73.224 133.099,73.034 133.230,72.843 133.361,72.653 133.492,72.463 133.622,72.273 133.753,72.084 133.884,71.894 134.015,71.704 134.146,71.515 134.277,71.325 134.407,71.136 134.538,70.947 134.669,70.758 134.800,70.569 134.931,70.380 135.062,70.191 135.192,70.003 135.323,69.815 135.454,69.627 135.585,69.439 135.716,69.251 135.847,69.064 135.977,68.877 136.108,68.690 136.239,68.503 136.370,68.317 136.501,68.130 136.632,67.944 136.762,67.759 136.893,67.573 137.024,67.388 137.155,67.203 137.286,67.019 137.417,66.835 137.547,66.651 137.678,66.467 137.809,66.284 137.940,66.101 138.071,65.918 138.202,65.736 138.332,65.554 138.463,65.373 138.594,65.192 138.725,65.011 138.856,64.831 138.987,64.651 139.117,64.472 139.248,64.292 139.379,64.114 139.510,63.936 139.641,63.758 139.772,63.581 139.902,63.404 140.033,63.227 140.164,63.051 140.295,62.876 140.426,62.701 140.557,62.526 140.687,62.352 140.818,62.179 140.949,62.006 141.080,61.833 141.211,61.661 141.342,61.490 141.472,61.319 141.603,61.149 141.734,60.979 141.865,60.809 141.996,60.641 142.127,60.472 142.257,60.305 142.388,60.138 142.519,59.971 142.650,59.805 142.781,59.640 142.912,59.475 143.042,59.311 143.173,59.148 143.304,58.985 143.435,58.823 143.566,58.661 143.697,58.500 143.827,58.339 143.958,58.180 144.089,58.020 144.220,57.862 144.351,57.704 144.482,57.547 144.612,57.390 144.743,57.234 144.874,57.079 145.005,56.925 145.136,56.771 145.267,56.618 145.397,56.465 145.528,56.313 145.659,56.162 145.790,56.012 145.921,55.862 146.052,55.713 146.182,55.565 146.313,55.417 146.444,55.270 146.575,55.124 146.706,54.978 146.837,54.834 146.967,54.689 147.098,54.546 147.229,54.404 147.360,54.262 147.491,54.121 147.622,53.980 147.752,53.840 147.883,53.702 148.014,53.563 148.145,53.426 148.276,53.289 148.407,53.153 148.537,53.018 148.668,52.884 148.799,52.750 148.930,52.617 149.061,52.485 149.192,52.354 149.322,52.223 149.453,52.093 149.584,51.964 149.715,51.836 149.846,51.708 149.977,51.581 150.107,51.455 150.238,51.330 150.369,51.206 150.500,51.082 150.631,50.959 150.762,50.837 150.892,50.715 151.023,50.595 151.154,50.475 151.285,50.356 151.416,50.238 151.547,50.120 151.677,50.003 151.808,49.887 151.939,49.772 152.070,49.658 152.201,49.544 152.332,49.431 152.462,49.319 152.593,49.208 152.724,49.098 152.855,48.988 152.986,48.879 153.117,48.771 153.247,48.663 153.378,48.557 153.509,48.451 153.640,48.346 153.771,48.242 153.902,48.138 154.032,48.035 154.163,47.933 154.294,47.832 154.425,47.732 154.556,47.632 154.687,47.533 154.817,47.435 154.948,47.337 155.079,47.241 155.210,47.145 155.341,47.050 155.472,46.955 155.602,46.862 155.733,46.769 155.864,46.677 155.995,46.585 156.126,46.494 156.257,46.405 156.387,46.315 156.518,46.227 156.649,46.139 156.780,46.052 156.911,45.966 157.042,45.881 157.172,45.796 157.303,45.712 157.434,45.629 157.565,45.546 157.696,45.464 157.827,45.383 157.957,45.302 158.088,45.223 158.219,45.144 158.350,45.065 158.481,44.988 158.612,44.911 158.742,44.835 158.873,44.759 159.004,44.684 159.135,44.610 159.266,44.537 159.397,44.464 159.527,44.392 159.658,44.320 159.789,44.249 159.920,44.179 160.051,44.110 160.182,44.041 160.312,43.973 160.443,43.906 160.574,43.839 160.705,43.773 160.836,43.707 160.967,43.642 161.097,43.578 161.228,43.515 161.359,43.452 161.490,43.389 161.621,43.328 161.752,43.267 161.882,43.206 162.013,43.146 162.144,43.087 162.275,43.028 162.406,42.970 162.537,42.913 162.667,42.856 162.798,42.800 162.929,42.744 163.060,42.689 163.191,42.635 163.322,42.581 163.452,42.528 163.583,42.475 163.714,42.423 163.845,42.371 163.976,42.320 164.107,42.270 164.237,42.220 164.368,42.170 164.499,42.121 164.630,42.073 164.761,42.025 164.892,41.978 165.022,41.931 165.153,41.885 165.284,41.840 165.415,41.794 165.546,41.750 165.677,41.706 165.807,41.662 165.938,41.619 166.069,41.576 166.200,41.534 166.331,41.493 166.462,41.452 166.592,41.411 166.723,41.371 166.854,41.331 166.985,41.292 167.116,41.253 167.247,41.215 167.377,41.177 167.508,41.140 167.639,41.103 167.770,41.066 167.901,41.030 168.032,40.995 168.162,40.959 168.293,40.925 168.424,40.890 168.555,40.857 168.686,40.823 168.817,40.790 168.947,40.758 169.078,40.725 169.209,40.694 169.340,40.662 169.471,40.631 169.602,40.601 169.732,40.570 169.863,40.541 169.994,40.511 170.125,40.482 170.256,40.453 170.387,40.425 170.517,40.397 170.648,40.370 170.779,40.343 170.910,40.316 171.041,40.289 171.172,40.263 171.302,40.237 171.433,40.212 171.564,40.187 171.695,40.162 171.826,40.138 171.957,40.114 172.087,40.090 172.218,40.066 172.349,40.043 172.480,40.021 172.611,39.998 172.742,39.976 172.872,39.954 173.003,39.933 173.134,39.911 173.265,39.890 173.396,39.870 173.527,39.849 173.657,39.829 173.788,39.810 173.919,39.790 174.050,39.771 174.181,39.752 174.312,39.733 174.442,39.715 174.573,39.697 174.704,39.679 174.835,39.661 174.966,39.644 175.097,39.627 175.227,39.610 175.358,39.593 175.489,39.577 175.620,39.561 175.751,39.545 175.882,39.529 176.012,39.514 176.143,39.499 176.274,39.484 176.405,39.469 176.536,39.455 176.667,39.440 176.797,39.426 176.928,39.412 177.059,39.399 177.190,39.385 177.321,39.372 177.452,39.359 177.582,39.346 177.713,39.334 177.844,39.321 177.975,39.309 178.106,39.297 178.237,39.285 178.367,39.274 178.498,39.262 178.629,39.251 178.760,39.240 178.891,39.229 179.022,39.218 179.152,39.208 179.283,39.197 179.414,39.187 179.545,39.177 179.676,39.167 179.807,39.157 179.937,39.148 180.068,39.138 180.199,39.129 180.330,39.120 180.461,39.111 180.592,39.102 180.722,39.093 180.853,39.085 180.984,39.076 181.115,39.068 181.246,39.060 181.377,39.052 181.507,39.044 181.638,39.036 181.769,39.029 181.900,39.021 182.031,39.014 182.162,39.007 182.292,39.000 182.423,38.993 182.554,38.986 182.685,38.979 182.816,38.973 182.947,38.966 183.077,38.960 183.208,38.954 183.339,38.947 183.470,38.941 183.601,38.935 183.732,38.930 183.862,38.924 183.993,38.918 184.124,38.913 184.255,38.907 184.386,38.902 184.517,38.897 184.647,38.892 184.778,38.887 184.909,38.882 185.040,38.877 185.171,38.872 185.302,38.867 185.432,38.863 185.563,38.858 185.694,38.854 185.825,38.849 185.956,38.845 186.087,38.841 186.217,38.837 186.348,38.833 186.479,38.829 186.610,38.825 186.741,38.821 186.872,38.817 187.002,38.813 187.133,38.810 187.264,38.806 187.395,38.803 187.526,38.799 187.657,38.796 187.787,38.793 187.918,38.790 188.049,38.786 188.180,38.783 188.311,38.780 188.442,38.777 188.572,38.774 188.703,38.771 188.834,38.769 188.965,38.766 189.096,38.763 189.227,38.761 189.357,38.758 189.488,38.755 189.619,38.753 189.750,38.750 189.881,38.748 190.012,38.746 190.142,38.743 190.273,38.741 190.404,38.739 190.535,38.737 190.666,38.735 190.797,38.732 190.927,38.730 191.058,38.728 191.189,38.726 191.320,38.725 191.451,38.723 191.582,38.721 191.712,38.719 191.843,38.717 191.974,38.715 192.105,38.714 192.236,38.712 192.367,38.710 192.497,38.709 192.628,38.707 192.759,38.706 192.890,38.704 193.021,38.703 193.152,38.701 193.282,38.700 193.413,38.699 193.544,38.697 193.675,38.696 193.806,38.695 193.937,38.693 194.067,38.692 194.198,38.691 194.329,38.690 194.460,38.689 194.591,38.687 194.722,38.686 194.852,38.685 194.983,38.684 195.114,38.683 195.245,38.682 195.376,38.681 195.507,38.680 195.637,38.679 195.768,38.678 195.899,38.677 196.030,38.676 196.161,38.675 196.292,38.675 196.422,38.674 196.553,38.673 196.684,38.672 196.815,38.671 196.946,38.671 197.077,38.670 197.207,38.669 197.338,38.668 197.469,38.668 197.600,38.667 197.731,38.666 197.862,38.666 197.992,38.665 198.123,38.664 198.254,38.664 198.385,38.663 198.516,38.663 198.647,38.662 198.777,38.662 198.908,38.661 199.039,38.660 199.170,38.660 199.301,38.659 199.432,38.659 199.562,38.658 199.693,38.658 199.824,38.657 199.955,38.657 200.086,38.657 200.217,38.656 200.347,38.656 200.478,38.655 200.609,38.655 200.740,38.655 200.871,38.654 201.002,38.654 201.132,38.653 201.263,38.653 201.394,38.653 201.525,38.652 201.656,38.652 201.787,38.652 201.917,38.651 202.048,38.651 202.179,38.651 202.310,38.650 202.441,38.650 202.572,38.650 202.702,38.650 202.833,38.649 202.964,38.649 203.095,38.649 203.226,38.649 203.357,38.648 203.487,38.648 203.618,38.648 203.749,38.648 203.880,38.647 204.011,38.647 204.142,38.647 204.272,38.647 204.403,38.647 204.534,38.646 204.665,38.646 204.796,38.646 204.927,38.646 205.057,38.646 205.188,38.646 205.319,38.645 205.450,38.645 205.581,38.645 205.712,38.645 205.842,38.645 205.973,38.645 206.104,38.644 206.235,38.644 206.366,38.644 206.497,38.644 206.627,38.644 206.758,38.644 206.889,38.644 207.020,38.644 207.151,38.643 207.282,38.643 207.412,38.643 207.543,38.643 207.674,38.643 207.805,38.643 207.936,38.643 208.067,38.643 208.197,38.643 208.328,38.642 208.459,38.642 208.590,38.642 208.721,38.642 208.852,38.642 208.982,38.642 209.113,38.642 209.244,38.642 209.375,38.642 209.506,38.642 209.637,38.642 209.767,38.642 209.898,38.642 210.029,38.641 210.160,38.641 210.291,38.641 210.422,38.641 210.552,38.641 210.683,38.641 210.814,38.641 210.945,38.641 211.076,38.641 211.207,38.641 211.337,38.641 211.468,38.641 211.599,38.641 211.730,38.641 211.861,38.641 211.992,38.641 212.122,38.641 212.253,38.641 212.384,38.641 212.515,38.641 212.646,38.641 212.777,38.640 212.907,38.640 213.038,38.640 213.169,38.640 213.300,38.640 213.431,38.640 213.562,38.640 213.692,38.640 213.823,38.640 213.954,38.640 214.085,38.640 214.216,38.640 214.347,38.640 214.477,38.640 214.608,38.640 214.739,38.640 214.870,38.640 215.001,38.640 215.132,38.640 215.262,38.640 215.393,38.640 215.524,38.640 215.655,38.640 215.786,38.640 215.917,38.640 216.047,38.640 216.178,38.640 216.309,38.640 216.440,38.640 216.571,38.640 216.702,38.640 216.832,38.640 216.963,38.640 217.094,38.640 217.225,38.640 217.356,38.640 217.487,38.640 217.617,38.640 217.748,38.640 217.879,38.640 218.010,38.640 218.141,38.640 218.272,38.640 218.402,38.640 218.533,38.640 218.664,38.640 218.795,38.640 218.926,38.640 219.057,38.640 219.187,38.640 219.318,38.640 219.449,38.639 219.580,38.639 219.711,38.639 219.842,38.639 219.972,38.639 220.103,38.639 220.234,38.639 220.365,38.639 220.496,38.639 220.627,38.639 220.757,38.639 220.888,38.639 221.019,38.639 221.150,38.639 221.281,38.639 221.412,38.639 221.542,38.639 221.673,38.639 221.804,38.639 221.935,38.639 222.066,38.639 222.197,38.639 222.327,38.639 222.458,38.639 222.589,38.639 222.720,38.639 222.851,38.639 222.982,38.639 223.112,38.639 223.243,38.639 223.374,38.639 223.505,38.639 223.636,38.639 223.767,38.639 223.897,38.639 224.028,38.639 224.159,38.639 224.290,38.639 224.421,38.639 224.552,38.639 224.682,38.639 224.813,38.639 224.944,38.639 225.075,38.639 225.206,38.639 225.337,38.639 225.467,38.639 225.598,38.639 225.729,38.639 225.860,38.639 225.991,38.639 226.122,38.639 226.252,38.639 226.383,38.639 226.514,38.639 226.645,38.639 226.776,38.639 226.907,38.639 227.037,38.639 227.168,38.639 227.299,38.639 227.430,38.639 227.561,38.639 227.692,38.639 227.822,38.639 227.953,38.639 228.084,38.639 228.215,38.639 228.346,38.639 228.477,38.639 228.607,38.639 228.738,38.639 228.869,38.639 229.000,38.639 229.131,38.639 229.262,38.639 229.392,38.639 229.523,38.639 229.654,38.639 229.785,38.639 229.916,38.639 230.047,38.639 230.177,38.639 230.308,38.639 230.439,38.639 230.570,38.639 230.701,38.639 230.832,38.639 230.962,38.639 231.093,38.639 231.224,38.639 231.355,38.639 231.486,38.639 231.617,38.639 231.747,38.639 231.878,38.639 232.009,38.639 232.140,38.639 232.271,38.639 232.402,38.639 232.532,38.639 232.663,38.639 232.794,38.639 232.925,38.639 233.056,38.639 233.187,38.639 233.317,38.639 233.448,38.639 233.579,38.639 233.710,38.639 233.841,38.639 233.972,38.639 234.102,38.639 234.233,38.639 234.364,38.639 234.495,38.639 234.626,38.639 234.757,38.639 234.887,38.639 235.018,38.639 235.149,38.639 235.280,38.639 235.411,38.639 235.542,38.639 235.672,38.639 235.803,38.639 235.934,38.639 236.065,38.639 236.196,38.639 236.327,38.639 236.457,38.639 236.588,38.639 236.719,38.639 236.850,38.639 236.981,38.639 237.112,38.639 237.242,38.639 237.373,38.639 237.504,38.639 237.635,38.639 237.766,38.639 237.897,38.639 238.027,38.639 238.158,38.639 238.289,38.639 238.420,38.639 238.551,38.639 238.682,38.639 238.812,38.639 238.943,38.639 239.074,38.639 239.205,38.639 239.336,38.639 239.467,38.639 239.597,38.639 239.728,38.639 239.859,38.639 239.990,38.639 240.121,38.639 240.252,38.639 240.382,38.639 240.513,38.639 240.644,38.639 240.775,38.639 240.906,38.639 241.037,38.639 241.167,38.639 241.298,38.639 241.429,38.639 241.560,38.639 241.691,38.639 241.822,38.639 241.952,38.639 242.083,38.639 242.214,38.639 242.345,38.639 242.476,38.639 242.607,38.639 242.737,38.639 242.868,38.639 242.999,38.639 243.130,38.639 243.261,38.639 243.392,38.639 243.522,38.639 243.653,38.639 243.784,38.639 243.915,38.639 244.046,38.639 244.177,38.639 244.307,38.639 244.438,38.639 244.569,38.639 244.700,38.639 244.831,38.639 244.962,38.639 245.092,38.639 245.223,38.639 245.354,38.639 245.485,38.639 245.616,38.639 245.747,38.639 245.877,38.639 246.008,38.639 246.139,38.639 246.270,38.639 246.401,38.639 246.532,38.639 246.662,38.639 "/>
<g>
</g>
</g>
<g id="ID000012" clip-path="url(#ID000001)" >
      <polyline fill="none" stroke="#000000" stroke-width="2.0pt" stroke-dasharray="8.0,2.0" points="89.819,108.384 90.083,108.349 90.347,108.313 90.611,108.276 90.875,108.238 91.140,108.199 91.404,108.158 91.668,108.116 91.932,108.073 92.196,108.029 92.460,107.984 92.724,107.937 92.988,107.889 93.252,107.840 93.516,107.789 93.780,107.737 94.044,107.683 94.308,107.628 94.572,107.572 94.836,107.513 95.100,107.454 95.364,107.393 95.628,107.330 95.892,107.265 96.156,107.199 96.420,107.131 96.684,107.062 96.949,106.991 97.213,106.917 97.477,106.842 97.741,106.766 98.005,106.687 98.269,106.606 98.533,106.524 98.797,106.439 99.061,106.353 99.325,106.264 99.589,106.173 99.853,106.080 100.117,105.986 100.381,105.888 100.645,105.789 100.909,105.687 101.173,105.584 101.437,105.477 101.701,105.369 101.965,105.258 102.229,105.145 102.493,105.029 102.758,104.911 103.022,104.791 103.286,104.667 103.550,104.542 103.814,104.414 104.078,104.283 104.342,104.149 104.606,104.013 104.870,103.875 105.134,103.733 105.398,103.589 105.662,103.442 105.926,103.292 106.190,103.140 106.454,102.984 106.718,102.826 106.982,102.665 107.246,102.501 107.510,102.334 107.774,102.164 108.038,101.991 108.302,101.815 108.567,101.636 108.831,101.455 109.095,101.270 109.359,101.082 109.623,100.891 109.887,100.697 110.151,100.500 110.415,100.299 110.679,100.096 110.943,99.890 111.207,99.680 111.471,99.467 111.735,99.251 111.999,99.032 112.263,98.810 112.527,98.585 112.791,98.356 113.055,98.124 113.319,97.889 113.583,97.651 113.847,97.410 114.112,97.166 114.376,96.918 114.640,96.668 114.904,96.414 115.168,96.157 115.432,95.897 115.696,95.633 115.960,95.367 "/>
<g>
</g>
</g>
<g id="ID000013" clip-path="url(#ID000001)" >
      <polyline fill="none" stroke="#000000" stroke-width="2.0pt" stroke-dasharray="8.0,2.0" points="246.662,38.639 246.927,38.639 247.191,38.639 247.455,38.639 247.719,38.639 247.983,38.639 248.247,38.639 248.511,38.639 248.775,38.639 249.039,38.639 249.303,38.639 249.567,38.639 249.831,38.639 250.095,38.639 250.359,38.639 250.623,38.639 250.887,38.639 251.151,38.639 251.415,38.639 251.679,38.639 251.943,38.639 252.207,38.639 252.471,38.639 252.736,38.639 253.000,38.639 253.264,38.639 253.528,38.639 253.792,38.639 254.056,38.639 254.320,38.639 254.584,38.639 254.848,38.639 255.112,38.639 255.376,38.639 255.640,38.639 255.904,38.639 256.168,38.639 256.432,38.639 256.696,38.639 256.960,38.639 257.224,38.639 257.488,38.639 257.752,38.639 258.016,38.639 258.280,38.639 258.545,38.639 258.809,38.639 259.073,38.639 259.337,38.639 259.601,38.639 259.865,38.639 260.129,38.639 260.393,38.639 260.657,38.639 260.921,38.639 261.185,38.639 261.449,38.639 261.713,38.639 261.977,38.639 262.241,38.639 262.505,38.639 262.769,38.639 263.033,38.639 263.297,38.639 263.561,38.639 263.825,38.639 264.089,38.639 264.354,38.639 264.618,38.639 264.882,38.639 265.146,38.639 265.410,38.639 265.674,38.639 265.938,38.639 266.202,38.639 266.466,38.639 266.730,38.639 266.994,38.639 267.258,38.639 267.522,38.639 267.786,38.639 268.050,38.639 268.314,38.639 268.578,38.639 268.842,38.639 269.106,38.639 269.370,38.639 269.634,38.639 269.898,38.639 270.163,38.639 270.427,38.639 270.691,38.639 270.955,38.639 271.219,38.639 271.483,38.639 271.747,38.639 272.011,38.639 272.275,38.639 272.539,38.639 272.803,38.639 "/>
<g>
</g>
</g>
<g id="ID000014" clip-path="url(#ID000001)" >
      <polyline fill="none" stroke="#000000" stroke-width="0.5pt" stroke-dasharray="none" points="132.428,147.188 132.428,74.010 "/>
<g>
</g>
</g>
<g id="ID000015" clip-path="url(#ID000001)" >
      <polyline fill="none" stroke="#000000" stroke-width="0.5pt" stroke-dasharray="2.0,2.0" points="89.819,38.639 272.803,38.639 "/>
<g>
</g>
</g>
<g id="ID000016" clip-path="url(#ID000001)" >
      <polyline fill="none" stroke="#000000" stroke-width="0.5pt" stroke-dasharray="2.0,2.0" points="89.819,109.380 272.803,109.380 "/>
<g>
</g>
</g>
<g id="ID000017" >
  <g transform="translate(72.320,85.781)">
    <g transform="rotate(-90.0)">
      <text x="0.000" y="0.000" font-family="Helvetica" text-anchor="middle" font-size="9pt" fill="#000000" >Proportion correct</text>
    </g>
  </g>
</g>
<g id="ID000018" >
  <g transform="translate(180.376,181.875)">
    <g transform="rotate(-0.0)">
      <text x="0.000" y="0.000" font-family="Helvetica" text-anchor="middle" font-size="9pt" fill="#000000" >Disparity difference (arcmin)</text>
    </g>
  </g>
</g>
<g id="ID000019" clip-path="url(#ID000001)" >
      <polyline fill="none" stroke="#000000" stroke-width="0.5pt" stroke-dasharray="8.0,2.0" points="105.068,90.085 257.554,90.085 "/>
<g>
</g>
</g>
<g id="ID000020" >
  <g transform="translate(181.311,13.125)">
    <g transform="rotate(-0.0)">
      <text x="0.000" y="0.000" font-family="Helvetica" text-anchor="middle" font-size="9pt" fill="#000000" >AW</text>
    </g>
  </g>
</g>
    </g>
    <g>
      <polyline fill="none" stroke="#000000" stroke-width="0.5pt" stroke-dasharray="none" points="115.960,147.188 115.960,151.000 "/>
      <polyline fill="none" stroke="#000000" stroke-width="0.5pt" stroke-dasharray="none" points="148.635,147.188 148.635,151.000 "/>
      <polyline fill="none" stroke="#000000" stroke-width="0.5pt" stroke-dasharray="none" points="181.311,147.188 181.311,151.000 "/>
      <polyline fill="none" stroke="#000000" stroke-width="0.5pt" stroke-dasharray="none" points="213.987,147.188 213.987,151.000 "/>
      <polyline fill="none" stroke="#000000" stroke-width="0.5pt" stroke-dasharray="none" points="246.662,147.188 246.662,151.000 "/>
      <polyline fill="none" stroke="#000000" stroke-width="0.5pt" stroke-dasharray="none" points="105.068,147.188 257.554,147.188 "/>
  <g transform="translate(115.960,163.903)">
    <g transform="rotate(-0.0)">
      <text x="0.000" y="0.000" font-family="Helvetica" text-anchor="middle" font-size="9pt" fill="#000000" >0</text>
    </g>
  </g>
  <g transform="translate(148.635,163.903)">
    <g transform="rotate(-0.0)">
      <text x="0.000" y="0.000" font-family="Helvetica" text-anchor="middle" font-size="9pt" fill="#000000" >3</text>
    </g>
  </g>
  <g transform="translate(181.311,163.903)">
    <g transform="rotate(-0.0)">
      <text x="0.000" y="0.000" font-family="Helvetica" text-anchor="middle" font-size="9pt" fill="#000000" >6</text>
    </g>
  </g>
  <g transform="translate(213.987,163.903)">
    <g transform="rotate(-0.0)">
      <text x="0.000" y="0.000" font-family="Helvetica" text-anchor="middle" font-size="9pt" fill="#000000" >9</text>
    </g>
  </g>
  <g transform="translate(246.662,163.903)">
    <g transform="rotate(-0.0)">
      <text x="0.000" y="0.000" font-family="Helvetica" text-anchor="middle" font-size="9pt" fill="#000000" >12</text>
    </g>
  </g>
      <polyline fill="none" stroke="#000000" stroke-width="0.5pt" stroke-dasharray="none" points="105.068,147.188 101.256,147.188 "/>
      <polyline fill="none" stroke="#000000" stroke-width="0.5pt" stroke-dasharray="none" points="105.068,90.085 101.256,90.085 "/>
      <polyline fill="none" stroke="#000000" stroke-width="0.5pt" stroke-dasharray="none" points="105.068,32.983 101.256,32.983 "/>
      <polyline fill="none" stroke="#000000" stroke-width="0.5pt" stroke-dasharray="none" points="105.068,147.188 105.068,21.563 "/>
  <g transform="translate(98.206,151.406)">
    <g transform="rotate(-0.0)">
      <text x="0.000" y="0.000" font-family="Helvetica" text-anchor="end" font-size="9pt" fill="#000000" >0</text>
    </g>
  </g>
  <g transform="translate(98.206,94.304)">
    <g transform="rotate(-0.0)">
      <text x="0.000" y="0.000" font-family="Helvetica" text-anchor="end" font-size="9pt" fill="#000000" >0.5</text>
    </g>
  </g>
  <g transform="translate(98.206,37.202)">
    <g transform="rotate(-0.0)">
      <text x="0.000" y="0.000" font-family="Helvetica" text-anchor="end" font-size="9pt" fill="#000000" >1</text>
    </g>
  </g>
      <polyline fill="none" stroke="#000000" stroke-width="0.5pt" stroke-dasharray="none" points="105.068,147.188 105.068,150.328 "/>
      <polyline fill="none" stroke="#000000" stroke-width="0.5pt" stroke-dasharray="none" points="105.068,147.188 105.068,150.328 "/>
      <polyline fill="none" stroke="#000000" stroke-width="0.5pt" stroke-dasharray="none" points="105.068,147.188 105.068,150.328 "/>
      <polyline fill="none" stroke="#000000" stroke-width="0.5pt" stroke-dasharray="none" points="105.068,147.188 105.068,147.188 "/>
    </g>
  </g>
  <g id ="ID000021">
  <clipPath id="ID000022">
    <rect x="315.666" y="21.563" width="152.486" height="125.625"/>
  </clipPath>
      <polygon fill="#ffffff" fill-opacity="1.00" stroke="none" stroke-width="0.5pt" stroke-opacity="1.00" stroke-dasharray="none" points="315.666,147.188 468.152,147.188 468.152,21.563 315.666,21.563 "/>
      <polygon fill="#ffffff" fill-opacity="1.00" stroke="none" stroke-width="0.5pt" stroke-opacity="1.00" stroke-dasharray="none" points="315.666,21.563 468.152,21.563 468.152,21.563 315.666,21.563 "/>
      <polygon fill="#ffffff" fill-opacity="1.00" stroke="none" stroke-width="0.5pt" stroke-opacity="1.00" stroke-dasharray="none" points="315.666,147.188 315.666,147.188 315.666,21.563 315.666,21.563 "/>
    <g>
<g id="ID000023" clip-path="url(#ID000022)" >
<g>
<circle cx="326.558" cy="102.933" r="4.623" fill="#b2b2b2" stroke="none" stroke-width="0.5pt" />
</g>
</g>
<g id="ID000024" clip-path="url(#ID000022)" >
<g>
<circle cx="342.895" cy="95.082" r="6.537" fill="#b2b2b2" stroke="none" stroke-width="0.5pt" />
</g>
</g>
<g id="ID000025" clip-path="url(#ID000022)" >
<g>
<circle cx="359.233" cy="68.672" r="6.537" fill="#b2b2b2" stroke="none" stroke-width="0.5pt" />
</g>
</g>
<g id="ID000026" clip-path="url(#ID000022)" >
<g>
<circle cx="375.571" cy="51.541" r="6.537" fill="#b2b2b2" stroke="none" stroke-width="0.5pt" />
</g>
</g>
<g id="ID000027" clip-path="url(#ID000022)" >
<g>
<circle cx="391.909" cy="42.262" r="6.537" fill="#b2b2b2" stroke="none" stroke-width="0.5pt" />
</g>
</g>
<g id="ID000028" clip-path="url(#ID000022)" >
<g>
<circle cx="408.247" cy="32.983" r="4.623" fill="#b2b2b2" stroke="none" stroke-width="0.5pt" />
</g>
</g>
<g id="ID000029" clip-path="url(#ID000022)" >
<g>
<circle cx="424.585" cy="32.983" r="4.623" fill="#b2b2b2" stroke="none" stroke-width="0.5pt" />
</g>
</g>
<g id="ID000030" clip-path="url(#ID000022)" >
<g>
<circle cx="440.922" cy="32.983" r="4.623" fill="#b2b2b2" stroke="none" stroke-width="0.5pt" />
</g>
</g>
<g id="ID000031" clip-path="url(#ID000022)" >
<g>
<circle cx="457.260" cy="32.983" r="4.623" fill="#b2b2b2" stroke="none" stroke-width="0.5pt" />
</g>
</g>
<g id="ID000032" clip-path="url(#ID000022)" >
      <polyline fill="none" stroke="#000000" stroke-width="2.0pt" stroke-dasharray="none" points="326.558,103.567 326.688,103.505 326.819,103.442 326.950,103.379 327.081,103.315 327.212,103.251 327.343,103.186 327.473,103.121 327.604,103.055 327.735,102.989 327.866,102.922 327.997,102.855 328.128,102.787 328.258,102.719 328.389,102.650 328.520,102.581 328.651,102.511 328.782,102.441 328.913,102.370 329.043,102.299 329.174,102.227 329.305,102.154 329.436,102.081 329.567,102.008 329.698,101.934 329.828,101.859 329.959,101.784 330.090,101.708 330.221,101.632 330.352,101.555 330.483,101.478 330.613,101.400 330.744,101.322 330.875,101.243 331.006,101.164 331.137,101.084 331.268,101.003 331.398,100.922 331.529,100.840 331.660,100.758 331.791,100.675 331.922,100.592 332.053,100.508 332.183,100.424 332.314,100.339 332.445,100.253 332.576,100.167 332.707,100.080 332.838,99.993 332.968,99.905 333.099,99.817 333.230,99.728 333.361,99.639 333.492,99.548 333.623,99.458 333.753,99.367 333.884,99.275 334.015,99.183 334.146,99.090 334.277,98.996 334.408,98.902 334.538,98.808 334.669,98.712 334.800,98.617 334.931,98.520 335.062,98.423 335.193,98.326 335.323,98.228 335.454,98.129 335.585,98.030 335.716,97.930 335.847,97.830 335.978,97.729 336.108,97.627 336.239,97.525 336.370,97.423 336.501,97.319 336.632,97.215 336.763,97.111 336.893,97.006 337.024,96.901 337.155,96.794 337.286,96.688 337.417,96.580 337.548,96.473 337.678,96.364 337.809,96.255 337.940,96.146 338.071,96.035 338.202,95.925 338.333,95.813 338.463,95.702 338.594,95.589 338.725,95.476 338.856,95.362 338.987,95.248 339.118,95.134 339.248,95.018 339.379,94.902 339.510,94.786 339.641,94.669 339.772,94.551 339.903,94.433 340.033,94.315 340.164,94.195 340.295,94.076 340.426,93.955 340.557,93.834 340.688,93.713 340.818,93.591 340.949,93.468 341.080,93.345 341.211,93.221 341.342,93.097 341.473,92.972 341.603,92.847 341.734,92.721 341.865,92.595 341.996,92.468 342.127,92.340 342.258,92.212 342.388,92.083 342.519,91.954 342.650,91.824 342.781,91.694 342.912,91.563 343.043,91.432 343.173,91.300 343.304,91.168 343.435,91.035 343.566,90.902 343.697,90.768 343.828,90.634 343.958,90.499 344.089,90.363 344.220,90.227 344.351,90.091 344.482,89.954 344.613,89.816 344.744,89.678 344.874,89.540 345.005,89.401 345.136,89.261 345.267,89.121 345.398,88.981 345.529,88.840 345.659,88.699 345.790,88.557 345.921,88.414 346.052,88.272 346.183,88.128 346.314,87.985 346.444,87.840 346.575,87.696 346.706,87.550 346.837,87.405 346.968,87.259 347.099,87.112 347.229,86.965 347.360,86.818 347.491,86.670 347.622,86.522 347.753,86.373 347.884,86.224 348.014,86.074 348.145,85.924 348.276,85.774 348.407,85.623 348.538,85.472 348.669,85.320 348.799,85.168 348.930,85.015 349.061,84.863 349.192,84.709 349.323,84.556 349.454,84.402 349.584,84.247 349.715,84.092 349.846,83.937 349.977,83.782 350.108,83.626 350.239,83.469 350.369,83.313 350.500,83.156 350.631,82.998 350.762,82.841 350.893,82.683 351.024,82.524 351.154,82.366 351.285,82.207 351.416,82.047 351.547,81.887 351.678,81.727 351.809,81.567 351.939,81.406 352.070,81.246 352.201,81.084 352.332,80.923 352.463,80.761 352.594,80.599 352.724,80.436 352.855,80.274 352.986,80.111 353.117,79.948 353.248,79.784 353.379,79.620 353.509,79.456 353.640,79.292 353.771,79.128 353.902,78.963 354.033,78.798 354.164,78.633 354.294,78.467 354.425,78.302 354.556,78.136 354.687,77.970 354.818,77.804 354.949,77.637 355.079,77.470 355.210,77.304 355.341,77.136 355.472,76.969 355.603,76.802 355.734,76.634 355.864,76.467 355.995,76.299 356.126,76.131 356.257,75.962 356.388,75.794 356.519,75.626 356.649,75.457 356.780,75.288 356.911,75.119 357.042,74.950 357.173,74.781 357.304,74.612 357.434,74.443 357.565,74.273 357.696,74.104 357.827,73.934 357.958,73.764 358.089,73.595 358.219,73.425 358.350,73.255 358.481,73.085 358.612,72.915 358.743,72.745 358.874,72.574 359.004,72.404 359.135,72.234 359.266,72.064 359.397,71.894 359.528,71.723 359.659,71.553 359.789,71.383 359.920,71.212 360.051,71.042 360.182,70.872 360.313,70.701 360.444,70.531 360.574,70.361 360.705,70.191 360.836,70.020 360.967,69.850 361.098,69.680 361.229,69.510 361.359,69.340 361.490,69.170 361.621,69.000 361.752,68.830 361.883,68.661 362.014,68.491 362.144,68.321 362.275,68.152 362.406,67.982 362.537,67.813 362.668,67.644 362.799,67.475 362.929,67.306 363.060,67.137 363.191,66.968 363.322,66.800 363.453,66.631 363.584,66.463 363.714,66.295 363.845,66.127 363.976,65.959 364.107,65.791 364.238,65.624 364.369,65.456 364.499,65.289 364.630,65.122 364.761,64.956 364.892,64.789 365.023,64.623 365.154,64.456 365.284,64.290 365.415,64.125 365.546,63.959 365.677,63.794 365.808,63.629 365.939,63.464 366.069,63.299 366.200,63.135 366.331,62.970 366.462,62.807 366.593,62.643 366.724,62.479 366.854,62.316 366.985,62.154 367.116,61.991 367.247,61.829 367.378,61.667 367.509,61.505 367.639,61.343 367.770,61.182 367.901,61.021 368.032,60.861 368.163,60.701 368.294,60.541 368.424,60.381 368.555,60.222 368.686,60.063 368.817,59.904 368.948,59.746 369.079,59.588 369.209,59.431 369.340,59.273 369.471,59.117 369.602,58.960 369.733,58.804 369.864,58.648 369.994,58.493 370.125,58.338 370.256,58.183 370.387,58.029 370.518,57.875 370.649,57.721 370.779,57.568 370.910,57.415 371.041,57.263 371.172,57.111 371.303,56.959 371.434,56.808 371.564,56.658 371.695,56.507 371.826,56.358 371.957,56.208 372.088,56.059 372.219,55.910 372.349,55.762 372.480,55.615 372.611,55.467 372.742,55.321 372.873,55.174 373.004,55.028 373.134,54.883 373.265,54.738 373.396,54.593 373.527,54.449 373.658,54.306 373.789,54.162 373.919,54.020 374.050,53.878 374.181,53.736 374.312,53.595 374.443,53.454 374.574,53.314 374.704,53.174 374.835,53.034 374.966,52.896 375.097,52.757 375.228,52.620 375.359,52.482 375.489,52.345 375.620,52.209 375.751,52.073 375.882,51.938 376.013,51.803 376.144,51.669 376.274,51.535 376.405,51.402 376.536,51.270 376.667,51.137 376.798,51.006 376.929,50.875 377.059,50.744 377.190,50.614 377.321,50.485 377.452,50.356 377.583,50.227 377.714,50.099 377.844,49.972 377.975,49.845 378.106,49.719 378.237,49.593 378.368,49.468 378.499,49.343 378.629,49.219 378.760,49.096 378.891,48.973 379.022,48.850 379.153,48.729 379.284,48.607 379.414,48.486 379.545,48.366 379.676,48.247 379.807,48.128 379.938,48.009 380.069,47.891 380.199,47.774 380.330,47.657 380.461,47.541 380.592,47.425 380.723,47.310 380.854,47.196 380.984,47.082 381.115,46.968 381.246,46.855 381.377,46.743 381.508,46.631 381.639,46.520 381.769,46.410 381.900,46.300 382.031,46.190 382.162,46.082 382.293,45.973 382.424,45.866 382.554,45.759 382.685,45.652 382.816,45.546 382.947,45.441 383.078,45.336 383.209,45.232 383.339,45.128 383.470,45.025 383.601,44.923 383.732,44.821 383.863,44.720 383.994,44.619 384.124,44.519 384.255,44.419 384.386,44.320 384.517,44.222 384.648,44.124 384.779,44.026 384.909,43.930 385.040,43.834 385.171,43.738 385.302,43.643 385.433,43.549 385.564,43.455 385.694,43.361 385.825,43.269 385.956,43.177 386.087,43.085 386.218,42.994 386.349,42.904 386.479,42.814 386.610,42.724 386.741,42.636 386.872,42.548 387.003,42.460 387.134,42.373 387.264,42.286 387.395,42.200 387.526,42.115 387.657,42.030 387.788,41.946 387.919,41.862 388.049,41.779 388.180,41.697 388.311,41.615 388.442,41.533 388.573,41.452 388.704,41.372 388.834,41.292 388.965,41.213 389.096,41.134 389.227,41.056 389.358,40.978 389.489,40.901 389.619,40.825 389.750,40.749 389.881,40.673 390.012,40.598 390.143,40.524 390.274,40.450 390.404,40.377 390.535,40.304 390.666,40.232 390.797,40.160 390.928,40.089 391.059,40.018 391.189,39.948 391.320,39.878 391.451,39.809 391.582,39.740 391.713,39.672 391.844,39.605 391.974,39.538 392.105,39.471 392.236,39.405 392.367,39.339 392.498,39.274 392.629,39.210 392.759,39.146 392.890,39.082 393.021,39.019 393.152,38.957 393.283,38.895 393.414,38.833 393.544,38.772 393.675,38.711 393.806,38.651 393.937,38.592 394.068,38.532 394.199,38.474 394.329,38.416 394.460,38.358 394.591,38.301 394.722,38.244 394.853,38.188 394.984,38.132 395.114,38.076 395.245,38.021 395.376,37.967 395.507,37.913 395.638,37.859 395.769,37.806 395.899,37.754 396.030,37.702 396.161,37.650 396.292,37.599 396.423,37.548 396.554,37.497 396.684,37.447 396.815,37.398 396.946,37.349 397.077,37.300 397.208,37.252 397.339,37.204 397.469,37.157 397.600,37.110 397.731,37.063 397.862,37.017 397.993,36.971 398.124,36.926 398.254,36.881 398.385,36.836 398.516,36.792 398.647,36.749 398.778,36.705 398.909,36.663 399.039,36.620 399.170,36.578 399.301,36.536 399.432,36.495 399.563,36.454 399.694,36.414 399.824,36.373 399.955,36.334 400.086,36.294 400.217,36.255 400.348,36.216 400.479,36.178 400.609,36.140 400.740,36.103 400.871,36.066 401.002,36.029 401.133,35.992 401.264,35.956 401.394,35.920 401.525,35.885 401.656,35.850 401.787,35.815 401.918,35.781 402.049,35.747 402.179,35.713 402.310,35.680 402.441,35.647 402.572,35.614 402.703,35.582 402.834,35.550 402.964,35.518 403.095,35.487 403.226,35.456 403.357,35.425 403.488,35.394 403.619,35.364 403.749,35.335 403.880,35.305 404.011,35.276 404.142,35.247 404.273,35.218 404.404,35.190 404.534,35.162 404.665,35.135 404.796,35.107 404.927,35.080 405.058,35.053 405.189,35.027 405.319,35.001 405.450,34.975 405.581,34.949 405.712,34.924 405.843,34.898 405.974,34.874 406.104,34.849 406.235,34.825 406.366,34.801 406.497,34.777 406.628,34.753 406.759,34.730 406.889,34.707 407.020,34.684 407.151,34.662 407.282,34.640 407.413,34.618 407.544,34.596 407.674,34.574 407.805,34.553 407.936,34.532 408.067,34.511 408.198,34.491 408.329,34.471 408.459,34.451 408.590,34.431 408.721,34.411 408.852,34.392 408.983,34.373 409.114,34.354 409.244,34.335 409.375,34.316 409.506,34.298 409.637,34.280 409.768,34.262 409.899,34.245 410.029,34.227 410.160,34.210 410.291,34.193 410.422,34.176 410.553,34.160 410.684,34.143 410.814,34.127 410.945,34.111 411.076,34.095 411.207,34.079 411.338,34.064 411.469,34.049 411.599,34.034 411.730,34.019 411.861,34.004 411.992,33.989 412.123,33.975 412.254,33.961 412.384,33.947 412.515,33.933 412.646,33.919 412.777,33.906 412.908,33.893 413.039,33.880 413.169,33.867 413.300,33.854 413.431,33.841 413.562,33.829 413.693,33.816 413.824,33.804 413.954,33.792 414.085,33.780 414.216,33.768 414.347,33.757 414.478,33.745 414.609,33.734 414.739,33.723 414.870,33.712 415.001,33.701 415.132,33.691 415.263,33.680 415.394,33.670 415.524,33.659 415.655,33.649 415.786,33.639 415.917,33.629 416.048,33.620 416.179,33.610 416.309,33.600 416.440,33.591 416.571,33.582 416.702,33.573 416.833,33.564 416.964,33.555 417.094,33.546 417.225,33.537 417.356,33.529 417.487,33.520 417.618,33.512 417.749,33.504 417.879,33.496 418.010,33.488 418.141,33.480 418.272,33.472 418.403,33.465 418.534,33.457 418.664,33.450 418.795,33.443 418.926,33.435 419.057,33.428 419.188,33.421 419.319,33.414 419.449,33.407 419.580,33.401 419.711,33.394 419.842,33.388 419.973,33.381 420.104,33.375 420.234,33.369 420.365,33.362 420.496,33.356 420.627,33.350 420.758,33.344 420.889,33.339 421.019,33.333 421.150,33.327 421.281,33.322 421.412,33.316 421.543,33.311 421.674,33.305 421.804,33.300 421.935,33.295 422.066,33.290 422.197,33.285 422.328,33.280 422.459,33.275 422.589,33.270 422.720,33.265 422.851,33.261 422.982,33.256 423.113,33.252 423.244,33.247 423.374,33.243 423.505,33.238 423.636,33.234 423.767,33.230 423.898,33.226 424.029,33.222 424.159,33.218 424.290,33.214 424.421,33.210 424.552,33.206 424.683,33.202 424.814,33.198 424.944,33.195 425.075,33.191 425.206,33.188 425.337,33.184 425.468,33.181 425.599,33.177 425.729,33.174 425.860,33.171 425.991,33.167 426.122,33.164 426.253,33.161 426.384,33.158 426.514,33.155 426.645,33.152 426.776,33.149 426.907,33.146 427.038,33.143 427.169,33.141 427.299,33.138 427.430,33.135 427.561,33.132 427.692,33.130 427.823,33.127 427.954,33.125 428.084,33.122 428.215,33.120 428.346,33.117 428.477,33.115 428.608,33.113 428.739,33.110 428.869,33.108 429.000,33.106 429.131,33.104 429.262,33.101 429.393,33.099 429.524,33.097 429.654,33.095 429.785,33.093 429.916,33.091 430.047,33.089 430.178,33.087 430.309,33.085 430.439,33.083 430.570,33.082 430.701,33.080 430.832,33.078 430.963,33.076 431.094,33.075 431.224,33.073 431.355,33.071 431.486,33.070 431.617,33.068 431.748,33.066 431.879,33.065 432.009,33.063 432.140,33.062 432.271,33.060 432.402,33.059 432.533,33.058 432.664,33.056 432.794,33.055 432.925,33.053 433.056,33.052 433.187,33.051 433.318,33.050 433.449,33.048 433.579,33.047 433.710,33.046 433.841,33.045 433.972,33.044 434.103,33.042 434.234,33.041 434.364,33.040 434.495,33.039 434.626,33.038 434.757,33.037 434.888,33.036 435.019,33.035 435.149,33.034 435.280,33.033 435.411,33.032 435.542,33.031 435.673,33.030 435.804,33.029 435.934,33.028 436.065,33.027 436.196,33.027 436.327,33.026 436.458,33.025 436.589,33.024 436.719,33.023 436.850,33.022 436.981,33.022 437.112,33.021 437.243,33.020 437.374,33.019 437.504,33.019 437.635,33.018 437.766,33.017 437.897,33.017 438.028,33.016 438.159,33.015 438.289,33.015 438.420,33.014 438.551,33.013 438.682,33.013 438.813,33.012 438.944,33.012 439.074,33.011 439.205,33.010 439.336,33.010 439.467,33.009 439.598,33.009 439.729,33.008 439.859,33.008 439.990,33.007 440.121,33.007 440.252,33.006 440.383,33.006 440.514,33.005 440.644,33.005 440.775,33.004 440.906,33.004 441.037,33.004 441.168,33.003 441.299,33.003 441.429,33.002 441.560,33.002 441.691,33.002 441.822,33.001 441.953,33.001 442.084,33.000 442.214,33.000 442.345,33.000 442.476,32.999 442.607,32.999 442.738,32.999 442.869,32.998 442.999,32.998 443.130,32.998 443.261,32.997 443.392,32.997 443.523,32.997 443.654,32.997 443.784,32.996 443.915,32.996 444.046,32.996 444.177,32.995 444.308,32.995 444.439,32.995 444.569,32.995 444.700,32.994 444.831,32.994 444.962,32.994 445.093,32.994 445.224,32.993 445.354,32.993 445.485,32.993 445.616,32.993 445.747,32.993 445.878,32.992 446.009,32.992 446.139,32.992 446.270,32.992 446.401,32.992 446.532,32.991 446.663,32.991 446.794,32.991 446.924,32.991 447.055,32.991 447.186,32.990 447.317,32.990 447.448,32.990 447.579,32.990 447.709,32.990 447.840,32.990 447.971,32.990 448.102,32.989 448.233,32.989 448.364,32.989 448.494,32.989 448.625,32.989 448.756,32.989 448.887,32.989 449.018,32.988 449.149,32.988 449.279,32.988 449.410,32.988 449.541,32.988 449.672,32.988 449.803,32.988 449.934,32.988 450.064,32.988 450.195,32.987 450.326,32.987 450.457,32.987 450.588,32.987 450.719,32.987 450.849,32.987 450.980,32.987 451.111,32.987 451.242,32.987 451.373,32.987 451.504,32.987 451.634,32.986 451.765,32.986 451.896,32.986 452.027,32.986 452.158,32.986 452.289,32.986 452.419,32.986 452.550,32.986 452.681,32.986 452.812,32.986 452.943,32.986 453.074,32.986 453.204,32.986 453.335,32.986 453.466,32.985 453.597,32.985 453.728,32.985 453.859,32.985 453.989,32.985 454.120,32.985 454.251,32.985 454.382,32.985 454.513,32.985 454.644,32.985 454.774,32.985 454.905,32.985 455.036,32.985 455.167,32.985 455.298,32.985 455.429,32.985 455.559,32.985 455.690,32.985 455.821,32.985 455.952,32.985 456.083,32.985 456.214,32.984 456.344,32.984 456.475,32.984 456.606,32.984 456.737,32.984 456.868,32.984 456.999,32.984 457.129,32.984 457.260,32.984 "/>
<g>
</g>
</g>
<g id="ID000033" clip-path="url(#ID000022)" >
      <polyline fill="none" stroke="#000000" stroke-width="2.0pt" stroke-dasharray="8.0,2.0" points="300.417,109.072 300.681,109.058 300.945,109.043 301.209,109.029 301.473,109.013 301.737,108.998 302.001,108.982 302.265,108.965 302.529,108.948 302.794,108.931 303.058,108.913 303.322,108.894 303.586,108.875 303.850,108.856 304.114,108.836 304.378,108.815 304.642,108.794 304.906,108.772 305.170,108.750 305.434,108.727 305.698,108.704 305.962,108.680 306.226,108.655 306.490,108.630 306.754,108.604 307.018,108.577 307.282,108.550 307.546,108.522 307.810,108.493 308.074,108.463 308.338,108.433 308.603,108.402 308.867,108.370 309.131,108.338 309.395,108.304 309.659,108.270 309.923,108.235 310.187,108.199 310.451,108.162 310.715,108.125 310.979,108.086 311.243,108.047 311.507,108.006 311.771,107.965 312.035,107.922 312.299,107.879 312.563,107.835 312.827,107.790 313.091,107.743 313.355,107.696 313.619,107.647 313.883,107.598 314.147,107.547 314.412,107.495 314.676,107.442 314.940,107.388 315.204,107.333 315.468,107.276 315.732,107.219 315.996,107.160 316.260,107.100 316.524,107.038 316.788,106.975 317.052,106.911 317.316,106.846 317.580,106.779 317.844,106.711 318.108,106.641 318.372,106.570 318.636,106.498 318.900,106.424 319.164,106.349 319.428,106.272 319.692,106.194 319.957,106.114 320.221,106.033 320.485,105.950 320.749,105.865 321.013,105.779 321.277,105.692 321.541,105.602 321.805,105.511 322.069,105.418 322.333,105.324 322.597,105.228 322.861,105.130 323.125,105.030 323.389,104.929 323.653,104.826 323.917,104.721 324.181,104.614 324.445,104.505 324.709,104.395 324.973,104.282 325.237,104.168 325.501,104.052 325.766,103.934 326.030,103.813 326.294,103.691 326.558,103.567 "/>
<g>
</g>
</g>
<g id="ID000034" clip-path="url(#ID000022)" >
      <polyline fill="none" stroke="#000000" stroke-width="2.0pt" stroke-dasharray="8.0,2.0" points="457.260,32.984 457.524,32.984 457.788,32.984 458.052,32.984 458.316,32.984 458.581,32.984 458.845,32.984 459.109,32.984 459.373,32.984 459.637,32.984 459.901,32.984 460.165,32.984 460.429,32.984 460.693,32.984 460.957,32.984 461.221,32.984 461.485,32.984 461.749,32.983 462.013,32.983 462.277,32.983 462.541,32.983 462.805,32.983 463.069,32.983 463.333,32.983 463.597,32.983 463.861,32.983 464.125,32.983 464.390,32.983 464.654,32.983 464.918,32.983 465.182,32.983 465.446,32.983 465.710,32.983 465.974,32.983 466.238,32.983 466.502,32.983 466.766,32.983 467.030,32.983 467.294,32.983 467.558,32.983 467.822,32.983 468.086,32.983 468.350,32.983 468.614,32.983 468.878,32.983 469.142,32.983 469.406,32.983 469.670,32.983 469.934,32.983 470.199,32.983 470.463,32.983 470.727,32.983 470.991,32.983 471.255,32.983 471.519,32.983 471.783,32.983 472.047,32.983 472.311,32.983 472.575,32.983 472.839,32.983 473.103,32.983 473.367,32.983 473.631,32.983 473.895,32.983 474.159,32.983 474.423,32.983 474.687,32.983 474.951,32.983 475.215,32.983 475.479,32.983 475.743,32.983 476.008,32.983 476.272,32.983 476.536,32.983 476.800,32.983 477.064,32.983 477.328,32.983 477.592,32.983 477.856,32.983 478.120,32.983 478.384,32.983 478.648,32.983 478.912,32.983 479.176,32.983 479.440,32.983 479.704,32.983 479.968,32.983 480.232,32.983 480.496,32.983 480.760,32.983 481.024,32.983 481.288,32.983 481.552,32.983 481.817,32.983 482.081,32.983 482.345,32.983 482.609,32.983 482.873,32.983 483.137,32.983 483.401,32.983 "/>
<g>
</g>
</g>
<g id="ID000035" clip-path="url(#ID000022)" >
      <polyline fill="none" stroke="#000000" stroke-width="0.5pt" stroke-dasharray="none" points="359.898,147.188 359.898,71.241 "/>
<g>
</g>
</g>
<g id="ID000036" clip-path="url(#ID000022)" >
      <polyline fill="none" stroke="#000000" stroke-width="0.5pt" stroke-dasharray="2.0,2.0" points="300.417,32.983 483.401,32.983 "/>
<g>
</g>
</g>
<g id="ID000037" clip-path="url(#ID000022)" >
      <polyline fill="none" stroke="#000000" stroke-width="0.5pt" stroke-dasharray="2.0,2.0" points="300.417,109.500 483.401,109.500 "/>
<g>
</g>
</g>
<g id="ID000038" >
  <g transform="translate(282.731,85.781)">
    <g transform="rotate(-90.0)">
      <text x="0.000" y="0.000" font-family="Helvetica" text-anchor="middle" font-size="9pt" fill="#000000" >Proportion correct</text>
    </g>
  </g>
</g>
<g id="ID000039" >
  <g transform="translate(391.438,181.875)">
    <g transform="rotate(-0.0)">
      <text x="0.000" y="0.000" font-family="Helvetica" text-anchor="middle" font-size="9pt" fill="#000000" >Disparity difference (arcmin)</text>
    </g>
  </g>
</g>
<g id="ID000040" clip-path="url(#ID000022)" >
      <polyline fill="none" stroke="#000000" stroke-width="0.5pt" stroke-dasharray="8.0,2.0" points="315.666,90.085 468.152,90.085 "/>
<g>
</g>
</g>
<g id="ID000041" >
  <g transform="translate(391.438,13.125)">
    <g transform="rotate(-0.0)">
      <text x="0.000" y="0.000" font-family="Helvetica" text-anchor="middle" font-size="9pt" fill="#000000" >NG</text>
    </g>
  </g>
</g>
    </g>
    <g>
      <polyline fill="none" stroke="#000000" stroke-width="0.5pt" stroke-dasharray="none" points="326.558,147.188 326.558,151.000 "/>
      <polyline fill="none" stroke="#000000" stroke-width="0.5pt" stroke-dasharray="none" points="359.233,147.188 359.233,151.000 "/>
      <polyline fill="none" stroke="#000000" stroke-width="0.5pt" stroke-dasharray="none" points="391.909,147.188 391.909,151.000 "/>
      <polyline fill="none" stroke="#000000" stroke-width="0.5pt" stroke-dasharray="none" points="424.585,147.188 424.585,151.000 "/>
      <polyline fill="none" stroke="#000000" stroke-width="0.5pt" stroke-dasharray="none" points="457.260,147.188 457.260,151.000 "/>
      <polyline fill="none" stroke="#000000" stroke-width="0.5pt" stroke-dasharray="none" points="315.666,147.188 468.152,147.188 "/>
  <g transform="translate(326.558,163.903)">
    <g transform="rotate(-0.0)">
      <text x="0.000" y="0.000" font-family="Helvetica" text-anchor="middle" font-size="9pt" fill="#000000" >0</text>
    </g>
  </g>
  <g transform="translate(359.233,163.903)">
    <g transform="rotate(-0.0)">
      <text x="0.000" y="0.000" font-family="Helvetica" text-anchor="middle" font-size="9pt" fill="#000000" >3</text>
    </g>
  </g>
  <g transform="translate(391.909,163.903)">
    <g transform="rotate(-0.0)">
      <text x="0.000" y="0.000" font-family="Helvetica" text-anchor="middle" font-size="9pt" fill="#000000" >6</text>
    </g>
  </g>
  <g transform="translate(424.585,163.903)">
    <g transform="rotate(-0.0)">
      <text x="0.000" y="0.000" font-family="Helvetica" text-anchor="middle" font-size="9pt" fill="#000000" >9</text>
    </g>
  </g>
  <g transform="translate(457.260,163.903)">
    <g transform="rotate(-0.0)">
      <text x="0.000" y="0.000" font-family="Helvetica" text-anchor="middle" font-size="9pt" fill="#000000" >12</text>
    </g>
  </g>
      <polyline fill="none" stroke="#000000" stroke-width="0.5pt" stroke-dasharray="none" points="315.666,147.188 311.854,147.188 "/>
      <polyline fill="none" stroke="#000000" stroke-width="0.5pt" stroke-dasharray="none" points="315.666,90.085 311.854,90.085 "/>
      <polyline fill="none" stroke="#000000" stroke-width="0.5pt" stroke-dasharray="none" points="315.666,32.983 311.854,32.983 "/>
      <polyline fill="none" stroke="#000000" stroke-width="0.5pt" stroke-dasharray="none" points="315.666,147.188 315.666,21.563 "/>
  <g transform="translate(308.804,151.406)">
    <g transform="rotate(-0.0)">
      <text x="0.000" y="0.000" font-family="Helvetica" text-anchor="end" font-size="9pt" fill="#000000" >0</text>
    </g>
  </g>
  <g transform="translate(308.804,94.304)">
    <g transform="rotate(-0.0)">
      <text x="0.000" y="0.000" font-family="Helvetica" text-anchor="end" font-size="9pt" fill="#000000" >0.5</text>
    </g>
  </g>
  <g transform="translate(308.804,37.202)">
    <g transform="rotate(-0.0)">
      <text x="0.000" y="0.000" font-family="Helvetica" text-anchor="end" font-size="9pt" fill="#000000" >1</text>
    </g>
  </g>
      <polyline fill="none" stroke="#000000" stroke-width="0.5pt" stroke-dasharray="none" points="315.666,147.188 315.666,150.328 "/>
      <polyline fill="none" stroke="#000000" stroke-width="0.5pt" stroke-dasharray="none" points="315.666,147.188 315.666,150.328 "/>
      <polyline fill="none" stroke="#000000" stroke-width="0.5pt" stroke-dasharray="none" points="315.666,147.188 315.666,150.328 "/>
      <polyline fill="none" stroke="#000000" stroke-width="0.5pt" stroke-dasharray="none" points="315.666,147.188 315.666,147.188 "/>
    </g>
  </g>
  <g id ="ID000042">
  <clipPath id="ID000043">
    <rect x="526.264" y="21.563" width="152.486" height="125.625"/>
  </clipPath>
      <polygon fill="#ffffff" fill-opacity="1.00" stroke="none" stroke-width="0.5pt" stroke-opacity="1.00" stroke-dasharray="none" points="526.264,147.188 678.750,147.188 678.750,21.563 526.264,21.563 "/>
      <polygon fill="#ffffff" fill-opacity="1.00" stroke="none" stroke-width="0.5pt" stroke-opacity="1.00" stroke-dasharray="none" points="526.264,21.563 678.750,21.563 678.750,21.563 526.264,21.563 "/>
      <polygon fill="#ffffff" fill-opacity="1.00" stroke="none" stroke-width="0.5pt" stroke-opacity="1.00" stroke-dasharray="none" points="526.264,147.188 526.264,147.188 526.264,21.563 526.264,21.563 "/>
    <g>
<g id="ID000044" clip-path="url(#ID000043)" >
<g>
<circle cx="537.155" cy="85.803" r="4.623" fill="#b2b2b2" stroke="none" stroke-width="0.5pt" />
</g>
</g>
<g id="ID000045" clip-path="url(#ID000043)" >
<g>
<circle cx="553.493" cy="67.244" r="6.537" fill="#b2b2b2" stroke="none" stroke-width="0.5pt" />
</g>
</g>
<g id="ID000046" clip-path="url(#ID000043)" >
<g>
<circle cx="569.831" cy="55.824" r="6.537" fill="#b2b2b2" stroke="none" stroke-width="0.5pt" />
</g>
</g>
<g id="ID000047" clip-path="url(#ID000043)" >
<g>
<circle cx="586.169" cy="46.545" r="6.537" fill="#b2b2b2" stroke="none" stroke-width="0.5pt" />
</g>
</g>
<g id="ID000048" clip-path="url(#ID000043)" >
<g>
<circle cx="602.507" cy="41.548" r="6.537" fill="#b2b2b2" stroke="none" stroke-width="0.5pt" />
</g>
</g>
<g id="ID000049" clip-path="url(#ID000043)" >
<g>
<circle cx="618.845" cy="45.831" r="4.623" fill="#b2b2b2" stroke="none" stroke-width="0.5pt" />
</g>
</g>
<g id="ID000050" clip-path="url(#ID000043)" >
<g>
<circle cx="635.182" cy="47.259" r="4.623" fill="#b2b2b2" stroke="none" stroke-width="0.5pt" />
</g>
</g>
<g id="ID000051" clip-path="url(#ID000043)" >
<g>
<circle cx="651.520" cy="48.686" r="4.623" fill="#b2b2b2" stroke="none" stroke-width="0.5pt" />
</g>
</g>
<g id="ID000052" clip-path="url(#ID000043)" >
<g>
<circle cx="667.858" cy="55.824" r="4.623" fill="#b2b2b2" stroke="none" stroke-width="0.5pt" />
</g>
</g>
<g id="ID000053" clip-path="url(#ID000043)" >
      <polyline fill="none" stroke="#000000" stroke-width="2.0pt" stroke-dasharray="none" points="537.155,84.652 537.286,84.542 537.417,84.432 537.548,84.321 537.679,84.209 537.810,84.097 537.940,83.985 538.071,83.872 538.202,83.758 538.333,83.644 538.464,83.530 538.595,83.415 538.725,83.300 538.856,83.185 538.987,83.069 539.118,82.952 539.249,82.835 539.380,82.718 539.510,82.600 539.641,82.482 539.772,82.363 539.903,82.244 540.034,82.125 540.165,82.005 540.295,81.884 540.426,81.764 540.557,81.643 540.688,81.521 540.819,81.399 540.950,81.277 541.080,81.154 541.211,81.031 541.342,80.908 541.473,80.784 541.604,80.660 541.735,80.536 541.865,80.411 541.996,80.285 542.127,80.160 542.258,80.034 542.389,79.908 542.520,79.781 542.650,79.654 542.781,79.527 542.912,79.399 543.043,79.271 543.174,79.143 543.305,79.015 543.435,78.886 543.566,78.757 543.697,78.627 543.828,78.497 543.959,78.367 544.090,78.237 544.220,78.106 544.351,77.975 544.482,77.844 544.613,77.713 544.744,77.581 544.875,77.449 545.005,77.317 545.136,77.185 545.267,77.052 545.398,76.919 545.529,76.786 545.660,76.653 545.790,76.519 545.921,76.385 546.052,76.251 546.183,76.117 546.314,75.983 546.445,75.848 546.575,75.713 546.706,75.578 546.837,75.443 546.968,75.308 547.099,75.172 547.230,75.037 547.360,74.901 547.491,74.765 547.622,74.629 547.753,74.493 547.884,74.356 548.015,74.220 548.145,74.083 548.276,73.947 548.407,73.810 548.538,73.673 548.669,73.536 548.800,73.399 548.930,73.261 549.061,73.124 549.192,72.987 549.323,72.849 549.454,72.712 549.585,72.574 549.715,72.436 549.846,72.299 549.977,72.161 550.108,72.023 550.239,71.885 550.370,71.747 550.500,71.610 550.631,71.472 550.762,71.334 550.893,71.196 551.024,71.058 551.155,70.920 551.285,70.782 551.416,70.644 551.547,70.507 551.678,70.369 551.809,70.231 551.940,70.093 552.070,69.956 552.201,69.818 552.332,69.681 552.463,69.543 552.594,69.406 552.725,69.268 552.855,69.131 552.986,68.994 553.117,68.857 553.248,68.720 553.379,68.583 553.510,68.446 553.640,68.309 553.771,68.173 553.902,68.037 554.033,67.900 554.164,67.764 554.295,67.628 554.425,67.492 554.556,67.357 554.687,67.221 554.818,67.086 554.949,66.950 555.080,66.815 555.210,66.681 555.341,66.546 555.472,66.411 555.603,66.277 555.734,66.143 555.865,66.009 555.995,65.876 556.126,65.742 556.257,65.609 556.388,65.476 556.519,65.343 556.650,65.211 556.780,65.078 556.911,64.946 557.042,64.815 557.173,64.683 557.304,64.552 557.435,64.421 557.565,64.290 557.696,64.160 557.827,64.030 557.958,63.900 558.089,63.770 558.220,63.641 558.350,63.512 558.481,63.383 558.612,63.255 558.743,63.127 558.874,62.999 559.005,62.872 559.135,62.745 559.266,62.618 559.397,62.492 559.528,62.366 559.659,62.240 559.790,62.115 559.920,61.990 560.051,61.865 560.182,61.741 560.313,61.617 560.444,61.493 560.575,61.370 560.705,61.247 560.836,61.125 560.967,61.003 561.098,60.881 561.229,60.760 561.360,60.639 561.490,60.519 561.621,60.399 561.752,60.279 561.883,60.160 562.014,60.041 562.145,59.923 562.276,59.805 562.406,59.688 562.537,59.571 562.668,59.454 562.799,59.338 562.930,59.222 563.061,59.107 563.191,58.992 563.322,58.877 563.453,58.763 563.584,58.650 563.715,58.537 563.846,58.424 563.976,58.312 564.107,58.200 564.238,58.089 564.369,57.978 564.500,57.868 564.631,57.758 564.761,57.649 564.892,57.540 565.023,57.432 565.154,57.324 565.285,57.216 565.416,57.110 565.546,57.003 565.677,56.897 565.808,56.792 565.939,56.687 566.070,56.583 566.201,56.479 566.331,56.375 566.462,56.272 566.593,56.170 566.724,56.068 566.855,55.967 566.986,55.866 567.116,55.765 567.247,55.666 567.378,55.566 567.509,55.468 567.640,55.369 567.771,55.272 567.901,55.174 568.032,55.078 568.163,54.981 568.294,54.886 568.425,54.791 568.556,54.696 568.686,54.602 568.817,54.509 568.948,54.416 569.079,54.323 569.210,54.231 569.341,54.140 569.471,54.049 569.602,53.959 569.733,53.869 569.864,53.779 569.995,53.691 570.126,53.603 570.256,53.515 570.387,53.428 570.518,53.341 570.649,53.255 570.780,53.170 570.911,53.085 571.041,53.000 571.172,52.916 571.303,52.833 571.434,52.750 571.565,52.668 571.696,52.586 571.826,52.505 571.957,52.424 572.088,52.344 572.219,52.265 572.350,52.186 572.481,52.107 572.611,52.029 572.742,51.952 572.873,51.875 573.004,51.798 573.135,51.723 573.266,51.647 573.396,51.573 573.527,51.498 573.658,51.425 573.789,51.351 573.920,51.279 574.051,51.207 574.181,51.135 574.312,51.064 574.443,50.994 574.574,50.924 574.705,50.854 574.836,50.785 574.966,50.717 575.097,50.649 575.228,50.581 575.359,50.515 575.490,50.448 575.621,50.382 575.751,50.317 575.882,50.252 576.013,50.188 576.144,50.124 576.275,50.061 576.406,49.998 576.536,49.936 576.667,49.874 576.798,49.813 576.929,49.752 577.060,49.692 577.191,49.632 577.321,49.573 577.452,49.514 577.583,49.456 577.714,49.398 577.845,49.341 577.976,49.284 578.106,49.228 578.237,49.172 578.368,49.116 578.499,49.062 578.630,49.007 578.761,48.953 578.891,48.900 579.022,48.847 579.153,48.794 579.284,48.742 579.415,48.691 579.546,48.640 579.676,48.589 579.807,48.539 579.938,48.489 580.069,48.440 580.200,48.391 580.331,48.343 580.461,48.295 580.592,48.247 580.723,48.200 580.854,48.154 580.985,48.108 581.116,48.062 581.246,48.017 581.377,47.972 581.508,47.928 581.639,47.884 581.770,47.840 581.901,47.797 582.031,47.754 582.162,47.712 582.293,47.670 582.424,47.629 582.555,47.588 582.686,47.547 582.816,47.507 582.947,47.467 583.078,47.428 583.209,47.389 583.340,47.350 583.471,47.312 583.601,47.274 583.732,47.237 583.863,47.200 583.994,47.163 584.125,47.127 584.256,47.091 584.386,47.055 584.517,47.020 584.648,46.986 584.779,46.951 584.910,46.917 585.041,46.884 585.171,46.850 585.302,46.817 585.433,46.785 585.564,46.753 585.695,46.721 585.826,46.689 585.956,46.658 586.087,46.627 586.218,46.597 586.349,46.567 586.480,46.537 586.611,46.507 586.741,46.478 586.872,46.449 587.003,46.421 587.134,46.393 587.265,46.365 587.396,46.337 587.526,46.310 587.657,46.283 587.788,46.257 587.919,46.231 588.050,46.205 588.181,46.179 588.311,46.154 588.442,46.129 588.573,46.104 588.704,46.079 588.835,46.055 588.966,46.031 589.096,46.008 589.227,45.984 589.358,45.961 589.489,45.939 589.620,45.916 589.751,45.894 589.881,45.872 590.012,45.850 590.143,45.829 590.274,45.808 590.405,45.787 590.536,45.766 590.666,45.746 590.797,45.726 590.928,45.706 591.059,45.687 591.190,45.667 591.321,45.648 591.451,45.629 591.582,45.611 591.713,45.592 591.844,45.574 591.975,45.556 592.106,45.539 592.236,45.521 592.367,45.504 592.498,45.487 592.629,45.470 592.760,45.454 592.891,45.437 593.021,45.421 593.152,45.405 593.283,45.390 593.414,45.374 593.545,45.359 593.676,45.344 593.806,45.329 593.937,45.315 594.068,45.300 594.199,45.286 594.330,45.272 594.461,45.258 594.591,45.244 594.722,45.231 594.853,45.217 594.984,45.204 595.115,45.191 595.246,45.179 595.376,45.166 595.507,45.154 595.638,45.141 595.769,45.129 595.900,45.117 596.031,45.106 596.161,45.094 596.292,45.083 596.423,45.072 596.554,45.060 596.685,45.050 596.816,45.039 596.946,45.028 597.077,45.018 597.208,45.008 597.339,44.997 597.470,44.987 597.601,44.978 597.731,44.968 597.862,44.958 597.993,44.949 598.124,44.940 598.255,44.930 598.386,44.921 598.516,44.913 598.647,44.904 598.778,44.895 598.909,44.887 599.040,44.878 599.171,44.870 599.301,44.862 599.432,44.854 599.563,44.846 599.694,44.839 599.825,44.831 599.956,44.824 600.086,44.816 600.217,44.809 600.348,44.802 600.479,44.795 600.610,44.788 600.741,44.781 600.871,44.774 601.002,44.768 601.133,44.761 601.264,44.755 601.395,44.748 601.526,44.742 601.656,44.736 601.787,44.730 601.918,44.724 602.049,44.718 602.180,44.713 602.311,44.707 602.441,44.702 602.572,44.696 602.703,44.691 602.834,44.685 602.965,44.680 603.096,44.675 603.226,44.670 603.357,44.665 603.488,44.660 603.619,44.656 603.750,44.651 603.881,44.646 604.011,44.642 604.142,44.637 604.273,44.633 604.404,44.629 604.535,44.624 604.666,44.620 604.796,44.616 604.927,44.612 605.058,44.608 605.189,44.604 605.320,44.600 605.451,44.597 605.581,44.593 605.712,44.589 605.843,44.586 605.974,44.582 606.105,44.579 606.236,44.575 606.366,44.572 606.497,44.569 606.628,44.566 606.759,44.563 606.890,44.559 607.021,44.556 607.151,44.553 607.282,44.550 607.413,44.548 607.544,44.545 607.675,44.542 607.806,44.539 607.936,44.536 608.067,44.534 608.198,44.531 608.329,44.529 608.460,44.526 608.591,44.524 608.721,44.521 608.852,44.519 608.983,44.517 609.114,44.514 609.245,44.512 609.376,44.510 609.506,44.508 609.637,44.506 609.768,44.504 609.899,44.502 610.030,44.500 610.161,44.498 610.291,44.496 610.422,44.494 610.553,44.492 610.684,44.490 610.815,44.488 610.946,44.487 611.076,44.485 611.207,44.483 611.338,44.481 611.469,44.480 611.600,44.478 611.731,44.477 611.861,44.475 611.992,44.474 612.123,44.472 612.254,44.471 612.385,44.469 612.516,44.468 612.646,44.467 612.777,44.465 612.908,44.464 613.039,44.463 613.170,44.461 613.301,44.460 613.431,44.459 613.562,44.458 613.693,44.457 613.824,44.455 613.955,44.454 614.086,44.453 614.216,44.452 614.347,44.451 614.478,44.450 614.609,44.449 614.740,44.448 614.871,44.447 615.001,44.446 615.132,44.445 615.263,44.444 615.394,44.443 615.525,44.443 615.656,44.442 615.786,44.441 615.917,44.440 616.048,44.439 616.179,44.438 616.310,44.438 616.441,44.437 616.571,44.436 616.702,44.435 616.833,44.435 616.964,44.434 617.095,44.433 617.226,44.433 617.356,44.432 617.487,44.431 617.618,44.431 617.749,44.430 617.880,44.429 618.011,44.429 618.141,44.428 618.272,44.428 618.403,44.427 618.534,44.427 618.665,44.426 618.796,44.426 618.926,44.425 619.057,44.425 619.188,44.424 619.319,44.424 619.450,44.423 619.581,44.423 619.711,44.422 619.842,44.422 619.973,44.421 620.104,44.421 620.235,44.421 620.366,44.420 620.496,44.420 620.627,44.419 620.758,44.419 620.889,44.419 621.020,44.418 621.151,44.418 621.281,44.418 621.412,44.417 621.543,44.417 621.674,44.417 621.805,44.416 621.936,44.416 622.066,44.416 622.197,44.415 622.328,44.415 622.459,44.415 622.590,44.415 622.721,44.414 622.851,44.414 622.982,44.414 623.113,44.413 623.244,44.413 623.375,44.413 623.506,44.413 623.636,44.413 623.767,44.412 623.898,44.412 624.029,44.412 624.160,44.412 624.291,44.411 624.421,44.411 624.552,44.411 624.683,44.411 624.814,44.411 624.945,44.411 625.076,44.410 625.206,44.410 625.337,44.410 625.468,44.410 625.599,44.410 625.730,44.410 625.861,44.409 625.991,44.409 626.122,44.409 626.253,44.409 626.384,44.409 626.515,44.409 626.646,44.409 626.776,44.408 626.907,44.408 627.038,44.408 627.169,44.408 627.300,44.408 627.431,44.408 627.561,44.408 627.692,44.408 627.823,44.407 627.954,44.407 628.085,44.407 628.216,44.407 628.346,44.407 628.477,44.407 628.608,44.407 628.739,44.407 628.870,44.407 629.001,44.407 629.131,44.407 629.262,44.406 629.393,44.406 629.524,44.406 629.655,44.406 629.786,44.406 629.916,44.406 630.047,44.406 630.178,44.406 630.309,44.406 630.440,44.406 630.571,44.406 630.701,44.406 630.832,44.406 630.963,44.406 631.094,44.406 631.225,44.405 631.356,44.405 631.486,44.405 631.617,44.405 631.748,44.405 631.879,44.405 632.010,44.405 632.141,44.405 632.271,44.405 632.402,44.405 632.533,44.405 632.664,44.405 632.795,44.405 632.926,44.405 633.056,44.405 633.187,44.405 633.318,44.405 633.449,44.405 633.580,44.405 633.711,44.405 633.841,44.405 633.972,44.405 634.103,44.405 634.234,44.404 634.365,44.404 634.496,44.404 634.626,44.404 634.757,44.404 634.888,44.404 635.019,44.404 635.150,44.404 635.281,44.404 635.411,44.404 635.542,44.404 635.673,44.404 635.804,44.404 635.935,44.404 636.066,44.404 636.196,44.404 636.327,44.404 636.458,44.404 636.589,44.404 636.720,44.404 636.851,44.404 636.981,44.404 637.112,44.404 637.243,44.404 637.374,44.404 637.505,44.404 637.636,44.404 637.766,44.404 637.897,44.404 638.028,44.404 638.159,44.404 638.290,44.404 638.421,44.404 638.551,44.404 638.682,44.404 638.813,44.404 638.944,44.404 639.075,44.404 639.206,44.404 639.336,44.404 639.467,44.404 639.598,44.404 639.729,44.404 639.860,44.404 639.991,44.404 640.121,44.404 640.252,44.404 640.383,44.404 640.514,44.404 640.645,44.404 640.776,44.404 640.906,44.404 641.037,44.404 641.168,44.404 641.299,44.404 641.430,44.404 641.561,44.404 641.691,44.404 641.822,44.404 641.953,44.404 642.084,44.404 642.215,44.404 642.346,44.404 642.476,44.404 642.607,44.404 642.738,44.404 642.869,44.404 643.000,44.404 643.131,44.404 643.261,44.404 643.392,44.404 643.523,44.404 643.654,44.404 643.785,44.404 643.916,44.404 644.046,44.404 644.177,44.404 644.308,44.404 644.439,44.404 644.570,44.404 644.701,44.404 644.831,44.404 644.962,44.404 645.093,44.404 645.224,44.404 645.355,44.403 645.486,44.403 645.616,44.403 645.747,44.403 645.878,44.403 646.009,44.403 646.140,44.403 646.271,44.403 646.401,44.403 646.532,44.403 646.663,44.403 646.794,44.403 646.925,44.403 647.056,44.403 647.186,44.403 647.317,44.403 647.448,44.403 647.579,44.403 647.710,44.403 647.841,44.403 647.971,44.403 648.102,44.403 648.233,44.403 648.364,44.403 648.495,44.403 648.626,44.403 648.756,44.403 648.887,44.403 649.018,44.403 649.149,44.403 649.280,44.403 649.411,44.403 649.541,44.403 649.672,44.403 649.803,44.403 649.934,44.403 650.065,44.403 650.196,44.403 650.326,44.403 650.457,44.403 650.588,44.403 650.719,44.403 650.850,44.403 650.981,44.403 651.111,44.403 651.242,44.403 651.373,44.403 651.504,44.403 651.635,44.403 651.766,44.403 651.896,44.403 652.027,44.403 652.158,44.403 652.289,44.403 652.420,44.403 652.551,44.403 652.681,44.403 652.812,44.403 652.943,44.403 653.074,44.403 653.205,44.403 653.336,44.403 653.466,44.403 653.597,44.403 653.728,44.403 653.859,44.403 653.990,44.403 654.121,44.403 654.251,44.403 654.382,44.403 654.513,44.403 654.644,44.403 654.775,44.403 654.906,44.403 655.036,44.403 655.167,44.403 655.298,44.403 655.429,44.403 655.560,44.403 655.691,44.403 655.821,44.403 655.952,44.403 656.083,44.403 656.214,44.403 656.345,44.403 656.476,44.403 656.606,44.403 656.737,44.403 656.868,44.403 656.999,44.403 657.130,44.403 657.261,44.403 657.391,44.403 657.522,44.403 657.653,44.403 657.784,44.403 657.915,44.403 658.046,44.403 658.176,44.403 658.307,44.403 658.438,44.403 658.569,44.403 658.700,44.403 658.831,44.403 658.961,44.403 659.092,44.403 659.223,44.403 659.354,44.403 659.485,44.403 659.616,44.403 659.746,44.403 659.877,44.403 660.008,44.403 660.139,44.403 660.270,44.403 660.401,44.403 660.531,44.403 660.662,44.403 660.793,44.403 660.924,44.403 661.055,44.403 661.186,44.403 661.316,44.403 661.447,44.403 661.578,44.403 661.709,44.403 661.840,44.403 661.971,44.403 662.101,44.403 662.232,44.403 662.363,44.403 662.494,44.403 662.625,44.403 662.756,44.403 662.886,44.403 663.017,44.403 663.148,44.403 663.279,44.403 663.410,44.403 663.541,44.403 663.671,44.403 663.802,44.403 663.933,44.403 664.064,44.403 664.195,44.403 664.326,44.403 664.456,44.403 664.587,44.403 664.718,44.403 664.849,44.403 664.980,44.403 665.111,44.403 665.241,44.403 665.372,44.403 665.503,44.403 665.634,44.403 665.765,44.403 665.896,44.403 666.026,44.403 666.157,44.403 666.288,44.403 666.419,44.403 666.550,44.403 666.681,44.403 666.811,44.403 666.942,44.403 667.073,44.403 667.204,44.403 667.335,44.403 667.466,44.403 667.596,44.403 667.727,44.403 667.858,44.403 "/>
<g>
</g>
</g>
<g id="ID000054" clip-path="url(#ID000043)" >
      <polyline fill="none" stroke="#000000" stroke-width="2.0pt" stroke-dasharray="8.0,2.0" points="511.015,96.740 511.279,96.698 511.543,96.656 511.807,96.613 512.071,96.568 512.335,96.523 512.599,96.476 512.863,96.428 513.127,96.379 513.391,96.329 513.655,96.277 513.919,96.225 514.183,96.171 514.448,96.115 514.712,96.059 514.976,96.001 515.240,95.942 515.504,95.881 515.768,95.819 516.032,95.756 516.296,95.691 516.560,95.625 516.824,95.557 517.088,95.488 517.352,95.417 517.616,95.345 517.880,95.271 518.144,95.196 518.408,95.119 518.672,95.040 518.936,94.960 519.200,94.878 519.464,94.794 519.728,94.709 519.993,94.622 520.257,94.533 520.521,94.443 520.785,94.351 521.049,94.257 521.313,94.161 521.577,94.063 521.841,93.964 522.105,93.862 522.369,93.759 522.633,93.654 522.897,93.547 523.161,93.438 523.425,93.327 523.689,93.214 523.953,93.099 524.217,92.982 524.481,92.864 524.745,92.743 525.009,92.620 525.273,92.495 525.537,92.368 525.802,92.239 526.066,92.107 526.330,91.974 526.594,91.839 526.858,91.701 527.122,91.561 527.386,91.420 527.650,91.276 527.914,91.130 528.178,90.981 528.442,90.831 528.706,90.678 528.970,90.524 529.234,90.367 529.498,90.208 529.762,90.046 530.026,89.883 530.290,89.717 530.554,89.549 530.818,89.379 531.082,89.207 531.346,89.033 531.611,88.856 531.875,88.677 532.139,88.496 532.403,88.313 532.667,88.127 532.931,87.940 533.195,87.750 533.459,87.558 533.723,87.364 533.987,87.168 534.251,86.970 534.515,86.770 534.779,86.567 535.043,86.363 535.307,86.156 535.571,85.947 535.835,85.736 536.099,85.524 536.363,85.309 536.627,85.092 536.891,84.873 537.155,84.652 "/>
<g>
</g>
</g>
<g id="ID000055" clip-path="url(#ID000043)" >
      <polyline fill="none" stroke="#000000" stroke-width="2.0pt" stroke-dasharray="8.0,2.0" points="667.858,44.403 668.122,44.403 668.386,44.403 668.650,44.403 668.914,44.403 669.178,44.403 669.442,44.403 669.706,44.403 669.970,44.403 670.235,44.403 670.499,44.403 670.763,44.403 671.027,44.403 671.291,44.403 671.555,44.403 671.819,44.403 672.083,44.403 672.347,44.403 672.611,44.403 672.875,44.403 673.139,44.403 673.403,44.403 673.667,44.403 673.931,44.403 674.195,44.403 674.459,44.403 674.723,44.403 674.987,44.403 675.251,44.403 675.515,44.403 675.779,44.403 676.044,44.403 676.308,44.403 676.572,44.403 676.836,44.403 677.100,44.403 677.364,44.403 677.628,44.403 677.892,44.403 678.156,44.403 678.420,44.403 678.684,44.403 678.948,44.403 679.212,44.403 679.476,44.403 679.740,44.403 680.004,44.403 680.268,44.403 680.532,44.403 680.796,44.403 681.060,44.403 681.324,44.403 681.588,44.403 681.853,44.403 682.117,44.403 682.381,44.403 682.645,44.403 682.909,44.403 683.173,44.403 683.437,44.403 683.701,44.403 683.965,44.403 684.229,44.403 684.493,44.403 684.757,44.403 685.021,44.403 685.285,44.403 685.549,44.403 685.813,44.403 686.077,44.403 686.341,44.403 686.605,44.403 686.869,44.403 687.133,44.403 687.397,44.403 687.662,44.403 687.926,44.403 688.190,44.403 688.454,44.403 688.718,44.403 688.982,44.403 689.246,44.403 689.510,44.403 689.774,44.403 690.038,44.403 690.302,44.403 690.566,44.403 690.830,44.403 691.094,44.403 691.358,44.403 691.622,44.403 691.886,44.403 692.150,44.403 692.414,44.403 692.678,44.403 692.942,44.403 693.207,44.403 693.471,44.403 693.735,44.403 693.999,44.403 "/>
<g>
</g>
</g>
<g id="ID000056" clip-path="url(#ID000043)" >
      <polyline fill="none" stroke="#000000" stroke-width="0.5pt" stroke-dasharray="none" points="550.850,147.188 550.850,71.241 "/>
<g>
</g>
</g>
<g id="ID000057" clip-path="url(#ID000043)" >
      <polyline fill="none" stroke="#000000" stroke-width="0.5pt" stroke-dasharray="2.0,2.0" points="511.015,44.403 693.999,44.403 "/>
<g>
</g>
</g>
<g id="ID000058" clip-path="url(#ID000043)" >
      <polyline fill="none" stroke="#000000" stroke-width="0.5pt" stroke-dasharray="2.0,2.0" points="511.015,98.080 693.999,98.080 "/>
<g>
</g>
</g>
<g id="ID000059" >
  <g transform="translate(493.516,85.781)">
    <g transform="rotate(-90.0)">
      <text x="0.000" y="0.000" font-family="Helvetica" text-anchor="middle" font-size="9pt" fill="#000000" >Proportion correct</text>
    </g>
  </g>
</g>
<g id="ID000060" >
  <g transform="translate(601.571,181.875)">
    <g transform="rotate(-0.0)">
      <text x="0.000" y="0.000" font-family="Helvetica" text-anchor="middle" font-size="9pt" fill="#000000" >Disparity difference (arcmin)</text>
    </g>
  </g>
</g>
<g id="ID000061" clip-path="url(#ID000043)" >
      <polyline fill="none" stroke="#000000" stroke-width="0.5pt" stroke-dasharray="8.0,2.0" points="526.264,90.085 678.750,90.085 "/>
<g>
</g>
</g>
<g id="ID000062" >
  <g transform="translate(602.507,13.125)">
    <g transform="rotate(-0.0)">
      <text x="0.000" y="0.000" font-family="Helvetica" text-anchor="middle" font-size="9pt" fill="#000000" >LS</text>
    </g>
  </g>
</g>
    </g>
    <g>
      <polyline fill="none" stroke="#000000" stroke-width="0.5pt" stroke-dasharray="none" points="537.155,147.188 537.155,151.000 "/>
      <polyline fill="none" stroke="#000000" stroke-width="0.5pt" stroke-dasharray="none" points="569.831,147.188 569.831,151.000 "/>
      <polyline fill="none" stroke="#000000" stroke-width="0.5pt" stroke-dasharray="none" points="602.507,147.188 602.507,151.000 "/>
      <polyline fill="none" stroke="#000000" stroke-width="0.5pt" stroke-dasharray="none" points="635.182,147.188 635.182,151.000 "/>
      <polyline fill="none" stroke="#000000" stroke-width="0.5pt" stroke-dasharray="none" points="667.858,147.188 667.858,151.000 "/>
      <polyline fill="none" stroke="#000000" stroke-width="0.5pt" stroke-dasharray="none" points="526.264,147.188 678.750,147.188 "/>
  <g transform="translate(537.155,163.903)">
    <g transform="rotate(-0.0)">
      <text x="0.000" y="0.000" font-family="Helvetica" text-anchor="middle" font-size="9pt" fill="#000000" >0</text>
    </g>
  </g>
  <g transform="translate(569.831,163.903)">
    <g transform="rotate(-0.0)">
      <text x="0.000" y="0.000" font-family="Helvetica" text-anchor="middle" font-size="9pt" fill="#000000" >3</text>
    </g>
  </g>
  <g transform="translate(602.507,163.903)">
    <g transform="rotate(-0.0)">
      <text x="0.000" y="0.000" font-family="Helvetica" text-anchor="middle" font-size="9pt" fill="#000000" >6</text>
    </g>
  </g>
  <g transform="translate(635.182,163.903)">
    <g transform="rotate(-0.0)">
      <text x="0.000" y="0.000" font-family="Helvetica" text-anchor="middle" font-size="9pt" fill="#000000" >9</text>
    </g>
  </g>
  <g transform="translate(667.858,163.903)">
    <g transform="rotate(-0.0)">
      <text x="0.000" y="0.000" font-family="Helvetica" text-anchor="middle" font-size="9pt" fill="#000000" >12</text>
    </g>
  </g>
      <polyline fill="none" stroke="#000000" stroke-width="0.5pt" stroke-dasharray="none" points="526.264,147.188 522.451,147.188 "/>
      <polyline fill="none" stroke="#000000" stroke-width="0.5pt" stroke-dasharray="none" points="526.264,90.085 522.451,90.085 "/>
      <polyline fill="none" stroke="#000000" stroke-width="0.5pt" stroke-dasharray="none" points="526.264,32.983 522.451,32.983 "/>
      <polyline fill="none" stroke="#000000" stroke-width="0.5pt" stroke-dasharray="none" points="526.264,147.188 526.264,21.563 "/>
  <g transform="translate(519.402,151.406)">
    <g transform="rotate(-0.0)">
      <text x="0.000" y="0.000" font-family="Helvetica" text-anchor="end" font-size="9pt" fill="#000000" >0</text>
    </g>
  </g>
  <g transform="translate(519.402,94.304)">
    <g transform="rotate(-0.0)">
      <text x="0.000" y="0.000" font-family="Helvetica" text-anchor="end" font-size="9pt" fill="#000000" >0.5</text>
    </g>
  </g>
  <g transform="translate(519.402,37.202)">
    <g transform="rotate(-0.0)">
      <text x="0.000" y="0.000" font-family="Helvetica" text-anchor="end" font-size="9pt" fill="#000000" >1</text>
    </g>
  </g>
      <polyline fill="none" stroke="#000000" stroke-width="0.5pt" stroke-dasharray="none" points="526.264,147.188 526.264,150.328 "/>
      <polyline fill="none" stroke="#000000" stroke-width="0.5pt" stroke-dasharray="none" points="526.264,147.188 526.264,150.328 "/>
      <polyline fill="none" stroke="#000000" stroke-width="0.5pt" stroke-dasharray="none" points="526.264,147.188 526.264,150.328 "/>
      <polyline fill="none" stroke="#000000" stroke-width="0.5pt" stroke-dasharray="none" points="526.264,147.188 526.264,147.188 "/>
    </g>
  </g>
  </g>
</svg>
