<?xml version="1.0" encoding="utf-8" standalone="no"?><!DOCTYPE svg PUBLIC "-//W3C//DTD SVG 1.1//EN" "http://www.w3.org/Graphics/SVG/1.1/DTD/svg11.dtd">
<svg preserveAspectRatio="xMinYMin meet" width="100%" height="100%" viewBox="0 0 187.500 187.500"  version="1.1" xmlns="http://www.w3.org/2000/svg" xmlns:xlink="http://www.w3.org/1999/xlink">
  <desc>Matlab Figure Converted by PLOT2SVG written by Juerg Schwizer</desc>
  <g id="topgroup">
  <rect x="0" y="0" width="187.500" height="187.500" fill="#ffffff" stroke="none" />
  <g id ="ID000000">
  <clipPath id="ID000001">
    <rect x="48.750" y="21.563" width="120.938" height="126.563"/>
  </clipPath>
      <polygon fill="#ffffff" fill-opacity="1.00" stroke="none" stroke-width="0.5pt" stroke-opacity="1.00" stroke-dasharray="none" points="48.750,148.125 169.688,148.125 169.688,21.563 48.750,21.563 "/>
      <polygon fill="#ffffff" fill-opacity="1.00" stroke="none" stroke-width="0.5pt" stroke-opacity="1.00" stroke-dasharray="none" points="48.750,21.563 169.688,21.563 169.688,21.563 48.750,21.563 "/>
      <polygon fill="#ffffff" fill-opacity="1.00" stroke="none" stroke-width="0.5pt" stroke-opacity="1.00" stroke-dasharray="none" points="48.750,148.125 48.750,148.125 48.750,21.563 48.750,21.563 "/>
    <g>
<g id="ID000002" clip-path="url(#ID000001)" >
<g>
<circle cx="48.750" cy="107.855" r="4.623" fill="#e41a1c" stroke="none" stroke-width="0.5pt" />
</g>
</g>
<g id="ID000003" clip-path="url(#ID000001)" >
<g>
<circle cx="57.820" cy="102.821" r="6.537" fill="#e41a1c" stroke="none" stroke-width="0.5pt" />
</g>
</g>
<g id="ID000004" clip-path="url(#ID000001)" >
<g>
<circle cx="66.891" cy="92.035" r="6.537" fill="#e41a1c" stroke="none" stroke-width="0.5pt" />
</g>
</g>
<g id="ID000005" clip-path="url(#ID000001)" >
<g>
<circle cx="75.961" cy="85.563" r="6.537" fill="#e41a1c" stroke="none" stroke-width="0.5pt" />
</g>
</g>
<g id="ID000006" clip-path="url(#ID000001)" >
<g>
<circle cx="85.031" cy="81.967" r="6.537" fill="#e41a1c" stroke="none" stroke-width="0.5pt" />
</g>
</g>
<g id="ID000007" clip-path="url(#ID000001)" >
<g>
<circle cx="94.102" cy="38.821" r="4.623" fill="#e41a1c" stroke="none" stroke-width="0.5pt" />
</g>
</g>
<g id="ID000008" clip-path="url(#ID000001)" >
<g>
<circle cx="103.172" cy="34.506" r="4.623" fill="#e41a1c" stroke="none" stroke-width="0.5pt" />
</g>
</g>
<g id="ID000009" clip-path="url(#ID000001)" >
<g>
<circle cx="112.242" cy="33.068" r="4.623" fill="#e41a1c" stroke="none" stroke-width="0.5pt" />
</g>
</g>
<g id="ID000010" clip-path="url(#ID000001)" >
<g>
<circle cx="121.313" cy="33.068" r="4.623" fill="#e41a1c" stroke="none" stroke-width="0.5pt" />
</g>
</g>
<g id="ID000011" clip-path="url(#ID000001)" >
      <polyline fill="none" stroke="#000000" stroke-width="2.0pt" stroke-dasharray="none" points="48.750,96.228 48.823,96.228 48.895,96.228 48.968,96.228 49.041,96.228 49.113,96.228 49.186,96.228 49.258,96.228 49.331,96.228 49.404,96.228 49.476,96.228 49.549,96.228 49.622,96.228 49.694,96.228 49.767,96.228 49.840,96.228 49.912,96.228 49.985,96.228 50.057,96.228 50.130,96.228 50.203,96.228 50.275,96.228 50.348,96.228 50.421,96.228 50.493,96.228 50.566,96.228 50.639,96.228 50.711,96.228 50.784,96.228 50.856,96.228 50.929,96.228 51.002,96.228 51.074,96.228 51.147,96.228 51.220,96.228 51.292,96.228 51.365,96.228 51.438,96.228 51.510,96.228 51.583,96.228 51.655,96.228 51.728,96.228 51.801,96.228 51.873,96.228 51.946,96.228 52.019,96.228 52.091,96.228 52.164,96.228 52.236,96.228 52.309,96.228 52.382,96.228 52.454,96.228 52.527,96.228 52.600,96.228 52.672,96.228 52.745,96.228 52.818,96.228 52.890,96.228 52.963,96.228 53.035,96.228 53.108,96.228 53.181,96.228 53.253,96.228 53.326,96.228 53.399,96.228 53.471,96.228 53.544,96.228 53.617,96.228 53.689,96.228 53.762,96.228 53.834,96.228 53.907,96.228 53.980,96.228 54.052,96.228 54.125,96.228 54.198,96.228 54.270,96.228 54.343,96.228 54.416,96.228 54.488,96.228 54.561,96.228 54.633,96.228 54.706,96.228 54.779,96.228 54.851,96.228 54.924,96.228 54.997,96.228 55.069,96.228 55.142,96.228 55.215,96.228 55.287,96.228 55.360,96.228 55.432,96.228 55.505,96.228 55.578,96.228 55.650,96.228 55.723,96.228 55.796,96.228 55.868,96.228 55.941,96.228 56.014,96.228 56.086,96.228 56.159,96.228 56.231,96.228 56.304,96.228 56.377,96.228 56.449,96.228 56.522,96.228 56.595,96.228 56.667,96.228 56.740,96.228 56.813,96.228 56.885,96.228 56.958,96.228 57.030,96.228 57.103,96.228 57.176,96.228 57.248,96.228 57.321,96.228 57.394,96.228 57.466,96.228 57.539,96.228 57.611,96.228 57.684,96.228 57.757,96.228 57.829,96.228 57.902,96.228 57.975,96.228 58.047,96.228 58.120,96.228 58.193,96.228 58.265,96.228 58.338,96.228 58.410,96.228 58.483,96.228 58.556,96.228 58.628,96.228 58.701,96.228 58.774,96.228 58.846,96.228 58.919,96.228 58.992,96.228 59.064,96.228 59.137,96.228 59.209,96.228 59.282,96.228 59.355,96.228 59.427,96.228 59.500,96.228 59.573,96.228 59.645,96.228 59.718,96.228 59.791,96.228 59.863,96.228 59.936,96.228 60.008,96.228 60.081,96.228 60.154,96.228 60.226,96.228 60.299,96.228 60.372,96.228 60.444,96.228 60.517,96.228 60.590,96.228 60.662,96.228 60.735,96.228 60.807,96.228 60.880,96.228 60.953,96.228 61.025,96.228 61.098,96.228 61.171,96.228 61.243,96.228 61.316,96.228 61.389,96.228 61.461,96.228 61.534,96.228 61.606,96.228 61.679,96.228 61.752,96.228 61.824,96.228 61.897,96.228 61.970,96.228 62.042,96.228 62.115,96.228 62.188,96.228 62.260,96.228 62.333,96.228 62.405,96.228 62.478,96.228 62.551,96.228 62.623,96.228 62.696,96.228 62.769,96.228 62.841,96.228 62.914,96.228 62.986,96.228 63.059,96.228 63.132,96.228 63.204,96.228 63.277,96.228 63.350,96.228 63.422,96.228 63.495,96.228 63.568,96.228 63.640,96.228 63.713,96.228 63.785,96.228 63.858,96.228 63.931,96.228 64.003,96.228 64.076,96.228 64.149,96.228 64.221,96.228 64.294,96.228 64.367,96.228 64.439,96.228 64.512,96.228 64.584,96.228 64.657,96.228 64.730,96.228 64.802,96.228 64.875,96.228 64.948,96.228 65.020,96.228 65.093,96.228 65.166,96.228 65.238,96.228 65.311,96.228 65.383,96.228 65.456,96.228 65.529,96.228 65.601,96.228 65.674,96.228 65.747,96.228 65.819,96.228 65.892,96.228 65.965,96.228 66.037,96.228 66.110,96.228 66.182,96.228 66.255,96.228 66.328,96.228 66.400,96.228 66.473,96.228 66.546,96.228 66.618,96.228 66.691,96.228 66.764,96.228 66.836,96.227 66.909,96.227 66.981,96.227 67.054,96.227 67.127,96.227 67.199,96.227 67.272,96.227 67.345,96.227 67.417,96.227 67.490,96.227 67.563,96.227 67.635,96.227 67.708,96.227 67.780,96.226 67.853,96.226 67.926,96.226 67.998,96.226 68.071,96.226 68.144,96.226 68.216,96.226 68.289,96.225 68.361,96.225 68.434,96.225 68.507,96.225 68.579,96.225 68.652,96.225 68.725,96.224 68.797,96.224 68.870,96.224 68.943,96.224 69.015,96.223 69.088,96.223 69.160,96.223 69.233,96.222 69.306,96.222 69.378,96.222 69.451,96.221 69.524,96.221 69.596,96.220 69.669,96.220 69.742,96.219 69.814,96.219 69.887,96.218 69.959,96.218 70.032,96.217 70.105,96.217 70.177,96.216 70.250,96.215 70.323,96.215 70.395,96.214 70.468,96.213 70.541,96.212 70.613,96.211 70.686,96.210 70.758,96.209 70.831,96.208 70.904,96.207 70.976,96.206 71.049,96.205 71.122,96.204 71.194,96.203 71.267,96.201 71.340,96.200 71.412,96.198 71.485,96.197 71.557,96.195 71.630,96.193 71.703,96.192 71.775,96.190 71.848,96.188 71.921,96.186 71.993,96.184 72.066,96.181 72.139,96.179 72.211,96.177 72.284,96.174 72.356,96.171 72.429,96.169 72.502,96.166 72.574,96.163 72.647,96.159 72.720,96.156 72.792,96.153 72.865,96.149 72.938,96.145 73.010,96.141 73.083,96.137 73.155,96.133 73.228,96.128 73.301,96.123 73.373,96.119 73.446,96.113 73.519,96.108 73.591,96.103 73.664,96.097 73.736,96.091 73.809,96.084 73.882,96.078 73.954,96.071 74.027,96.064 74.100,96.057 74.172,96.049 74.245,96.041 74.318,96.033 74.390,96.024 74.463,96.015 74.535,96.006 74.608,95.996 74.681,95.986 74.753,95.976 74.826,95.965 74.899,95.954 74.971,95.942 75.044,95.930 75.117,95.917 75.189,95.904 75.262,95.891 75.334,95.877 75.407,95.862 75.480,95.847 75.552,95.832 75.625,95.816 75.698,95.799 75.770,95.781 75.843,95.763 75.916,95.745 75.988,95.726 76.061,95.706 76.133,95.685 76.206,95.664 76.279,95.642 76.351,95.619 76.424,95.595 76.497,95.571 76.569,95.546 76.642,95.520 76.715,95.493 76.787,95.465 76.860,95.437 76.932,95.407 77.005,95.377 77.078,95.345 77.150,95.313 77.223,95.279 77.296,95.245 77.368,95.209 77.441,95.172 77.514,95.135 77.586,95.096 77.659,95.055 77.731,95.014 77.804,94.971 77.877,94.928 77.949,94.882 78.022,94.836 78.095,94.788 78.167,94.739 78.240,94.688 78.313,94.636 78.385,94.583 78.458,94.528 78.530,94.471 78.603,94.413 78.676,94.354 78.748,94.292 78.821,94.229 78.894,94.165 78.966,94.098 79.039,94.030 79.111,93.960 79.184,93.889 79.257,93.815 79.329,93.740 79.402,93.663 79.475,93.583 79.547,93.502 79.620,93.419 79.693,93.334 79.765,93.247 79.838,93.157 79.910,93.066 79.983,92.972 80.056,92.876 80.128,92.778 80.201,92.678 80.274,92.575 80.346,92.470 80.419,92.363 80.492,92.253 80.564,92.141 80.637,92.027 80.709,91.910 80.782,91.790 80.855,91.668 80.927,91.544 81.000,91.417 81.073,91.287 81.145,91.155 81.218,91.020 81.291,90.882 81.363,90.742 81.436,90.599 81.508,90.453 81.581,90.304 81.654,90.153 81.726,89.998 81.799,89.841 81.872,89.681 81.944,89.518 82.017,89.352 82.090,89.184 82.162,89.012 82.235,88.837 82.307,88.660 82.380,88.479 82.453,88.296 82.525,88.109 82.598,87.919 82.671,87.727 82.743,87.531 82.816,87.332 82.889,87.131 82.961,86.926 83.034,86.718 83.106,86.507 83.179,86.293 83.252,86.076 83.324,85.856 83.397,85.632 83.470,85.406 83.542,85.177 83.615,84.944 83.688,84.709 83.760,84.470 83.833,84.229 83.905,83.984 83.978,83.737 84.051,83.486 84.123,83.233 84.196,82.976 84.269,82.717 84.341,82.454 84.414,82.189 84.486,81.921 84.559,81.650 84.632,81.376 84.704,81.099 84.777,80.820 84.850,80.538 84.922,80.253 84.995,79.965 85.068,79.675 85.140,79.382 85.213,79.086 85.285,78.788 85.358,78.488 85.431,78.185 85.503,77.880 85.576,77.572 85.649,77.262 85.721,76.949 85.794,76.634 85.867,76.317 85.939,75.998 86.012,75.677 86.084,75.354 86.157,75.029 86.230,74.702 86.302,74.373 86.375,74.042 86.448,73.709 86.520,73.375 86.593,73.039 86.666,72.701 86.738,72.362 86.811,72.021 86.883,71.679 86.956,71.336 87.029,70.991 87.101,70.645 87.174,70.298 87.247,69.950 87.319,69.600 87.392,69.250 87.465,68.899 87.537,68.547 87.610,68.195 87.682,67.841 87.755,67.487 87.828,67.133 87.900,66.778 87.973,66.423 88.046,66.067 88.118,65.711 88.191,65.355 88.264,64.999 88.336,64.642 88.409,64.286 88.481,63.930 88.554,63.574 88.627,63.218 88.699,62.863 88.772,62.508 88.845,62.154 88.917,61.800 88.990,61.446 89.063,61.094 89.135,60.742 89.208,60.390 89.280,60.040 89.353,59.691 89.426,59.343 89.498,58.995 89.571,58.649 89.644,58.304 89.716,57.961 89.789,57.619 89.861,57.278 89.934,56.938 90.007,56.601 90.079,56.264 90.152,55.930 90.225,55.597 90.297,55.266 90.370,54.937 90.443,54.609 90.515,54.284 90.588,53.961 90.660,53.639 90.733,53.320 90.806,53.003 90.878,52.688 90.951,52.375 91.024,52.065 91.096,51.757 91.169,51.451 91.242,51.148 91.314,50.847 91.387,50.549 91.459,50.253 91.532,49.960 91.605,49.670 91.677,49.382 91.750,49.096 91.823,48.814 91.895,48.534 91.968,48.257 92.041,47.983 92.113,47.712 92.186,47.444 92.258,47.178 92.331,46.915 92.404,46.656 92.476,46.399 92.549,46.145 92.622,45.894 92.694,45.646 92.767,45.401 92.840,45.160 92.912,44.921 92.985,44.685 93.057,44.452 93.130,44.223 93.203,43.996 93.275,43.773 93.348,43.552 93.421,43.335 93.493,43.120 93.566,42.909 93.639,42.701 93.711,42.496 93.784,42.294 93.856,42.095 93.929,41.899 94.002,41.706 94.074,41.516 94.147,41.329 94.220,41.145 94.292,40.964 94.365,40.787 94.438,40.612 94.510,40.440 94.583,40.271 94.655,40.105 94.728,39.941 94.801,39.781 94.873,39.624 94.946,39.469 95.019,39.317 95.091,39.168 95.164,39.022 95.236,38.879 95.309,38.738 95.382,38.600 95.454,38.465 95.527,38.332 95.600,38.203 95.672,38.075 95.745,37.950 95.818,37.828 95.890,37.708 95.963,37.591 96.035,37.477 96.108,37.364 96.181,37.254 96.253,37.147 96.326,37.042 96.399,36.939 96.471,36.838 96.544,36.740 96.617,36.644 96.689,36.550 96.762,36.459 96.834,36.369 96.907,36.281 96.980,36.196 97.052,36.113 97.125,36.031 97.198,35.952 97.270,35.874 97.343,35.799 97.416,35.725 97.488,35.653 97.561,35.583 97.633,35.515 97.706,35.449 97.779,35.384 97.851,35.321 97.924,35.259 97.997,35.200 98.069,35.141 98.142,35.085 98.215,35.029 98.287,34.976 98.360,34.924 98.432,34.873 98.505,34.824 98.578,34.776 98.650,34.729 98.723,34.684 98.796,34.640 98.868,34.597 98.941,34.555 99.014,34.515 99.086,34.476 99.159,34.438 99.231,34.401 99.304,34.366 99.377,34.331 99.449,34.297 99.522,34.265 99.595,34.233 99.667,34.203 99.740,34.173 99.813,34.144 99.885,34.117 99.958,34.090 100.030,34.064 100.103,34.038 100.176,34.014 100.248,33.990 100.321,33.967 100.394,33.945 100.466,33.924 100.539,33.903 100.611,33.883 100.684,33.864 100.757,33.845 100.829,33.827 100.902,33.810 100.975,33.793 101.047,33.777 101.120,33.761 101.193,33.746 101.265,33.732 101.338,33.718 101.410,33.704 101.483,33.691 101.556,33.678 101.628,33.666 101.701,33.654 101.774,33.643 101.846,33.632 101.919,33.622 101.992,33.612 102.064,33.602 102.137,33.593 102.209,33.584 102.282,33.575 102.355,33.567 102.427,33.559 102.500,33.551 102.573,33.544 102.645,33.537 102.718,33.530 102.791,33.523 102.863,33.517 102.936,33.511 103.008,33.505 103.081,33.500 103.154,33.494 103.226,33.489 103.299,33.484 103.372,33.479 103.444,33.475 103.517,33.471 103.590,33.466 103.662,33.462 103.735,33.459 103.807,33.455 103.880,33.451 103.953,33.448 104.025,33.445 104.098,33.442 104.171,33.439 104.243,33.436 104.316,33.433 104.389,33.431 104.461,33.428 104.534,33.426 104.606,33.424 104.679,33.421 104.752,33.419 104.824,33.417 104.897,33.416 104.970,33.414 105.042,33.412 105.115,33.410 105.188,33.409 105.260,33.407 105.333,33.406 105.405,33.405 105.478,33.403 105.551,33.402 105.623,33.401 105.696,33.400 105.769,33.399 105.841,33.398 105.914,33.397 105.986,33.396 106.059,33.395 106.132,33.394 106.204,33.393 106.277,33.392 106.350,33.392 106.422,33.391 106.495,33.390 106.568,33.390 106.640,33.389 106.713,33.389 106.785,33.388 106.858,33.388 106.931,33.387 107.003,33.387 107.076,33.386 107.149,33.386 107.221,33.385 107.294,33.385 107.367,33.385 107.439,33.384 107.512,33.384 107.584,33.384 107.657,33.384 107.730,33.383 107.802,33.383 107.875,33.383 107.948,33.383 108.020,33.382 108.093,33.382 108.166,33.382 108.238,33.382 108.311,33.382 108.383,33.381 108.456,33.381 108.529,33.381 108.601,33.381 108.674,33.381 108.747,33.381 108.819,33.381 108.892,33.380 108.965,33.380 109.037,33.380 109.110,33.380 109.182,33.380 109.255,33.380 109.328,33.380 109.400,33.380 109.473,33.380 109.546,33.380 109.618,33.380 109.691,33.380 109.764,33.380 109.836,33.380 109.909,33.379 109.981,33.379 110.054,33.379 110.127,33.379 110.199,33.379 110.272,33.379 110.345,33.379 110.417,33.379 110.490,33.379 110.563,33.379 110.635,33.379 110.708,33.379 110.780,33.379 110.853,33.379 110.926,33.379 110.998,33.379 111.071,33.379 111.144,33.379 111.216,33.379 111.289,33.379 111.361,33.379 111.434,33.379 111.507,33.379 111.579,33.379 111.652,33.379 111.725,33.379 111.797,33.379 111.870,33.379 111.943,33.379 112.015,33.379 112.088,33.379 112.160,33.379 112.233,33.379 112.306,33.379 112.378,33.379 112.451,33.379 112.524,33.379 112.596,33.379 112.669,33.379 112.742,33.379 112.814,33.379 112.887,33.379 112.959,33.379 113.032,33.379 113.105,33.379 113.177,33.379 113.250,33.379 113.323,33.379 113.395,33.379 113.468,33.379 113.541,33.379 113.613,33.379 113.686,33.379 113.758,33.379 113.831,33.379 113.904,33.379 113.976,33.379 114.049,33.379 114.122,33.379 114.194,33.379 114.267,33.379 114.340,33.379 114.412,33.379 114.485,33.379 114.557,33.379 114.630,33.379 114.703,33.379 114.775,33.379 114.848,33.379 114.921,33.379 114.993,33.379 115.066,33.379 115.139,33.379 115.211,33.379 115.284,33.379 115.356,33.379 115.429,33.379 115.502,33.379 115.574,33.379 115.647,33.379 115.720,33.379 115.792,33.379 115.865,33.379 115.938,33.379 116.010,33.379 116.083,33.379 116.155,33.379 116.228,33.379 116.301,33.379 116.373,33.379 116.446,33.379 116.519,33.379 116.591,33.379 116.664,33.379 116.736,33.379 116.809,33.379 116.882,33.379 116.954,33.379 117.027,33.379 117.100,33.379 117.172,33.379 117.245,33.379 117.318,33.379 117.390,33.379 117.463,33.379 117.535,33.379 117.608,33.379 117.681,33.379 117.753,33.379 117.826,33.379 117.899,33.379 117.971,33.379 118.044,33.379 118.117,33.379 118.189,33.379 118.262,33.379 118.334,33.379 118.407,33.379 118.480,33.379 118.552,33.379 118.625,33.379 118.698,33.379 118.770,33.379 118.843,33.379 118.916,33.379 118.988,33.379 119.061,33.379 119.133,33.379 119.206,33.379 119.279,33.379 119.351,33.379 119.424,33.379 119.497,33.379 119.569,33.379 119.642,33.379 119.715,33.379 119.787,33.379 119.860,33.379 119.932,33.379 120.005,33.379 120.078,33.379 120.150,33.379 120.223,33.379 120.296,33.379 120.368,33.379 120.441,33.379 120.514,33.379 120.586,33.379 120.659,33.379 120.731,33.379 120.804,33.379 120.877,33.379 120.949,33.379 121.022,33.379 121.095,33.379 121.167,33.379 121.240,33.379 121.313,33.379 "/>
<g>
</g>
</g>
<g id="ID000012" clip-path="url(#ID000001)" >
      <polyline fill="none" stroke="#000000" stroke-width="2.0pt" stroke-dasharray="8.0,2.0" points="34.238,96.228 34.384,96.228 34.531,96.228 34.677,96.228 34.824,96.228 34.970,96.228 35.117,96.228 35.264,96.228 35.410,96.228 35.557,96.228 35.703,96.228 35.850,96.228 35.997,96.228 36.143,96.228 36.290,96.228 36.436,96.228 36.583,96.228 36.730,96.228 36.876,96.228 37.023,96.228 37.169,96.228 37.316,96.228 37.462,96.228 37.609,96.228 37.756,96.228 37.902,96.228 38.049,96.228 38.195,96.228 38.342,96.228 38.489,96.228 38.635,96.228 38.782,96.228 38.928,96.228 39.075,96.228 39.222,96.228 39.368,96.228 39.515,96.228 39.661,96.228 39.808,96.228 39.955,96.228 40.101,96.228 40.248,96.228 40.394,96.228 40.541,96.228 40.688,96.228 40.834,96.228 40.981,96.228 41.127,96.228 41.274,96.228 41.420,96.228 41.567,96.228 41.714,96.228 41.860,96.228 42.007,96.228 42.153,96.228 42.300,96.228 42.447,96.228 42.593,96.228 42.740,96.228 42.886,96.228 43.033,96.228 43.180,96.228 43.326,96.228 43.473,96.228 43.619,96.228 43.766,96.228 43.913,96.228 44.059,96.228 44.206,96.228 44.352,96.228 44.499,96.228 44.645,96.228 44.792,96.228 44.939,96.228 45.085,96.228 45.232,96.228 45.378,96.228 45.525,96.228 45.672,96.228 45.818,96.228 45.965,96.228 46.111,96.228 46.258,96.228 46.405,96.228 46.551,96.228 46.698,96.228 46.844,96.228 46.991,96.228 47.137,96.228 47.284,96.228 47.431,96.228 47.577,96.228 47.724,96.228 47.870,96.228 48.017,96.228 48.164,96.228 48.310,96.228 48.457,96.228 48.603,96.228 48.750,96.228 "/>
<g>
</g>
</g>
<g id="ID000013" clip-path="url(#ID000001)" >
      <polyline fill="none" stroke="#000000" stroke-width="2.0pt" stroke-dasharray="8.0,2.0" points="121.313,33.379 121.459,33.379 121.606,33.379 121.752,33.379 121.899,33.379 122.045,33.379 122.192,33.379 122.339,33.379 122.485,33.379 122.632,33.379 122.778,33.379 122.925,33.379 123.072,33.379 123.218,33.379 123.365,33.379 123.511,33.379 123.658,33.379 123.805,33.379 123.951,33.379 124.098,33.379 124.244,33.379 124.391,33.379 124.537,33.379 124.684,33.379 124.831,33.379 124.977,33.379 125.124,33.379 125.270,33.379 125.417,33.379 125.564,33.379 125.710,33.379 125.857,33.379 126.003,33.379 126.150,33.379 126.297,33.379 126.443,33.379 126.590,33.379 126.736,33.379 126.883,33.379 127.030,33.379 127.176,33.379 127.323,33.379 127.469,33.379 127.616,33.379 127.763,33.379 127.909,33.379 128.056,33.379 128.202,33.379 128.349,33.379 128.495,33.379 128.642,33.379 128.789,33.379 128.935,33.379 129.082,33.379 129.228,33.379 129.375,33.379 129.522,33.379 129.668,33.379 129.815,33.379 129.961,33.379 130.108,33.379 130.255,33.379 130.401,33.379 130.548,33.379 130.694,33.379 130.841,33.379 130.988,33.379 131.134,33.379 131.281,33.379 131.427,33.379 131.574,33.379 131.720,33.379 131.867,33.379 132.014,33.379 132.160,33.379 132.307,33.379 132.453,33.379 132.600,33.379 132.747,33.379 132.893,33.379 133.040,33.379 133.186,33.379 133.333,33.379 133.480,33.379 133.626,33.379 133.773,33.379 133.919,33.379 134.066,33.379 134.213,33.379 134.359,33.379 134.506,33.379 134.652,33.379 134.799,33.379 134.945,33.379 135.092,33.379 135.239,33.379 135.385,33.379 135.532,33.379 135.678,33.379 135.825,33.379 "/>
<g>
</g>
</g>
<g id="ID000014" clip-path="url(#ID000001)" >
      <polyline fill="none" stroke="#000000" stroke-width="0.5pt" stroke-dasharray="none" points="88.303,148.125 88.303,64.804 "/>
<g>
</g>
</g>
<g id="ID000015" clip-path="url(#ID000001)" >
      <polyline fill="none" stroke="#000000" stroke-width="0.5pt" stroke-dasharray="2.0,2.0" points="34.238,33.379 135.825,33.379 "/>
<g>
</g>
</g>
<g id="ID000016" clip-path="url(#ID000001)" >
      <polyline fill="none" stroke="#000000" stroke-width="0.5pt" stroke-dasharray="2.0,2.0" points="34.238,96.228 135.825,96.228 "/>
<g>
</g>
</g>
<g id="ID000017" >
  <g transform="translate(15.938,85.781)">
    <g transform="rotate(-90.0)">
      <text x="0.000" y="0.000" font-family="Helvetica" text-anchor="middle" font-size="9pt" fill="#000000" >Proportion correct</text>
    </g>
  </g>
</g>
<g id="ID000018" >
  <g transform="translate(108.281,182.813)">
    <g transform="rotate(-0.0)">
      <text x="0.000" y="0.000" font-family="Helvetica" text-anchor="middle" font-size="9pt" fill="#000000" >Disparity difference (arcmin)</text>
    </g>
  </g>
</g>
<g id="ID000019" clip-path="url(#ID000001)" >
      <polyline fill="none" stroke="#000000" stroke-width="0.5pt" stroke-dasharray="8.0,2.0" points="36.656,90.597 133.406,90.597 "/>
<g>
</g>
</g>
<g id="ID000020" >
  <g transform="translate(109.219,13.125)">
    <g transform="rotate(-0.0)">
      <text x="0.000" y="0.000" font-family="Helvetica" text-anchor="middle" font-size="9pt" fill="#000000" >NG</text>
    </g>
  </g>
</g>
<g id="ID000021" clip-path="url(#ID000001)" >
<g>
<circle cx="48.750" cy="100.664" r="4.623" fill="#377eb8" stroke="none" stroke-width="0.5pt" />
</g>
</g>
<g id="ID000022" clip-path="url(#ID000001)" >
<g>
<circle cx="66.891" cy="99.226" r="4.623" fill="#377eb8" stroke="none" stroke-width="0.5pt" />
</g>
</g>
<g id="ID000023" clip-path="url(#ID000001)" >
<g>
<circle cx="85.031" cy="86.282" r="4.623" fill="#377eb8" stroke="none" stroke-width="0.5pt" />
</g>
</g>
<g id="ID000024" clip-path="url(#ID000001)" >
<g>
<circle cx="103.172" cy="53.203" r="4.623" fill="#377eb8" stroke="none" stroke-width="0.5pt" />
</g>
</g>
<g id="ID000025" clip-path="url(#ID000001)" >
<g>
<circle cx="121.313" cy="38.821" r="4.623" fill="#377eb8" stroke="none" stroke-width="0.5pt" />
</g>
</g>
<g id="ID000026" clip-path="url(#ID000001)" >
<g>
<circle cx="139.453" cy="35.945" r="4.623" fill="#377eb8" stroke="none" stroke-width="0.5pt" />
</g>
</g>
<g id="ID000027" clip-path="url(#ID000001)" >
<g>
<circle cx="157.594" cy="34.506" r="4.623" fill="#377eb8" stroke="none" stroke-width="0.5pt" />
</g>
</g>
<g id="ID000028" clip-path="url(#ID000001)" >
<g>
<circle cx="175.734" cy="33.068" r="4.623" fill="#377eb8" stroke="none" stroke-width="0.5pt" />
</g>
</g>
<g id="ID000029" clip-path="url(#ID000001)" >
<g>
<circle cx="193.875" cy="34.506" r="4.623" fill="#377eb8" stroke="none" stroke-width="0.5pt" />
</g>
</g>
<g id="ID000030" clip-path="url(#ID000001)" >
<g>
<circle cx="212.016" cy="35.945" r="4.623" fill="#377eb8" stroke="none" stroke-width="0.5pt" />
</g>
</g>
<g id="ID000031" clip-path="url(#ID000001)" >
<g>
<circle cx="230.156" cy="35.945" r="4.623" fill="#377eb8" stroke="none" stroke-width="0.5pt" />
</g>
</g>
<g id="ID000032" clip-path="url(#ID000001)" >
<g>
<circle cx="248.297" cy="34.506" r="4.623" fill="#377eb8" stroke="none" stroke-width="0.5pt" />
</g>
</g>
<g id="ID000033" clip-path="url(#ID000001)" >
<g>
<circle cx="266.438" cy="35.945" r="4.623" fill="#377eb8" stroke="none" stroke-width="0.5pt" />
</g>
</g>
<g id="ID000034" clip-path="url(#ID000001)" >
      <polyline fill="none" stroke="#000000" stroke-width="2.0pt" stroke-dasharray="none" points="48.750,100.524 48.968,100.521 49.186,100.518 49.404,100.514 49.622,100.511 49.840,100.507 50.057,100.503 50.275,100.499 50.493,100.494 50.711,100.490 50.929,100.485 51.147,100.480 51.365,100.475 51.583,100.470 51.801,100.464 52.019,100.458 52.236,100.452 52.454,100.446 52.672,100.439 52.890,100.432 53.108,100.425 53.326,100.418 53.544,100.410 53.762,100.402 53.980,100.393 54.198,100.384 54.416,100.375 54.633,100.366 54.851,100.356 55.069,100.346 55.287,100.335 55.505,100.324 55.723,100.312 55.941,100.300 56.159,100.288 56.377,100.275 56.595,100.262 56.813,100.248 57.030,100.233 57.248,100.218 57.466,100.203 57.684,100.186 57.902,100.170 58.120,100.152 58.338,100.134 58.556,100.116 58.774,100.097 58.992,100.077 59.209,100.056 59.427,100.034 59.645,100.012 59.863,99.989 60.081,99.966 60.299,99.941 60.517,99.916 60.735,99.889 60.953,99.862 61.171,99.834 61.389,99.805 61.606,99.775 61.824,99.744 62.042,99.712 62.260,99.679 62.478,99.645 62.696,99.610 62.914,99.574 63.132,99.536 63.350,99.497 63.568,99.458 63.785,99.417 64.003,99.374 64.221,99.331 64.439,99.286 64.657,99.239 64.875,99.192 65.093,99.142 65.311,99.092 65.529,99.040 65.747,98.986 65.965,98.931 66.182,98.874 66.400,98.816 66.618,98.756 66.836,98.694 67.054,98.631 67.272,98.566 67.490,98.499 67.708,98.430 67.926,98.360 68.144,98.287 68.361,98.213 68.579,98.137 68.797,98.058 69.015,97.978 69.233,97.895 69.451,97.811 69.669,97.724 69.887,97.636 70.105,97.545 70.323,97.451 70.541,97.356 70.758,97.258 70.976,97.158 71.194,97.055 71.412,96.950 71.630,96.843 71.848,96.733 72.066,96.621 72.284,96.506 72.502,96.388 72.720,96.268 72.938,96.145 73.155,96.020 73.373,95.892 73.591,95.761 73.809,95.627 74.027,95.491 74.245,95.351 74.463,95.209 74.681,95.064 74.899,94.916 75.117,94.765 75.334,94.611 75.552,94.454 75.770,94.294 75.988,94.131 76.206,93.965 76.424,93.796 76.642,93.624 76.860,93.449 77.078,93.270 77.296,93.089 77.514,92.904 77.731,92.716 77.949,92.524 78.167,92.330 78.385,92.132 78.603,91.931 78.821,91.727 79.039,91.519 79.257,91.308 79.475,91.094 79.693,90.877 79.910,90.656 80.128,90.432 80.346,90.204 80.564,89.974 80.782,89.740 81.000,89.502 81.218,89.262 81.436,89.018 81.654,88.771 81.872,88.520 82.090,88.266 82.307,88.009 82.525,87.749 82.743,87.485 82.961,87.219 83.179,86.949 83.397,86.675 83.615,86.399 83.833,86.120 84.051,85.837 84.269,85.551 84.486,85.262 84.704,84.970 84.922,84.676 85.140,84.378 85.358,84.077 85.576,83.773 85.794,83.467 86.012,83.157 86.230,82.845 86.448,82.530 86.666,82.212 86.883,81.892 87.101,81.568 87.319,81.243 87.537,80.915 87.755,80.584 87.973,80.251 88.191,79.915 88.409,79.577 88.627,79.237 88.845,78.895 89.063,78.550 89.280,78.204 89.498,77.855 89.716,77.504 89.934,77.152 90.152,76.797 90.370,76.441 90.588,76.083 90.806,75.723 91.024,75.362 91.242,74.999 91.459,74.635 91.677,74.269 91.895,73.902 92.113,73.534 92.331,73.164 92.549,72.794 92.767,72.422 92.985,72.050 93.203,71.677 93.421,71.302 93.639,70.928 93.856,70.552 94.074,70.176 94.292,69.800 94.510,69.423 94.728,69.045 94.946,68.668 95.164,68.290 95.382,67.912 95.600,67.534 95.818,67.157 96.035,66.779 96.253,66.402 96.471,66.025 96.689,65.648 96.907,65.272 97.125,64.896 97.343,64.521 97.561,64.146 97.779,63.773 97.997,63.400 98.215,63.028 98.432,62.657 98.650,62.287 98.868,61.918 99.086,61.551 99.304,61.185 99.522,60.820 99.740,60.457 99.958,60.095 100.176,59.734 100.394,59.376 100.611,59.019 100.829,58.663 101.047,58.310 101.265,57.959 101.483,57.609 101.701,57.262 101.919,56.916 102.137,56.573 102.355,56.232 102.573,55.893 102.791,55.557 103.008,55.223 103.226,54.891 103.444,54.562 103.662,54.235 103.880,53.911 104.098,53.589 104.316,53.271 104.534,52.954 104.752,52.641 104.970,52.330 105.188,52.023 105.405,51.718 105.623,51.416 105.841,51.117 106.059,50.821 106.277,50.528 106.495,50.238 106.713,49.951 106.931,49.667 107.149,49.386 107.367,49.109 107.584,48.834 107.802,48.563 108.020,48.295 108.238,48.030 108.456,47.768 108.674,47.510 108.892,47.255 109.110,47.003 109.328,46.755 109.546,46.509 109.764,46.267 109.981,46.029 110.199,45.793 110.417,45.561 110.635,45.333 110.853,45.107 111.071,44.885 111.289,44.666 111.507,44.451 111.725,44.239 111.943,44.030 112.160,43.824 112.378,43.622 112.596,43.423 112.814,43.227 113.032,43.035 113.250,42.845 113.468,42.659 113.686,42.476 113.904,42.297 114.122,42.120 114.340,41.946 114.557,41.776 114.775,41.609 114.993,41.445 115.211,41.284 115.429,41.126 115.647,40.971 115.865,40.818 116.083,40.669 116.301,40.523 116.519,40.380 116.736,40.239 116.954,40.102 117.172,39.967 117.390,39.835 117.608,39.706 117.826,39.579 118.044,39.455 118.262,39.334 118.480,39.216 118.698,39.100 118.916,38.986 119.133,38.875 119.351,38.767 119.569,38.661 119.787,38.558 120.005,38.456 120.223,38.358 120.441,38.261 120.659,38.167 120.877,38.075 121.095,37.986 121.313,37.898 121.530,37.813 121.748,37.730 121.966,37.648 122.184,37.569 122.402,37.492 122.620,37.417 122.838,37.344 123.056,37.272 123.274,37.203 123.492,37.135 123.709,37.070 123.927,37.006 124.145,36.943 124.363,36.883 124.581,36.824 124.799,36.766 125.017,36.711 125.235,36.656 125.453,36.604 125.671,36.553 125.889,36.503 126.106,36.455 126.324,36.408 126.542,36.362 126.760,36.318 126.978,36.275 127.196,36.234 127.414,36.193 127.632,36.154 127.850,36.116 128.068,36.079 128.285,36.044 128.503,36.009 128.721,35.976 128.939,35.944 129.157,35.912 129.375,35.882 129.593,35.852 129.811,35.824 130.029,35.796 130.247,35.770 130.465,35.744 130.682,35.719 130.900,35.695 131.118,35.672 131.336,35.649 131.554,35.628 131.772,35.607 131.990,35.586 132.208,35.567 132.426,35.548 132.644,35.530 132.861,35.512 133.079,35.495 133.297,35.479 133.515,35.463 133.733,35.448 133.951,35.433 134.169,35.419 134.387,35.405 134.605,35.392 134.823,35.380 135.041,35.367 135.258,35.356 135.476,35.344 135.694,35.334 135.912,35.323 136.130,35.313 136.348,35.304 136.566,35.294 136.784,35.285 137.002,35.277 137.220,35.268 137.438,35.261 137.655,35.253 137.873,35.246 138.091,35.239 138.309,35.232 138.527,35.225 138.745,35.219 138.963,35.213 139.181,35.208 139.399,35.202 139.617,35.197 139.834,35.192 140.052,35.187 140.270,35.182 140.488,35.178 140.706,35.174 140.924,35.170 141.142,35.166 141.360,35.162 141.578,35.159 141.796,35.155 142.014,35.152 142.231,35.149 142.449,35.146 142.667,35.143 142.885,35.140 143.103,35.138 143.321,35.135 143.539,35.133 143.757,35.131 143.975,35.128 144.193,35.126 144.410,35.124 144.628,35.123 144.846,35.121 145.064,35.119 145.282,35.117 145.500,35.116 145.718,35.114 145.936,35.113 146.154,35.112 146.372,35.110 146.590,35.109 146.807,35.108 147.025,35.107 147.243,35.106 147.461,35.105 147.679,35.104 147.897,35.103 148.115,35.102 148.333,35.101 148.551,35.101 148.769,35.100 148.986,35.099 149.204,35.098 149.422,35.098 149.640,35.097 149.858,35.097 150.076,35.096 150.294,35.096 150.512,35.095 150.730,35.095 150.948,35.094 151.166,35.094 151.383,35.093 151.601,35.093 151.819,35.093 152.037,35.092 152.255,35.092 152.473,35.092 152.691,35.091 152.909,35.091 153.127,35.091 153.345,35.091 153.563,35.090 153.780,35.090 153.998,35.090 154.216,35.090 154.434,35.090 154.652,35.090 154.870,35.089 155.088,35.089 155.306,35.089 155.524,35.089 155.742,35.089 155.959,35.089 156.177,35.089 156.395,35.088 156.613,35.088 156.831,35.088 157.049,35.088 157.267,35.088 157.485,35.088 157.703,35.088 157.921,35.088 158.139,35.088 158.356,35.088 158.574,35.088 158.792,35.088 159.010,35.088 159.228,35.087 159.446,35.087 159.664,35.087 159.882,35.087 160.100,35.087 160.318,35.087 160.535,35.087 160.753,35.087 160.971,35.087 161.189,35.087 161.407,35.087 161.625,35.087 161.843,35.087 162.061,35.087 162.279,35.087 162.497,35.087 162.715,35.087 162.932,35.087 163.150,35.087 163.368,35.087 163.586,35.087 163.804,35.087 164.022,35.087 164.240,35.087 164.458,35.087 164.676,35.087 164.894,35.087 165.111,35.087 165.329,35.087 165.547,35.087 165.765,35.087 165.983,35.087 166.201,35.087 166.419,35.087 166.637,35.087 166.855,35.087 167.073,35.087 167.291,35.087 167.508,35.087 167.726,35.087 167.944,35.087 168.162,35.087 168.380,35.087 168.598,35.087 168.816,35.087 169.034,35.087 169.252,35.087 169.470,35.087 169.688,35.087 169.905,35.087 170.123,35.087 170.341,35.087 170.559,35.087 170.777,35.087 170.995,35.087 171.213,35.087 171.431,35.087 171.649,35.087 171.867,35.087 172.084,35.087 172.302,35.087 172.520,35.087 172.738,35.087 172.956,35.087 173.174,35.087 173.392,35.087 173.610,35.087 173.828,35.087 174.046,35.087 174.264,35.087 174.481,35.087 174.699,35.087 174.917,35.087 175.135,35.087 175.353,35.087 175.571,35.087 175.789,35.087 176.007,35.087 176.225,35.087 176.443,35.087 176.660,35.087 176.878,35.087 177.096,35.087 177.314,35.087 177.532,35.087 177.750,35.087 177.968,35.087 178.186,35.087 178.404,35.087 178.622,35.087 178.840,35.087 179.057,35.087 179.275,35.087 179.493,35.087 179.711,35.087 179.929,35.087 180.147,35.087 180.365,35.087 180.583,35.087 180.801,35.087 181.019,35.087 181.236,35.087 181.454,35.087 181.672,35.087 181.890,35.087 182.108,35.087 182.326,35.087 182.544,35.087 182.762,35.087 182.980,35.087 183.198,35.087 183.416,35.087 183.633,35.087 183.851,35.087 184.069,35.087 184.287,35.087 184.505,35.087 184.723,35.087 184.941,35.087 185.159,35.087 185.377,35.087 185.595,35.087 185.813,35.087 186.030,35.087 186.248,35.087 186.466,35.087 186.684,35.087 186.902,35.087 187.120,35.087 187.338,35.087 187.556,35.087 187.774,35.087 187.992,35.087 188.209,35.087 188.427,35.087 188.645,35.087 188.863,35.087 189.081,35.087 189.299,35.087 189.517,35.087 189.735,35.087 189.953,35.087 190.171,35.087 190.389,35.087 190.606,35.087 190.824,35.087 191.042,35.087 191.260,35.087 191.478,35.087 191.696,35.087 191.914,35.087 192.132,35.087 192.350,35.087 192.568,35.087 192.785,35.087 193.003,35.087 193.221,35.087 193.439,35.087 193.657,35.087 193.875,35.087 194.093,35.087 194.311,35.087 194.529,35.087 194.747,35.087 194.965,35.087 195.182,35.087 195.400,35.087 195.618,35.087 195.836,35.087 196.054,35.087 196.272,35.087 196.490,35.087 196.708,35.087 196.926,35.087 197.144,35.087 197.361,35.087 197.579,35.087 197.797,35.087 198.015,35.087 198.233,35.087 198.451,35.087 198.669,35.087 198.887,35.087 199.105,35.087 199.323,35.087 199.541,35.087 199.758,35.087 199.976,35.087 200.194,35.087 200.412,35.087 200.630,35.087 200.848,35.087 201.066,35.087 201.284,35.087 201.502,35.087 201.720,35.087 201.938,35.087 202.155,35.087 202.373,35.087 202.591,35.087 202.809,35.087 203.027,35.087 203.245,35.087 203.463,35.087 203.681,35.087 203.899,35.087 204.117,35.087 204.334,35.087 204.552,35.087 204.770,35.087 204.988,35.087 205.206,35.087 205.424,35.087 205.642,35.087 205.860,35.087 206.078,35.087 206.296,35.087 206.514,35.087 206.731,35.087 206.949,35.087 207.167,35.087 207.385,35.087 207.603,35.087 207.821,35.087 208.039,35.087 208.257,35.087 208.475,35.087 208.693,35.087 208.910,35.087 209.128,35.087 209.346,35.087 209.564,35.087 209.782,35.087 210.000,35.087 210.218,35.087 210.436,35.087 210.654,35.087 210.872,35.087 211.090,35.087 211.307,35.087 211.525,35.087 211.743,35.087 211.961,35.087 212.179,35.087 212.397,35.087 212.615,35.087 212.833,35.087 213.051,35.087 213.269,35.087 213.486,35.087 213.704,35.087 213.922,35.087 214.140,35.087 214.358,35.087 214.576,35.087 214.794,35.087 215.012,35.087 215.230,35.087 215.448,35.087 215.666,35.087 215.883,35.087 216.101,35.087 216.319,35.087 216.537,35.087 216.755,35.087 216.973,35.087 217.191,35.087 217.409,35.087 217.627,35.087 217.845,35.087 218.063,35.087 218.280,35.087 218.498,35.087 218.716,35.087 218.934,35.087 219.152,35.087 219.370,35.087 219.588,35.087 219.806,35.087 220.024,35.087 220.242,35.087 220.459,35.087 220.677,35.087 220.895,35.087 221.113,35.087 221.331,35.087 221.549,35.087 221.767,35.087 221.985,35.087 222.203,35.087 222.421,35.087 222.639,35.087 222.856,35.087 223.074,35.087 223.292,35.087 223.510,35.087 223.728,35.087 223.946,35.087 224.164,35.087 224.382,35.087 224.600,35.087 224.818,35.087 225.035,35.087 225.253,35.087 225.471,35.087 225.689,35.087 225.907,35.087 226.125,35.087 226.343,35.087 226.561,35.087 226.779,35.087 226.997,35.087 227.215,35.087 227.432,35.087 227.650,35.087 227.868,35.087 228.086,35.087 228.304,35.087 228.522,35.087 228.740,35.087 228.958,35.087 229.176,35.087 229.394,35.087 229.611,35.087 229.829,35.087 230.047,35.087 230.265,35.087 230.483,35.087 230.701,35.087 230.919,35.087 231.137,35.087 231.355,35.087 231.573,35.087 231.791,35.087 232.008,35.087 232.226,35.087 232.444,35.087 232.662,35.087 232.880,35.087 233.098,35.087 233.316,35.087 233.534,35.087 233.752,35.087 233.970,35.087 234.188,35.087 234.405,35.087 234.623,35.087 234.841,35.087 235.059,35.087 235.277,35.087 235.495,35.087 235.713,35.087 235.931,35.087 236.149,35.087 236.367,35.087 236.584,35.087 236.802,35.087 237.020,35.087 237.238,35.087 237.456,35.087 237.674,35.087 237.892,35.087 238.110,35.087 238.328,35.087 238.546,35.087 238.764,35.087 238.981,35.087 239.199,35.087 239.417,35.087 239.635,35.087 239.853,35.087 240.071,35.087 240.289,35.087 240.507,35.087 240.725,35.087 240.943,35.087 241.160,35.087 241.378,35.087 241.596,35.087 241.814,35.087 242.032,35.087 242.250,35.087 242.468,35.087 242.686,35.087 242.904,35.087 243.122,35.087 243.340,35.087 243.557,35.087 243.775,35.087 243.993,35.087 244.211,35.087 244.429,35.087 244.647,35.087 244.865,35.087 245.083,35.087 245.301,35.087 245.519,35.087 245.736,35.087 245.954,35.087 246.172,35.087 246.390,35.087 246.608,35.087 246.826,35.087 247.044,35.087 247.262,35.087 247.480,35.087 247.698,35.087 247.916,35.087 248.133,35.087 248.351,35.087 248.569,35.087 248.787,35.087 249.005,35.087 249.223,35.087 249.441,35.087 249.659,35.087 249.877,35.087 250.095,35.087 250.313,35.087 250.530,35.087 250.748,35.087 250.966,35.087 251.184,35.087 251.402,35.087 251.620,35.087 251.838,35.087 252.056,35.087 252.274,35.087 252.492,35.087 252.709,35.087 252.927,35.087 253.145,35.087 253.363,35.087 253.581,35.087 253.799,35.087 254.017,35.087 254.235,35.087 254.453,35.087 254.671,35.087 254.889,35.087 255.106,35.087 255.324,35.087 255.542,35.087 255.760,35.087 255.978,35.087 256.196,35.087 256.414,35.087 256.632,35.087 256.850,35.087 257.068,35.087 257.285,35.087 257.503,35.087 257.721,35.087 257.939,35.087 258.157,35.087 258.375,35.087 258.593,35.087 258.811,35.087 259.029,35.087 259.247,35.087 259.465,35.087 259.682,35.087 259.900,35.087 260.118,35.087 260.336,35.087 260.554,35.087 260.772,35.087 260.990,35.087 261.208,35.087 261.426,35.087 261.644,35.087 261.861,35.087 262.079,35.087 262.297,35.087 262.515,35.087 262.733,35.087 262.951,35.087 263.169,35.087 263.387,35.087 263.605,35.087 263.823,35.087 264.041,35.087 264.258,35.087 264.476,35.087 264.694,35.087 264.912,35.087 265.130,35.087 265.348,35.087 265.566,35.087 265.784,35.087 266.002,35.087 266.220,35.087 266.438,35.087 "/>
<g>
</g>
</g>
<g id="ID000035" clip-path="url(#ID000001)" >
      <polyline fill="none" stroke="#000000" stroke-width="2.0pt" stroke-dasharray="8.0,2.0" points="5.212,100.588 5.652,100.588 6.092,100.588 6.532,100.588 6.972,100.588 7.411,100.588 7.851,100.588 8.291,100.588 8.731,100.588 9.170,100.588 9.610,100.588 10.050,100.588 10.490,100.588 10.930,100.588 11.369,100.588 11.809,100.588 12.249,100.588 12.689,100.588 13.128,100.588 13.568,100.588 14.008,100.588 14.448,100.588 14.887,100.588 15.327,100.588 15.767,100.588 16.207,100.588 16.647,100.588 17.086,100.588 17.526,100.588 17.966,100.588 18.406,100.588 18.845,100.588 19.285,100.588 19.725,100.588 20.165,100.588 20.605,100.588 21.044,100.588 21.484,100.588 21.924,100.588 22.364,100.588 22.803,100.588 23.243,100.588 23.683,100.588 24.123,100.588 24.563,100.588 25.002,100.588 25.442,100.588 25.882,100.588 26.322,100.588 26.761,100.588 27.201,100.588 27.641,100.588 28.081,100.588 28.520,100.588 28.960,100.588 29.400,100.588 29.840,100.588 30.280,100.588 30.719,100.588 31.159,100.588 31.599,100.588 32.039,100.588 32.478,100.587 32.918,100.587 33.358,100.587 33.798,100.587 34.238,100.587 34.677,100.587 35.117,100.586 35.557,100.586 35.997,100.586 36.436,100.585 36.876,100.585 37.316,100.585 37.756,100.584 38.195,100.584 38.635,100.583 39.075,100.582 39.515,100.582 39.955,100.581 40.394,100.580 40.834,100.579 41.274,100.578 41.714,100.576 42.153,100.575 42.593,100.573 43.033,100.572 43.473,100.570 43.913,100.568 44.352,100.565 44.792,100.563 45.232,100.560 45.672,100.557 46.111,100.553 46.551,100.550 46.991,100.545 47.431,100.541 47.870,100.536 48.310,100.530 48.750,100.524 "/>
<g>
</g>
</g>
<g id="ID000036" clip-path="url(#ID000001)" >
      <polyline fill="none" stroke="#000000" stroke-width="2.0pt" stroke-dasharray="8.0,2.0" points="266.438,35.087 266.877,35.087 267.317,35.087 267.757,35.087 268.197,35.087 268.636,35.087 269.076,35.087 269.516,35.087 269.956,35.087 270.395,35.087 270.835,35.087 271.275,35.087 271.715,35.087 272.155,35.087 272.594,35.087 273.034,35.087 273.474,35.087 273.914,35.087 274.353,35.087 274.793,35.087 275.233,35.087 275.673,35.087 276.113,35.087 276.552,35.087 276.992,35.087 277.432,35.087 277.872,35.087 278.311,35.087 278.751,35.087 279.191,35.087 279.631,35.087 280.070,35.087 280.510,35.087 280.950,35.087 281.390,35.087 281.830,35.087 282.269,35.087 282.709,35.087 283.149,35.087 283.589,35.087 284.028,35.087 284.468,35.087 284.908,35.087 285.348,35.087 285.788,35.087 286.227,35.087 286.667,35.087 287.107,35.087 287.547,35.087 287.986,35.087 288.426,35.087 288.866,35.087 289.306,35.087 289.745,35.087 290.185,35.087 290.625,35.087 291.065,35.087 291.505,35.087 291.944,35.087 292.384,35.087 292.824,35.087 293.264,35.087 293.703,35.087 294.143,35.087 294.583,35.087 295.023,35.087 295.463,35.087 295.902,35.087 296.342,35.087 296.782,35.087 297.222,35.087 297.661,35.087 298.101,35.087 298.541,35.087 298.981,35.087 299.420,35.087 299.860,35.087 300.300,35.087 300.740,35.087 301.180,35.087 301.619,35.087 302.059,35.087 302.499,35.087 302.939,35.087 303.378,35.087 303.818,35.087 304.258,35.087 304.698,35.087 305.138,35.087 305.577,35.087 306.017,35.087 306.457,35.087 306.897,35.087 307.336,35.087 307.776,35.087 308.216,35.087 308.656,35.087 309.095,35.087 309.535,35.087 309.975,35.087 "/>
<g>
</g>
</g>
<g id="ID000037" clip-path="url(#ID000001)" >
      <polyline fill="none" stroke="#000000" stroke-width="0.5pt" stroke-dasharray="none" points="95.425,148.125 95.425,67.838 "/>
<g>
</g>
</g>
<g id="ID000038" clip-path="url(#ID000001)" >
      <polyline fill="none" stroke="#000000" stroke-width="0.5pt" stroke-dasharray="2.0,2.0" points="5.212,35.087 309.975,35.087 "/>
<g>
</g>
</g>
<g id="ID000039" clip-path="url(#ID000001)" >
      <polyline fill="none" stroke="#000000" stroke-width="0.5pt" stroke-dasharray="2.0,2.0" points="5.212,100.588 309.975,100.588 "/>
<g>
</g>
</g>
<g id="ID000040" clip-path="url(#ID000001)" >
      <polyline fill="none" stroke="#000000" stroke-width="0.5pt" stroke-dasharray="8.0,2.0" points="36.656,90.597 278.531,90.597 "/>
<g>
</g>
</g>
<g id="ID000041" clip-path="url(#ID000001)" >
<g>
<circle cx="48.750" cy="99.226" r="4.623" fill="#984ea3" stroke="none" stroke-width="0.5pt" />
</g>
</g>
<g id="ID000042" clip-path="url(#ID000001)" >
<g>
<circle cx="78.984" cy="104.979" r="4.623" fill="#984ea3" stroke="none" stroke-width="0.5pt" />
</g>
</g>
<g id="ID000043" clip-path="url(#ID000001)" >
<g>
<circle cx="109.219" cy="57.518" r="4.623" fill="#984ea3" stroke="none" stroke-width="0.5pt" />
</g>
</g>
<g id="ID000044" clip-path="url(#ID000001)" >
<g>
<circle cx="139.453" cy="46.012" r="4.623" fill="#984ea3" stroke="none" stroke-width="0.5pt" />
</g>
</g>
<g id="ID000045" clip-path="url(#ID000001)" >
<g>
<circle cx="169.688" cy="40.259" r="4.623" fill="#984ea3" stroke="none" stroke-width="0.5pt" />
</g>
</g>
<g id="ID000046" clip-path="url(#ID000001)" >
<g>
<circle cx="199.922" cy="34.506" r="4.623" fill="#984ea3" stroke="none" stroke-width="0.5pt" />
</g>
</g>
<g id="ID000047" clip-path="url(#ID000001)" >
<g>
<circle cx="230.156" cy="35.945" r="4.623" fill="#984ea3" stroke="none" stroke-width="0.5pt" />
</g>
</g>
<g id="ID000048" clip-path="url(#ID000001)" >
<g>
<circle cx="260.391" cy="38.821" r="4.623" fill="#984ea3" stroke="none" stroke-width="0.5pt" />
</g>
</g>
<g id="ID000049" clip-path="url(#ID000001)" >
<g>
<circle cx="290.625" cy="37.383" r="4.623" fill="#984ea3" stroke="none" stroke-width="0.5pt" />
</g>
</g>
<g id="ID000050" clip-path="url(#ID000001)" >
<g>
<circle cx="320.859" cy="43.136" r="4.623" fill="#984ea3" stroke="none" stroke-width="0.5pt" />
</g>
</g>
<g id="ID000051" clip-path="url(#ID000001)" >
<g>
<circle cx="351.094" cy="33.068" r="4.623" fill="#984ea3" stroke="none" stroke-width="0.5pt" />
</g>
</g>
<g id="ID000052" clip-path="url(#ID000001)" >
<g>
<circle cx="381.328" cy="33.068" r="4.623" fill="#984ea3" stroke="none" stroke-width="0.5pt" />
</g>
</g>
<g id="ID000053" clip-path="url(#ID000001)" >
<g>
<circle cx="411.563" cy="35.945" r="4.623" fill="#984ea3" stroke="none" stroke-width="0.5pt" />
</g>
</g>
<g id="ID000054" clip-path="url(#ID000001)" >
      <polyline fill="none" stroke="#000000" stroke-width="2.0pt" stroke-dasharray="none" points="48.750,104.965 49.113,104.918 49.476,104.870 49.840,104.820 50.203,104.769 50.566,104.717 50.929,104.663 51.292,104.608 51.655,104.551 52.019,104.493 52.382,104.433 52.745,104.372 53.108,104.309 53.471,104.245 53.834,104.179 54.198,104.111 54.561,104.042 54.924,103.971 55.287,103.898 55.650,103.824 56.014,103.747 56.377,103.669 56.740,103.589 57.103,103.507 57.466,103.423 57.829,103.337 58.193,103.249 58.556,103.159 58.919,103.067 59.282,102.973 59.645,102.877 60.008,102.779 60.372,102.678 60.735,102.576 61.098,102.471 61.461,102.364 61.824,102.255 62.188,102.143 62.551,102.029 62.914,101.913 63.277,101.794 63.640,101.673 64.003,101.549 64.367,101.423 64.730,101.294 65.093,101.163 65.456,101.029 65.819,100.893 66.182,100.754 66.546,100.613 66.909,100.469 67.272,100.322 67.635,100.172 67.998,100.020 68.361,99.865 68.725,99.708 69.088,99.547 69.451,99.384 69.814,99.218 70.177,99.049 70.541,98.877 70.904,98.702 71.267,98.525 71.630,98.344 71.993,98.161 72.356,97.975 72.720,97.785 73.083,97.593 73.446,97.398 73.809,97.200 74.172,96.999 74.535,96.794 74.899,96.587 75.262,96.377 75.625,96.164 75.988,95.948 76.351,95.729 76.715,95.506 77.078,95.281 77.441,95.053 77.804,94.821 78.167,94.587 78.530,94.350 78.894,94.109 79.257,93.866 79.620,93.620 79.983,93.370 80.346,93.118 80.709,92.862 81.073,92.604 81.436,92.343 81.799,92.079 82.162,91.811 82.525,91.541 82.889,91.268 83.252,90.993 83.615,90.714 83.978,90.432 84.341,90.148 84.704,89.861 85.068,89.571 85.431,89.278 85.794,88.983 86.157,88.685 86.520,88.384 86.883,88.081 87.247,87.775 87.610,87.467 87.973,87.156 88.336,86.842 88.699,86.526 89.063,86.208 89.426,85.888 89.789,85.565 90.152,85.239 90.515,84.912 90.878,84.582 91.242,84.250 91.605,83.916 91.968,83.580 92.331,83.242 92.694,82.902 93.057,82.560 93.421,82.216 93.784,81.870 94.147,81.523 94.510,81.174 94.873,80.823 95.236,80.470 95.600,80.116 95.963,79.761 96.326,79.404 96.689,79.046 97.052,78.686 97.416,78.326 97.779,77.964 98.142,77.600 98.505,77.236 98.868,76.871 99.231,76.505 99.595,76.138 99.958,75.770 100.321,75.401 100.684,75.032 101.047,74.662 101.410,74.292 101.774,73.921 102.137,73.549 102.500,73.178 102.863,72.806 103.226,72.433 103.590,72.061 103.953,71.689 104.316,71.316 104.679,70.944 105.042,70.571 105.405,70.199 105.769,69.827 106.132,69.455 106.495,69.084 106.858,68.713 107.221,68.343 107.584,67.973 107.948,67.604 108.311,67.236 108.674,66.868 109.037,66.501 109.400,66.135 109.764,65.770 110.127,65.407 110.490,65.044 110.853,64.682 111.216,64.322 111.579,63.962 111.943,63.604 112.306,63.248 112.669,62.893 113.032,62.539 113.395,62.187 113.758,61.837 114.122,61.488 114.485,61.141 114.848,60.796 115.211,60.453 115.574,60.111 115.938,59.772 116.301,59.434 116.664,59.099 117.027,58.765 117.390,58.434 117.753,58.105 118.117,57.778 118.480,57.453 118.843,57.131 119.206,56.810 119.569,56.493 119.932,56.178 120.296,55.865 120.659,55.555 121.022,55.247 121.385,54.942 121.748,54.639 122.111,54.339 122.475,54.042 122.838,53.747 123.201,53.455 123.564,53.166 123.927,52.880 124.291,52.596 124.654,52.315 125.017,52.037 125.380,51.762 125.743,51.490 126.106,51.221 126.470,50.954 126.833,50.691 127.196,50.430 127.559,50.173 127.922,49.918 128.285,49.667 128.649,49.418 129.012,49.173 129.375,48.930 129.738,48.690 130.101,48.454 130.465,48.220 130.828,47.990 131.191,47.762 131.554,47.538 131.917,47.316 132.280,47.098 132.644,46.883 133.007,46.670 133.370,46.461 133.733,46.254 134.096,46.051 134.459,45.851 134.823,45.653 135.186,45.459 135.549,45.268 135.912,45.079 136.275,44.894 136.639,44.711 137.002,44.531 137.365,44.354 137.728,44.181 138.091,44.009 138.454,43.841 138.818,43.676 139.181,43.513 139.544,43.354 139.907,43.197 140.270,43.042 140.633,42.891 140.997,42.742 141.360,42.596 141.723,42.453 142.086,42.312 142.449,42.174 142.813,42.038 143.176,41.905 143.539,41.775 143.902,41.647 144.265,41.521 144.628,41.398 144.992,41.278 145.355,41.160 145.718,41.044 146.081,40.931 146.444,40.820 146.807,40.711 147.171,40.604 147.534,40.500 147.897,40.398 148.260,40.298 148.623,40.201 148.986,40.105 149.350,40.011 149.713,39.920 150.076,39.831 150.439,39.743 150.802,39.658 151.166,39.575 151.529,39.493 151.892,39.414 152.255,39.336 152.618,39.260 152.981,39.186 153.345,39.113 153.708,39.043 154.071,38.974 154.434,38.907 154.797,38.841 155.160,38.777 155.524,38.715 155.887,38.654 156.250,38.595 156.613,38.537 156.976,38.481 157.340,38.426 157.703,38.372 158.066,38.320 158.429,38.270 158.792,38.221 159.155,38.173 159.519,38.126 159.882,38.081 160.245,38.036 160.608,37.993 160.971,37.952 161.334,37.911 161.698,37.871 162.061,37.833 162.424,37.796 162.787,37.759 163.150,37.724 163.514,37.690 163.877,37.657 164.240,37.625 164.603,37.593 164.966,37.563 165.329,37.533 165.693,37.505 166.056,37.477 166.419,37.450 166.782,37.424 167.145,37.399 167.508,37.374 167.872,37.351 168.235,37.328 168.598,37.305 168.961,37.284 169.324,37.263 169.688,37.243 170.051,37.223 170.414,37.204 170.777,37.186 171.140,37.168 171.503,37.151 171.867,37.134 172.230,37.118 172.593,37.102 172.956,37.087 173.319,37.073 173.682,37.059 174.046,37.045 174.409,37.032 174.772,37.019 175.135,37.007 175.498,36.995 175.861,36.984 176.225,36.973 176.588,36.962 176.951,36.952 177.314,36.942 177.677,36.933 178.041,36.924 178.404,36.915 178.767,36.906 179.130,36.898 179.493,36.890 179.856,36.882 180.220,36.875 180.583,36.868 180.946,36.861 181.309,36.855 181.672,36.848 182.035,36.842 182.399,36.836 182.762,36.831 183.125,36.825 183.488,36.820 183.851,36.815 184.215,36.810 184.578,36.806 184.941,36.801 185.304,36.797 185.667,36.793 186.030,36.789 186.394,36.785 186.757,36.781 187.120,36.778 187.483,36.775 187.846,36.771 188.209,36.768 188.573,36.765 188.936,36.762 189.299,36.760 189.662,36.757 190.025,36.755 190.389,36.752 190.752,36.750 191.115,36.748 191.478,36.746 191.841,36.744 192.204,36.742 192.568,36.740 192.931,36.738 193.294,36.736 193.657,36.735 194.020,36.733 194.383,36.732 194.747,36.730 195.110,36.729 195.473,36.728 195.836,36.726 196.199,36.725 196.563,36.724 196.926,36.723 197.289,36.722 197.652,36.721 198.015,36.720 198.378,36.719 198.742,36.718 199.105,36.717 199.468,36.717 199.831,36.716 200.194,36.715 200.557,36.715 200.921,36.714 201.284,36.713 201.647,36.713 202.010,36.712 202.373,36.712 202.736,36.711 203.100,36.711 203.463,36.710 203.826,36.710 204.189,36.709 204.552,36.709 204.916,36.709 205.279,36.708 205.642,36.708 206.005,36.707 206.368,36.707 206.731,36.707 207.095,36.707 207.458,36.706 207.821,36.706 208.184,36.706 208.547,36.706 208.910,36.705 209.274,36.705 209.637,36.705 210.000,36.705 210.363,36.705 210.726,36.704 211.090,36.704 211.453,36.704 211.816,36.704 212.179,36.704 212.542,36.704 212.905,36.704 213.269,36.704 213.632,36.703 213.995,36.703 214.358,36.703 214.721,36.703 215.084,36.703 215.448,36.703 215.811,36.703 216.174,36.703 216.537,36.703 216.900,36.703 217.264,36.703 217.627,36.703 217.990,36.702 218.353,36.702 218.716,36.702 219.079,36.702 219.443,36.702 219.806,36.702 220.169,36.702 220.532,36.702 220.895,36.702 221.258,36.702 221.622,36.702 221.985,36.702 222.348,36.702 222.711,36.702 223.074,36.702 223.438,36.702 223.801,36.702 224.164,36.702 224.527,36.702 224.890,36.702 225.253,36.702 225.617,36.702 225.980,36.702 226.343,36.702 226.706,36.702 227.069,36.702 227.432,36.702 227.796,36.702 228.159,36.702 228.522,36.702 228.885,36.702 229.248,36.702 229.611,36.702 229.975,36.702 230.338,36.702 230.701,36.702 231.064,36.702 231.427,36.702 231.791,36.702 232.154,36.702 232.517,36.702 232.880,36.702 233.243,36.702 233.606,36.702 233.970,36.702 234.333,36.702 234.696,36.702 235.059,36.702 235.422,36.702 235.785,36.702 236.149,36.702 236.512,36.702 236.875,36.702 237.238,36.702 237.601,36.702 237.965,36.702 238.328,36.702 238.691,36.702 239.054,36.702 239.417,36.702 239.780,36.702 240.144,36.702 240.507,36.702 240.870,36.702 241.233,36.702 241.596,36.702 241.959,36.702 242.323,36.702 242.686,36.702 243.049,36.702 243.412,36.702 243.775,36.702 244.139,36.702 244.502,36.702 244.865,36.702 245.228,36.702 245.591,36.702 245.954,36.702 246.318,36.702 246.681,36.702 247.044,36.702 247.407,36.702 247.770,36.702 248.133,36.702 248.497,36.702 248.860,36.702 249.223,36.702 249.586,36.702 249.949,36.702 250.313,36.702 250.676,36.702 251.039,36.702 251.402,36.702 251.765,36.702 252.128,36.702 252.492,36.702 252.855,36.702 253.218,36.702 253.581,36.702 253.944,36.702 254.307,36.702 254.671,36.702 255.034,36.702 255.397,36.702 255.760,36.702 256.123,36.702 256.486,36.702 256.850,36.702 257.213,36.702 257.576,36.702 257.939,36.702 258.302,36.702 258.666,36.702 259.029,36.702 259.392,36.702 259.755,36.702 260.118,36.702 260.481,36.702 260.845,36.702 261.208,36.702 261.571,36.702 261.934,36.702 262.297,36.702 262.660,36.702 263.024,36.702 263.387,36.702 263.750,36.702 264.113,36.702 264.476,36.702 264.840,36.702 265.203,36.702 265.566,36.702 265.929,36.702 266.292,36.702 266.655,36.702 267.019,36.702 267.382,36.702 267.745,36.702 268.108,36.702 268.471,36.702 268.834,36.702 269.198,36.702 269.561,36.702 269.924,36.702 270.287,36.702 270.650,36.702 271.014,36.702 271.377,36.702 271.740,36.702 272.103,36.702 272.466,36.702 272.829,36.702 273.193,36.702 273.556,36.702 273.919,36.702 274.282,36.702 274.645,36.702 275.008,36.702 275.372,36.702 275.735,36.702 276.098,36.702 276.461,36.702 276.824,36.702 277.188,36.702 277.551,36.702 277.914,36.702 278.277,36.702 278.640,36.702 279.003,36.702 279.367,36.702 279.730,36.702 280.093,36.702 280.456,36.702 280.819,36.702 281.182,36.702 281.546,36.702 281.909,36.702 282.272,36.702 282.635,36.702 282.998,36.702 283.361,36.702 283.725,36.702 284.088,36.702 284.451,36.702 284.814,36.702 285.177,36.702 285.541,36.702 285.904,36.702 286.267,36.702 286.630,36.702 286.993,36.702 287.356,36.702 287.720,36.702 288.083,36.702 288.446,36.702 288.809,36.702 289.172,36.702 289.535,36.702 289.899,36.702 290.262,36.702 290.625,36.702 290.988,36.702 291.351,36.702 291.715,36.702 292.078,36.702 292.441,36.702 292.804,36.702 293.167,36.702 293.530,36.702 293.894,36.702 294.257,36.702 294.620,36.702 294.983,36.702 295.346,36.702 295.709,36.702 296.073,36.702 296.436,36.702 296.799,36.702 297.162,36.702 297.525,36.702 297.889,36.702 298.252,36.702 298.615,36.702 298.978,36.702 299.341,36.702 299.704,36.702 300.068,36.702 300.431,36.702 300.794,36.702 301.157,36.702 301.520,36.702 301.883,36.702 302.247,36.702 302.610,36.702 302.973,36.702 303.336,36.702 303.699,36.702 304.063,36.702 304.426,36.702 304.789,36.702 305.152,36.702 305.515,36.702 305.878,36.702 306.242,36.702 306.605,36.702 306.968,36.702 307.331,36.702 307.694,36.702 308.057,36.702 308.421,36.702 308.784,36.702 309.147,36.702 309.510,36.702 309.873,36.702 310.236,36.702 310.600,36.702 310.963,36.702 311.326,36.702 311.689,36.702 312.052,36.702 312.416,36.702 312.779,36.702 313.142,36.702 313.505,36.702 313.868,36.702 314.231,36.702 314.595,36.702 314.958,36.702 315.321,36.702 315.684,36.702 316.047,36.702 316.410,36.702 316.774,36.702 317.137,36.702 317.500,36.702 317.863,36.702 318.226,36.702 318.590,36.702 318.953,36.702 319.316,36.702 319.679,36.702 320.042,36.702 320.405,36.702 320.769,36.702 321.132,36.702 321.495,36.702 321.858,36.702 322.221,36.702 322.584,36.702 322.948,36.702 323.311,36.702 323.674,36.702 324.037,36.702 324.400,36.702 324.764,36.702 325.127,36.702 325.490,36.702 325.853,36.702 326.216,36.702 326.579,36.702 326.943,36.702 327.306,36.702 327.669,36.702 328.032,36.702 328.395,36.702 328.758,36.702 329.122,36.702 329.485,36.702 329.848,36.702 330.211,36.702 330.574,36.702 330.938,36.702 331.301,36.702 331.664,36.702 332.027,36.702 332.390,36.702 332.753,36.702 333.117,36.702 333.480,36.702 333.843,36.702 334.206,36.702 334.569,36.702 334.932,36.702 335.296,36.702 335.659,36.702 336.022,36.702 336.385,36.702 336.748,36.702 337.111,36.702 337.475,36.702 337.838,36.702 338.201,36.702 338.564,36.702 338.927,36.702 339.291,36.702 339.654,36.702 340.017,36.702 340.380,36.702 340.743,36.702 341.106,36.702 341.470,36.702 341.833,36.702 342.196,36.702 342.559,36.702 342.922,36.702 343.285,36.702 343.649,36.702 344.012,36.702 344.375,36.702 344.738,36.702 345.101,36.702 345.465,36.702 345.828,36.702 346.191,36.702 346.554,36.702 346.917,36.702 347.280,36.702 347.644,36.702 348.007,36.702 348.370,36.702 348.733,36.702 349.096,36.702 349.459,36.702 349.823,36.702 350.186,36.702 350.549,36.702 350.912,36.702 351.275,36.702 351.639,36.702 352.002,36.702 352.365,36.702 352.728,36.702 353.091,36.702 353.454,36.702 353.818,36.702 354.181,36.702 354.544,36.702 354.907,36.702 355.270,36.702 355.633,36.702 355.997,36.702 356.360,36.702 356.723,36.702 357.086,36.702 357.449,36.702 357.813,36.702 358.176,36.702 358.539,36.702 358.902,36.702 359.265,36.702 359.628,36.702 359.992,36.702 360.355,36.702 360.718,36.702 361.081,36.702 361.444,36.702 361.807,36.702 362.171,36.702 362.534,36.702 362.897,36.702 363.260,36.702 363.623,36.702 363.986,36.702 364.350,36.702 364.713,36.702 365.076,36.702 365.439,36.702 365.802,36.702 366.166,36.702 366.529,36.702 366.892,36.702 367.255,36.702 367.618,36.702 367.981,36.702 368.345,36.702 368.708,36.702 369.071,36.702 369.434,36.702 369.797,36.702 370.160,36.702 370.524,36.702 370.887,36.702 371.250,36.702 371.613,36.702 371.976,36.702 372.340,36.702 372.703,36.702 373.066,36.702 373.429,36.702 373.792,36.702 374.155,36.702 374.519,36.702 374.882,36.702 375.245,36.702 375.608,36.702 375.971,36.702 376.334,36.702 376.698,36.702 377.061,36.702 377.424,36.702 377.787,36.702 378.150,36.702 378.514,36.702 378.877,36.702 379.240,36.702 379.603,36.702 379.966,36.702 380.329,36.702 380.693,36.702 381.056,36.702 381.419,36.702 381.782,36.702 382.145,36.702 382.508,36.702 382.872,36.702 383.235,36.702 383.598,36.702 383.961,36.702 384.324,36.702 384.688,36.702 385.051,36.702 385.414,36.702 385.777,36.702 386.140,36.702 386.503,36.702 386.867,36.702 387.230,36.702 387.593,36.702 387.956,36.702 388.319,36.702 388.682,36.702 389.046,36.702 389.409,36.702 389.772,36.702 390.135,36.702 390.498,36.702 390.861,36.702 391.225,36.702 391.588,36.702 391.951,36.702 392.314,36.702 392.677,36.702 393.041,36.702 393.404,36.702 393.767,36.702 394.130,36.702 394.493,36.702 394.856,36.702 395.220,36.702 395.583,36.702 395.946,36.702 396.309,36.702 396.672,36.702 397.035,36.702 397.399,36.702 397.762,36.702 398.125,36.702 398.488,36.702 398.851,36.702 399.215,36.702 399.578,36.702 399.941,36.702 400.304,36.702 400.667,36.702 401.030,36.702 401.394,36.702 401.757,36.702 402.120,36.702 402.483,36.702 402.846,36.702 403.209,36.702 403.573,36.702 403.936,36.702 404.299,36.702 404.662,36.702 405.025,36.702 405.389,36.702 405.752,36.702 406.115,36.702 406.478,36.702 406.841,36.702 407.204,36.702 407.568,36.702 407.931,36.702 408.294,36.702 408.657,36.702 409.020,36.702 409.383,36.702 409.747,36.702 410.110,36.702 410.473,36.702 410.836,36.702 411.199,36.702 411.563,36.702 "/>
<g>
</g>
</g>
<g id="ID000055" clip-path="url(#ID000001)" >
      <polyline fill="none" stroke="#000000" stroke-width="2.0pt" stroke-dasharray="8.0,2.0" points="-23.812,106.402 -23.080,106.402 -22.347,106.402 -21.614,106.402 -20.881,106.402 -20.148,106.402 -19.415,106.402 -18.682,106.402 -17.949,106.402 -17.216,106.401 -16.483,106.401 -15.750,106.401 -15.017,106.401 -14.284,106.401 -13.551,106.401 -12.818,106.401 -12.085,106.401 -11.352,106.401 -10.619,106.401 -9.886,106.401 -9.153,106.401 -8.420,106.401 -7.687,106.400 -6.955,106.400 -6.222,106.400 -5.489,106.400 -4.756,106.400 -4.023,106.399 -3.290,106.399 -2.557,106.399 -1.824,106.399 -1.091,106.398 -0.358,106.398 0.375,106.397 1.108,106.397 1.841,106.396 2.574,106.395 3.307,106.395 4.040,106.394 4.773,106.393 5.506,106.392 6.239,106.391 6.972,106.390 7.705,106.389 8.437,106.387 9.170,106.386 9.903,106.384 10.636,106.382 11.369,106.380 12.102,106.378 12.835,106.375 13.568,106.372 14.301,106.369 15.034,106.366 15.767,106.363 16.500,106.359 17.233,106.355 17.966,106.350 18.699,106.345 19.432,106.339 20.165,106.333 20.898,106.327 21.631,106.320 22.364,106.312 23.097,106.304 23.830,106.295 24.563,106.285 25.295,106.274 26.028,106.263 26.761,106.251 27.494,106.237 28.227,106.223 28.960,106.207 29.693,106.190 30.426,106.172 31.159,106.153 31.892,106.132 32.625,106.109 33.358,106.085 34.091,106.059 34.824,106.032 35.557,106.002 36.290,105.970 37.023,105.936 37.756,105.900 38.489,105.861 39.222,105.819 39.955,105.775 40.688,105.727 41.420,105.677 42.153,105.623 42.886,105.566 43.619,105.506 44.352,105.441 45.085,105.373 45.818,105.300 46.551,105.224 47.284,105.142 48.017,105.056 48.750,104.965 "/>
<g>
</g>
</g>
<g id="ID000056" clip-path="url(#ID000001)" >
      <polyline fill="none" stroke="#000000" stroke-width="2.0pt" stroke-dasharray="8.0,2.0" points="411.563,36.702 412.295,36.702 413.028,36.702 413.761,36.702 414.494,36.702 415.227,36.702 415.960,36.702 416.693,36.702 417.426,36.702 418.159,36.702 418.892,36.702 419.625,36.702 420.358,36.702 421.091,36.702 421.824,36.702 422.557,36.702 423.290,36.702 424.023,36.702 424.756,36.702 425.489,36.702 426.222,36.702 426.955,36.702 427.687,36.702 428.420,36.702 429.153,36.702 429.886,36.702 430.619,36.702 431.352,36.702 432.085,36.702 432.818,36.702 433.551,36.702 434.284,36.702 435.017,36.702 435.750,36.702 436.483,36.702 437.216,36.702 437.949,36.702 438.682,36.702 439.415,36.702 440.148,36.702 440.881,36.702 441.614,36.702 442.347,36.702 443.080,36.702 443.813,36.702 444.545,36.702 445.278,36.702 446.011,36.702 446.744,36.702 447.477,36.702 448.210,36.702 448.943,36.702 449.676,36.702 450.409,36.702 451.142,36.702 451.875,36.702 452.608,36.702 453.341,36.702 454.074,36.702 454.807,36.702 455.540,36.702 456.273,36.702 457.006,36.702 457.739,36.702 458.472,36.702 459.205,36.702 459.938,36.702 460.670,36.702 461.403,36.702 462.136,36.702 462.869,36.702 463.602,36.702 464.335,36.702 465.068,36.702 465.801,36.702 466.534,36.702 467.267,36.702 468.000,36.702 468.733,36.702 469.466,36.702 470.199,36.702 470.932,36.702 471.665,36.702 472.398,36.702 473.131,36.702 473.864,36.702 474.597,36.702 475.330,36.702 476.062,36.702 476.795,36.702 477.528,36.702 478.261,36.702 478.994,36.702 479.727,36.702 480.460,36.702 481.193,36.702 481.926,36.702 482.659,36.702 483.392,36.702 484.125,36.702 "/>
<g>
</g>
</g>
<g id="ID000057" clip-path="url(#ID000001)" >
      <polyline fill="none" stroke="#000000" stroke-width="0.5pt" stroke-dasharray="none" points="104.086,148.125 104.086,71.552 "/>
<g>
</g>
</g>
<g id="ID000058" clip-path="url(#ID000001)" >
      <polyline fill="none" stroke="#000000" stroke-width="0.5pt" stroke-dasharray="2.0,2.0" points="-23.812,36.702 484.125,36.702 "/>
<g>
</g>
</g>
<g id="ID000059" clip-path="url(#ID000001)" >
      <polyline fill="none" stroke="#000000" stroke-width="0.5pt" stroke-dasharray="2.0,2.0" points="-23.812,106.402 484.125,106.402 "/>
<g>
</g>
</g>
<g id="ID000060" clip-path="url(#ID000001)" >
      <polyline fill="none" stroke="#000000" stroke-width="0.5pt" stroke-dasharray="8.0,2.0" points="36.656,90.597 423.656,90.597 "/>
<g>
</g>
</g>
    </g>
    <g>
      <polyline fill="none" stroke="#000000" stroke-width="0.5pt" stroke-dasharray="none" points="48.750,148.125 48.750,151.289 "/>
      <polyline fill="none" stroke="#000000" stroke-width="0.5pt" stroke-dasharray="none" points="109.219,148.125 109.219,151.289 "/>
      <polyline fill="none" stroke="#000000" stroke-width="0.5pt" stroke-dasharray="none" points="169.688,148.125 169.688,151.289 "/>
      <polyline fill="none" stroke="#000000" stroke-width="0.5pt" stroke-dasharray="none" points="48.750,148.125 169.688,148.125 "/>
  <g transform="translate(48.750,164.883)">
    <g transform="rotate(-0.0)">
      <text x="0.000" y="0.000" font-family="Helvetica" text-anchor="middle" font-size="9pt" fill="#000000" >0</text>
    </g>
  </g>
  <g transform="translate(109.219,164.883)">
    <g transform="rotate(-0.0)">
      <text x="0.000" y="0.000" font-family="Helvetica" text-anchor="middle" font-size="9pt" fill="#000000" >5</text>
    </g>
  </g>
  <g transform="translate(169.688,164.883)">
    <g transform="rotate(-0.0)">
      <text x="0.000" y="0.000" font-family="Helvetica" text-anchor="middle" font-size="9pt" fill="#000000" >10</text>
    </g>
  </g>
      <polyline fill="none" stroke="#000000" stroke-width="0.5pt" stroke-dasharray="none" points="48.750,148.125 45.586,148.125 "/>
      <polyline fill="none" stroke="#000000" stroke-width="0.5pt" stroke-dasharray="none" points="48.750,90.597 45.586,90.597 "/>
      <polyline fill="none" stroke="#000000" stroke-width="0.5pt" stroke-dasharray="none" points="48.750,33.068 45.586,33.068 "/>
      <polyline fill="none" stroke="#000000" stroke-width="0.5pt" stroke-dasharray="none" points="48.750,148.125 48.750,21.563 "/>
  <g transform="translate(43.308,152.344)">
    <g transform="rotate(-0.0)">
      <text x="0.000" y="0.000" font-family="Helvetica" text-anchor="end" font-size="9pt" fill="#000000" >0</text>
    </g>
  </g>
  <g transform="translate(43.308,94.815)">
    <g transform="rotate(-0.0)">
      <text x="0.000" y="0.000" font-family="Helvetica" text-anchor="end" font-size="9pt" fill="#000000" >0.5</text>
    </g>
  </g>
  <g transform="translate(43.308,37.287)">
    <g transform="rotate(-0.0)">
      <text x="0.000" y="0.000" font-family="Helvetica" text-anchor="end" font-size="9pt" fill="#000000" >1</text>
    </g>
  </g>
      <polyline fill="none" stroke="#000000" stroke-width="0.5pt" stroke-dasharray="none" points="48.750,148.125 48.750,151.289 "/>
      <polyline fill="none" stroke="#000000" stroke-width="0.5pt" stroke-dasharray="none" points="48.750,148.125 48.750,151.289 "/>
      <polyline fill="none" stroke="#000000" stroke-width="0.5pt" stroke-dasharray="none" points="48.750,148.125 48.750,151.289 "/>
      <polyline fill="none" stroke="#000000" stroke-width="0.5pt" stroke-dasharray="none" points="48.750,148.125 48.750,148.125 "/>
    </g>
  </g>
  </g>
</svg>
